<?xml version="1.0" encoding="UTF-8" standalone="no"?>
<!-- Created with Inkscape (http://www.inkscape.org/) -->

<svg
   xmlns:dc="http://purl.org/dc/elements/1.1/"
   xmlns:cc="http://creativecommons.org/ns#"
   xmlns:rdf="http://www.w3.org/1999/02/22-rdf-syntax-ns#"
   xmlns:svg="http://www.w3.org/2000/svg"
   xmlns="http://www.w3.org/2000/svg"
   xmlns:sodipodi="http://sodipodi.sourceforge.net/DTD/sodipodi-0.dtd"
   xmlns:inkscape="http://www.inkscape.org/namespaces/inkscape"
   width="203.57301mm"
   height="186.81133mm"
   viewBox="0 0 203.57301 186.81133"
   version="1.1"
   id="svg8"
   inkscape:version="0.92.2 5c3e80d, 2017-08-06"
   sodipodi:docname="Monotone.svg">
  <sodipodi:namedview
     id="base"
     pagecolor="#ffffff"
     bordercolor="#666666"
     borderopacity="1.0"
     inkscape:pageopacity="0.0"
     inkscape:pageshadow="2"
     inkscape:zoom="0.35"
     inkscape:cx="-83.261149"
     inkscape:cy="426.36915"
     inkscape:document-units="mm"
     inkscape:current-layer="svg8"
     showgrid="false"
     inkscape:window-width="1440"
     inkscape:window-height="789"
     inkscape:window-x="0"
     inkscape:window-y="1"
     inkscape:window-maximized="1" />
  <defs
     id="defs2">
    <marker
       inkscape:stockid="ArrowAxisStart"
       style="overflow:visible"
       refY="0"
       refX="0"
       orient="auto"
       id="ArrowAxisStart">
      <path
         id="path2084"
         transform="matrix(0.4,0,0,0.4,3.5272,0)"
         style="fill:#000000;fill-rule:evenodd;stroke:#000000;stroke-width:1"
         d="M 0,0 5,-5 -12.5,0 5,5 Z"
         inkscape:connector-curvature="0" />
    </marker>
    <marker
       inkscape:stockid="ArrowAxisEnd"
       style="overflow:visible"
       refY="0"
       refX="0"
       orient="auto"
       id="ArrowAxisEnd">
      <path
         id="path2087"
         transform="matrix(-0.4,0,0,-0.4,-3.5272,0)"
         style="fill:#000000;fill-rule:evenodd;stroke:#000000;stroke-width:1"
         d="M 0,0 5,-5 -12.5,0 5,5 Z"
         inkscape:connector-curvature="0" />
    </marker>
  </defs>
  <metadata
     id="metadata5">
    <rdf:RDF>
      <cc:Work
         rdf:about="">
        <dc:format>image/svg+xml</dc:format>
        <dc:type
           rdf:resource="http://purl.org/dc/dcmitype/StillImage" />
        <dc:title />
      </cc:Work>
    </rdf:RDF>
  </metadata>
  <g
     inkscape:label="Layer 1"
     inkscape:groupmode="layer"
     id="layer1"
     transform="translate(-26.565226,-14.355984)" />
  <path
     style="fill:none;stroke:#000000;stroke-width:0.26458332px;stroke-linecap:butt;stroke-linejoin:miter;stroke-opacity:1"
     d="M 58.328224,110.58926 V 78.083294 h 32.88393 V 69.38984 h 8.31547 v -2.078869 h 2.645836"
     id="path2136"
     inkscape:connector-curvature="0" />
  <g
     id="g2113"
     inkscape:label="PlotData"
     transform="translate(-26.565226,-14.355984)">
    <g
       id="g2109"
       transform="translate(30,180)"
       inkscape:label="Plot">
      <g
         id="g2093"
         inkscape:label="Ticks" />
      <g
         id="g2107"
         inkscape:label="Axis">
        <path
           id="path2095"
           inkscape:label="Xaxis"
           style="fill:none;stroke:#4c4c4c;stroke-width:1.42857146;stroke-linecap:round;stroke-linejoin:round;stroke-dasharray:none;marker-end:url(#ArrowAxisEnd)"
           d="M 0,0 H 175"
           inkscape:connector-curvature="0" />
        <text
           id="text2099"
           transform="translate(170.83333,18.75)"
           xml:space="preserve"
           y="0"
           x="0"
           style="font-style:normal;font-weight:normal;font-size:16.44736862px;line-height:100%;font-family:Sans;text-align:start;letter-spacing:0px;word-spacing:0px;text-anchor:start;fill:#000000;fill-opacity:1;stroke:none"><tspan
             id="tspan2097"
             sodipodi:role="line"
             y="0"
             x="0">$x$</tspan></text>
        <path
           id="path2101"
           inkscape:label="Yaxis"
           style="fill:none;stroke:#4c4c4c;stroke-width:1.42857146;stroke-linecap:round;stroke-linejoin:round;stroke-dasharray:none;marker-end:url(#ArrowAxisEnd)"
           d="M 0,0 V -162.5"
           inkscape:connector-curvature="0" />
        <text
           id="text2105"
           transform="translate(6.25,-150)"
           xml:space="preserve"
           y="0"
           x="0"
           style="font-style:normal;font-weight:normal;font-size:16.44736862px;line-height:100%;font-family:Sans;text-align:start;letter-spacing:0px;word-spacing:0px;text-anchor:start;fill:#000000;fill-opacity:1;stroke:none"><tspan
             id="tspan2103"
             sodipodi:role="line"
             y="0"
             x="0">$y(x)$</tspan></text>
      </g>
    </g>
    <path
       id="path2111"
       inkscape:label="none"
       style="fill:none;stroke:#0000ff;stroke-width:1.66666663;stroke-linecap:round;stroke-linejoin:round;stroke-dasharray:none"
       d="m 30,109.28932 0.15015,-0.0531 0.15015,-0.053 0.15015,-0.053 0.150151,-0.0529 0.15015,-0.0529 0.15015,-0.0529 0.15015,-0.0528 0.15015,-0.0528 0.15015,-0.0528 0.150151,-0.0527 0.15015,-0.0527 0.15015,-0.0526 0.15015,-0.0526 0.15015,-0.0526 0.15015,-0.0525 0.15015,-0.0525 0.150151,-0.0525 0.15015,-0.0524 0.15015,-0.0524 0.15015,-0.0523 0.15015,-0.0523 0.15015,-0.0523 0.15015,-0.0522 0.150151,-0.0522 0.15015,-0.0521 0.15015,-0.0521 0.15015,-0.0521 0.15015,-0.052 0.15015,-0.052 0.150151,-0.0519 0.15015,-0.0519 0.15015,-0.0519 0.15015,-0.0518 0.15015,-0.0518 0.15015,-0.0518 0.15015,-0.0517 0.150151,-0.0517 0.15015,-0.0516 0.15015,-0.0516 0.15015,-0.0516 0.15015,-0.0515 0.15015,-0.0515 0.15015,-0.0515 0.150151,-0.0514 0.15015,-0.0514 0.15015,-0.0514 0.15015,-0.0513 0.15015,-0.0513 0.15015,-0.0513 0.150151,-0.0512 0.15015,-0.0512 0.15015,-0.0512 0.15015,-0.0511 0.15015,-0.0511 0.15015,-0.051 0.15015,-0.051 0.150151,-0.051 0.15015,-0.0509 0.15015,-0.0509 0.15015,-0.0509 0.15015,-0.0508 0.15015,-0.0508 0.15015,-0.0507 0.150151,-0.0507 0.15015,-0.0507 0.15015,-0.0506 0.15015,-0.0506 0.15015,-0.0506 0.15015,-0.0506 0.150151,-0.0505 0.15015,-0.0505 0.15015,-0.0504 0.15015,-0.0504 0.15015,-0.0504 0.15015,-0.0503 0.15015,-0.0503 0.150151,-0.0503 0.15015,-0.0502 0.15015,-0.0502 0.15015,-0.0502 0.15015,-0.0501 0.15015,-0.0501 0.15015,-0.0501 0.150151,-0.05 0.15015,-0.05 0.15015,-0.05 0.15015,-0.0499 0.15015,-0.0499 0.15015,-0.0499 0.150151,-0.0498 0.15015,-0.0498 0.15015,-0.0498 0.15015,-0.0497 0.15015,-0.0497 0.15015,-0.0497 0.15015,-0.0496 0.150151,-0.0496 0.15015,-0.0496 0.15015,-0.0495 0.15015,-0.0495 0.15015,-0.0495 0.15015,-0.0495 0.15015,-0.0494 0.150151,-0.0494 0.15015,-0.0493 0.15015,-0.0493 0.15015,-0.0493 0.15015,-0.0493 0.15015,-0.0492 0.150151,-0.0492 0.15015,-0.0492 0.15015,-0.0491 0.15015,-0.0491 0.15015,-0.0491 0.15015,-0.049 0.15015,-0.049 0.150151,-0.049 0.15015,-0.049 0.15015,-0.0489 0.15015,-0.0489 0.15015,-0.0489 0.15015,-0.0488 0.15015,-0.0488 0.150151,-0.0488 0.15015,-0.0487 0.15015,-0.0487 0.15015,-0.0487 0.15015,-0.0486 0.15015,-0.0486 0.150151,-0.0486 0.15015,-0.0485 0.15015,-0.0485 0.15015,-0.0485 0.15015,-0.0485 0.15015,-0.0484 0.15015,-0.0484 0.150151,-0.0484 0.15015,-0.0483 0.15015,-0.0483 0.15015,-0.0483 0.15015,-0.0482 0.15015,-0.0482 0.15015,-0.0482 0.150151,-0.0482 0.15015,-0.0481 0.15015,-0.0481 0.15015,-0.0481 0.15015,-0.048 0.15015,-0.048 0.150151,-0.048 0.15015,-0.048 0.15015,-0.0479 0.15015,-0.0479 0.15015,-0.0479 0.15015,-0.0478 0.15015,-0.0478 0.150151,-0.0478 0.15015,-0.0477 0.15015,-0.0477 0.15015,-0.0477 0.15015,-0.0477 0.15015,-0.0476 0.15015,-0.0476 0.150151,-0.0476 0.15015,-0.0475 0.15015,-0.0475 0.15015,-0.0475 0.15015,-0.0474 0.15015,-0.0474 0.150151,-0.0474 0.15015,-0.0474 0.15015,-0.0473 0.15015,-0.0473 0.15015,-0.0473 0.15015,-0.0472 0.15015,-0.0472 0.150151,-0.0472 0.15015,-0.0472 0.15015,-0.0471 0.15015,-0.0471 0.15015,-0.0471 0.15015,-0.0471 0.15015,-0.047 0.150151,-0.047 0.15015,-0.047 0.15015,-0.0469 0.15015,-0.04693 0.15015,-0.04689 0.15015,-0.04687 0.150151,-0.04684 0.15015,-0.04681 0.15015,-0.04678 0.15015,-0.04676 0.15015,-0.04673 0.15015,-0.0467 0.15015,-0.04667 0.150151,-0.04665 0.15015,-0.04662 0.15015,-0.04659 0.15015,-0.04657 0.15015,-0.04654 0.15015,-0.04651 0.15015,-0.04649 0.150151,-0.04646 0.15015,-0.04643 0.15015,-0.04641 0.15015,-0.04638 0.15015,-0.04635 0.15015,-0.04633 0.150151,-0.0463 0.15015,-0.04627 0.15015,-0.04625 0.15015,-0.04622 0.15015,-0.0462 0.15015,-0.04617 0.15015,-0.04614 0.150151,-0.04612 0.15015,-0.04609 0.15015,-0.04606 0.15015,-0.04604 0.15015,-0.04601 0.15015,-0.04599 0.15015,-0.04596 0.150151,-0.04594 0.15015,-0.04591 0.15015,-0.04588 0.15015,-0.04586 0.15015,-0.04583 0.15015,-0.04581 0.150151,-0.04578 0.15015,-0.04575 0.15015,-0.04573 0.15015,-0.0457 0.15015,-0.04568 0.15015,-0.04565 0.15015,-0.04563 0.150151,-0.0456 0.15015,-0.04558 0.15015,-0.04555 0.15015,-0.04553 0.15015,-0.0455 0.15015,-0.04548 0.15015,-0.04545 0.150151,-0.04543 0.15015,-0.0454 0.15015,-0.04538 0.15015,-0.04535 0.15015,-0.04533 0.15015,-0.0453 0.150151,-0.04528 0.15015,-0.04525 0.15015,-0.04523 0.15015,-0.0452 0.15015,-0.04518 0.15015,-0.04515 0.15015,-0.04513 0.150151,-0.04511 0.15015,-0.04508 0.15015,-0.04506 0.15015,-0.04503 0.15015,-0.04501 0.15015,-0.04498 0.15015,-0.04496 0.150151,-0.04494 0.15015,-0.04491 0.15015,-0.04489 0.15015,-0.04486 0.15015,-0.04484 0.15015,-0.04482 0.150151,-0.04479 0.15015,-0.04477 0.15015,-0.04474 0.15015,-0.04472 0.15015,-0.0447 0.15015,-0.04467 0.15015,-0.04465 0.150151,-0.04462 0.15015,-0.0446 0.15015,-0.04458 0.15015,-0.04455 0.15015,-0.04453 0.15015,-0.04451 0.15015,-0.04448 0.150151,-0.04446 0.15015,-0.04444 0.15015,-0.04441 0.15015,-0.04439 0.15015,-0.04437 0.15015,-0.04434 0.150151,-0.04432 0.15015,-0.0443 0.15015,-0.04427 0.15015,-0.04425 0.15015,-0.04423 0.15015,-0.0442 0.15015,-0.04418 0.150151,-0.04416 0.15015,-0.04414 0.15015,-0.04411 0.15015,-0.04409 0.15015,-0.04407 0.15015,-0.04404 0.15015,-0.04402 0.150151,-0.044 0.15015,-0.04398 0.15015,-0.04395 0.15015,-0.04393 0.15015,-0.04391 0.15015,-0.04389 0.150151,-0.04386 0.15015,-0.04384 0.15015,-0.04382 0.15015,-0.0438 0.15015,-0.04377 0.15015,-0.04375 0.15015,-0.04373 0.150151,-0.04371 0.15015,-0.04368 0.15015,-0.04366 0.15015,-0.04364 0.15015,-0.04362 0.15015,-0.0436 0.15015,-0.04357 0.150151,-0.04355 0.15015,-0.04353 0.15015,-0.04351 0.15015,-0.04349 0.15015,-0.04346 0.15015,-0.04344 0.150151,-0.04342 0.15015,-0.0434 0.15015,-0.04338 0.15015,-0.0435 0.15015,-0.04333 0.15015,-0.04331 0.15015,-0.04329 0.150151,-0.04327 0.15015,-0.04325 0.15015,-0.04323 0.15015,-0.0432 0.15015,-0.04318 0.15015,-0.04316 0.150151,-0.04314 0.15015,-0.04312 0.15015,-0.0431 0.15015,-0.04308 0.15015,-0.04306 0.15015,-0.04303 0.15015,-0.04301 0.150151,-0.04299 0.15015,-0.04297 0.15015,-0.04295 0.15015,-0.04293 0.15015,-0.04291 0.15015,-0.04289 0.15015,-0.04287 0.150151,-0.04284 0.15015,-0.04282 0.15015,-0.0428 0.15015,-0.04278 0.15015,-0.04276 0.15015,-0.04274 0.150151,-0.04272 0.15015,-0.0427 0.15015,-0.04268 0.15015,-0.04266 0.15015,-0.04264 0.15015,-0.04261 0.15015,-0.04259 0.150151,-0.04257 0.15015,-0.04255 0.15015,-0.04253 0.15015,-0.04251 0.15015,-0.04249 0.15015,-0.04247 0.15015,-0.04245 0.150151,-0.04243 0.15015,-0.04241 0.15015,-0.04239 0.15015,-0.04237 0.15015,-0.04235 0.15015,-0.04233 0.150151,-0.04231 0.15015,-0.04229 0.15015,-0.04227 0.15015,-0.04225 0.15015,-0.04223 0.15015,-0.04221 0.15015,-0.04219 0.150151,-0.04217 0.15015,-0.04215 0.15015,-0.04213 0.15015,-0.04211 0.15015,-0.04209 0.15015,-0.04207 0.15015,-0.04205 0.150151,-0.04203 0.15015,-0.04201 0.15015,-0.04199 0.15015,-0.04197 0.15015,-0.04195 0.15015,-0.04193 0.150151,-0.04191 0.15015,-0.04189 0.15015,-0.04187 0.15015,-0.04185 0.15015,-0.04183 0.15015,-0.04181 0.15015,-0.04179 0.150151,-0.04178 0.15015,-0.04175 0.15015,-0.04174 0.15015,-0.04172 0.15015,-0.0417 0.15015,-0.04168 0.15015,-0.04166 0.150151,-0.04164 0.15015,-0.04162 0.15015,-0.0416 0.15015,-0.04158 0.15015,-0.04156 0.15015,-0.04154 0.150151,-0.04152 0.15015,-0.04151 0.15015,-0.04149 0.15015,-0.04147 0.15015,-0.04145 0.15015,-0.04143 0.15015,-0.04141 0.150151,-0.04139 0.15015,-0.04137 0.15015,-0.04135 0.15015,-0.04133 0.15015,-0.04132 0.15015,-0.0413 0.15015,-0.04128 0.150151,-0.04126 0.15015,-0.04124 0.15015,-0.04122 0.15015,-0.0412 0.15015,-0.04119 0.15015,-0.04117 0.150151,-0.04115 0.15015,-0.04113 0.15015,-0.04111 0.15015,-0.04109 0.15015,-0.04107 0.15015,-0.04106 0.15015,-0.04104 0.150151,-0.04102 0.15015,-0.041 0.15015,-0.04098 0.15015,-0.04096 0.15015,-0.04094 0.15015,-0.04093 0.15015,-0.04091 0.150151,-0.04089 0.15015,-0.04087 0.15015,-0.04085 0.15015,-0.04084 0.15015,-0.04082 0.15015,-0.0408 0.150151,-0.04078 0.15015,-0.04076 0.15015,-0.04075 0.15015,-0.04073 0.15015,-0.04071 0.15015,-0.04069 0.15015,-0.04067 0.15015,-0.04066 0.15015,-0.04064 0.15015,-0.04062 0.15015,-0.0406 0.15015,-0.04059 0.15015,-0.04057 0.15015,-0.04055 0.15015,-0.04053 0.15015,-0.04051 0.15015,-0.0405 0.15015,-0.04048 0.15015,-0.04046 0.15015,-0.04044 0.15015,-0.04042 0.15015,-0.04041 0.15015,-0.04039 0.15015,-0.04037 0.15015,-0.04036 0.15015,-0.04034 0.15015,-0.04032 0.15015,-0.0403 0.15015,-0.04028 0.15015,-0.04027 0.15015,-0.04025 0.15015,-0.04023 0.15015,-0.04022 0.15015,-0.0402 0.15015,-0.04018 0.15015,-0.04016 0.15015,-0.04015 0.15016,-0.04013 0.15015,-0.04011 0.15015,-0.0401 0.15015,-0.04008 0.15015,-0.04006 0.15015,-0.04004 0.15015,-0.04003 0.15015,-0.04001 0.15015,-0.03999 0.15015,-0.03997 0.15015,-0.03996 0.15015,-0.03994 0.15015,-0.03992 0.15015,-0.03991 0.15015,-0.03989 0.15015,-0.03987 0.15015,-0.03986 0.15015,-0.03984 0.15015,-0.03982 0.15015,-0.03981 0.15015,-0.03979 0.15015,-0.03977 0.15015,-0.03976 0.15015,-0.03974 0.15015,-0.03972 0.15015,-0.0397 0.15015,-0.03969 0.15015,-0.03967 0.15015,-0.03966 0.15015,-0.03964 0.15015,-0.03962 0.15015,-0.03961 0.15015,-0.03959 0.15015,-0.03957 0.15015,-0.03956 0.15015,-0.03954 0.15015,-0.03952 0.15015,-0.03951 0.15015,-0.03949 0.15015,-0.03947 0.15015,-0.03946 0.15015,-0.03944 0.15015,-0.03943 0.15015,-0.03941 0.15015,-0.03939 0.15015,-0.03938 0.15015,-0.03936 0.15015,-0.03934 0.15015,-0.03933 0.15015,-0.03931 0.15015,-0.03929 0.15015,-0.03928 0.15015,-0.03926 0.15015,-0.03925 0.15015,-0.03923 0.15015,-0.03921 0.15015,-0.0392 0.15015,-0.03918 0.15015,-0.03917 0.15015,-0.03915 0.15015,-0.03913 0.15015,-0.03912 0.15015,-0.0391 0.15015,-0.03909 0.15015,-0.03907 0.15015,-0.03906 0.15015,-0.03904 0.15016,-0.03902 0.15015,-0.03901 0.15015,-0.03899 0.15015,-0.03898 0.15015,-0.03896 0.15015,-0.03894 0.15015,-0.03893 0.15015,-0.03891 0.15015,-0.0389 0.15015,-0.03888 0.15015,-0.03887 0.15015,-0.03885 0.15015,-0.03883 0.15015,-0.03882 0.15015,-0.0388 0.15015,-0.03879 0.15015,-0.03877 0.15015,-0.03876 0.15015,-0.03874 0.15015,-0.03873 0.15015,-0.03871 0.15015,-0.0387 0.15015,-0.03868 0.15015,-0.03866 0.15015,-0.03865 0.15015,-0.03863 0.15015,-0.03862 0.15015,-0.0386 0.15015,-0.03859 0.15015,-0.03857 0.15015,-0.03856 0.15015,-0.03854 0.15015,-0.03853 0.15015,-0.03851 0.15015,-0.0385 0.15015,-0.03848 0.15015,-0.03847 0.15015,-0.03845 0.15015,-0.03843 0.15015,-0.03842 0.15015,-0.03841 0.15015,-0.03839 0.15015,-0.03838 0.15015,-0.03836 0.15015,-0.03835 0.15015,-0.03833 0.15015,-0.03832 0.15015,-0.0383 0.15015,-0.03829 0.15015,-0.03827 0.15015,-0.03826 0.15015,-0.03824 0.15015,-0.03822 0.15015,-0.03821 0.15015,-0.0382 0.15015,-0.03818 0.15015,-0.03816 0.15015,-0.03815 0.15015,-0.03814 0.15015,-0.03812 0.15015,-0.03811 0.15015,-0.03809 0.15015,-0.03808 0.15015,-0.03806 0.15015,-0.03805 0.15015,-0.03803 0.15016,-0.03802 0.15015,-0.038 0.15015,-0.03799 0.15015,-0.03798 0.15015,-0.03796 0.15015,-0.03795 0.15015,-0.03793 0.15015,-0.03792 0.15015,-0.0379 0.15015,-0.03789 0.15015,-0.03787 0.15015,-0.03786 0.15015,-0.03784 0.15015,-0.03783 0.15015,-0.03782 0.15015,-0.0378 0.15015,-0.03779 0.15015,-0.03777 0.15015,-0.03776 0.15015,-0.03774 0.15015,-0.03773 0.15015,-0.03771 0.15015,-0.0377 0.15015,-0.03769 0.15015,-0.03767 0.15015,-0.03766 0.15015,-0.03764 0.15015,-0.03763 0.15015,-0.03762 0.15015,-0.0376 0.15015,-0.03759 0.15015,-0.03757 0.15015,-0.03756 L 130,80 l 0.15015,-0.03753 0.15015,-0.03752 0.15015,-0.0375 0.15015,-0.03749 0.15015,-0.03747 0.15015,-0.03746 0.15015,-0.03745 0.15015,-0.03743 0.15015,-0.03742 0.15015,-0.0374 0.15015,-0.03739 0.15015,-0.03738 0.15015,-0.03736 0.15015,-0.03735 0.15015,-0.03733 0.15015,-0.03732 0.15015,-0.03731 0.15015,-0.03729 0.15015,-0.03728 0.15015,-0.03727 0.15015,-0.03725 0.15015,-0.03724 0.15015,-0.03722 0.15015,-0.03721 0.15015,-0.0372 0.15015,-0.03718 0.15015,-0.03717 0.15015,-0.03716 0.15015,-0.03714 0.15015,-0.03713 0.15015,-0.03712 0.15015,-0.0371 0.15015,-0.03709 0.15016,-0.03707 0.15015,-0.03706 0.15015,-0.03705 0.15015,-0.03703 0.15015,-0.03702 0.15015,-0.03701 0.15015,-0.03699 0.15015,-0.03698 0.15015,-0.03697 0.15015,-0.03695 0.15015,-0.03694 0.15015,-0.03692 0.15015,-0.03691 0.15015,-0.0369 0.15015,-0.03688 0.15015,-0.03687 0.15015,-0.03686 0.15015,-0.03684 0.15015,-0.03683 0.15015,-0.03682 0.15015,-0.03681 0.15015,-0.03679 0.15015,-0.03678 0.15015,-0.03677 0.15015,-0.03675 0.15015,-0.03674 0.15015,-0.03673 0.15015,-0.03671 0.15015,-0.0367 0.15015,-0.03669 0.15015,-0.03667 0.15015,-0.03666 0.15015,-0.03665 0.15015,-0.03663 0.15015,-0.03662 0.15015,-0.03661 0.15015,-0.0366 0.15015,-0.03658 0.15015,-0.03657 0.15015,-0.03656 0.15015,-0.03654 0.15015,-0.03653 0.15015,-0.03652 0.15015,-0.0365 0.15015,-0.03649 0.15015,-0.03648 0.15015,-0.03647 0.15015,-0.03645 0.15015,-0.03644 0.15015,-0.03643 0.15015,-0.03641 0.15015,-0.0364 0.15015,-0.03639 0.15015,-0.03637 0.15015,-0.03636 0.15015,-0.03635 0.15015,-0.03634 0.15015,-0.03632 0.15015,-0.03631 0.15015,-0.0363 0.15015,-0.03628 0.15015,-0.03627 0.15015,-0.03626 0.15015,-0.03625 0.15015,-0.03623 0.15015,-0.03622 0.15016,-0.03621 0.15015,-0.0362 0.15015,-0.03618 0.15015,-0.03617 0.15015,-0.03616 0.15015,-0.03615 0.15015,-0.03613 0.15015,-0.03612 0.15015,-0.03611 0.15015,-0.0361 0.15015,-0.03608 0.15015,-0.03607 0.15015,-0.03606 0.15015,-0.03605 0.15015,-0.03603 0.15015,-0.03602 0.15015,-0.03601 0.15015,-0.036 0.15015,-0.03598 0.15015,-0.03597 0.15015,-0.03596 0.15015,-0.03595 0.15015,-0.03593 0.15015,-0.03592 0.15015,-0.03591 0.15015,-0.0359 0.15015,-0.03588 0.15015,-0.03587 0.15015,-0.03586 0.15015,-0.03585 0.15015,-0.03584 0.15015,-0.03582 0.15015,-0.03581 0.15015,-0.0358 0.15015,-0.03579 0.15015,-0.03578 0.15015,-0.03576 0.15015,-0.03575 0.15015,-0.03574 0.15015,-0.03573 0.15015,-0.03571 0.15015,-0.0357 0.15015,-0.03569 0.15015,-0.03568 0.15015,-0.03566 0.15015,-0.03565 0.15015,-0.03564 0.15015,-0.03563 0.15015,-0.03562 0.15015,-0.03561 0.15015,-0.03559 0.15015,-0.03558 0.15015,-0.03557 0.15015,-0.03556 0.15015,-0.03555 0.15015,-0.03553 0.15015,-0.03552 0.15015,-0.03551 0.15015,-0.0355 0.15015,-0.03549 0.15015,-0.03547 0.15015,-0.03546 0.15015,-0.03545 0.15015,-0.03544 0.15015,-0.03543 0.15015,-0.03542 0.15015,-0.0354 0.15016,-0.03539 0.15015,-0.03538 0.15015,-0.03537 0.15015,-0.03536 0.15015,-0.03534 0.15015,-0.03533 0.15015,-0.03532 0.15015,-0.03531 0.15015,-0.0353 0.15015,-0.03529 0.15015,-0.03527 0.15015,-0.03526 0.15015,-0.03525 0.15015,-0.03524 0.15015,-0.03523 0.15015,-0.03522 0.15015,-0.0352 0.15015,-0.03519 0.15015,-0.03518 0.15015,-0.03517 0.15015,-0.03516 0.15015,-0.03514 0.15015,-0.03513 0.15015,-0.03512 0.15015,-0.03511 0.15015,-0.0351 0.15015,-0.03509 0.15015,-0.03508 0.15015,-0.03506 0.15015,-0.03505 0.15015,-0.03504 0.15015,-0.03503 0.15015,-0.03502 0.15015,-0.03501 0.15015,-0.035 0.15015,-0.03498 0.15015,-0.03497 0.15015,-0.03496 0.15015,-0.03495 0.15015,-0.03494 0.15015,-0.03493 0.15015,-0.03492 0.15015,-0.0349 0.15015,-0.03489 0.15015,-0.03488 0.15015,-0.03487 0.15015,-0.03486 0.15015,-0.03485 0.15015,-0.03484 0.15015,-0.03483 0.15015,-0.03482 0.15015,-0.0348 0.15015,-0.03479 0.15015,-0.03478 0.15015,-0.03477 0.15015,-0.03476 0.15015,-0.03475 0.15015,-0.03474 0.15015,-0.03472 0.15015,-0.03471 0.15015,-0.0347 0.15015,-0.03469 0.15015,-0.03468 0.15015,-0.03467 0.15015,-0.03466 0.15015,-0.03465 0.15015,-0.03464 0.15016,-0.03463 0.15015,-0.03461 0.15015,-0.0346 0.15015,-0.03459 0.15015,-0.03458 0.15015,-0.03457 0.15015,-0.03456 0.15015,-0.03455 0.15015,-0.03454 0.15015,-0.03453 0.15015,-0.03451 0.15015,-0.0345 0.15015,-0.03449 0.15015,-0.03448 0.15015,-0.03447 0.15015,-0.03446 0.15015,-0.03445 0.15015,-0.03444 0.15015,-0.03443 0.15015,-0.03442 0.15015,-0.03441 0.15015,-0.0344 0.15015,-0.03438 0.15015,-0.03437 0.15015,-0.03436 0.15015,-0.03435 0.15015,-0.03434 0.15015,-0.03433 0.15015,-0.03432 0.15015,-0.03431 0.15015,-0.0343 0.15015,-0.03429 0.15015,-0.03428 0.15015,-0.03427 0.15015,-0.03425 0.15015,-0.03424 0.15015,-0.03423 0.15015,-0.03422 0.15015,-0.03421 0.15015,-0.0342 0.15015,-0.03419 0.15015,-0.03418 0.15015,-0.03417 0.15015,-0.03416 0.15015,-0.03415 0.15015,-0.03414 0.15015,-0.03413 0.15015,-0.03412 0.15015,-0.03411 0.15015,-0.0341 0.15015,-0.03408 0.15015,-0.03408 0.15015,-0.03406 0.15015,-0.03405 0.15015,-0.03404 0.15015,-0.03403 0.15015,-0.03402 0.15015,-0.03401 0.15015,-0.034 0.15015,-0.03399 0.15015,-0.03398 0.15015,-0.03397 0.15015,-0.03396 0.15015,-0.03395 0.15015,-0.03394 0.15015,-0.03393 0.15016,-0.03392 0.15015,-0.03391 0.15015,-0.0339 0.15015,-0.03389 0.15015,-0.03388 0.15015,-0.03387 0.15015,-0.03386 0.15015,-0.03384 0.15015,-0.03383 0.15015,-0.03383 0.15015,-0.03381 0.15015,-0.0338 0.15015,-0.03379 0.15015,-0.03378 0.15015,-0.03377 0.15015,-0.03376 0.15015,-0.03375 0.15015,-0.03374 0.15015,-0.03373 0.15015,-0.03372 0.15015,-0.03371 0.15015,-0.0337 0.15015,-0.03369 0.15015,-0.03368 0.15015,-0.03367 0.15015,-0.03366 0.15015,-0.03365 0.15015,-0.03364 0.15015,-0.03363 0.15015,-0.03362 0.15015,-0.03361 0.15015,-0.0336 0.15015,-0.03359 L 180,68.196601"
       inkscape:connector-curvature="0" />
  </g>
  <path
     style="fill:#ff0000;stroke:#ff0000;stroke-width:1;stroke-linecap:butt;stroke-linejoin:miter;stroke-miterlimit:4;stroke-dasharray:none;stroke-opacity:1"
     d="M 3.4347736,165.64402 157.64841,11.430374"
     id="path2134"
     inkscape:connector-curvature="0" />
  <flowRoot
     xml:space="preserve"
     id="flowRoot2138"
     style="font-style:normal;font-weight:normal;font-size:40px;line-height:1.25;font-family:sans-serif;letter-spacing:0px;word-spacing:0px;fill:#000000;fill-opacity:1;stroke:none"
     transform="matrix(0.26458333,0,0,0.26458333,-24.297369,-12.088127)"><flowRegion
       id="flowRegion2140"><rect
         id="rect2142"
         width="238.57143"
         height="82.85714"
         x="255.71428"
         y="288.23395" /></flowRegion><flowPara
       id="flowPara2144">$x_0$</flowPara></flowRoot>  <flowRoot
     transform="matrix(0.26458333,0,0,0.26458333,12.744293,-21.613127)"
     style="font-style:normal;font-weight:normal;font-size:40px;line-height:1.25;font-family:sans-serif;letter-spacing:0px;word-spacing:0px;fill:#000000;fill-opacity:1;stroke:none"
     id="flowRoot2152"
     xml:space="preserve"><flowRegion
       id="flowRegion2148"><rect
         y="288.23395"
         x="255.71428"
         height="82.85714"
         width="238.57143"
         id="rect2146" /></flowRegion><flowPara
       id="flowPara2150">$x_1$</flowPara></flowRoot>  <flowRoot
     xml:space="preserve"
     id="flowRoot2160"
     style="font-style:normal;font-weight:normal;font-size:40px;line-height:1.25;font-family:sans-serif;letter-spacing:0px;word-spacing:0px;fill:#000000;fill-opacity:1;stroke:none"
     transform="matrix(0.26458333,0,0,0.26458333,31.794296,-26.375629)"><flowRegion
       id="flowRegion2156"><rect
         id="rect2154"
         width="517.14288"
         height="82.857147"
         x="255.71428"
         y="288.23395" /></flowRegion><flowPara
       id="flowPara2158">$x_2\ \cdots$</flowPara></flowRoot></svg>
