<?xml version="1.0" encoding="UTF-8" standalone="no"?>
<!-- Created with Inkscape (http://www.inkscape.org/) -->

<svg
   xmlns:dc="http://purl.org/dc/elements/1.1/"
   xmlns:cc="http://creativecommons.org/ns#"
   xmlns:rdf="http://www.w3.org/1999/02/22-rdf-syntax-ns#"
   xmlns:svg="http://www.w3.org/2000/svg"
   xmlns="http://www.w3.org/2000/svg"
   xmlns:sodipodi="http://sodipodi.sourceforge.net/DTD/sodipodi-0.dtd"
   xmlns:inkscape="http://www.inkscape.org/namespaces/inkscape"
   width="128.19174mm"
   height="22.42502mm"
   viewBox="0 0 128.19174 22.42502"
   version="1.1"
   id="svg8"
   inkscape:version="0.92.2 5c3e80d, 2017-08-06"
   sodipodi:docname="MolecularVibration.svg">
  <sodipodi:namedview
     id="base"
     pagecolor="#ffffff"
     bordercolor="#666666"
     borderopacity="1.0"
     inkscape:pageopacity="0.0"
     inkscape:pageshadow="2"
     inkscape:zoom="0.49497475"
     inkscape:cx="240.7207"
     inkscape:cy="15.630283"
     inkscape:document-units="mm"
     inkscape:current-layer="svg8"
     showgrid="false"
     inkscape:window-width="1440"
     inkscape:window-height="789"
     inkscape:window-x="0"
     inkscape:window-y="1"
     inkscape:window-maximized="1" />
  <defs
     id="defs2" />
  <metadata
     id="metadata5">
    <rdf:RDF>
      <cc:Work
         rdf:about="">
        <dc:format>image/svg+xml</dc:format>
        <dc:type
           rdf:resource="http://purl.org/dc/dcmitype/StillImage" />
        <dc:title />
      </cc:Work>
    </rdf:RDF>
  </metadata>
  <g
     id="layer1"
     inkscape:groupmode="layer"
     inkscape:label="Layer 1"
     transform="translate(-50.724835,-109.16226)" />
  <path
     id="path4610"
     inkscape:label="arc"
     sodipodi:type="arc"
     sodipodi:start="0"
     sodipodi:ry="3"
     sodipodi:rx="3"
     sodipodi:open="true"
     sodipodi:end="3.1415927"
     sodipodi:cy="8.3317862"
     sodipodi:cx="16.203737"
     style="fill:none;stroke:#000000;stroke-width:1;stroke-linecap:round;stroke-linejoin:round;stroke-dasharray:none"
     d="m 19.203737,8.3317862 a 3,3 0 0 1 -1.5,2.5980758 3,3 0 0 1 -3,0 3,3 0 0 1 -1.5,-2.598076" />
  <path
     id="path4612"
     inkscape:label="arc"
     sodipodi:type="arc"
     sodipodi:start="0"
     sodipodi:ry="3"
     sodipodi:rx="3"
     sodipodi:open="true"
     sodipodi:end="3.1415927"
     sodipodi:cy="8.3317862"
     sodipodi:cx="22.203737"
     style="fill:none;stroke:#000000;stroke-width:1;stroke-linecap:round;stroke-linejoin:round;stroke-dasharray:none"
     d="m 25.203737,8.3317862 a 3,3 0 0 1 -1.5,2.5980758 3,3 0 0 1 -3,0 3,3 0 0 1 -1.5,-2.598076" />
  <path
     id="path4614"
     inkscape:label="arc"
     sodipodi:type="arc"
     sodipodi:start="0"
     sodipodi:ry="3"
     sodipodi:rx="3"
     sodipodi:open="true"
     sodipodi:end="3.1415927"
     sodipodi:cy="8.3317862"
     sodipodi:cx="28.203737"
     style="fill:none;stroke:#000000;stroke-width:1;stroke-linecap:round;stroke-linejoin:round;stroke-dasharray:none"
     d="m 31.203737,8.3317862 a 3,3 0 0 1 -1.5,2.5980758 3,3 0 0 1 -3,0 3,3 0 0 1 -1.5,-2.598076" />
  <path
     id="path4616"
     inkscape:label="arc"
     sodipodi:type="arc"
     sodipodi:start="0"
     sodipodi:ry="3"
     sodipodi:rx="3"
     sodipodi:open="true"
     sodipodi:end="3.1415927"
     sodipodi:cy="8.3317862"
     sodipodi:cx="34.203739"
     style="fill:none;stroke:#000000;stroke-width:1;stroke-linecap:round;stroke-linejoin:round;stroke-dasharray:none"
     d="m 37.203739,8.3317862 a 3,3 0 0 1 -1.5,2.5980758 3,3 0 0 1 -3,0 3,3 0 0 1 -1.5,-2.598076" />
  <text
     style="font-style:normal;font-weight:normal;font-size:6.57894754px;line-height:100%;font-family:Sans;text-align:center;letter-spacing:0px;word-spacing:0px;text-anchor:middle;fill:#000000;fill-opacity:1;stroke:none"
     x="37.374569"
     y="4.9984584"
     xml:space="preserve"
     id="text4622"><tspan
       x="37.374569"
       y="4.9984584"
       sodipodi:role="line"
       id="tspan4620">$b$</tspan></text>
  <path
     d="m 43.545391,8.3317862 a 3,3 0 0 1 -1.5,2.5980758 3,3 0 0 1 -3,0 3,3 0 0 1 -1.5,-2.598076"
     style="fill:none;stroke:#000000;stroke-width:1;stroke-linecap:round;stroke-linejoin:round;stroke-dasharray:none"
     sodipodi:cx="40.545391"
     sodipodi:cy="8.3317862"
     sodipodi:end="3.1415927"
     sodipodi:open="true"
     sodipodi:rx="3"
     sodipodi:ry="3"
     sodipodi:start="0"
     sodipodi:type="arc"
     inkscape:label="arc"
     id="path4665" />
  <path
     d="m 49.545391,8.3317862 a 3,3 0 0 1 -1.5,2.5980758 3,3 0 0 1 -3,0 3,3 0 0 1 -1.5,-2.598076"
     style="fill:none;stroke:#000000;stroke-width:1;stroke-linecap:round;stroke-linejoin:round;stroke-dasharray:none"
     sodipodi:cx="46.545391"
     sodipodi:cy="8.3317862"
     sodipodi:end="3.1415927"
     sodipodi:open="true"
     sodipodi:rx="3"
     sodipodi:ry="3"
     sodipodi:start="0"
     sodipodi:type="arc"
     inkscape:label="arc"
     id="path4667" />
  <path
     d="m 55.545399,8.3317862 a 3,3 0 0 1 -1.5,2.5980758 3,3 0 0 1 -3,0 3,3 0 0 1 -1.5,-2.598076"
     style="fill:none;stroke:#000000;stroke-width:1;stroke-linecap:round;stroke-linejoin:round;stroke-dasharray:none"
     sodipodi:cx="52.545399"
     sodipodi:cy="8.3317862"
     sodipodi:end="3.1415927"
     sodipodi:open="true"
     sodipodi:rx="3"
     sodipodi:ry="3"
     sodipodi:start="0"
     sodipodi:type="arc"
     inkscape:label="arc"
     id="path4669" />
  <path
     d="m 61.545399,8.3317862 a 3,3 0 0 1 -1.5,2.5980758 3,3 0 0 1 -3,0 3,3 0 0 1 -1.5,-2.598076"
     style="fill:none;stroke:#000000;stroke-width:1;stroke-linecap:round;stroke-linejoin:round;stroke-dasharray:none"
     sodipodi:cx="58.545399"
     sodipodi:cy="8.3317862"
     sodipodi:end="3.1415927"
     sodipodi:open="true"
     sodipodi:rx="3"
     sodipodi:ry="3"
     sodipodi:start="0"
     sodipodi:type="arc"
     inkscape:label="arc"
     id="path4671" />
  <path
     d="m 72.120369,8.3317862 a 3,3 0 0 1 -1.5,2.5980758 3,3 0 0 1 -3,0 3,3 0 0 1 -1.5,-2.598076"
     style="fill:none;stroke:#000000;stroke-width:1;stroke-linecap:round;stroke-linejoin:round;stroke-dasharray:none"
     sodipodi:cx="69.120369"
     sodipodi:cy="8.3317862"
     sodipodi:end="3.1415927"
     sodipodi:open="true"
     sodipodi:rx="3"
     sodipodi:ry="3"
     sodipodi:start="0"
     sodipodi:type="arc"
     inkscape:label="arc"
     id="path4673" />
  <path
     d="m 78.120369,8.3317862 a 3,3 0 0 1 -1.5,2.5980758 3,3 0 0 1 -3,0 3,3 0 0 1 -1.5,-2.598076"
     style="fill:none;stroke:#000000;stroke-width:1;stroke-linecap:round;stroke-linejoin:round;stroke-dasharray:none"
     sodipodi:cx="75.120369"
     sodipodi:cy="8.3317862"
     sodipodi:end="3.1415927"
     sodipodi:open="true"
     sodipodi:rx="3"
     sodipodi:ry="3"
     sodipodi:start="0"
     sodipodi:type="arc"
     inkscape:label="arc"
     id="path4675" />
  <path
     d="m 84.120377,8.3317862 a 3,3 0 0 1 -1.5,2.5980758 3,3 0 0 1 -3,0 3,3 0 0 1 -1.5,-2.598076"
     style="fill:none;stroke:#000000;stroke-width:1;stroke-linecap:round;stroke-linejoin:round;stroke-dasharray:none"
     sodipodi:cx="81.120377"
     sodipodi:cy="8.3317862"
     sodipodi:end="3.1415927"
     sodipodi:open="true"
     sodipodi:rx="3"
     sodipodi:ry="3"
     sodipodi:start="0"
     sodipodi:type="arc"
     inkscape:label="arc"
     id="path4677" />
  <path
     d="m 90.120407,8.3317862 a 3,3 0 0 1 -1.5,2.5980758 3,3 0 0 1 -3,0 3,3 0 0 1 -1.5,-2.598076"
     style="fill:none;stroke:#000000;stroke-width:1;stroke-linecap:round;stroke-linejoin:round;stroke-dasharray:none"
     sodipodi:cx="87.120407"
     sodipodi:cy="8.3317862"
     sodipodi:end="3.1415927"
     sodipodi:open="true"
     sodipodi:rx="3"
     sodipodi:ry="3"
     sodipodi:start="0"
     sodipodi:type="arc"
     inkscape:label="arc"
     id="path4679" />
  <text
     id="text4683"
     xml:space="preserve"
     y="4.9984584"
     x="90.291245"
     style="font-style:normal;font-weight:normal;font-size:6.57894754px;line-height:100%;font-family:Sans;text-align:center;letter-spacing:0px;word-spacing:0px;text-anchor:middle;fill:#000000;fill-opacity:1;stroke:none"><tspan
       id="tspan4681"
       sodipodi:role="line"
       y="4.9984584"
       x="90.291245">$b$</tspan></text>
  <path
     id="path4685"
     inkscape:label="arc"
     sodipodi:type="arc"
     sodipodi:start="0"
     sodipodi:ry="3"
     sodipodi:rx="3"
     sodipodi:open="true"
     sodipodi:end="3.1415927"
     sodipodi:cy="8.3317862"
     sodipodi:cx="93.462067"
     style="fill:none;stroke:#000000;stroke-width:1;stroke-linecap:round;stroke-linejoin:round;stroke-dasharray:none"
     d="m 96.462067,8.3317862 a 3,3 0 0 1 -1.5,2.5980758 3,3 0 0 1 -3,0 3,3 0 0 1 -1.5,-2.598076" />
  <path
     id="path4687"
     inkscape:label="arc"
     sodipodi:type="arc"
     sodipodi:start="0"
     sodipodi:ry="3"
     sodipodi:rx="3"
     sodipodi:open="true"
     sodipodi:end="3.1415927"
     sodipodi:cy="8.3317862"
     sodipodi:cx="99.462067"
     style="fill:none;stroke:#000000;stroke-width:1;stroke-linecap:round;stroke-linejoin:round;stroke-dasharray:none"
     d="m 102.46207,8.3317862 a 3,3 0 0 1 -1.5,2.5980758 3,3 0 0 1 -3.000003,0 3,3 0 0 1 -1.5,-2.598076" />
  <path
     id="path4689"
     inkscape:label="arc"
     sodipodi:type="arc"
     sodipodi:start="0"
     sodipodi:ry="3"
     sodipodi:rx="3"
     sodipodi:open="true"
     sodipodi:end="3.1415927"
     sodipodi:cy="8.3317862"
     sodipodi:cx="105.46208"
     style="fill:none;stroke:#000000;stroke-width:1;stroke-linecap:round;stroke-linejoin:round;stroke-dasharray:none"
     d="m 108.46208,8.3317862 a 3,3 0 0 1 -1.5,2.5980758 3,3 0 0 1 -3,0 3,3 0 0 1 -1.5,-2.598076" />
  <path
     id="path4691"
     inkscape:label="arc"
     sodipodi:type="arc"
     sodipodi:start="0"
     sodipodi:ry="3"
     sodipodi:rx="3"
     sodipodi:open="true"
     sodipodi:end="3.1415927"
     sodipodi:cy="8.3317862"
     sodipodi:cx="111.4621"
     style="fill:none;stroke:#000000;stroke-width:1;stroke-linecap:round;stroke-linejoin:round;stroke-dasharray:none"
     d="m 114.4621,8.3317862 a 3,3 0 0 1 -1.5,2.5980758 3,3 0 0 1 -3,0 3,3 0 0 1 -1.5,-2.598076" />
  <path
     style="fill:none;stroke:#000000;stroke-width:0.60000002;stroke-linecap:butt;stroke-linejoin:miter;stroke-miterlimit:4;stroke-dasharray:none;stroke-opacity:1"
     d="m 61.528355,7.9653374 h 4.54359"
     id="path4693"
     inkscape:connector-curvature="0" />
  <path
     inkscape:connector-curvature="0"
     id="path4695"
     d="m 114.44505,7.9653374 h 4.54359"
     style="fill:none;stroke:#000000;stroke-width:0.60000002;stroke-linecap:butt;stroke-linejoin:miter;stroke-miterlimit:4;stroke-dasharray:none;stroke-opacity:1" />
  <path
     style="fill:none;stroke:#000000;stroke-width:0.60000002;stroke-linecap:butt;stroke-linejoin:miter;stroke-miterlimit:4;stroke-dasharray:none;stroke-opacity:1"
     d="M 8.6116786,7.9653374 H 13.155266"
     id="path4697"
     inkscape:connector-curvature="0" />
  <circle
     style="opacity:1;fill:#000000;fill-opacity:1;fill-rule:evenodd;stroke:#000000;stroke-width:0.60000002;stroke-linecap:round;stroke-linejoin:miter;stroke-miterlimit:4;stroke-dasharray:none;stroke-dashoffset:0;stroke-opacity:1"
     id="path4699"
     cx="8.7480078"
     cy="7.8746638"
     r="0.66817379" />
  <circle
     r="0.66817379"
     cy="7.8746638"
     cx="63.781315"
     id="circle4701"
     style="opacity:1;fill:#000000;fill-opacity:1;fill-rule:evenodd;stroke:#000000;stroke-width:0.60000002;stroke-linecap:round;stroke-linejoin:miter;stroke-miterlimit:4;stroke-dasharray:none;stroke-dashoffset:0;stroke-opacity:1" />
  <circle
     style="opacity:1;fill:#000000;fill-opacity:1;fill-rule:evenodd;stroke:#000000;stroke-width:0.60000002;stroke-linecap:round;stroke-linejoin:miter;stroke-miterlimit:4;stroke-dasharray:none;stroke-dashoffset:0;stroke-opacity:1"
     id="circle4703"
     cx="118.81465"
     cy="7.8746638"
     r="0.66817379" />
  <text
     id="text4707"
     xml:space="preserve"
     y="4.9984584"
     x="9.328742"
     style="font-style:normal;font-weight:normal;font-size:6.57894754px;line-height:100%;font-family:Sans;text-align:center;letter-spacing:0px;word-spacing:0px;text-anchor:middle;fill:#000000;fill-opacity:1;stroke:none"><tspan
       id="tspan4705"
       sodipodi:role="line"
       y="4.9984584"
       x="9.328742">$m$</tspan></text>
  <text
     style="font-style:normal;font-weight:normal;font-size:6.57894754px;line-height:100%;font-family:Sans;text-align:center;letter-spacing:0px;word-spacing:0px;text-anchor:middle;fill:#000000;fill-opacity:1;stroke:none"
     x="63.832882"
     y="4.9984584"
     xml:space="preserve"
     id="text4711"><tspan
       x="63.832882"
       y="4.9984584"
       sodipodi:role="line"
       id="tspan4709">$M$</tspan></text>
  <text
     id="text4715"
     xml:space="preserve"
     y="4.9984584"
     x="118.86621"
     style="font-style:normal;font-weight:normal;font-size:6.57894754px;line-height:100%;font-family:Sans;text-align:center;letter-spacing:0px;word-spacing:0px;text-anchor:middle;fill:#000000;fill-opacity:1;stroke:none"><tspan
       id="tspan4713"
       sodipodi:role="line"
       y="4.9984584"
       x="118.86621">$m$</tspan></text>
  <text
     style="font-style:normal;font-weight:normal;font-size:6.57894754px;line-height:100%;font-family:Sans;text-align:center;letter-spacing:0px;word-spacing:0px;text-anchor:middle;fill:#000000;fill-opacity:1;stroke:none"
     x="9.328742"
     y="20.873444"
     xml:space="preserve"
     id="text4719"><tspan
       x="9.328742"
       y="20.873444"
       sodipodi:role="line"
       id="tspan4717">$x_1$</tspan></text>
  <text
     id="text4723"
     xml:space="preserve"
     y="20.873444"
     x="63.832882"
     style="font-style:normal;font-weight:normal;font-size:6.57894754px;line-height:100%;font-family:Sans;text-align:center;letter-spacing:0px;word-spacing:0px;text-anchor:middle;fill:#000000;fill-opacity:1;stroke:none"><tspan
       id="tspan4721"
       sodipodi:role="line"
       y="20.873444"
       x="63.832882">$x_2$</tspan></text>
  <text
     style="font-style:normal;font-weight:normal;font-size:6.57894754px;line-height:100%;font-family:Sans;text-align:center;letter-spacing:0px;word-spacing:0px;text-anchor:middle;fill:#000000;fill-opacity:1;stroke:none"
     x="118.86621"
     y="20.873444"
     xml:space="preserve"
     id="text4727"><tspan
       x="118.86621"
       y="20.873444"
       sodipodi:role="line"
       id="tspan4725">$x_3$</tspan></text>
</svg>
