<?xml version="1.0" encoding="UTF-8" standalone="no"?>
<!-- Created with Inkscape (http://www.inkscape.org/) -->

<svg
   xmlns:dc="http://purl.org/dc/elements/1.1/"
   xmlns:cc="http://creativecommons.org/ns#"
   xmlns:rdf="http://www.w3.org/1999/02/22-rdf-syntax-ns#"
   xmlns:svg="http://www.w3.org/2000/svg"
   xmlns="http://www.w3.org/2000/svg"
   xmlns:sodipodi="http://sodipodi.sourceforge.net/DTD/sodipodi-0.dtd"
   xmlns:inkscape="http://www.inkscape.org/namespaces/inkscape"
   width="316.16135mm"
   height="348.41455mm"
   viewBox="0 0 316.16135 348.41455"
   version="1.1"
   id="svg8"
   inkscape:version="0.92.2 5c3e80d, 2017-08-06"
   sodipodi:docname="Thetas.svg">
  <sodipodi:namedview
     id="base"
     pagecolor="#ffffff"
     bordercolor="#666666"
     borderopacity="1.0"
     inkscape:pageopacity="0.0"
     inkscape:pageshadow="2"
     inkscape:zoom="0.35"
     inkscape:cx="308.11657"
     inkscape:cy="672.57856"
     inkscape:document-units="mm"
     inkscape:current-layer="svg8"
     showgrid="false"
     inkscape:window-width="1440"
     inkscape:window-height="789"
     inkscape:window-x="0"
     inkscape:window-y="1"
     inkscape:window-maximized="1" />
  <defs
     id="defs2">
    <marker
       inkscape:stockid="ArrowAxisStart"
       style="overflow:visible"
       refY="0"
       refX="0"
       orient="auto"
       id="ArrowAxisStart">
      <path
         id="path1444"
         transform="matrix(0.4,0,0,0.4,3.5272,0)"
         style="fill:#000000;fill-rule:evenodd;stroke:#000000;stroke-width:1"
         d="M 0,0 5,-5 -12.5,0 5,5 Z"
         inkscape:connector-curvature="0" />
    </marker>
    <marker
       inkscape:stockid="ArrowAxisEnd"
       style="overflow:visible"
       refY="0"
       refX="0"
       orient="auto"
       id="ArrowAxisEnd">
      <path
         id="path1447"
         transform="matrix(-0.4,0,0,-0.4,-3.5272,0)"
         style="fill:#000000;fill-rule:evenodd;stroke:#000000;stroke-width:1"
         d="M 0,0 5,-5 -12.5,0 5,5 Z"
         inkscape:connector-curvature="0" />
    </marker>
  </defs>
  <metadata
     id="metadata5">
    <rdf:RDF>
      <cc:Work
         rdf:about="">
        <dc:format>image/svg+xml</dc:format>
        <dc:type
           rdf:resource="http://purl.org/dc/dcmitype/StillImage" />
        <dc:title />
      </cc:Work>
    </rdf:RDF>
  </metadata>
  <g
     id="layer1"
     inkscape:groupmode="layer"
     inkscape:label="Layer 1"
     transform="translate(-331.60547,2174.9798)" />
  <g
     id="g1453"
     inkscape:label="Ticks"
     transform="translate(83.394534,344.97979)" />
  <path
     inkscape:connector-curvature="0"
     d="M 3.4347736,344.97979 H 313.01732"
     style="fill:none;stroke:#4c4c4c;stroke-width:1.42857146;stroke-linecap:round;stroke-linejoin:round;stroke-dasharray:none;marker-end:url(#ArrowAxisEnd)"
     inkscape:label="Xaxis"
     id="path1455" />
  <text
     style="font-style:normal;font-weight:normal;font-size:16.44736862px;line-height:100%;font-family:Sans;text-align:start;letter-spacing:0px;word-spacing:0px;text-anchor:start;fill:#000000;fill-opacity:1;stroke:none"
     x="299.42517"
     y="363.7298"
     xml:space="preserve"
     id="text1459"><tspan
       x="299.42517"
       y="363.7298"
       sodipodi:role="line"
       id="tspan1457">$\theta$</tspan></text>
  <path
     inkscape:connector-curvature="0"
     d="M 3.4347736,344.97979 V 7.479788"
     style="fill:none;stroke:#4c4c4c;stroke-width:1.42857146;stroke-linecap:round;stroke-linejoin:round;stroke-dasharray:none;marker-end:url(#ArrowAxisEnd)"
     inkscape:label="Yaxis"
     id="path1461" />
  <text
     style="font-style:normal;font-weight:normal;font-size:16.44736862px;line-height:100%;font-family:Sans;text-align:start;letter-spacing:0px;word-spacing:0px;text-anchor:start;fill:#000000;fill-opacity:1;stroke:none"
     x="13.394594"
     y="12.496145"
     xml:space="preserve"
     id="text1465"><tspan
       x="13.394594"
       y="12.496145"
       sodipodi:role="line"
       id="tspan1463">$V\+_eff_$</tspan></text>
  <path
     inkscape:connector-curvature="0"
     d="m 33.869614,85.368488 0.25246,8.6822 0.25247,8.104202 0.25244,7.5765 0.25247,7.0936 0.25246,6.6511 0.25247,6.2446 0.25244,5.8707 0.25247,5.5262 0.25246,5.2079 0.25247,4.9137 0.25244,4.6417 0.25247,4.3891 0.25246,4.1545 0.25247,3.9367 0.25244,3.7337 0.25246,3.5445 0.25247,3.3679 0.25247,3.2029 0.25244,3.0485 0.25246,2.9041 0.25247,2.7686 0.25247,2.6413 0.25246,2.522 0.25244,2.4098 0.25247,2.304 0.25247,2.2044 0.25246,2.1106 0.25244,2.0222 0.25247,1.9383 0.25246,1.8594 0.25247,1.7846 0.25244,1.7138 0.25247,1.6469 0.25246,1.5833 0.25247,1.5228 0.25244,1.4659 0.25247,1.4113 0.25246,1.3597 0.25247,1.3107 0.25244,1.2637 0.25246,1.2195 0.25247,1.1768 0.25247,1.1364 0.25245,1.0979 0.25245,1.061 0.25247,1.0258 0.25247,0.9923 0.25245,0.9601 0.25245,0.9296 0.25247,0.8999 0.25246,0.8719 0.25246,0.8452 0.25245,0.8192 0.25247,0.7945 0.25245,0.7706 0.25247,0.7479 0.25245,0.7263 0.25247,0.705 0.25245,0.6852 0.25247,0.6657 0.25245,0.647 0.25247,0.6291 0.25245,0.612 0.25247,0.5954 0.25247,0.5794 0.25245,0.5641 0.25245,0.5493 0.25247,0.535 0.25246,0.5214 0.25244,0.5079 0.25247,0.4953 0.25247,0.483 0.25246,0.471 0.25244,0.4594 0.25247,0.4485 0.25247,0.4377 0.25246,0.4273 0.25244,0.4174 0.25247,0.4077 0.25247,0.3984 0.25246,0.3892 0.25244,0.3805 0.25247,0.372 0.25246,0.3638 0.25247,0.3558 0.25247,0.3482 0.25244,0.3408 0.25246,0.3334 0.25247,0.3265 0.25247,0.3196 0.25244,0.3132 0.25246,0.3067 0.25247,0.3004 0.25247,0.2947 0.25244,0.2887 0.25246,0.283 0.25247,0.2776 0.25245,0.2722 0.25245,0.2669 0.25247,0.2621 0.25247,0.2571 0.25245,0.2523 0.25245,0.2477 0.25247,0.2433 0.25247,0.2389 0.25245,0.2346 0.25247,0.2305 0.25245,0.2265 0.25247,0.2227 0.25245,0.2187 0.25247,0.2151 0.25245,0.2115 0.25245,0.2078 0.25247,0.2047 0.25247,0.2012 0.25245,0.1981 0.25245,0.1948 0.25247,0.1916 0.25247,0.1889 0.25245,0.1858 0.25245,0.183 0.25247,0.1802 0.25247,0.1775 0.25243,0.1749 0.25247,0.1723 0.25247,0.1697 0.25246,0.1674 0.25247,0.1649 0.25244,0.1627 0.25247,0.1603 0.25246,0.1581 0.25247,0.156 0.25244,0.1538 0.25247,0.1517 0.25246,0.1499 0.25247,0.1477 0.25244,0.1459 0.25246,0.1441 0.25247,0.142 0.25247,0.1404 0.25244,0.1386 0.25246,0.1369 0.25247,0.1351 0.25247,0.1336 0.25244,0.1319 0.25246,0.1305 0.25247,0.1288 0.25247,0.1274 0.25246,0.1259 0.25244,0.1244 0.25247,0.1235 0.25246,0.1222 0.25247,0.1209 0.25244,0.1185 0.25247,0.1185 0.25246,0.116 0.25247,0.1148 0.25244,0.1136 0.25247,0.1123 0.25246,0.1123 0.25247,0.1111 0.25244,0.1099 0.25247,0.1086 0.25246,0.1074 0.25247,0.1061 0.25244,0.1049 0.25246,0.1037 0.25247,0.1037 0.25247,0.1024 0.25245,0.1013 0.25245,0.1 0.25247,0.1 0.25247,0.099 0.25245,0.097 0.25245,0.098 0.25247,0.096 0.25247,0.095 0.25245,0.095 0.25245,0.094 0.25247,0.093 0.25245,0.093 0.25247,0.091 0.25245,0.09 0.25247,0.09 0.25245,0.09 0.25247,0.089 0.25245,0.088 0.25247,0.086 0.25245,0.086 0.25247,0.086 0.25247,0.086 0.25245,0.085 0.25245,0.084 0.25247,0.084 0.25246,0.083 0.25244,0.083 0.25247,0.081 0.25247,0.082 0.25246,0.082 0.25244,0.08 0.25247,0.079 0.25247,0.079 0.25246,0.078 0.25244,0.078 0.25247,0.078 0.25247,0.078 0.25246,0.078 0.25244,0.076 0.25247,0.077 0.25246,0.075 0.25247,0.075 0.25247,0.074 0.25244,0.074 0.25246,0.074 0.25247,0.074 0.25247,0.073 0.25244,0.072 0.25246,0.073 0.25247,0.072 0.25247,0.072 0.25243,0.07 0.25247,0.07 0.25247,0.07 0.25246,0.07 0.25244,0.069 0.25247,0.069 0.25247,0.069 0.25246,0.069 0.25244,0.068 0.25247,0.068 0.25247,0.068 0.25245,0.067 0.25247,0.067 0.25245,0.067 0.25246,0.065 0.25246,0.065 0.25247,0.065 0.25245,0.065 0.25246,0.065 0.25246,0.065 0.25247,0.065 0.25245,0.064 0.25246,0.064 0.25246,0.064 0.25247,0.064 0.25245,0.063 0.25246,0.063 0.25246,0.063 0.25246,0.062 0.25245,0.062 0.25246,0.062 0.25247,0.062 0.25246,0.062 0.25247,0.062 0.25244,0.062 0.25247,0.062 0.25246,0.061 0.25247,0.061 0.25244,0.06 0.25247,0.061 0.25246,0.059 0.252466,0.059 0.25244,0.059 0.25246,0.059 0.25247,0.059 0.25247,0.058 0.25244,0.058 0.25246,0.058 0.25247,0.058 0.25247,0.058 0.25246,0.058 0.25244,0.058 0.25247,0.058 0.25247,0.058 0.25246,0.058 0.25244,0.056 0.25247,0.055 0.25246,0.056 0.25247,0.056 0.25244,0.055 0.25247,0.056 0.25246,0.055 0.25247,0.056 0.25244,0.055 0.25247,0.056 0.25246,0.054 0.25247,0.054 0.25244,0.054 0.25247,0.054 0.25246,0.054 0.25247,0.053 0.25245,0.053 0.25245,0.053 0.25247,0.053 0.25247,0.053 0.25245,0.053 0.25245,0.052 0.25247,0.052 0.25247,0.052 0.25245,0.052 0.25245,0.053 0.25247,0.052 0.25247,0.052 0.25245,0.052 0.25245,0.052 0.25247,0.052 0.25245,0.052 0.25247,0.051 0.25245,0.051 0.25247,0.051 0.25245,0.051 0.25247,0.051 0.25247,0.051 0.25245,0.051 0.25245,0.049 0.25247,0.049 0.25247,0.049 0.25243,0.049 0.25247,0.049 0.25247,0.049 0.25246,0.049 0.25244,0.048 0.25247,0.048 0.25247,0.048 0.25246,0.048 0.25244,0.049 0.25247,0.048 0.25247,0.048 0.25246,0.048 0.25244,0.048 0.25247,0.048 0.25246,0.048 0.25247,0.047 0.25247,0.047 0.25244,0.047 0.25246,0.047 0.25247,0.047 0.25247,0.047 0.25244,0.046 0.25246,0.046 0.25247,0.046 0.25247,0.046 0.25244,0.046 0.25246,0.046 0.25247,0.046 0.25246,0.044 0.25244,0.044 0.25247,0.046 0.25247,0.044 0.25246,0.044 0.25244,0.044 0.25247,0.044 0.25247,0.044 0.25246,0.043 0.25247,0.044 0.25244,0.044 0.25247,0.043 0.25246,0.043 0.25247,0.043 0.25244,0.043 0.25246,0.043 0.25247,0.043 0.25247,0.042 0.25244,0.042 0.25246,0.042 0.25247,0.042 0.25247,0.042 0.25244,0.042 0.25246,0.042 0.25247,0.041 0.25246,0.042 0.25245,0.041 0.25246,0.042 0.25247,0.042 0.25245,0.04 0.25247,0.039 0.25245,0.04 0.25247,0.04 0.25245,0.039 0.25247,0.04 0.25245,0.039 0.25247,0.04 0.25245,0.04 0.25247,0.039 0.25245,0.038 0.25247,0.038 0.25245,0.038 0.25247,0.038 0.25245,0.038 0.25245,0.037 0.25247,0.037 0.25247,0.038 0.25245,0.037 0.25245,0.037 0.25247,0.036 0.25247,0.036 0.25246,0.036 0.25244,0.036 0.25247,0.036 0.25247,0.036 0.25246,0.036 0.25244,0.036 0.25247,0.036 0.25246,0.034 0.25247,0.035 0.25244,0.035 0.25247,0.035 0.25246,0.035 0.25247,0.033 0.25244,0.033 0.25247,0.033 0.25246,0.033 0.25247,0.032 0.25244,0.032 0.25246,0.032 0.25247,0.032 0.25247,0.032 0.25245,0.032 0.25245,0.032 0.25247,0.032 0.25247,0.032 0.25245,0.03 0.25245,0.03 0.25247,0.031 0.25247,0.03 0.25245,0.03 0.25245,0.03 0.25247,0.03 0.25245,0.03 0.25247,0.028 0.25245,0.028 0.25247,0.028 0.25245,0.028 0.25247,0.028 0.25245,0.027 0.25247,0.028 0.25245,0.027 0.25247,0.026 0.25247,0.027 0.25245,0.027 0.25245,0.026 0.25247,0.026 0.25246,0.026 0.25244,0.026 0.25247,0.025 0.25247,0.025 0.25246,0.025 0.25244,0.023 0.25247,0.023 0.25247,0.024 0.25246,0.023 0.25244,0.022 0.25247,0.023 0.25247,0.022 0.25246,0.022 0.25244,0.022 0.25247,0.022 0.25246,0.022 0.25247,0.021 0.25247,0.021 0.25244,0.021 0.25246,0.02 0.25247,0.02 0.25247,0.02 0.25244,0.019 0.25246,0.02 0.25247,0.019 0.25247,0.018 0.25244,0.019 0.25246,0.018 0.25247,0.017 0.25246,0.017 0.25244,0.017 0.25247,0.016 0.25247,0.016 0.25246,0.016 0.25244,0.016 0.25247,0.016 0.25247,0.015 0.25246,0.014 0.25247,0.014 0.25244,0.014 0.25247,0.014 0.25246,0.014 0.25247,0.012 0.25244,0.012 0.25246,0.012 0.25247,0.012 0.25247,0.012 0.25244,0.012 0.25246,0.012 0.25247,0.012 0.25247,0.012 0.25244,0.012 0.25246,0.012 0.25247,0.012 0.25247,0.012 0.25243,0.012 0.25247,0.012 0.25247,0.012 0.25245,0.012 0.25247,0.012 0.25245,0.012 0.25247,0.012 0.25245,0.012 0.25247,0.012 h 0.25245 0.25247 0.25245 0.25247 0.25245 0.25245 0.25247 0.25247 0.25245 0.25245 l 0.25247,4e-4 h 0.25247 l 0.25245,-4e-4 h 0.25245 0.25247 0.25247 0.25246 0.25244 0.25247 0.25246 0.25247 0.25244 l 0.25247,-0.012 0.25246,-0.012 0.25247,-0.012 0.25244,-0.012 0.25247,-0.012 0.25246,-0.012 0.25247,-0.012 0.25244,-0.012 0.25247,-0.012 0.25246,-0.012 0.25247,-0.012 0.25244,-0.012 0.25246,-0.012 0.25247,-0.012 0.25247,-0.012 0.25246,-0.012 0.25244,-0.012 0.25247,-0.014 0.25247,-0.014 0.25246,-0.014 0.25244,-0.014 0.25247,-0.016 0.25247,-0.016 0.25245,-0.016 0.25245,-0.017 0.25247,-0.017 0.25246,-0.018 0.25246,-0.019 0.25245,-0.019 0.25247,-0.02 0.25246,-0.02 0.25246,-0.021 0.25245,-0.022 0.25247,-0.022 0.25246,-0.023 0.25246,-0.022 0.25247,-0.024 0.25245,-0.023 0.25246,-0.025 0.25246,-0.026 0.25246,-0.026 0.25245,-0.027 0.25247,-0.028 0.25246,-0.027 0.25246,-0.028 0.25245,-0.03 0.25246,-0.03 0.25247,-0.03 0.25246,-0.032 0.25245,-0.032 0.25246,-0.032 0.25247,-0.033 0.25246,-0.033 0.25245,-0.035 0.25246,-0.036 0.25246,-0.036 0.25247,-0.036 0.25247,-0.037 0.25244,-0.038 0.25246,-0.038 0.25247,-0.039 0.25247,-0.04 0.25244,-0.039 0.25246,-0.041 0.25247,-0.042 0.25247,-0.043 0.25243,-0.043 0.25247,-0.043 0.25247,-0.044 0.25246,-0.044 0.25244,-0.046 0.25247,-0.047 0.25247,-0.048 0.25246,-0.048 0.25244,-0.048 0.25247,-0.049 0.25247,-0.051 0.25246,-0.052 0.25247,-0.052 0.25244,-0.052 0.25246,-0.053 0.25247,-0.054 0.25247,-0.055 0.25244,-0.056 0.25246,-0.055 0.25247,-0.058 0.25247,-0.058 0.25244,-0.059 0.25246,-0.061 0.25247,-0.062 0.25247,-0.062 0.25244,-0.062 0.25246,-0.063 0.25247,-0.064 0.25247,-0.065 0.25243,-0.065 0.25247,-0.067 0.25247,-0.068 0.25245,-0.069 0.25247,-0.069 0.25245,-0.07 0.25247,-0.07 0.25245,-0.072 0.25247,-0.073 0.25245,-0.074 0.25247,-0.074 0.25245,-0.075 0.25247,-0.076 0.25245,-0.078 0.25245,-0.079 0.25247,-0.079 0.25247,-0.08 0.25245,-0.082 0.25245,-0.081 0.25247,-0.083 0.25247,-0.084 0.25245,-0.085 0.25245,-0.086 0.25247,-0.086 0.25247,-0.088 0.25246,-0.089 0.25244,-0.09 0.25247,-0.091 0.25246,-0.092 0.25247,-0.094 0.25244,-0.095 0.25247,-0.095 0.25246,-0.096 0.25247,-0.098 0.25244,-0.099 0.25247,-0.1 0.25246,-0.1013 0.25247,-0.1012 0.25244,-0.1024 0.25247,-0.1037 0.25246,-0.1049 0.25247,-0.1062 0.25244,-0.1074 0.25246,-0.1086 0.25247,-0.1098 0.25247,-0.1111 0.25246,-0.1123 0.25244,-0.1124 0.25247,-0.1135 0.25247,-0.1148 0.25246,-0.116 0.25244,-0.1173 0.25247,-0.1185 0.25247,-0.1197 0.25246,-0.121 0.25244,-0.1222 0.25247,-0.1238 0.25246,-0.1249 0.25247,-0.1262 0.25244,-0.1275 0.25247,-0.1288 0.25246,-0.1302 0.25247,-0.1312 0.25244,-0.1327 0.25247,-0.1338 0.25246,-0.1353 0.25247,-0.1365 0.25247,-0.138 0.25244,-0.1391 0.25246,-0.1406 0.25247,-0.1419 0.25245,-0.1433 0.25245,-0.1447 0.25247,-0.146 0.25247,-0.1474 0.25245,-0.1488 0.25245,-0.1502 0.25247,-0.1517 0.25247,-0.1531 0.25245,-0.1545 0.25245,-0.156 0.25247,-0.1574 0.25247,-0.159 0.25245,-0.1603 0.25245,-0.162 0.25247,-0.1633 0.25245,-0.1649 0.25247,-0.1664 0.25247,-0.1678 0.25245,-0.1696 0.25245,-0.1711 0.25247,-0.1725 0.25247,-0.1742 0.25245,-0.1758 0.25245,-0.1773 0.25247,-0.1791 0.25247,-0.1805 0.25243,-0.1823 0.25247,-0.1838 0.25247,-0.1855 0.25246,-0.1872 0.25244,-0.1888 0.25247,-0.1905 0.25247,-0.1923 0.25246,-0.1941 0.25244,-0.1957 0.25247,-0.1974 0.25247,-0.1991 0.25246,-0.2009 0.25247,-0.2027 0.25244,-0.2045 0.25246,-0.2063 0.25247,-0.2082 0.25247,-0.2099 0.25244,-0.2119 0.25246,-0.2136 0.25247,-0.2154 0.25247,-0.2174 0.25244,-0.2193 0.25246,-0.2212 0.25247,-0.223 0.25247,-0.2252 0.25244,-0.227 0.25246,-0.2288 0.25247,-0.2311 0.25245,-0.2328 0.25245,-0.235 0.25247,-0.237 0.25247,-0.2389 0.25245,-0.2411 0.25247,-0.243 0.25245,-0.2451 0.25247,-0.2474 0.25245,-0.2493 0.25247,-0.2516 0.25245,-0.2536 0.25247,-0.2558 0.25245,-0.2581 0.25247,-0.2602 0.25245,-0.2622 0.25245,-0.2648 0.25247,-0.2667 0.25247,-0.2692 0.25245,-0.2713 0.25245,-0.2738 0.25247,-0.276 0.25247,-0.2783 0.25245,-0.2807 0.25245,-0.283 0.25247,-0.2855 0.25247,-0.2876 0.25246,-0.2903 0.25244,-0.2927 0.25247,-0.2951 0.25246,-0.2976 0.25247,-0.3001 0.25244,-0.3025 0.25247,-0.3052 0.25246,-0.3076 0.25247,-0.3103 0.25244,-0.3128 0.25247,-0.3155 0.25246,-0.3181 0.25247,-0.3206 0.25244,-0.3235 0.25247,-0.3259 0.25246,-0.3289 0.25247,-0.3314 0.25244,-0.3344 0.25246,-0.3371 0.25247,-0.3398 0.25247,-0.3426 0.25246,-0.3455 0.25244,-0.3485 0.25247,-0.3513 0.25247,-0.3541 0.25246,-0.3572 0.25244,-0.36 0.25247,-0.3632 0.25247,-0.3659 0.25246,-0.3691 0.25244,-0.3723 0.25247,-0.3752 0.25246,-0.3783 0.25247,-0.3814 0.25244,-0.3846 0.25247,-0.3878 0.25246,-0.391 0.25247,-0.3943 0.25247,-0.3976 0.25244,-0.4006 0.25246,-0.4042 0.25247,-0.4075 0.25247,-0.4106 0.25243,-0.4144 0.25247,-0.4174 0.25247,-0.4212 0.25245,-0.4246 0.25245,-0.4279 0.25247,-0.4316 0.25247,-0.4351 0.25245,-0.4388 0.25245,-0.4425 0.25247,-0.4461 0.25247,-0.4498 0.25245,-0.4535 0.25245,-0.457 0.25247,-0.461 0.25245,-0.4649 0.25247,-0.4686 0.25247,-0.4727 0.25245,-0.4764 0.25245,-0.4804 0.25247,-0.4843 0.25247,-0.4884 0.25245,-0.4925 0.25245,-0.4966 0.25247,-0.5007 0.25247,-0.5047 0.25245,-0.5092 0.25245,-0.5132 0.25247,-0.5176 0.25246,-0.5218 0.25244,-0.5262 0.25247,-0.5305 0.25247,-0.535 0.25246,-0.5395 0.25244,-0.5439 0.25247,-0.5486 0.25247,-0.5529 0.25246,-0.5577 0.25247,-0.5624 0.25244,-0.5671 0.25247,-0.5717 0.25246,-0.5767 0.25247,-0.5815 0.25244,-0.5861 0.25246,-0.5913 0.25247,-0.5961 0.25247,-0.6014 0.25244,-0.6061 0.25246,-0.6114 0.25247,-0.6165 0.25247,-0.6219 0.25244,-0.6269 0.25246,-0.6322 0.25247,-0.6376 0.25247,-0.643 0.25244,-0.6484 0.25246,-0.6539 0.25247,-0.6595 0.25246,-0.6651 0.25246,-0.6708 0.25245,-0.6764 0.25247,-0.6822 0.25246,-0.688 0.25246,-0.6938 0.25245,-0.6998 0.25247,-0.7058 0.25246,-0.7118 0.25246,-0.7179 0.25245,-0.7241 0.25247,-0.7304 0.25246,-0.7365 0.25246,-0.7429 0.25245,-0.7493 0.25246,-0.7557 0.25247,-0.7623 0.25246,-0.7688 0.25245,-0.7756 0.25246,-0.7823 0.25246,-0.7889 0.25247,-0.7959 0.25246,-0.8028 0.25245,-0.8098 0.25246,-0.8169 0.25247,-0.8239 0.25246,-0.8311 0.25245,-0.8385 0.25246,-0.8459 0.25246,-0.8531 0.25247,-0.8607 0.25245,-0.8683 0.25246,-0.8759 0.25246,-0.8836 0.25247,-0.8914 0.25245,-0.8995 0.25246,-0.9073 0.25246,-0.9154 0.25247,-0.9235 0.25245,-0.9316 0.25245,-0.9401 0.25247,-0.9484 0.25247,-0.957 0.25246,-0.9654 0.25244,-0.9741 0.25247,-0.9828 0.25247,-0.9919 0.25246,-1.0005 0.25244,-1.0098 0.25247,-1.0188 0.25247,-1.0279 0.25246,-1.0374 0.25244,-1.0469 0.25247,-1.0563 0.25246,-1.066 0.25247,-1.0756 0.25244,-1.0856 0.25247,-1.0955 0.25246,-1.1055 0.25247,-1.1157 0.25244,-1.126 0.25247,-1.1364 0.25246,-1.1468 0.25247,-1.1576 0.25247,-1.1684 0.25244,-1.1791 0.25246,-1.1901 0.25247,-1.2012 0.25245,-1.2126 0.25245,-1.2238 0.25247,-1.2353 0.25247,-1.247 0.25245,-1.2588 0.25245,-1.2707 0.25247,-1.2824 0.25247,-1.2949 0.25245,-1.307 0.25245,-1.3197 0.25247,-1.3321 0.25247,-1.3449 0.25245,-1.3578 0.25245,-1.371 0.25247,-1.384 0.25245,-1.3975 0.25247,-1.4108 0.25247,-1.4246 0.25245,-1.4385 0.25245,-1.4524 0.25247,-1.4666 0.25247,-1.4809 0.25245,-1.4955 0.25245,-1.51 0.25247,-1.5251 0.25247,-1.5399 0.25245,-1.5554 0.25245,-1.5707 0.25247,-1.5862 0.25246,-1.6022 0.25244,-1.618 0.25247,-1.6344 0.25247,-1.6507 0.25246,-1.6673 0.25244,-1.6841 0.25247,-1.7011 0.25247,-1.7184 0.25246,-1.735902 0.25247,-1.7535 0.25244,-1.7713 0.25247,-1.7896 0.25246,-1.8079 0.25247,-1.8265 0.25244,-1.8454 0.25246,-1.8645 0.25247,-1.8837 0.25247,-1.9033 0.25244,-1.9232 0.25246,-1.9433 0.25247,-1.9638 0.25247,-1.9842 0.25244,-2.0053 0.25246,-2.0264 0.25247,-2.0479 0.25247,-2.0697 0.25243,-2.0917 0.25247,-2.114"
     style="fill:none;stroke:#0000ff;stroke-width:1.66666651;stroke-linecap:round;stroke-linejoin:round;stroke-dasharray:none"
     inkscape:label="none"
     id="path1471" />
  <path
     style="fill:none;stroke:#000000;stroke-width:0.6;stroke-linecap:butt;stroke-linejoin:miter;stroke-opacity:1;stroke-miterlimit:4;stroke-dasharray:1.8,1.8;stroke-dashoffset:0"
     d="M 1.0690781,167.74035 H 308.96356"
     id="path1522"
     inkscape:connector-curvature="0" />
  <text
     xml:space="preserve"
     style="font-style:normal;font-weight:normal;font-size:10.58333302px;line-height:1.25;font-family:sans-serif;letter-spacing:0px;word-spacing:0px;fill:#000000;fill-opacity:1;stroke:none;stroke-width:0.26458332"
     x="83.154762"
     y="157.91455"
     id="text1526"><tspan
       sodipodi:role="line"
       id="tspan1524"
       x="83.154762"
       y="157.91455"
       style="stroke-width:0.26458332">$E'&gt;V'\+_eff_\pare{\theta_0}$</tspan></text>
  <path
     inkscape:connector-curvature="0"
     id="path1528"
     d="M 1.0690781,288.39042 H 308.96356"
     style="fill:none;stroke:#000000;stroke-width:0.60000002;stroke-linecap:butt;stroke-linejoin:miter;stroke-miterlimit:4;stroke-dasharray:1.8, 1.8;stroke-dashoffset:0;stroke-opacity:1" />
  <text
     id="text1532"
     y="278.56458"
     x="144.3869"
     style="font-style:normal;font-weight:normal;font-size:10.58333302px;line-height:1.25;font-family:sans-serif;letter-spacing:0px;word-spacing:0px;fill:#000000;fill-opacity:1;stroke:none;stroke-width:0.26458332"
     xml:space="preserve"><tspan
       style="stroke-width:0.26458332"
       y="278.56458"
       x="144.3869"
       id="tspan1530"
       sodipodi:role="line">$V'\+_eff_\pare{\theta_0}$</tspan></text>
  <path
     inkscape:connector-curvature="0"
     id="path1534"
     d="M 37.087747,168.0074 V 343.6102"
     style="fill:none;stroke:#000000;stroke-width:0.60000002;stroke-linecap:butt;stroke-linejoin:miter;stroke-miterlimit:4;stroke-dasharray:1.79999998, 1.79999998;stroke-dashoffset:0;stroke-opacity:1" />
  <path
     style="fill:none;stroke:#000000;stroke-width:0.60000002;stroke-linecap:butt;stroke-linejoin:miter;stroke-miterlimit:4;stroke-dasharray:1.79999998, 1.79999998;stroke-dashoffset:0;stroke-opacity:1"
     d="M 269.16513,168.0074 V 343.6102"
     id="path1536"
     inkscape:connector-curvature="0" />
  <text
     xml:space="preserve"
     style="font-style:normal;font-weight:normal;font-size:10.58333302px;line-height:1.25;font-family:sans-serif;letter-spacing:0px;word-spacing:0px;fill:#000000;fill-opacity:1;stroke:none;stroke-width:0.26458332"
     x="40.065475"
     y="337.83124"
     id="text1540"><tspan
       sodipodi:role="line"
       id="tspan1538"
       x="40.065475"
       y="337.83124"
       style="stroke-width:0.26458332">$\theta_1$</tspan></text>
  <text
     id="text1544"
     y="337.83124"
     x="229.05357"
     style="font-style:normal;font-weight:normal;font-size:10.58333302px;line-height:1.25;font-family:sans-serif;letter-spacing:0px;word-spacing:0px;fill:#000000;fill-opacity:1;stroke:none;stroke-width:0.26458332"
     xml:space="preserve"><tspan
       style="stroke-width:0.26458332"
       y="337.83124"
       x="229.05357"
       id="tspan1542"
       sodipodi:role="line">$\theta_2$</tspan></text>
</svg>
