<?xml version="1.0" encoding="UTF-8" standalone="no"?>
<!-- Created with Inkscape (http://www.inkscape.org/) -->

<svg
   xmlns:dc="http://purl.org/dc/elements/1.1/"
   xmlns:cc="http://creativecommons.org/ns#"
   xmlns:rdf="http://www.w3.org/1999/02/22-rdf-syntax-ns#"
   xmlns:svg="http://www.w3.org/2000/svg"
   xmlns="http://www.w3.org/2000/svg"
   xmlns:sodipodi="http://sodipodi.sourceforge.net/DTD/sodipodi-0.dtd"
   xmlns:inkscape="http://www.inkscape.org/namespaces/inkscape"
   width="203.57301mm"
   height="211.81133mm"
   viewBox="0 0 203.57301 211.81133"
   version="1.1"
   id="svg8"
   inkscape:version="0.92.2 5c3e80d, 2017-08-06"
   sodipodi:docname="NegativeFixedPoint.svg">
  <sodipodi:namedview
     id="base"
     pagecolor="#ffffff"
     bordercolor="#666666"
     borderopacity="1.0"
     inkscape:pageopacity="0.0"
     inkscape:pageshadow="2"
     inkscape:zoom="0.35"
     inkscape:cx="-265.05199"
     inkscape:cy="314.74708"
     inkscape:document-units="mm"
     inkscape:current-layer="svg8"
     showgrid="false"
     inkscape:window-width="1440"
     inkscape:window-height="789"
     inkscape:window-x="-2"
     inkscape:window-y="0"
     inkscape:window-maximized="0" />
  <defs
     id="defs2">
    <marker
       inkscape:stockid="ArrowAxisStart"
       style="overflow:visible"
       refY="0"
       refX="0"
       orient="auto"
       id="ArrowAxisStart">
      <path
         id="path4706"
         transform="matrix(0.4,0,0,0.4,3.5272,0)"
         style="fill:#000000;fill-rule:evenodd;stroke:#000000;stroke-width:1"
         d="M 0,0 5,-5 -12.5,0 5,5 Z"
         inkscape:connector-curvature="0" />
    </marker>
    <marker
       inkscape:stockid="ArrowAxisEnd"
       style="overflow:visible"
       refY="0"
       refX="0"
       orient="auto"
       id="ArrowAxisEnd">
      <path
         id="path4709"
         transform="matrix(-0.4,0,0,-0.4,-3.5272,0)"
         style="fill:#000000;fill-rule:evenodd;stroke:#000000;stroke-width:1"
         d="M 0,0 5,-5 -12.5,0 5,5 Z"
         inkscape:connector-curvature="0" />
    </marker>
  </defs>
  <metadata
     id="metadata5">
    <rdf:RDF>
      <cc:Work
         rdf:about="">
        <dc:format>image/svg+xml</dc:format>
        <dc:type
           rdf:resource="http://purl.org/dc/dcmitype/StillImage" />
        <dc:title />
      </cc:Work>
    </rdf:RDF>
  </metadata>
  <g
     id="layer1"
     inkscape:groupmode="layer"
     inkscape:label="Layer 1"
     transform="translate(-17.856359,-51.296701)" />
  <g
     id="g4735"
     inkscape:label="PlotData"
     transform="translate(-36.565226,40.644016)">
    <g
       id="g4731"
       transform="translate(40,150)"
       inkscape:label="Plot">
      <g
         id="g4715"
         inkscape:label="Ticks" />
      <g
         id="g4729"
         inkscape:label="Axis">
        <path
           id="path4717"
           inkscape:label="Xaxis"
           style="fill:none;stroke:#4c4c4c;stroke-width:1.42857146;stroke-linecap:round;stroke-linejoin:round;stroke-dasharray:none;marker-end:url(#ArrowAxisEnd)"
           d="M 0,0 H 175"
           inkscape:connector-curvature="0" />
        <text
           id="text4721"
           transform="translate(170.83333,18.75)"
           xml:space="preserve"
           y="0"
           x="0"
           style="font-style:normal;font-weight:normal;font-size:16.44736862px;line-height:100%;font-family:Sans;text-align:start;letter-spacing:0px;word-spacing:0px;text-anchor:start;fill:#000000;fill-opacity:1;stroke:none"><tspan
             id="tspan4719"
             sodipodi:role="line"
             y="0"
             x="0">$x$</tspan></text>
        <path
           id="path4723"
           inkscape:label="Yaxis"
           style="fill:none;stroke:#4c4c4c;stroke-width:1.42857146;stroke-linecap:round;stroke-linejoin:round;stroke-dasharray:none;marker-end:url(#ArrowAxisEnd)"
           d="M 0,0 V -187.5"
           inkscape:connector-curvature="0" />
        <text
           id="text4727"
           transform="translate(6.25,-175)"
           xml:space="preserve"
           y="0"
           x="0"
           style="font-style:normal;font-weight:normal;font-size:16.44736862px;line-height:100%;font-family:Sans;text-align:start;letter-spacing:0px;word-spacing:0px;text-anchor:start;fill:#000000;fill-opacity:1;stroke:none"><tspan
             id="tspan4725"
             sodipodi:role="line"
             y="0"
             x="0">$y(x)$</tspan></text>
      </g>
    </g>
    <path
       id="path4733"
       inkscape:label="none"
       style="fill:none;stroke:#0000ff;stroke-width:1.66666663;stroke-linecap:round;stroke-linejoin:round;stroke-dasharray:none"
       d="m 40,30 0.15015,0.359281 0.15015,0.357137 0.15015,0.355011 0.150151,0.352903 0.15015,0.350816 0.15015,0.348746 0.15015,0.346694 0.15015,0.344661 0.15015,0.342646 0.150151,0.340647 0.15015,0.338667 0.15015,0.336704 0.15015,0.334758 0.15015,0.332828 0.15015,0.330915 0.15015,0.329019 0.150151,0.327138 0.15015,0.325275 0.15015,0.323427 0.15015,0.321594 0.15015,0.319777 0.15015,0.317976 0.15015,0.316189 0.150151,0.314418 0.15015,0.312661 0.15015,0.31092 0.15015,0.309192 0.15015,0.307479 0.15015,0.305781 0.150151,0.304095 0.15015,0.302425 0.15015,0.300768 0.15015,0.299124 0.15015,0.297494 0.15015,0.295877 0.15015,0.294274 L 45.555556,42 l 0.15015,0.291105 0.15015,0.28954 0.15015,0.287988 0.15015,0.286447 0.15015,0.28492 0.15015,0.283404 0.150151,0.281901 0.15015,0.280409 0.15015,0.27893 0.15015,0.277461 0.15015,0.276005 0.15015,0.27456 0.150151,0.273126 0.15015,0.271704 0.15015,0.270292 0.15015,0.268892 0.15015,0.267502 0.15015,0.266123 0.15015,0.264755 0.150151,0.263398 0.15015,0.26205 0.15015,0.260712 0.15015,0.259387 0.15015,0.258069 0.15015,0.256763 0.15015,0.255466 0.150151,0.254179 0.15015,0.252902 0.15015,0.251634 0.15015,0.250376 0.15015,0.249127 0.15015,0.247888 0.150151,0.246657 0.15015,0.245437 0.15015,0.244224 0.15015,0.243022 0.15015,0.241827 0.15015,0.240642 0.15015,0.239465 0.150151,0.238296 0.15015,0.237138 0.15015,0.235986 0.15015,0.234843 0.15015,0.233709 0.15015,0.232582 0.15015,0.231465 0.150151,0.230354 0.15015,0.229252 0.15015,0.228158 0.15015,0.227071 0.15015,0.225992 0.15015,0.224922 0.150151,0.223858 0.15015,0.222802 0.15015,0.221754 0.15015,0.220712 0.15015,0.219679 0.15015,0.218652 0.15015,0.217633 0.150151,0.21662 0.15015,0.215616 0.15015,0.214617 0.15015,0.213626 0.15015,0.212641 0.15015,0.211664 0.15015,0.210693 0.150151,0.209728 0.15015,0.208771 0.15015,0.20782 0.15015,0.206875 0.15015,0.205937 0.15015,0.205005 0.150151,0.20408 0.15015,0.20316 0.15015,0.202247 0.15015,0.20134 0.15015,0.20044 0.15015,0.199544 0.15015,0.198656 0.150151,0.197773 0.15015,0.196896 0.15015,0.196024 0.15015,0.195159 0.15015,0.1943 0.15015,0.193445 0.15015,0.192597 0.150151,0.191754 0.15015,0.190917 0.15015,0.190084 0.15015,0.189259 0.15015,0.188437 0.15015,0.187622 0.150151,0.186811 0.15015,0.186005 0.15015,0.185206 0.15015,0.184411 0.15015,0.183621 0.15015,0.182837 0.15015,0.182056 0.150151,0.181282 0.15015,0.180513 0.15015,0.179747 0.15015,0.178987 0.15015,0.178233 0.15015,0.177481 0.15015,0.176736 0.150151,0.175995 0.15015,0.175259 0.15015,0.174526 0.15015,0.1738 0.15015,0.173077 0.15015,0.172359 0.150151,0.171645 0.15015,0.170936 0.15015,0.17023 0.15015,0.169531 0.15015,0.168834 0.15015,0.168142 0.15015,0.167455 0.150151,0.166771 0.15015,0.166091 0.15015,0.165417 0.15015,0.164745 0.15015,0.164079 0.15015,0.163415 0.15015,0.162757 0.150151,0.162102 0.15015,0.16145 0.15015,0.160804 0.15015,0.16016 0.15015,0.159521 0.15015,0.158885 0.150151,0.158254 0.15015,0.157626 0.15015,0.157001 0.15015,0.156381 0.15015,0.155764 0.15015,0.155151 0.15015,0.154541 0.150151,0.153935 0.15015,0.153332 0.15015,0.152734 0.15015,0.152138 0.15015,0.151546 0.15015,0.150958 0.15015,0.150373 0.150151,0.14979 0.15015,0.149213 0.15015,0.148637 0.15015,0.148066 0.15015,0.147498 0.15015,0.146932 0.150151,0.14637 0.15015,0.145812 0.15015,0.145256 0.15015,0.144704 0.15015,0.144155 0.15015,0.143609 0.15015,0.143066 0.150151,0.142526 0.15015,0.141989 0.15015,0.141455 0.15015,0.140925 0.15015,0.140396 0.15015,0.139872 0.15015,0.13935 0.150151,0.138831 0.15015,0.138315 0.15015,0.137802 0.15015,0.137291 0.15015,0.136784 0.15015,0.136279 0.150151,0.135777 0.15015,0.135278 0.15015,0.134781 0.15015,0.134288 0.15015,0.133797 0.15015,0.133308 0.15015,0.132823 0.150151,0.13234 0.15015,0.131859 0.15015,0.131382 0.15015,0.130906 0.15015,0.130434 0.15015,0.129964 0.15015,0.129496 0.150151,0.129032 0.15015,0.128569 0.15015,0.128109 0.15015,0.127651 0.15015,0.127196 0.15015,0.126744 0.150151,0.126294 0.15015,0.125845 0.15015,0.1254 0.15015,0.124957 0.15015,0.124517 0.15015,0.124077 0.15015,0.123642 0.150151,0.123208 0.15015,0.122776 0.15015,0.122347 0.15015,0.12192 0.15015,0.121495 0.15015,0.121073 0.15015,0.120652 0.150151,0.120234 0.15015,0.119818 0.15015,0.119404 0.15015,0.118992 0.15015,0.118583 0.15015,0.118175 0.150151,0.11777 0.15015,0.117366 0.15015,0.116966 0.15015,0.116566 0.15015,0.116169 0.15015,0.115773 0.15015,0.115381 0.150151,0.114989 0.15015,0.114601 0.15015,0.114213 0.15015,0.113828 0.15015,0.113445 0.15015,0.113063 0.15015,0.112684 0.150151,0.112307 0.15015,0.111931 0.15015,0.111557 0.15015,0.111185 0.15015,0.110815 0.15015,0.110447 0.150151,0.110081 0.15015,0.109717 0.15015,0.109353 0.15015,0.108993 0.15015,0.108634 0.15015,0.108276 0.15015,0.10792 0.150151,0.107567 0.15015,0.107215 0.15015,0.106864 0.15015,0.106516 0.15015,0.106169 0.15015,0.105823 0.15015,0.10548 0.150151,0.105138 0.15015,0.104798 0.15015,0.104459 0.15015,0.104122 0.15015,0.103787 0.15015,0.103453 0.150151,0.103121 0.15015,0.10279 0.15015,0.102462 0.15015,0.102134 0.15015,0.101809 0.15015,0.101484 0.15015,0.101161 0.150151,0.100841 0.15015,0.10052 0.15015,0.100203 0.15015,0.09989 0.15015,0.09957 0.15015,0.09926 0.15015,0.09895 0.150151,0.09864 0.15015,0.09833 0.15015,0.09802 0.15015,0.09771 0.15015,0.09741 0.15015,0.0971 0.150151,0.0968 0.15015,0.0965 0.15015,0.0962 0.15015,0.0959 0.15015,0.09561 0.15015,0.09531 0.15015,0.09502 0.150151,0.09473 0.15015,0.09444 0.15015,0.09414 0.15015,0.09386 0.15015,0.09357 0.15015,0.09328 0.15015,0.093 0.150151,0.09272 0.15015,0.09243 0.15015,0.09215 0.15015,0.09187 0.15015,0.0916 0.15015,0.09132 0.150151,0.09104 0.15015,0.09077 0.15015,0.0905 L 90,90 l 0.15015,0.08996 0.15015,0.08969 0.15015,0.08942 0.150151,0.08915 0.15015,0.08889 0.15015,0.08862 0.15015,0.08836 0.15015,0.08809 0.15015,0.08783 0.150151,0.08757 0.15015,0.08732 0.15015,0.08706 0.15015,0.0868 0.15015,0.08655 0.15015,0.08629 0.15015,0.08604 0.150151,0.08579 0.15015,0.08554 0.15015,0.08529 0.15015,0.08504 0.15015,0.08479 0.15015,0.08454 0.15015,0.0843 0.150151,0.08405 0.15015,0.08381 0.15015,0.08357 0.15015,0.08333 0.15015,0.08309 0.15015,0.08285 0.150151,0.08261 0.15015,0.08237 0.15015,0.08214 0.15015,0.0819 0.15015,0.08167 0.15015,0.08143 0.15015,0.0812 0.150151,0.08097 0.15015,0.08074 0.15015,0.08051 0.15015,0.08028 0.15015,0.08006 0.15015,0.07983 0.15015,0.07961 0.150151,0.07938 0.15015,0.07916 0.15015,0.07894 0.15015,0.07872 0.15015,0.07849 0.15015,0.07827 0.150151,0.07806 0.15015,0.07784 0.15015,0.07762 0.15015,0.0774 0.15015,0.07719 0.15015,0.07698 0.15015,0.07676 0.150151,0.07655 0.15015,0.07634 0.15015,0.07613 0.15015,0.07592 0.15015,0.07571 0.15015,0.0755 0.15015,0.0753 0.150151,0.07509 0.15015,0.07488 0.15015,0.07468 0.15015,0.07448 0.15015,0.07427 0.15015,0.07407 0.15015,0.07387 0.15015,0.07367 0.15015,0.07347 0.15015,0.07327 0.15015,0.07307 0.15015,0.07287 0.15015,0.07268 0.15015,0.07248 0.15015,0.07229 0.15015,0.07209 0.15015,0.0719 0.15015,0.07171 0.15015,0.07152 0.15015,0.07133 0.15015,0.07113 0.15015,0.07094 0.15015,0.07076 0.15015,0.07057 0.15015,0.07038 0.15015,0.07019 0.15015,0.07001 0.15015,0.06982 0.15015,0.06964 0.15015,0.06946 0.15015,0.06927 0.15015,0.06909 0.15015,0.06891 0.15015,0.06873 0.15015,0.06855 0.15015,0.06837 0.15016,0.06819 0.15015,0.06802 0.15015,0.06784 0.15015,0.06766 0.15015,0.06749 0.15015,0.06731 0.15015,0.06714 0.15015,0.06696 0.15015,0.06679 0.15015,0.06662 0.15015,0.06645 0.15015,0.06627 0.15015,0.0661 0.15015,0.06593 0.15015,0.06576 0.15015,0.0656 0.15015,0.06543 0.15015,0.06526 0.15015,0.06509 0.15015,0.06493 0.15015,0.06476 0.15015,0.0646 0.15015,0.06443 0.15015,0.06427 0.15015,0.06411 0.15015,0.06395 0.15015,0.06379 0.15015,0.06362 0.15015,0.06347 0.15015,0.0633 0.15015,0.06315 0.15015,0.06299 0.15015,0.06283 0.15015,0.06267 0.15015,0.06252 0.15015,0.0624 0.15015,0.0622 0.15015,0.062 0.15015,0.0619 0.15015,0.0617 0.15015,0.0616 0.15015,0.0614 0.15015,0.0613 0.15015,0.0611 0.15015,0.061 0.15015,0.0608 0.15015,0.0607 0.15015,0.0605 0.15015,0.0604 0.15015,0.0602 0.15015,0.0601 0.15015,0.0599 0.15015,0.0598 0.15015,0.0596 0.15015,0.0595 0.15015,0.0594 0.15015,0.0592 0.15015,0.0591 0.15015,0.0589 0.15015,0.0588 0.15015,0.0586 0.15015,0.0585 0.15015,0.0584 0.15015,0.0582 0.15015,0.0581 0.15015,0.0579 0.15015,0.0578 0.15016,0.0577 0.15015,0.0575 0.15015,0.0574 0.15015,0.0572 0.15015,0.0571 0.15015,0.057 0.15015,0.0568 0.15015,0.0567 0.15015,0.0566 0.15015,0.0564 0.15015,0.0563 0.15015,0.0562 0.15015,0.056 0.15015,0.0559 0.15015,0.0558 0.15015,0.0556 0.15015,0.0555 0.15015,0.0554 0.15015,0.0552 0.15015,0.0551 0.15015,0.055 0.15015,0.0549 0.15015,0.0547 0.15015,0.0546 0.15015,0.0545 0.15015,0.0543 0.15015,0.0542 0.15015,0.0541 0.15015,0.054 0.15015,0.0538 0.15015,0.0537 0.15015,0.0536 0.15015,0.0535 0.15015,0.0533 0.15015,0.0532 0.15015,0.0531 0.15015,0.053 0.15015,0.0529 0.15015,0.0527 0.15015,0.0526 0.15015,0.0525 0.15015,0.0524 0.15015,0.0523 0.15015,0.0521 0.15015,0.052 0.15015,0.0519 0.15015,0.0518 0.15015,0.0517 0.15015,0.0515 0.15015,0.0514 0.15015,0.0513 0.15015,0.0512 0.15015,0.0511 0.15015,0.051 0.15015,0.0508 0.15015,0.0507 0.15015,0.0506 0.15015,0.0505 0.15015,0.0504 0.15015,0.0503 0.15015,0.0502 0.15015,0.05 0.15015,0.05 0.15015,0.0498 0.15015,0.0497 0.15015,0.0496 0.15015,0.0495 0.15016,0.0494 0.15015,0.0493 0.15015,0.0492 0.15015,0.0491 0.15015,0.0489 0.15015,0.0488 0.15015,0.0487 0.15015,0.0486 0.15015,0.0485 0.15015,0.0484 0.15015,0.0483 0.15015,0.0482 0.15015,0.0481 0.15015,0.048 0.15015,0.0479 0.15015,0.0478 0.15015,0.0477 0.15015,0.0476 0.15015,0.0475 0.15015,0.0474 0.15015,0.0473 0.15015,0.0472 0.15015,0.0471 0.15015,0.0469 0.15015,0.0469 0.15015,0.0468 0.15015,0.0466 0.15015,0.0465 0.15015,0.0465 0.15015,0.0463 0.15015,0.0463 0.15015,0.0462 0.15015,0.046 0.15015,0.046 0.15015,0.0459 0.15015,0.0458 0.15015,0.0457 0.15015,0.0456 0.15015,0.0455 0.15015,0.0454 0.15015,0.0453 0.15015,0.0452 0.15015,0.0451 0.15015,0.045 0.15015,0.0449 0.15015,0.0448 0.15015,0.0447 0.15015,0.0446 0.15015,0.0445 0.15015,0.0444 0.15015,0.0443 0.15015,0.0442 0.15015,0.0441 0.15015,0.044 0.15015,0.044 0.15015,0.0439 0.15015,0.0438 0.15015,0.0437 0.15015,0.0436 0.15015,0.0435 0.15015,0.0434 0.15015,0.0433 0.15015,0.0432 0.15015,0.0431 0.15015,0.043 0.15015,0.043 0.15016,0.0429 0.15015,0.0428 0.15015,0.0427 0.15015,0.0426 0.15015,0.0425 0.15015,0.0424 0.15015,0.0423 0.15015,0.0422 0.15015,0.0422 0.15015,0.0421 0.15015,0.042 0.15015,0.0419 0.15015,0.0418 0.15015,0.0417 0.15015,0.0417 0.15015,0.0416 0.15015,0.0415 0.15015,0.0414 0.15015,0.0413 0.15015,0.0412 0.15015,0.0412 0.15015,0.0411 0.15015,0.041 0.15015,0.0409 0.15015,0.0408 0.15015,0.0407 0.15015,0.0406 0.15015,0.0406 0.15015,0.0405 0.15015,0.0404 0.15015,0.0403 0.15015,0.0402 0.15015,0.0402 L 140,110 l 0.15015,0.04 0.15015,0.0399 0.15015,0.0398 0.15015,0.0398 0.15015,0.0397 0.15015,0.0396 0.15015,0.0395 0.15015,0.0395 0.15015,0.0394 0.15015,0.0393 0.15015,0.0392 0.15015,0.0391 0.15015,0.0391 0.15015,0.039 0.15015,0.0389 0.15015,0.0388 0.15015,0.0388 0.15015,0.0387 0.15015,0.0386 0.15015,0.0385 0.15015,0.0385 0.15015,0.0384 0.15015,0.0383 0.15015,0.0382 0.15015,0.0381 0.15015,0.0381 0.15015,0.038 0.15015,0.0379 0.15015,0.0378 0.15015,0.0378 0.15015,0.0377 0.15015,0.0376 0.15015,0.0376 0.15016,0.0375 0.15015,0.0374 0.15015,0.0373 0.15015,0.0373 0.15015,0.0372 0.15015,0.0371 0.15015,0.0371 0.15015,0.037 0.15015,0.0369 0.15015,0.0368 0.15015,0.0368 0.15015,0.0367 0.15015,0.0366 0.15015,0.0366 0.15015,0.0365 0.15015,0.0364 0.15015,0.0363 0.15015,0.0363 0.15015,0.0362 0.15015,0.0361 0.15015,0.0361 0.15015,0.036 0.15015,0.0359 0.15015,0.0359 0.15015,0.0358 0.15015,0.0357 0.15015,0.0357 0.15015,0.0356 0.15015,0.0355 0.15015,0.0355 0.15015,0.0354 0.15015,0.0353 0.15015,0.0353 0.15015,0.0352 0.15015,0.0351 0.15015,0.0351 0.15015,0.035 0.15015,0.0349 0.15015,0.0349 0.15015,0.0348 0.15015,0.0347 0.15015,0.0347 0.15015,0.0346 0.15015,0.0345 0.15015,0.0345 0.15015,0.0344 0.15015,0.0344 0.15015,0.0343 0.15015,0.0342 0.15015,0.0342 0.15015,0.0341 0.15015,0.034 0.15015,0.034 0.15015,0.0339 0.15015,0.0339 0.15015,0.0338 0.15015,0.0337 0.15015,0.0337 0.15015,0.0336 0.15015,0.0335 0.15015,0.0335 0.15015,0.0334 0.15015,0.0334 0.15015,0.0333 0.15015,0.0332 0.15015,0.0332 0.15016,0.0331 0.15015,0.0331 0.15015,0.033 0.15015,0.0329 0.15015,0.0329 0.15015,0.0328 0.15015,0.0328 0.15015,0.0327 0.15015,0.0326 0.15015,0.0326 0.15015,0.0325 0.15015,0.0325 0.15015,0.0324 0.15015,0.0324 0.15015,0.0323 0.15015,0.0322 0.15015,0.0322 0.15015,0.0321 0.15015,0.032 0.15015,0.032 0.15015,0.0319 0.15015,0.0319 0.15015,0.0318 0.15015,0.0318 0.15015,0.0317 0.15015,0.0317 0.15015,0.0316 0.15015,0.0315 0.15015,0.0315 0.15015,0.0314 0.15015,0.0314 0.15015,0.0313 0.15015,0.0313 0.15015,0.0312 0.15015,0.0311 0.15015,0.0311 0.15015,0.0311 0.15015,0.031 0.15015,0.0309 0.15015,0.0309 0.15015,0.0308 0.15015,0.0308 0.15015,0.0307 0.15015,0.0307 0.15015,0.0306 0.15015,0.0306 0.15015,0.0305 0.15015,0.0304 0.15015,0.0304 0.15015,0.0304 0.15015,0.0303 0.15015,0.0302 0.15015,0.0302 0.15015,0.0301 0.15015,0.0301 0.15015,0.03 0.15015,0.03 0.15015,0.0299 0.15015,0.0299 0.15015,0.0298 0.15015,0.0298 0.15015,0.0297 0.15015,0.0297 0.15015,0.0296 0.15015,0.0296 0.15015,0.0295 0.15015,0.0295 0.15016,0.0294 0.15015,0.0294 0.15015,0.0293 0.15015,0.0293 0.15015,0.0292 0.15015,0.0292 0.15015,0.0291 0.15015,0.0291 0.15015,0.029 0.15015,0.029 0.15015,0.0289 0.15015,0.0289 0.15015,0.0288 0.15015,0.0288 0.15015,0.0287 0.15015,0.0287 0.15015,0.0286 0.15015,0.0286 0.15015,0.0285 0.15015,0.0285 0.15015,0.0284 0.15015,0.0284 0.15015,0.0283 0.15015,0.0283 0.15015,0.0282 0.15015,0.0282 0.15015,0.0282 0.15015,0.0281 0.15015,0.0281 0.15015,0.028 0.15015,0.028 0.15015,0.0279 0.15015,0.0279 0.15015,0.0278 0.15015,0.0278 0.15015,0.0277 0.15015,0.0277 0.15015,0.0276 0.15015,0.0276 0.15015,0.0275 0.15015,0.0275 0.15015,0.0275 0.15015,0.0274 0.15015,0.0274 0.15015,0.0273 0.15015,0.0273 0.15015,0.0272 0.15015,0.0272 0.15015,0.0271 0.15015,0.0271 0.15015,0.0271 0.15015,0.027 0.15015,0.027 0.15015,0.0269 0.15015,0.0269 0.15015,0.0268 0.15015,0.0268 0.15015,0.0267 0.15015,0.0267 0.15015,0.0266 0.15015,0.0266 0.15015,0.0266 0.15015,0.0265 0.15015,0.0265 0.15015,0.0264 0.15015,0.0264 0.15015,0.0264 0.15016,0.0263 0.15015,0.0263 0.15015,0.0262 0.15015,0.0262 0.15015,0.0261 0.15015,0.0261 0.15015,0.026 0.15015,0.026 0.15015,0.026 0.15015,0.0259 0.15015,0.0259 0.15015,0.0258 0.15015,0.0258 0.15015,0.0258 0.15015,0.0257 0.15015,0.0257 0.15015,0.0256 0.15015,0.0256 0.15015,0.0256 0.15015,0.0255 0.15015,0.0255 0.15015,0.0254 0.15015,0.0254 0.15015,0.0253 0.15015,0.0253 0.15015,0.0253 0.15015,0.0252 0.15015,0.0252 0.15015,0.0252 0.15015,0.0251 0.15015,0.0251 0.15015,0.025 0.15015,0.025 0.15015,0.025 0.15015,0.0249 0.15015,0.0249 0.15015,0.0248 0.15015,0.0248 0.15015,0.0248 0.15015,0.0247 0.15015,0.0247 0.15015,0.0246 0.15015,0.0246 0.15015,0.0246 0.15015,0.0245 0.15015,0.0245 0.15015,0.0245 0.15015,0.0244 0.15015,0.0244 0.15015,0.0243 0.15015,0.0243 0.15015,0.0243 0.15015,0.0242 0.15015,0.0242 0.15015,0.0241 0.15015,0.0241 0.15015,0.0241 0.15015,0.024 0.15015,0.024 0.15015,0.024 0.15015,0.0239 0.15015,0.0239 0.15015,0.0238 0.15015,0.0238 0.15015,0.0238 0.15015,0.0237 0.15016,0.0237 0.15015,0.0237 0.15015,0.0236 0.15015,0.0236 0.15015,0.0236 0.15015,0.0235 0.15015,0.0235 0.15015,0.0234 0.15015,0.0234 0.15015,0.0234 0.15015,0.0233 0.15015,0.0233 0.15015,0.0233 0.15015,0.0232 0.15015,0.0232 0.15015,0.0232 0.15015,0.0231 0.15015,0.0231 0.15015,0.023 0.15015,0.023 0.15015,0.023 0.15015,0.023 0.15015,0.0229 0.15015,0.0229 0.15015,0.0228 0.15015,0.0228 0.15015,0.0228 0.15015,0.0227 0.15015,0.0227 0.15015,0.0227 0.15015,0.0226 0.15015,0.0226 0.15015,0.0226 L 190,120"
       inkscape:connector-curvature="0" />
  </g>
  <path
     style="fill:#000000;stroke:#000000;stroke-width:0.60000002;stroke-linecap:butt;stroke-linejoin:miter;stroke-miterlimit:4;stroke-dasharray:1.20000005, 1.20000005;stroke-dashoffset:0;stroke-opacity:1"
     d="M 147.31925,46.887816 V 190.51876"
     id="path4758"
     inkscape:connector-curvature="0" />
  <path
     style="fill:#ff0000;stroke:#ff0000;stroke-width:2;stroke-linecap:butt;stroke-linejoin:miter;stroke-miterlimit:4;stroke-dasharray:none;stroke-opacity:1"
     d="M 3.4347736,190.64401 156.13754,37.941242"
     id="path4756"
     inkscape:connector-curvature="0" />
  <flowRoot
     xml:space="preserve"
     id="flowRoot4760"
     style="font-style:normal;font-weight:normal;font-size:40px;line-height:1.25;font-family:sans-serif;letter-spacing:0px;word-spacing:0px;fill:#000000;fill-opacity:1;stroke:none"
     transform="matrix(0.26458333,0,0,0.26458333,-14.649125,-47.554928)"><flowRegion
       id="flowRegion4762"><rect
         id="rect4764"
         width="159.6041"
         height="88.893425"
         x="563.6651"
         y="926.55005" /></flowRegion><flowPara
       id="flowPara4766">$a_0$</flowPara></flowRoot>  <circle
     style="opacity:1;fill:#008000;fill-opacity:1;fill-rule:nonzero;stroke:#008000;stroke-width:0.60000002;stroke-linecap:round;stroke-linejoin:miter;stroke-miterlimit:4;stroke-dasharray:none;stroke-dashoffset:0;stroke-opacity:1"
     id="path4771"
     cx="147.04893"
     cy="46.854767"
     r="1.8708867" />
</svg>
