<?xml version="1.0" encoding="UTF-8" standalone="no"?>
<!-- Created with Inkscape (http://www.inkscape.org/) -->

<svg
   xmlns:dc="http://purl.org/dc/elements/1.1/"
   xmlns:cc="http://creativecommons.org/ns#"
   xmlns:rdf="http://www.w3.org/1999/02/22-rdf-syntax-ns#"
   xmlns:svg="http://www.w3.org/2000/svg"
   xmlns="http://www.w3.org/2000/svg"
   xmlns:sodipodi="http://sodipodi.sourceforge.net/DTD/sodipodi-0.dtd"
   xmlns:inkscape="http://www.inkscape.org/namespaces/inkscape"
   width="203.57301mm"
   height="211.81133mm"
   viewBox="0 0 203.57301 211.81133"
   version="1.1"
   id="svg8"
   inkscape:version="0.92.2 5c3e80d, 2017-08-06"
   sodipodi:docname="PositiveFixedPoint.svg">
  <sodipodi:namedview
     id="base"
     pagecolor="#ffffff"
     bordercolor="#666666"
     borderopacity="1.0"
     inkscape:pageopacity="0.0"
     inkscape:pageshadow="2"
     inkscape:zoom="0.49497475"
     inkscape:cx="148.60614"
     inkscape:cy="350.12618"
     inkscape:document-units="mm"
     inkscape:current-layer="svg8"
     showgrid="false"
     inkscape:window-width="1440"
     inkscape:window-height="789"
     inkscape:window-x="0"
     inkscape:window-y="1"
     inkscape:window-maximized="1" />
  <defs
     id="defs2">
    <marker
       inkscape:stockid="ArrowAxisStart"
       style="overflow:visible"
       refY="0"
       refX="0"
       orient="auto"
       id="ArrowAxisStart">
      <path
         id="path966"
         transform="matrix(0.4,0,0,0.4,3.5272,0)"
         style="fill:#000000;fill-rule:evenodd;stroke:#000000;stroke-width:1"
         d="M 0,0 5,-5 -12.5,0 5,5 Z"
         inkscape:connector-curvature="0" />
    </marker>
    <marker
       inkscape:stockid="ArrowAxisEnd"
       style="overflow:visible"
       refY="0"
       refX="0"
       orient="auto"
       id="ArrowAxisEnd">
      <path
         id="path969"
         transform="matrix(-0.4,0,0,-0.4,-3.5272,0)"
         style="fill:#000000;fill-rule:evenodd;stroke:#000000;stroke-width:1"
         d="M 0,0 5,-5 -12.5,0 5,5 Z"
         inkscape:connector-curvature="0" />
    </marker>
  </defs>
  <metadata
     id="metadata5">
    <rdf:RDF>
      <cc:Work
         rdf:about="">
        <dc:format>image/svg+xml</dc:format>
        <dc:type
           rdf:resource="http://purl.org/dc/dcmitype/StillImage" />
        <dc:title />
      </cc:Work>
    </rdf:RDF>
  </metadata>
  <g
     inkscape:label="Layer 1"
     inkscape:groupmode="layer"
     id="layer1"
     transform="translate(-10.952126,-44.778603)" />
  <path
     style="fill:none;stroke:#000000;stroke-width:0.60000002;stroke-linecap:butt;stroke-linejoin:miter;stroke-miterlimit:4;stroke-dasharray:1.2, 1.2;stroke-dashoffset:0;stroke-opacity:1"
     d="m 20.585678,175.84445 v 14.37041"
     id="path1020"
     inkscape:connector-curvature="0" />
  <g
     id="g995"
     inkscape:label="PlotData"
     transform="translate(133.43477,40.644016)">
    <g
       id="g991"
       transform="translate(-130,150)"
       inkscape:label="Plot">
      <g
         id="g975"
         inkscape:label="Ticks" />
      <g
         id="g989"
         inkscape:label="Axis">
        <path
           id="path977"
           inkscape:label="Xaxis"
           style="fill:none;stroke:#4c4c4c;stroke-width:1.42857146;stroke-linecap:round;stroke-linejoin:round;stroke-dasharray:none;marker-end:url(#ArrowAxisEnd)"
           d="M 0,0 H 175"
           inkscape:connector-curvature="0" />
        <text
           id="text981"
           transform="translate(170.83333,18.75)"
           xml:space="preserve"
           y="0"
           x="0"
           style="font-style:normal;font-weight:normal;font-size:16.44736862px;line-height:100%;font-family:Sans;text-align:start;letter-spacing:0px;word-spacing:0px;text-anchor:start;fill:#000000;fill-opacity:1;stroke:none"><tspan
             id="tspan979"
             sodipodi:role="line"
             y="0"
             x="0">$x$</tspan></text>
        <path
           id="path983"
           inkscape:label="Yaxis"
           style="fill:none;stroke:#4c4c4c;stroke-width:1.42857146;stroke-linecap:round;stroke-linejoin:round;stroke-dasharray:none;marker-end:url(#ArrowAxisEnd)"
           d="M 0,0 V -187.5"
           inkscape:connector-curvature="0" />
        <text
           id="text987"
           transform="translate(6.25,-175)"
           xml:space="preserve"
           y="0"
           x="0"
           style="font-style:normal;font-weight:normal;font-size:16.44736862px;line-height:100%;font-family:Sans;text-align:start;letter-spacing:0px;word-spacing:0px;text-anchor:start;fill:#000000;fill-opacity:1;stroke:none"><tspan
             id="tspan985"
             sodipodi:role="line"
             y="0"
             x="0">$y(x)$</tspan></text>
      </g>
    </g>
    <path
       id="path993"
       inkscape:label="none"
       style="fill:none;stroke:#0000ff;stroke-width:1.66666663;stroke-linecap:round;stroke-linejoin:round;stroke-dasharray:none"
       d="m -130,82.5 0.15015,-7.5e-5 0.15015,-2.26e-4 0.15015,-3.75e-4 0.15015,-5.26e-4 0.15015,-6.77e-4 0.15015,-8.26e-4 0.15015,-9.77e-4 0.15015,-0.0011 0.15015,-0.0013 0.15015,-0.0014 0.15015,-0.0016 0.15015,-0.0017 0.15015,-0.0019 0.15015,-0.002 0.15015,-0.0022 0.15015,-0.0023 0.15015,-0.0025 0.15015,-0.0026 0.15015,-0.0028 0.15015,-0.0029 0.15015,-0.0031 0.15015,-0.0032 0.15015,-0.0034 0.15015,-0.0035 0.15015,-0.0037 0.15015,-0.0038 0.15015,-0.004 0.15015,-0.0041 0.15015,-0.0043 0.15015,-0.0044 0.15015,-0.0046 0.15015,-0.0047 0.15015,-0.0049 0.15016,-0.005 0.15015,-0.0052 0.15015,-0.0053 0.15015,-0.0055 0.15015,-0.0056 0.15015,-0.0058 0.15015,-0.0059 0.15015,-0.0061 0.15015,-0.0062 0.15015,-0.0064 0.15015,-0.0065 0.15015,-0.0067 0.15015,-0.0068 0.15015,-0.007 0.15015,-0.0071 0.15015,-0.0073 0.15015,-0.0074 0.15015,-0.0076 0.15015,-0.0077 0.15015,-0.0079 0.15015,-0.008 0.15015,-0.0082 0.15015,-0.0083 0.15015,-0.0085 0.15015,-0.0086 0.15015,-0.0088 0.15015,-0.0089 0.15015,-0.0091 0.15015,-0.0092 0.15015,-0.0094 0.15015,-0.0095 0.15015,-0.0097 0.15015,-0.0098 0.15015,-0.01 0.15015,-0.01015 0.15015,-0.01029 0.15015,-0.01045 0.15015,-0.0106 0.15015,-0.01075 0.15015,-0.0109 0.15015,-0.01105 0.15015,-0.0112 0.15015,-0.01135 0.15015,-0.0115 0.15015,-0.01165 0.15015,-0.0118 0.15015,-0.01195 0.15015,-0.0121 0.15015,-0.01225 0.15015,-0.0124 0.15015,-0.01255 0.15015,-0.0127 0.15015,-0.01285 0.15015,-0.013 0.15015,-0.01315 0.15015,-0.0133 0.15015,-0.01345 0.15015,-0.0136 0.15015,-0.01375 0.15015,-0.0139 0.15015,-0.01405 0.15015,-0.0142 0.15015,-0.01435 0.15015,-0.0145 0.15015,-0.01466 0.15015,-0.0148 0.15016,-0.01496 0.15015,-0.0151 0.15015,-0.01526 0.15015,-0.01541 0.15015,-0.01556 0.15015,-0.01571 0.15015,-0.01586 0.15015,-0.01601 0.15015,-0.01616 0.15015,-0.01631 0.15015,-0.01646 0.15015,-0.01661 0.15015,-0.01676 0.15015,-0.01691 0.15015,-0.01706 0.15015,-0.01721 0.15015,-0.01736 0.15015,-0.01751 0.15015,-0.01766 0.15015,-0.01781 0.15015,-0.01796 0.15015,-0.01811 0.15015,-0.01826 0.15015,-0.01841 0.15015,-0.01856 0.15015,-0.01871 0.15015,-0.01886 0.15015,-0.01901 0.15015,-0.01916 0.15015,-0.01931 0.15015,-0.01946 0.15015,-0.01961 0.15015,-0.01976 0.15015,-0.01991 0.15015,-0.02007 0.15015,-0.02022 0.15015,-0.02037 0.15015,-0.02052 0.15015,-0.02067 0.15015,-0.02082 0.15015,-0.02097 0.15015,-0.02112 0.15015,-0.02127 0.15015,-0.02142 0.15015,-0.02157 0.15015,-0.02172 0.15015,-0.02187 0.15015,-0.02202 0.15015,-0.02217 0.15015,-0.02232 0.15015,-0.02247 0.15015,-0.02262 0.15015,-0.02277 0.15015,-0.02292 0.15015,-0.02307 0.15015,-0.02322 0.15015,-0.02337 0.15015,-0.02352 0.15015,-0.02367 0.15015,-0.02382 0.15015,-0.02397 0.15015,-0.02412 0.15015,-0.02427 0.15015,-0.02442 0.15015,-0.02457 0.15015,-0.02472 0.15015,-0.02488 0.15016,-0.02502 0.15015,-0.02517 0.15015,-0.02533 0.15015,-0.02548 0.15015,-0.02563 0.15015,-0.02578 0.15015,-0.02593 0.15015,-0.02608 0.15015,-0.02623 0.15015,-0.02638 0.15015,-0.02653 0.15015,-0.02668 0.15015,-0.02683 0.15015,-0.02698 0.15015,-0.02713 0.15015,-0.02728 0.15015,-0.02743 0.15015,-0.02758 0.15015,-0.02773 0.15015,-0.02788 0.15015,-0.02803 0.15015,-0.02818 0.15015,-0.02833 0.15015,-0.02848 0.15015,-0.02863 0.15015,-0.02878 0.15015,-0.02893 0.15015,-0.02908 0.15015,-0.02923 0.15015,-0.02938 0.15015,-0.02953 0.15015,-0.02968 0.15015,-0.02983 0.15015,-0.02999 0.15015,-0.03013 0.15015,-0.03029 0.15015,-0.03044 0.150151,-0.03059 0.15015,-0.03074 0.15015,-0.03089 0.15015,-0.03104 0.15015,-0.03119 0.15015,-0.03134 0.150151,-0.03149 0.15015,-0.03164 0.15015,-0.03179 0.15015,-0.03194 0.15015,-0.03209 0.15015,-0.03224 0.15015,-0.03239 0.150151,-0.03254 0.15015,-0.03269 0.15015,-0.03284 0.15015,-0.03299 0.15015,-0.03314 0.15015,-0.03329 0.15015,-0.03344 0.150151,-0.03359 0.15015,-0.03374 0.15015,-0.03389 0.15015,-0.03404 0.15015,-0.03419 0.15015,-0.03434 0.150151,-0.03449 0.15015,-0.03464 0.15015,-0.0348 0.15015,-0.03494 0.15015,-0.03509 0.15015,-0.03525 0.15015,-0.0354 0.150151,-0.03555 0.15015,-0.0357 0.15015,-0.03585 0.15015,-0.036 0.15015,-0.03615 0.15015,-0.0363 0.15015,-0.03645 0.150151,-0.0366 0.15015,-0.03675 0.15015,-0.0369 0.15015,-0.03705 0.15015,-0.0372 0.15015,-0.03735 0.150151,-0.0375 0.15015,-0.03765 0.15015,-0.0378 0.15015,-0.03795 0.15015,-0.0381 0.15015,-0.03825 0.15015,-0.0384 0.150151,-0.03855 0.15015,-0.0387 0.15015,-0.03885 0.15015,-0.039 0.15015,-0.03915 0.15015,-0.0393 0.15015,-0.03945 0.150151,-0.0396 0.15015,-0.03975 0.15015,-0.0399 0.15015,-0.04005 0.15015,-0.04021 0.15015,-0.04036 0.150151,-0.04051 0.15015,-0.04066 0.15015,-0.04081 0.15015,-0.04096 0.15015,-0.04111 0.15015,-0.04126 0.15015,-0.04141 0.150151,-0.04156 0.15015,-0.04171 0.15015,-0.04186 0.15015,-0.04201 0.15015,-0.04216 0.15015,-0.04231 0.15015,-0.04246 0.150151,-0.04261 0.15015,-0.04276 0.15015,-0.04291 0.15015,-0.04306 0.15015,-0.04321 0.15015,-0.04336 0.150151,-0.04351 0.15015,-0.04366 0.15015,-0.04381 0.15015,-0.04396 0.15015,-0.04411 0.15015,-0.04426 0.15015,-0.04441 0.150151,-0.04456 0.15015,-0.04471 0.15015,-0.04486 0.15015,-0.04502 0.15015,-0.04517 0.15015,-0.04532 0.15015,-0.04547 0.150151,-0.04562 0.15015,-0.04577 0.15015,-0.04592 0.15015,-0.04607 0.15015,-0.04622 0.15015,-0.04637 0.150151,-0.04652 0.15015,-0.04667 0.15015,-0.04682 0.15015,-0.04697 0.15015,-0.04712 0.15015,-0.04727 0.15015,-0.04742 0.150151,-0.04757 0.15015,-0.04772 0.15015,-0.04787 0.15015,-0.04802 0.15015,-0.04817 0.15015,-0.04832 0.15015,-0.04847 0.150151,-0.04862 0.15015,-0.04877 0.15015,-0.04892 0.15015,-0.04907 0.15015,-0.04922 0.15015,-0.04937 0.150151,-0.04952 0.15015,-0.04967 0.15015,-0.04982 0.15015,-0.04997 0.15015,-0.05013 0.15015,-0.05027 0.15015,-0.05043 0.150151,-0.05058 0.15015,-0.05073 0.15015,-0.05088 0.15015,-0.05103 0.15015,-0.05118 0.15015,-0.05133 0.150151,-0.05148 0.15015,-0.05163 0.15015,-0.05178 0.15015,-0.05193 0.15015,-0.05208 0.15015,-0.05223 0.15015,-0.05238 0.150151,-0.05253 0.15015,-0.05268 0.15015,-0.05283 0.15015,-0.05298 0.15015,-0.05313 0.15015,-0.05328 0.15015,-0.05343 0.150151,-0.05358 0.15015,-0.05373 0.15015,-0.05388 0.15015,-0.05403 0.15015,-0.05418 0.15015,-0.05433 0.150151,-0.05448 0.15015,-0.05463 0.15015,-0.05478 0.15015,-0.05494 0.15015,-0.05509 0.15015,-0.05523 0.15015,-0.05539 0.150151,-0.05554 0.15015,-0.05569 0.15015,-0.05584 0.15015,-0.05599 0.15015,-0.05614 0.15015,-0.05629 0.15015,-0.05644 0.150151,-0.05659 0.15015,-0.05674 0.15015,-0.05689 0.15015,-0.05704 0.15015,-0.05719 0.15015,-0.05734 0.150151,-0.05749 0.15015,-0.05764 0.15015,-0.05779 0.15015,-0.05794 0.15015,-0.05809 0.15015,-0.05824 0.15015,-0.05839 0.150151,-0.05854 0.15015,-0.05869 0.15015,-0.05884 0.15015,-0.05899 0.15015,-0.05914 0.15015,-0.05929 0.15015,-0.05944 0.150151,-0.05959 0.15015,-0.05974 0.15015,-0.05989 0.15015,-0.06005 0.15015,-0.0602 0.15015,-0.06035 0.150151,-0.0605 0.15015,-0.06065 0.15015,-0.0608 0.15015,-0.06095 0.15015,-0.0611 0.15015,-0.06125 0.15015,-0.0614 0.150151,-0.06155 0.15015,-0.0617 0.15015,-0.06185 0.15015,-0.062 0.15015,-0.06215 0.15015,-0.0623 0.15015,-0.06245 0.150151,-0.0626 0.15015,-0.06275 0.15015,-0.0629 0.15015,-0.06305 0.15015,-0.0632 0.15015,-0.06335 0.150151,-0.0635 0.15015,-0.06365 0.15015,-0.0638 0.15015,-0.06395 0.15015,-0.0641 0.15015,-0.06425 0.15015,-0.0644 0.150151,-0.06455 0.15015,-0.0647 0.15015,-0.06485 0.15015,-0.06501 0.15015,-0.06515 0.15015,-0.06531 0.15015,-0.06546 0.150151,-0.06561 0.15015,-0.06576 0.15015,-0.06591 0.15015,-0.06606 0.15015,-0.06621 0.15015,-0.06636 0.150151,-0.06651 0.15015,-0.06666 0.15015,-0.06681 0.15015,-0.06696 0.15015,-0.06711 0.15015,-0.06726 0.15015,-0.06741 0.150151,-0.06756 0.15015,-0.06771 0.15015,-0.06786 0.15015,-0.06801 0.15015,-0.06816 0.15015,-0.06831 0.15015,-0.06846 0.150151,-0.06861 0.15015,-0.06876 0.15015,-0.06891 0.15015,-0.06906 0.15015,-0.06921 0.15015,-0.06936 0.150151,-0.06951 0.15015,-0.06966 0.15015,-0.06981 0.15015,-0.06996 0.15015,-0.07012 0.15015,-0.07027 0.15015,-0.07042 0.150151,-0.07057 0.15015,-0.07072 0.15015,-0.07087 0.15015,-0.07102 0.15015,-0.07117 0.15015,-0.07132 0.15015,-0.07147 0.150151,-0.07162 0.15015,-0.07177 0.15015,-0.07192 0.15015,-0.07207 0.15015,-0.07222 0.15015,-0.07237 0.150151,-0.07252 0.15015,-0.07267 0.15015,-0.07282 0.15015,-0.07297 0.15015,-0.07312 0.15015,-0.07327 0.15015,-0.07342 0.150151,-0.07357 0.15015,-0.07372 0.15015,-0.07387 0.15015,-0.07402 0.15015,-0.07417 0.15015,-0.07432 0.15015,-0.07447 0.150151,-0.07462 0.15015,-0.07477 0.15015,-0.07493 0.15015,-0.07508 0.15015,-0.07523 0.15015,-0.07537 0.150151,-0.07553 0.15015,-0.07568 0.15015,-0.07583 0.15015,-0.07598 0.15015,-0.07613 0.15015,-0.07628 0.15015,-0.07643 0.150151,-0.07658 0.15015,-0.07673 0.15015,-0.07688 0.15015,-0.07703 0.15015,-0.07718 0.15015,-0.07733 0.15015,-0.07748 0.150151,-0.07763 0.15015,-0.07778 0.15015,-0.07793 0.15015,-0.07808 0.15015,-0.07823 0.15015,-0.07838 0.150151,-0.07853 0.15015,-0.07868 0.15015,-0.07883 0.15015,-0.07898 0.15015,-0.07913 0.15015,-0.07928 0.15015,-0.07943 0.150151,-0.07958 0.15015,-0.07973 0.15015,-0.07988 0.15015,-0.08004 0.15015,-0.08019 0.15015,-0.08033 0.15015,-0.08049 0.150151,-0.08064 0.15015,-0.08079 0.15015,-0.08094 0.15015,-0.08109 0.15015,-0.08124 0.15015,-0.08139 0.150151,-0.08154 0.15015,-0.08169 0.15015,-0.08184 0.15015,-0.08199 0.15015,-0.08214 0.15015,-0.08229 0.15015,-0.08244 0.150151,-0.08259 0.15015,-0.08274 0.15015,-0.08289 0.15015,-0.08304 0.15015,-0.08319 0.15015,-0.08334 0.15015,-0.08349 0.150151,-0.08364 0.15015,-0.08379 0.15015,-0.08394 0.15015,-0.08409 0.15015,-0.08424 0.15015,-0.08439 0.150151,-0.08454 0.15015,-0.08469 0.15015,-0.08485 0.15015,-0.08499 0.15015,-0.08514 0.15015,-0.0853 0.15015,-0.08545 0.150151,-0.0856 0.15015,-0.08575 0.15015,-0.0859 0.15015,-0.08605 0.15015,-0.0862 0.15015,-0.08635 0.15015,-0.0865 0.150151,-0.08665 0.15015,-0.0868 0.15015,-0.08695 0.15015,-0.0871 0.15015,-0.08725 0.15015,-0.0874 0.150151,-0.08755 0.15015,-0.0877 0.15015,-0.08785 0.15015,-0.088 0.15015,-0.08815 0.15015,-0.0883 0.15015,-0.08845 0.150151,-0.0886 0.15015,-0.08875 0.15015,-0.0889 0.15015,-0.08905 0.15015,-0.0892 0.15015,-0.08935 0.15015,-0.0895 0.150151,-0.08966 0.15015,-0.0898 0.15015,-0.08996 0.15015,-0.0901 0.15015,-0.09026 0.15015,-0.0904 0.150151,-0.09056 0.15015,-0.09071 0.15015,-0.09086 0.15015,-0.09101 0.15015,-0.09116 0.15015,-0.09131 0.15015,-0.09146 0.150151,-0.09161 0.15015,-0.09176 0.15015,-0.09191 0.15015,-0.09206 0.15015,-0.09221 0.15015,-0.09236 0.15015,-0.09251 0.150151,-0.09266 0.15015,-0.09281 0.15015,-0.09296 0.15015,-0.09311 0.15015,-0.09326 0.15015,-0.09341 0.150151,-0.09356 0.15015,-0.09371 0.15015,-0.09386 0.15015,-0.09401 0.15015,-0.09416 0.15015,-0.09431 0.15015,-0.09446 0.150151,-0.09461 0.15015,-0.09477 0.15015,-0.09492 0.15015,-0.09506 0.15015,-0.09522 0.15015,-0.09537 0.15015,-0.09552 0.150151,-0.09567 0.15015,-0.09582 0.15015,-0.09597 0.15015,-0.09612 0.15015,-0.09627 0.15015,-0.09642 0.150151,-0.09657 0.15015,-0.09672 0.15015,-0.09687 0.15015,-0.09702 0.15015,-0.09717 0.15015,-0.09732 0.15015,-0.09747 0.150151,-0.09762 0.15015,-0.09777 0.15015,-0.09792 0.15015,-0.09807 0.15015,-0.09822 0.15015,-0.09837 0.15015,-0.09852 0.150151,-0.09867 0.15015,-0.09882 0.15015,-0.09897 0.15015,-0.09912 0.15015,-0.09927 0.15015,-0.09942 0.150151,-0.09957 0.15015,-0.09972 0.15015,-0.09987 0.15015,-0.100025 0.15015,-0.100176 0.15015,-0.100325 0.15015,-0.100476 0.150151,-0.100626 0.15015,-0.100777 0.15015,-0.100926 0.15015,-0.101077 0.15015,-0.101228 0.15015,-0.101377 0.150151,-0.101528 0.15015,-0.101679 0.15015,-0.101828 0.15015,-0.101979 0.15015,-0.102129 0.15015,-0.10228 0.15015,-0.102429 0.150151,-0.10258 0.15015,-0.102731 0.15015,-0.10288 0.15015,-0.103031 0.15015,-0.103182 0.15015,-0.103331 0.15015,-0.103482 0.150151,-0.103632 0.15015,-0.103783 0.15015,-0.103932 0.15015,-0.104084 0.15015,-0.104233 0.15015,-0.104384 0.150151,-0.104534 0.15015,-0.104684 0.15015,-0.104834 0.15015,-0.104985 0.15015,-0.105135 0.15015,-0.105286 0.15015,-0.105436 0.150151,-0.105586 0.15015,-0.105736 0.15015,-0.105887 0.15015,-0.106037 0.15015,-0.106187 0.15015,-0.106338 0.15015,-0.106487 0.150151,-0.106639 0.15015,-0.106788 0.15015,-0.106939 0.15015,-0.107089 0.15015,-0.107239 0.15015,-0.10739 0.150151,-0.10754 0.15015,-0.10769 0.15015,-0.107841 0.15015,-0.107991 0.15015,-0.108141 0.15015,-0.108291 0.15015,-0.108442 0.150151,-0.108592 0.15015,-0.108742 0.15015,-0.108893 0.15015,-0.109043 0.15015,-0.109193 0.15015,-0.109344 0.15015,-0.109494 0.150151,-0.109644 0.15015,-0.109795 0.15015,-0.109944 0.15015,-0.110095 0.15015,-0.110246 0.15015,-0.110395 0.150151,-0.110546 0.15015,-0.110697 0.15015,-0.110846 0.15015,-0.110997 0.15015,-0.111147 0.15015,-0.111298 0.15015,-0.111448 0.150151,-0.111598 0.15015,-0.111748 0.15015,-0.111899 0.15015,-0.112049 0.15015,-0.112199 0.15015,-0.11235 0.15015,-0.1125 0.150151,-0.11265 0.15015,-0.1128 0.15015,-0.112951 0.15015,-0.113101 0.15015,-0.113251 0.15015,-0.113402 0.150151,-0.113552 0.15015,-0.113702 0.15015,-0.113853 0.15015,-0.114003 0.15015,-0.114153 0.15015,-0.114304 0.15015,-0.114453 0.150151,-0.114605 0.15015,-0.114754 0.15015,-0.114905 0.15015,-0.115055 0.15015,-0.115205 0.15015,-0.115355 0.15015,-0.115506 0.150151,-0.115657 0.15015,-0.115806 0.15015,-0.115957 0.15015,-0.116107 0.15015,-0.116257 0.15015,-0.116408 0.150151,-0.116558 0.15015,-0.116708 0.15015,-0.116859 0.15015,-0.117009 0.15015,-0.117159 0.15015,-0.11731 0.15015,-0.117459 0.150151,-0.11761 0.15015,-0.117761 0.15015,-0.117911 0.15015,-0.118061 0.15015,-0.118211 0.15015,-0.118361 0.15015,-0.118512 0.150151,-0.118663 0.15015,-0.118812 0.15015,-0.118963 0.15015,-0.119113 0.15015,-0.119263 0.15015,-0.119414 0.150151,-0.119564 0.15015,-0.119714 0.15015,-0.119865 0.15015,-0.120015 0.1501501,-0.120165 0.1501502,-0.120316 0.1501501,-0.120466 0.1501502,-0.120616 0.1501501,-0.120766 0.1501502,-0.120917 0.1501501,-0.121067 0.1501502,-0.121217 0.1501501,-0.121368 0.1501502,-0.121518 0.1501501,-0.121668 0.1501502,-0.121818 0.1501501,-0.121969 0.1501502,-0.122119 0.1501501,-0.12227 0.1501502,-0.122419 0.1501501,-0.12257 0.1501502,-0.122721 0.1501501,-0.12287 0.1501502,-0.123021 0.1501501,-0.123171 0.1501502,-0.123322 0.1501501,-0.123472 0.1501502,-0.123622 0.1501501,-0.123772 0.1501502,-0.123923 0.1501501,-0.124073 0.1501502,-0.124223 0.1501501,-0.124374 0.1501502,-0.124524 0.1501501,-0.124674 0.1501502,-0.124825 0.1501501,-0.124975 0.1501502,-0.125125 0.1501501,-0.125275 0.1501502,-0.125426 0.1501501,-0.125576 0.1501502,-0.125726 0.1501501,-0.125877 0.1501502,-0.126027 0.1501501,-0.126177 0.1501502,-0.126328 0.1501501,-0.126477 0.1501502,-0.126628 0.1501501,-0.126779 0.1501502,-0.126929 0.1501501,-0.127079 0.1501502,-0.127229 0.1501501,-0.12738 0.1501502,-0.12753 0.1501501,-0.12768 0.1501502,-0.12783 0.1501501,-0.127981 0.1501502,-0.128131 0.1501501,-0.128282 0.1501502,-0.128431 0.1501501,-0.128582 0.1501502,-0.128733 0.1501501,-0.128882 0.1501502,-0.129033 0.15015013,-0.129184 0.15015015,-0.129333 0.15015015,-0.129484 0.15015015,-0.129634 0.15015015,-0.129785 0.15015015,-0.129934 L 0.03003003,26.141314 0.18018018,26.011078 0.33033033,25.880693 0.48048048,25.750157 0.63063063,25.61947 0.78078078,25.488634 0.93093093,25.357647 1.0810811,25.22651 1.2312312,25.095222 1.3813814,24.963785 1.5315315,24.832197 1.6816817,24.700458 1.8318318,24.56857 1.981982,24.436531 2.1321321,24.304342 2.2822823,24.172002 2.4324324,24.039512 2.5825826,23.906872 2.7327327,23.774082 2.8828829,23.640465 3.033033,23.507374 3.1831832,23.374132 3.3333333,23.240741 3.4834835,23.107199 3.6336336,22.973507 3.7837838,22.839664 3.9339339,22.705671 4.0840841,22.571528 4.2342342,22.437235 4.3843844,22.302791 4.5345345,22.168197 4.6846847,22.033452 4.8348348,21.898558 4.984985,21.763513 5.1351351,21.628318 5.2852853,21.492972 5.4354354,21.357476 5.5855856,21.22183 5.7357357,21.086033 5.8858859,20.950087 6.036036,20.81399 6.1861862,20.677742 6.3363363,20.541345 6.4864865,20.404797 6.6366366,20.268098 6.7867868,20.13125 l 0.1501501,-0.136999 0.1501502,-0.137149 0.1501501,-0.1373 0.1501502,-0.137449 0.1501501,-0.1376 0.1501502,-0.137751 0.1501501,-0.1379 0.1501502,-0.138051 0.1501501,-0.138202 0.1501502,-0.138351 0.1501501,-0.138502 0.1501502,-0.138652 0.1501501,-0.138803 0.1501502,-0.138953 0.1501501,-0.139103 0.1501502,-0.139253 0.1501501,-0.139404 0.1501502,-0.139554 0.1501501,-0.139704 0.1501502,-0.139854 0.1501501,-0.140005 0.1501501,-0.140155 0.15015,-0.140306 0.15015,-0.140456 0.150151,-0.140606 0.15015,-0.140756 0.15015,-0.140907 0.15015,-0.141057 0.15015,-0.141207 0.15015,-0.141358 0.15015,-0.141508 0.150151,-0.141658 0.15015,-0.141808 0.15015,-0.141959 0.15015,-0.142109 0.15015,-0.142259 0.15015,-0.14241 0.15015,-0.14256 0.150151,-0.14271 0.15015,-0.142861 0.15015,-0.143011 0.15015,-0.143161 0.15015,-0.143311 0.15015,-0.143462 0.150151,-0.143612 0.15015,-0.143763 0.15015,-0.143912 0.15015,-0.144063 0.15015,-0.144214 0.15015,-0.144363 0.15015,-0.144514 0.150151,-0.144664 0.15015,-0.144815 0.15015,-0.144965 0.15015,-0.145115 0.15015,-0.145265 0.15015,-0.145416 0.15015,-0.145566 0.150151,-0.145716 0.15015,-0.145867 0.15015,-0.146016 0.15015,-0.146168 0.15015,-0.146317 0.15015,-0.146468 0.150151,-0.146618 0.15015,-0.146768 0.15015,-0.146919 0.15015,-0.147069 0.15015,-0.147219 0.15015,-0.14737 0.15015,-0.14752 0.150151,-0.1476701 0.15015,-0.1478204 0.15015,-0.1479708 0.15015,-0.1481211 0.15015,-0.1482714 0.15015,-0.1484217 0.15015,-0.148572 0.150151,-0.1487223 0.15015,-0.1488726 0.15015,-0.1490229 0.15015,-0.1491732 0.15015,-0.1493235 0.15015,-0.1494738 L 19.54955,7.9497741 19.6997,7.7999997 19.84985,7.650075 20,7.5"
       inkscape:connector-curvature="0" />
  </g>
  <path
     style="fill:#ff0000;stroke:#ff0000;stroke-width:2;stroke-linecap:butt;stroke-linejoin:miter;stroke-miterlimit:4;stroke-dasharray:none;stroke-opacity:1"
     d="M 3.4347736,190.64402 161.2443,32.834485"
     id="path1016"
     inkscape:connector-curvature="0" />
  <circle
     style="opacity:1;fill:#008000;fill-opacity:1;fill-rule:nonzero;stroke:#008000;stroke-width:0;stroke-linecap:round;stroke-linejoin:miter;stroke-miterlimit:4;stroke-dasharray:none;stroke-dashoffset:0;stroke-opacity:1"
     id="path1018"
     cx="20.666265"
     cy="173.11232"
     r="2.6726952" />
  <flowRoot
     xml:space="preserve"
     id="flowRoot1022"
     style="font-style:normal;font-weight:normal;font-size:40px;line-height:1.25;font-family:sans-serif;letter-spacing:0px;word-spacing:0px;fill:#000000;fill-opacity:1;stroke:none"
     transform="matrix(0.26458333,0,0,0.26458333,-18.889627,-45.836937)"><flowRegion
       id="flowRegion1024"><rect
         id="rect1026"
         width="217.14285"
         height="55.714287"
         x="91.428574"
         y="918.23395" /></flowRegion><flowPara
       id="flowPara1028">$a_0$</flowPara></flowRoot></svg>
