<?xml version="1.0" encoding="UTF-8" standalone="no"?>
<!-- Created with Inkscape (http://www.inkscape.org/) -->

<svg
   xmlns:dc="http://purl.org/dc/elements/1.1/"
   xmlns:cc="http://creativecommons.org/ns#"
   xmlns:rdf="http://www.w3.org/1999/02/22-rdf-syntax-ns#"
   xmlns:svg="http://www.w3.org/2000/svg"
   xmlns="http://www.w3.org/2000/svg"
   xmlns:sodipodi="http://sodipodi.sourceforge.net/DTD/sodipodi-0.dtd"
   xmlns:inkscape="http://www.inkscape.org/namespaces/inkscape"
   width="374.17542mm"
   height="351.10306mm"
   viewBox="0 0 374.17542 351.10306"
   version="1.1"
   id="svg8"
   inkscape:version="0.92.2 5c3e80d, 2017-08-06"
   sodipodi:docname="ProofGoursat.svg">
  <defs
     id="defs2">
    <marker
       inkscape:stockid="Arrow1Lend"
       orient="auto"
       refY="0"
       refX="0"
       id="marker1132"
       style="overflow:visible"
       inkscape:isstock="true">
      <path
         id="path1130"
         d="M 0,0 5,-5 -12.5,0 5,5 Z"
         style="fill:#000000;fill-opacity:1;fill-rule:evenodd;stroke:#000000;stroke-width:1.00000003pt;stroke-opacity:1"
         transform="matrix(-0.8,0,0,-0.8,-10,0)"
         inkscape:connector-curvature="0" />
    </marker>
    <marker
       inkscape:stockid="Arrow1Lend"
       orient="auto"
       refY="0"
       refX="0"
       id="Arrow1Lend"
       style="overflow:visible"
       inkscape:isstock="true">
      <path
         id="path827"
         d="M 0,0 5,-5 -12.5,0 5,5 Z"
         style="fill:#ff0000;fill-opacity:1;fill-rule:evenodd;stroke:#ff0000;stroke-width:1.00000003pt;stroke-opacity:1"
         transform="matrix(-0.8,0,0,-0.8,-10,0)"
         inkscape:connector-curvature="0" />
    </marker>
  </defs>
  <sodipodi:namedview
     id="base"
     pagecolor="#ffffff"
     bordercolor="#666666"
     borderopacity="1.0"
     inkscape:pageopacity="0.0"
     inkscape:pageshadow="2"
     inkscape:zoom="0.35"
     inkscape:cx="1014.9705"
     inkscape:cy="809.1201"
     inkscape:document-units="mm"
     inkscape:current-layer="layer1"
     showgrid="false"
     inkscape:window-width="1440"
     inkscape:window-height="789"
     inkscape:window-x="0"
     inkscape:window-y="1"
     inkscape:window-maximized="1" />
  <metadata
     id="metadata5">
    <rdf:RDF>
      <cc:Work
         rdf:about="">
        <dc:format>image/svg+xml</dc:format>
        <dc:type
           rdf:resource="http://purl.org/dc/dcmitype/StillImage" />
        <dc:title />
      </cc:Work>
    </rdf:RDF>
  </metadata>
  <g
     inkscape:label="Layer 1"
     inkscape:groupmode="layer"
     id="layer1"
     transform="translate(38.364418,52.334711)">
    <path
       style="fill:none;stroke:#000000;stroke-width:1;stroke-linecap:butt;stroke-linejoin:miter;stroke-miterlimit:4;stroke-dasharray:none;stroke-opacity:1"
       d="M 59.720238,41.488095 C 68.791666,59.630952 96.00595,78.529761 55.940475,95.916667 15.875,113.30357 -40.065475,155.6369 -37.797618,216.11309 c 2.267858,60.47618 87.690475,86.17858 117.928569,81.64285 30.238099,-4.5357 54.428569,-46.86904 99.029759,-47.62499 44.60119,-0.75595 80.88691,37.04166 108.10119,29.48214 27.21428,-7.55951 59.72025,-96.00595 43.84525,-130.02381 C 315.23215,115.57143 271.38691,99.696427 291.7976,55.095237 312.20833,10.494047 337.15475,-22.767857 285.75,-37.886904 234.34524,-53.005952 199.57142,-17.47619 157.99405,-18.988095 116.41667,-20.5 52.160714,-61.321428 30.238094,-33.351189 8.315476,-5.3809524 46.869048,22.589285 59.720238,41.488095 Z"
       id="path812"
       inkscape:connector-curvature="0" />
    <flowRoot
       xml:space="preserve"
       id="flowRoot814"
       style="font-style:normal;font-weight:normal;font-size:40px;line-height:1.25;font-family:sans-serif;letter-spacing:0px;word-spacing:0px;fill:#000000;fill-opacity:1;stroke:none"
       transform="matrix(0.26458333,0,0,0.26458333,73.76639,35.279578)"><flowRegion
         id="flowRegion816"><rect
           id="rect818"
           width="743.47229"
           height="339.41125"
           x="808.12201"
           y="-336.14059" /></flowRegion><flowPara
         id="flowPara820">$D$</flowPara></flowRoot>    <path
       style="fill:none;stroke:#ff0000;stroke-width:1;stroke-linecap:butt;stroke-linejoin:miter;stroke-miterlimit:4;stroke-dasharray:none;stroke-opacity:1;marker-end:url(#Arrow1Lend)"
       d="m 182.94047,37.708334 c -42.33333,8.315476 -66.5238,31.75 -51.40476,57.452379 15.11905,25.702377 4.53572,85.422617 -49.136902,89.958327 -53.672618,4.53572 -100.541665,44.6012 -53.672618,54.42858 46.869048,9.82738 111.88095,-30.99405 157.99405,-29.48215 46.11309,1.51191 60.47618,21.16667 84.66667,18.89881 24.19048,-2.26785 28.72618,-64.25595 20.41069,-84.66666 C 283.48215,123.8869 260.80357,19.565476 182.94047,37.708334 Z"
       id="path822"
       inkscape:connector-curvature="0" />
    <flowRoot
       xml:space="preserve"
       id="flowRoot1118"
       style="font-style:normal;font-weight:normal;font-size:40px;line-height:1.25;font-family:sans-serif;letter-spacing:0px;word-spacing:0px;fill:#000000;fill-opacity:1;stroke:none"
       transform="matrix(0.26458333,0,0,0.26458333,-40.624968,13.358104)"><flowRegion
         id="flowRegion1120"><rect
           id="rect1122"
           width="743.47229"
           height="319.20819"
           x="860.64996"
           y="-4.8105545" /></flowRegion><flowPara
         id="flowPara1124">$\gamma$</flowPara></flowRoot>    <circle
       style="opacity:1;fill:#000000;fill-opacity:1;fill-rule:nonzero;stroke:none;stroke-width:1;stroke-linecap:round;stroke-linejoin:miter;stroke-miterlimit:4;stroke-dasharray:none;stroke-dashoffset:0;stroke-opacity:1"
       id="path1126"
       cx="218.35921"
       cy="121.93846"
       r="2.9399648" />
    <path
       style="fill:none;stroke:#000000;stroke-width:0.60000002;stroke-linecap:butt;stroke-linejoin:miter;stroke-miterlimit:4;stroke-dasharray:none;stroke-opacity:1;marker-end:url(#marker1132)"
       d="m 216.48831,110.44587 c -16.57071,0.53454 -26.19241,9.08716 -20.31248,16.57071 5.87993,7.48355 42.76311,13.89802 42.76311,2.6727 0,-11.22532 -9.08716,-16.57071 -22.45063,-19.24341 z"
       id="path1128"
       inkscape:connector-curvature="0" />
    <flowRoot
       xml:space="preserve"
       id="flowRoot1200"
       style="font-style:normal;font-weight:normal;font-size:40px;line-height:1.25;font-family:sans-serif;letter-spacing:0px;word-spacing:0px;fill:#000000;fill-opacity:1;stroke:none"
       transform="matrix(0.26458333,0,0,0.26458333,-14.972466,-6.5111714)"><flowRegion
         id="flowRegion1202"><rect
           id="rect1204"
           width="236.3757"
           height="131.31982"
           x="862.67029"
           y="544.7124" /></flowRegion><flowPara
         id="flowPara1206">$z_0$</flowPara></flowRoot>    <flowRoot
       xml:space="preserve"
       id="flowRoot1508"
       style="font-style:normal;font-weight:normal;font-size:40px;line-height:1.25;font-family:sans-serif;letter-spacing:0px;word-spacing:0px;fill:#000000;fill-opacity:1;stroke:none"
       transform="matrix(0.26458333,0,0,0.26458333,-4.2763124,6.4144687)"><flowRegion
         id="flowRegion1510"><rect
           id="rect1512"
           width="367.69553"
           height="143.44167"
           x="824.28448"
           y="320.45856" /></flowRegion><flowPara
         id="flowPara1514">$\gamma'$</flowPara></flowRoot>  </g>
</svg>
