<?xml version="1.0" encoding="utf-8"?>
<!-- Generator: Adobe Illustrator 10.0, SVG Export Plug-In . SVG Version: 3.0.0 Build 76)  -->
<!DOCTYPE svg PUBLIC "-//W3C//DTD SVG 1.0//EN"    "http://www.w3.org/TR/2001/REC-SVG-20010904/DTD/svg10.dtd" [
	<!ENTITY ns_flows "http://ns.adobe.com/Flows/1.0/">
	<!ENTITY ns_svg "http://www.w3.org/2000/svg">
	<!ENTITY ns_xlink "http://www.w3.org/1999/xlink">
]>
<svg  xmlns="&ns_svg;" xmlns:xlink="&ns_xlink;" xmlns:a="http://ns.adobe.com/AdobeSVGViewerExtensions/3.0/"
	 width="145.5" height="156.167" viewBox="0 0 145.5 156.167" overflow="visible" enable-background="new 0 0 145.5 156.167"
	 xml:space="preserve">
	<g id="Layer_1">
		<path fill="#FFFCF3" d="M145.5,156.167H0V0h145.5V156.167z"/>
		<path opacity="0.5" fill="none" stroke="#FF0000" stroke-width="0.5" d="M15.659,66.353v36"/>
		<path opacity="0.5" fill="none" stroke="#FF0000" stroke-width="0.5" d="M8.573,66.353v36"/>
		<path opacity="0.5" fill="none" stroke="#FF0000" stroke-width="0.5" d="M22.859,66.353v36"/>
		<path opacity="0.5" fill="none" stroke="#FF0000" stroke-width="0.5" d="M30.06,66.353v36"/>
		<path opacity="0.5" fill="none" stroke="#FF0000" stroke-width="0.5" d="M37.26,66.353v36"/>
		<path opacity="0.5" fill="none" stroke="#FF0000" stroke-width="0.5" d="M44.46,66.353v36"/>
		<path opacity="0.5" fill="none" stroke="#FF0000" stroke-width="0.5" d="M51.66,66.353v36"/>
		<path opacity="0.5" fill="none" stroke="#FF0000" stroke-width="0.5" d="M58.86,66.353v36"/>
		<path opacity="0.5" fill="none" stroke="#FF0000" stroke-width="0.5" d="M66.061,66.353v36"/>
		<path opacity="0.5" fill="none" stroke="#FF0000" stroke-width="0.5" d="M73.261,66.353v25.205"/>
		<path opacity="0.5" fill="none" stroke="#FF0000" stroke-width="0.5" d="M80.461,66.353v18.005"/>
		<path opacity="0.5" fill="none" stroke="#FF0000" stroke-width="0.5" d="M87.661,66.353v10.805"/>
		<path opacity="0.5" fill="none" stroke="#FF0000" stroke-width="0.5" d="M94.861,66.353v3.604"/>
		<g>
			<path opacity="0.59" fill="#FC4128" stroke="#FF0000" stroke-width="0.5" stroke-linejoin="bevel" d="M69,14.167l11,3.75v11
				l-11-5V14.167z"/>
			<path opacity="0.59" fill="#FCC0A7" stroke="#FF0000" stroke-width="0.5" stroke-linejoin="bevel" d="M79,9.167l-10,5l11,3.75
				l9.75-4.75L79,9.167z"/>
			<path opacity="0.59" fill="#FB805F" stroke="#FF0000" stroke-width="0.5" stroke-linejoin="bevel" d="M80,28.917l9.75-5.25v-10.5
				L80,17.917V28.917z"/>
		</g>
		<path opacity="0.5" fill="none" stroke="#FF0000" stroke-width="0.5" stroke-dasharray="1 1" d="M67.25,26.167l12.75,5.5
			l12.25-5.75"/>
		<path opacity="0.5" fill="none" stroke="#FF0000" stroke-width="0.5378" stroke-dasharray="1 1" d="M66.325,30.979l13.713,5.915
			l13.176-6.184"/>
		<path opacity="0.5" fill="none" stroke="#FF0000" stroke-width="0.5" stroke-dasharray="1 1" d="M65.33,36.154l14.749,6.362
			l14.171-6.65"/>
		<path opacity="0.5" fill="none" stroke="#FF0000" stroke-width="0.5" stroke-dasharray="1 1" d="M64.259,41.72l15.862,6.842
			l15.242-7.152"/>
		<path opacity="0.5" fill="none" stroke="#FF0000" stroke-width="0.5" stroke-dasharray="1 1" d="M63.108,47.707l17.061,7.358
			l16.394-7.692"/>
		<path opacity="0.5" fill="none" stroke="#FF0000" stroke-width="0.5" stroke-dasharray="1 1" d="M61.87,54.145l18.349,7.914
			l17.632-8.272"/>
		<path opacity="0.5" fill="none" stroke="#FF0000" stroke-width="0.5" stroke-dasharray="1 1" d="M60.538,61.068l19.735,8.512
			l18.964-8.897"/>
		<path fill="#FFFFFF" stroke="#000000" stroke-width="0.5" d="M104.238,66.804L63.58,107.462l-3.112-3.111l40.659-40.659
			L104.238,66.804z"/>
		<g>
			<path fill="#FFFFFF" stroke="#000000" stroke-width="0.3536" d="M102.099,64.664L61.44,105.323l-0.973-0.972l40.659-40.659
				L102.099,64.664z"/>
			<path stroke="#000000" stroke-width="0.3536" d="M67.943,98.82l-2.542,2.542l-0.973-0.972l2.542-2.542L67.943,98.82z"/>
			<path stroke="#000000" stroke-width="0.3536" d="M74.212,92.551l-3.219,3.219l-0.972-0.973l3.219-3.218L74.212,92.551z"/>
			<path stroke="#000000" stroke-width="0.3536" d="M80.523,86.24l-0.381,0.381l-0.972-0.972l0.381-0.381L80.523,86.24z"/>
			<path stroke="#000000" stroke-width="0.3536" d="M75.065,91.698l-0.38,0.38l-0.973-0.972l0.381-0.381L75.065,91.698z"/>
			<path stroke="#000000" stroke-width="0.3536" d="M81.73,85.033l-0.38,0.38l-0.973-0.972l0.381-0.381L81.73,85.033z"/>
			<path stroke="#000000" stroke-width="0.3536" d="M83.255,83.508l-0.381,0.381l-0.972-0.972l0.381-0.381L83.255,83.508z"/>
			<path stroke="#000000" stroke-width="0.3536" d="M92.272,74.491l-0.381,0.381L90.918,73.9l0.381-0.381L92.272,74.491z"/>
			<path stroke="#000000" stroke-width="0.3536" d="M91.197,75.565l-3.43,3.431l-0.973-0.972l3.431-3.432L91.197,75.565z"/>
			<path stroke="#000000" stroke-width="0.3536" d="M95.434,71.33l-1.059,1.059l-0.972-0.973l1.059-1.059L95.434,71.33z"/>
			<path stroke="#000000" stroke-width="0.3536" d="M99.373,67.391l-1.059,1.059l-0.973-0.972l1.059-1.06L99.373,67.391z"/>
		</g>
		<g>
			<g>
				<path d="M84.693,122.318l1.688-5.438h-3.375L84.693,122.318z"/>
				<path d="M84.693,116.88"/>
			</g>
			<path fill="none" stroke="#000000" stroke-width="0.75" stroke-linecap="square" d="M84.693,116.88v-15.149"/>
		</g>
		<g>
			<g>
				<path d="M53.073,82.5l-5.438-1.688v3.375L53.073,82.5z"/>
				<path d="M47.636,82.5"/>
			</g>
			<path fill="none" stroke="#000000" stroke-width="0.75" stroke-linecap="square" d="M47.636,82.5H18"/>
		</g>
		<g>
			<path d="M19.818,71.5l-0.633-1.93c-0.145,0.002-0.293-0.013-0.446-0.044l-0.364,1.259c-0.045,0.142-0.067,0.262-0.067,0.36
				c0,0.075,0.028,0.133,0.085,0.176c0.043,0.032,0.16,0.055,0.352,0.069L18.718,71.5h-1.521l0.032-0.109
				c0.145-0.006,0.242-0.021,0.293-0.044c0.08-0.033,0.139-0.078,0.176-0.135c0.063-0.091,0.128-0.253,0.196-0.485l0.693-2.402
				c0.047-0.16,0.07-0.284,0.07-0.373c0-0.09-0.037-0.166-0.11-0.229s-0.178-0.093-0.315-0.091l0.035-0.109h1.297
				c0.434,0,0.747,0.082,0.938,0.246c0.192,0.164,0.288,0.38,0.288,0.648c0,0.256-0.099,0.49-0.295,0.702
				c-0.197,0.212-0.466,0.346-0.809,0.403l0.382,1.164c0.094,0.286,0.188,0.472,0.281,0.558s0.245,0.135,0.454,0.146L20.772,71.5
				H19.818z M18.788,69.356c0.124,0.018,0.234,0.026,0.331,0.026c0.333,0,0.596-0.094,0.789-0.281s0.29-0.421,0.29-0.7
				c0-0.218-0.061-0.385-0.182-0.501c-0.122-0.116-0.303-0.174-0.546-0.174c-0.062,0-0.136,0.008-0.221,0.023L18.788,69.356z"/>
			<path d="M21.69,70.391c-0.011,0.098-0.016,0.178-0.016,0.242c0,0.173,0.063,0.321,0.187,0.442
				c0.125,0.122,0.276,0.183,0.455,0.183c0.143,0,0.28-0.029,0.412-0.086c0.131-0.058,0.327-0.185,0.586-0.381l0.061,0.085
				c-0.463,0.463-0.904,0.695-1.324,0.695c-0.285,0-0.5-0.09-0.645-0.27s-0.217-0.378-0.217-0.596c0-0.292,0.09-0.59,0.269-0.895
				c0.18-0.306,0.405-0.543,0.676-0.712c0.271-0.169,0.55-0.254,0.837-0.254c0.207,0,0.359,0.042,0.459,0.126
				s0.149,0.184,0.149,0.299c0,0.162-0.065,0.317-0.196,0.466c-0.172,0.193-0.425,0.35-0.76,0.469
				C22.404,70.283,22.092,70.346,21.69,70.391z M21.711,70.25c0.295-0.033,0.535-0.09,0.72-0.17
				c0.245-0.107,0.429-0.236,0.552-0.386c0.122-0.149,0.184-0.292,0.184-0.427c0-0.082-0.026-0.148-0.079-0.199
				s-0.128-0.076-0.226-0.076c-0.204,0-0.419,0.106-0.647,0.318C21.987,69.522,21.819,69.836,21.711,70.25z"/>
			<path d="M25.984,70.859c-0.203,0.244-0.407,0.424-0.613,0.539c-0.207,0.115-0.425,0.172-0.654,0.172
				c-0.276,0-0.492-0.078-0.647-0.235c-0.155-0.156-0.232-0.367-0.232-0.631c0-0.299,0.083-0.594,0.25-0.883
				s0.391-0.525,0.672-0.706c0.281-0.181,0.557-0.271,0.828-0.271c0.212,0,0.371,0.044,0.476,0.133
				c0.105,0.089,0.158,0.197,0.158,0.326c0,0.121-0.037,0.224-0.111,0.31c-0.055,0.066-0.122,0.099-0.202,0.099
				c-0.061,0-0.111-0.02-0.15-0.058c-0.04-0.039-0.06-0.087-0.06-0.146c0-0.037,0.007-0.071,0.022-0.102
				c0.015-0.031,0.045-0.068,0.091-0.112c0.046-0.044,0.074-0.075,0.083-0.095s0.015-0.04,0.015-0.062
				c0-0.041-0.019-0.075-0.056-0.102c-0.057-0.039-0.137-0.058-0.24-0.058c-0.192,0-0.381,0.067-0.569,0.202
				c-0.188,0.135-0.348,0.327-0.481,0.575c-0.16,0.301-0.24,0.602-0.24,0.903c0,0.2,0.057,0.357,0.17,0.474s0.268,0.174,0.463,0.174
				c0.15,0,0.3-0.038,0.447-0.113s0.313-0.211,0.497-0.409L25.984,70.859z"/>
			<path d="M29.103,69.762c0,0.293-0.078,0.584-0.233,0.872c-0.155,0.288-0.372,0.516-0.649,0.684
				c-0.278,0.168-0.548,0.252-0.81,0.252c-0.268,0-0.486-0.085-0.655-0.257c-0.169-0.171-0.254-0.393-0.254-0.665
				c0-0.287,0.083-0.576,0.248-0.865c0.165-0.29,0.386-0.519,0.663-0.687s0.544-0.252,0.802-0.252c0.258,0,0.471,0.085,0.638,0.255
				C29.019,69.27,29.103,69.49,29.103,69.762z M28.618,69.556c0-0.182-0.044-0.322-0.133-0.418s-0.204-0.146-0.344-0.146
				c-0.288,0-0.552,0.206-0.793,0.619c-0.242,0.412-0.362,0.822-0.362,1.229c0,0.186,0.047,0.33,0.141,0.43
				c0.094,0.101,0.212,0.151,0.354,0.151c0.276,0,0.534-0.205,0.775-0.615C28.498,70.396,28.618,69.979,28.618,69.556z"/>
			<path d="M30.642,68.844l-0.388,1.347c0.394-0.551,0.695-0.913,0.904-1.086c0.209-0.174,0.411-0.261,0.604-0.261
				c0.105,0,0.192,0.036,0.26,0.107c0.068,0.072,0.103,0.165,0.103,0.28c0,0.116-0.032,0.271-0.096,0.464l-0.404,1.222
				c-0.046,0.141-0.069,0.228-0.069,0.258c0,0.026,0.007,0.048,0.021,0.066c0.014,0.018,0.029,0.027,0.045,0.027
				c0.021,0,0.047-0.012,0.076-0.037c0.093-0.081,0.195-0.205,0.306-0.373l0.091,0.056c-0.174,0.256-0.338,0.438-0.494,0.545
				c-0.108,0.073-0.206,0.11-0.292,0.11c-0.069,0-0.125-0.022-0.166-0.066c-0.041-0.044-0.062-0.103-0.062-0.177
				c0-0.094,0.038-0.254,0.114-0.482l0.391-1.176c0.049-0.146,0.074-0.26,0.074-0.342c0-0.039-0.014-0.071-0.042-0.095
				s-0.062-0.037-0.103-0.037c-0.06,0-0.131,0.023-0.215,0.07c-0.158,0.087-0.322,0.231-0.493,0.433
				c-0.171,0.201-0.352,0.458-0.542,0.771c-0.1,0.166-0.184,0.346-0.25,0.543l-0.14,0.487h-0.431l0.532-1.844
				c0.063-0.218,0.094-0.349,0.094-0.394c0-0.042-0.017-0.079-0.051-0.111c-0.034-0.032-0.076-0.048-0.126-0.048
				c-0.023,0-0.063,0.004-0.121,0.012l-0.109,0.018l-0.03-0.109L30.642,68.844z"/>
			<path d="M34.509,68.844l-0.18,0.898H34.22c-0.01-0.262-0.065-0.452-0.165-0.571c-0.101-0.119-0.225-0.179-0.374-0.179
				c-0.12,0-0.215,0.033-0.286,0.1c-0.07,0.067-0.105,0.147-0.105,0.241c0,0.064,0.014,0.126,0.042,0.185
				c0.028,0.059,0.089,0.141,0.184,0.247c0.25,0.278,0.412,0.487,0.485,0.628c0.073,0.141,0.11,0.274,0.11,0.399
				c0,0.204-0.084,0.384-0.253,0.542s-0.382,0.236-0.64,0.236c-0.141,0-0.303-0.033-0.486-0.098
				c-0.064-0.023-0.114-0.035-0.149-0.035c-0.088,0-0.154,0.044-0.199,0.133h-0.108l0.18-0.953h0.109
				c0.012,0.299,0.074,0.511,0.186,0.634c0.112,0.124,0.266,0.186,0.46,0.186c0.149,0,0.268-0.042,0.355-0.125
				c0.087-0.083,0.131-0.186,0.131-0.307c0-0.079-0.016-0.151-0.047-0.218c-0.055-0.117-0.17-0.28-0.345-0.487
				s-0.288-0.363-0.338-0.467c-0.05-0.104-0.075-0.208-0.075-0.312c0-0.19,0.068-0.351,0.206-0.482
				c0.137-0.131,0.313-0.197,0.529-0.197c0.063,0,0.119,0.005,0.169,0.015c0.027,0.006,0.091,0.028,0.191,0.067
				c0.1,0.039,0.167,0.059,0.2,0.059c0.084,0,0.154-0.047,0.21-0.141H34.509z"/>
			<path d="M36.29,68.125l-0.236,0.789h0.392l-0.047,0.188h-0.401l-0.534,1.728c-0.065,0.196-0.098,0.323-0.098,0.381
				c0,0.032,0.007,0.056,0.021,0.073c0.014,0.017,0.03,0.025,0.05,0.025c0.043,0,0.101-0.032,0.172-0.098
				c0.042-0.039,0.135-0.159,0.279-0.36l0.097,0.073c-0.17,0.259-0.33,0.439-0.481,0.542c-0.103,0.071-0.207,0.106-0.313,0.106
				c-0.081,0-0.147-0.027-0.199-0.081c-0.051-0.054-0.077-0.123-0.077-0.207c0-0.105,0.033-0.267,0.098-0.484l0.513-1.698h-0.447
				l0.029-0.116c0.215-0.059,0.397-0.146,0.546-0.262c0.149-0.116,0.318-0.315,0.507-0.599H36.29z"/>
			<path d="M36.638,69.008l1-0.164l-0.412,1.424c0.344-0.584,0.656-0.993,0.937-1.225c0.159-0.133,0.288-0.199,0.389-0.199
				c0.064,0,0.116,0.019,0.153,0.057c0.038,0.038,0.056,0.093,0.056,0.165c0,0.128-0.033,0.25-0.1,0.367
				c-0.047,0.087-0.114,0.131-0.202,0.131c-0.045,0-0.083-0.015-0.116-0.043c-0.032-0.029-0.052-0.074-0.06-0.134
				c-0.004-0.037-0.013-0.061-0.026-0.072c-0.016-0.016-0.034-0.023-0.056-0.023c-0.033,0-0.064,0.008-0.094,0.023
				c-0.051,0.027-0.128,0.104-0.231,0.229c-0.162,0.192-0.338,0.441-0.527,0.748c-0.082,0.129-0.152,0.276-0.211,0.438
				c-0.082,0.224-0.129,0.358-0.141,0.403L36.903,71.5h-0.447l0.525-1.82c0.063-0.212,0.094-0.363,0.094-0.454
				c0-0.035-0.015-0.065-0.044-0.088c-0.039-0.031-0.088-0.047-0.147-0.047c-0.038,0-0.107,0.009-0.209,0.026L36.638,69.008z"/>
			<path d="M41.568,68.914l-0.536,1.776c-0.08,0.265-0.12,0.431-0.12,0.501c0,0.032,0.005,0.056,0.015,0.071
				c0.01,0.015,0.023,0.022,0.04,0.022c0.025,0,0.054-0.014,0.084-0.042s0.108-0.147,0.233-0.357l0.088,0.067
				c-0.135,0.237-0.274,0.408-0.417,0.514c-0.094,0.068-0.186,0.102-0.273,0.102c-0.067,0-0.12-0.021-0.159-0.064
				s-0.059-0.099-0.059-0.167c0-0.066,0.013-0.154,0.038-0.264c0.033-0.134,0.125-0.443,0.277-0.928
				c-0.346,0.544-0.635,0.917-0.868,1.119c-0.233,0.203-0.447,0.304-0.643,0.304c-0.092,0-0.17-0.031-0.234-0.094
				s-0.096-0.142-0.096-0.237c0-0.146,0.052-0.372,0.155-0.675l0.306-0.907c0.075-0.218,0.113-0.353,0.113-0.405
				c0-0.023-0.01-0.044-0.03-0.061c-0.02-0.017-0.042-0.025-0.065-0.025c-0.049,0-0.098,0.015-0.147,0.044s-0.16,0.138-0.333,0.326
				l-0.091-0.065c0.16-0.227,0.329-0.394,0.508-0.502c0.136-0.084,0.262-0.126,0.377-0.126c0.079,0,0.143,0.028,0.193,0.084
				S40,69.057,40,69.145c0,0.104-0.046,0.29-0.137,0.558l-0.323,0.934c-0.089,0.254-0.134,0.415-0.134,0.482
				c0,0.037,0.013,0.067,0.038,0.089s0.059,0.034,0.102,0.034c0.067,0,0.154-0.032,0.262-0.097c0.107-0.064,0.251-0.208,0.431-0.43
				c0.18-0.222,0.329-0.43,0.445-0.625c0.117-0.194,0.24-0.504,0.37-0.928l0.071-0.248H41.568z"/>
			<path d="M43.984,70.859c-0.203,0.244-0.407,0.424-0.613,0.539c-0.207,0.115-0.425,0.172-0.654,0.172
				c-0.276,0-0.492-0.078-0.647-0.235c-0.155-0.156-0.232-0.367-0.232-0.631c0-0.299,0.083-0.594,0.25-0.883
				s0.391-0.525,0.672-0.706c0.281-0.181,0.557-0.271,0.828-0.271c0.212,0,0.371,0.044,0.476,0.133
				c0.105,0.089,0.158,0.197,0.158,0.326c0,0.121-0.037,0.224-0.111,0.31c-0.055,0.066-0.122,0.099-0.202,0.099
				c-0.061,0-0.111-0.02-0.15-0.058c-0.04-0.039-0.06-0.087-0.06-0.146c0-0.037,0.007-0.071,0.022-0.102
				c0.015-0.031,0.045-0.068,0.091-0.112c0.046-0.044,0.074-0.075,0.083-0.095s0.015-0.04,0.015-0.062
				c0-0.041-0.019-0.075-0.056-0.102c-0.057-0.039-0.137-0.058-0.24-0.058c-0.192,0-0.381,0.067-0.569,0.202
				c-0.188,0.135-0.348,0.327-0.481,0.575c-0.16,0.301-0.24,0.602-0.24,0.903c0,0.2,0.057,0.357,0.17,0.474s0.268,0.174,0.463,0.174
				c0.15,0,0.3-0.038,0.447-0.113s0.313-0.211,0.497-0.409L43.984,70.859z"/>
			<path d="M45.955,68.125l-0.236,0.789h0.392l-0.047,0.188h-0.401l-0.534,1.728c-0.065,0.196-0.098,0.323-0.098,0.381
				c0,0.032,0.007,0.056,0.021,0.073c0.014,0.017,0.03,0.025,0.05,0.025c0.043,0,0.101-0.032,0.172-0.098
				c0.042-0.039,0.135-0.159,0.279-0.36l0.097,0.073c-0.17,0.259-0.33,0.439-0.481,0.542c-0.103,0.071-0.207,0.106-0.313,0.106
				c-0.081,0-0.147-0.027-0.199-0.081c-0.051-0.054-0.077-0.123-0.077-0.207c0-0.105,0.033-0.267,0.098-0.484l0.513-1.698h-0.447
				l0.029-0.116c0.215-0.059,0.397-0.146,0.546-0.262c0.149-0.116,0.318-0.315,0.507-0.599H45.955z"/>
			<path d="M47.462,68.844l-0.616,2.069c-0.042,0.14-0.063,0.223-0.063,0.251c0,0.03,0.009,0.055,0.026,0.074
				s0.037,0.028,0.061,0.028c0.027,0,0.06-0.015,0.098-0.045c0.103-0.087,0.206-0.211,0.311-0.373l0.103,0.067
				c-0.127,0.202-0.276,0.37-0.448,0.505c-0.127,0.1-0.249,0.15-0.364,0.15c-0.077,0-0.139-0.024-0.188-0.072
				s-0.073-0.108-0.073-0.18s0.026-0.193,0.078-0.361l0.406-1.316c0.063-0.217,0.094-0.353,0.094-0.408
				c0-0.043-0.015-0.079-0.045-0.106c-0.03-0.027-0.072-0.041-0.125-0.041c-0.043,0-0.132,0.011-0.268,0.032v-0.109L47.462,68.844z
				 M47.338,67.688c0.082,0,0.151,0.028,0.208,0.085s0.085,0.126,0.085,0.208c0,0.08-0.028,0.149-0.086,0.207
				s-0.127,0.086-0.207,0.086s-0.148-0.029-0.206-0.086s-0.087-0.126-0.087-0.207c0-0.082,0.028-0.151,0.085-0.208
				S47.256,67.688,47.338,67.688z"/>
			<path d="M50.437,69.762c0,0.293-0.078,0.584-0.233,0.872c-0.155,0.288-0.372,0.516-0.649,0.684
				c-0.278,0.168-0.548,0.252-0.81,0.252c-0.268,0-0.486-0.085-0.655-0.257c-0.169-0.171-0.254-0.393-0.254-0.665
				c0-0.287,0.083-0.576,0.248-0.865c0.165-0.29,0.386-0.519,0.663-0.687s0.544-0.252,0.802-0.252c0.258,0,0.471,0.085,0.638,0.255
				C50.353,69.27,50.437,69.49,50.437,69.762z M49.952,69.556c0-0.182-0.044-0.322-0.133-0.418s-0.204-0.146-0.344-0.146
				c-0.288,0-0.552,0.206-0.793,0.619c-0.242,0.412-0.362,0.822-0.362,1.229c0,0.186,0.047,0.33,0.141,0.43
				c0.094,0.101,0.212,0.151,0.354,0.151c0.276,0,0.534-0.205,0.775-0.615C49.832,70.396,49.952,69.979,49.952,69.556z"/>
			<path d="M51.976,68.844l-0.388,1.347c0.394-0.551,0.695-0.913,0.904-1.086c0.209-0.174,0.411-0.261,0.604-0.261
				c0.105,0,0.192,0.036,0.26,0.107c0.068,0.072,0.103,0.165,0.103,0.28c0,0.116-0.032,0.271-0.096,0.464l-0.404,1.222
				c-0.046,0.141-0.069,0.228-0.069,0.258c0,0.026,0.007,0.048,0.021,0.066c0.014,0.018,0.029,0.027,0.045,0.027
				c0.021,0,0.047-0.012,0.076-0.037c0.093-0.081,0.195-0.205,0.306-0.373l0.091,0.056c-0.174,0.256-0.338,0.438-0.494,0.545
				c-0.108,0.073-0.206,0.11-0.292,0.11c-0.069,0-0.125-0.022-0.166-0.066c-0.041-0.044-0.062-0.103-0.062-0.177
				c0-0.094,0.038-0.254,0.114-0.482l0.391-1.176c0.049-0.146,0.074-0.26,0.074-0.342c0-0.039-0.014-0.071-0.042-0.095
				s-0.062-0.037-0.103-0.037c-0.06,0-0.131,0.023-0.215,0.07c-0.158,0.087-0.322,0.231-0.493,0.433
				c-0.171,0.201-0.352,0.458-0.542,0.771c-0.1,0.166-0.184,0.346-0.25,0.543l-0.14,0.487H50.78l0.532-1.844
				c0.063-0.218,0.094-0.349,0.094-0.394c0-0.042-0.017-0.079-0.051-0.111c-0.034-0.032-0.076-0.048-0.126-0.048
				c-0.023,0-0.063,0.004-0.121,0.012l-0.109,0.018l-0.03-0.109L51.976,68.844z"/>
			<path d="M30.807,74.328l-0.583,2.026c0.18-0.195,0.337-0.33,0.471-0.402c0.134-0.072,0.274-0.108,0.42-0.108
				c0.206,0,0.375,0.071,0.506,0.214c0.131,0.143,0.197,0.336,0.197,0.581c0,0.315-0.087,0.628-0.262,0.941
				c-0.174,0.312-0.394,0.555-0.657,0.729s-0.523,0.261-0.779,0.261c-0.287,0-0.581-0.109-0.882-0.328l0.888-3.078
				c0.068-0.236,0.103-0.375,0.103-0.416c0-0.051-0.016-0.089-0.047-0.114c-0.045-0.035-0.111-0.053-0.198-0.053
				c-0.041,0-0.103,0.007-0.186,0.021v-0.109L30.807,74.328z M29.671,78.272c0.188,0.1,0.352,0.15,0.494,0.15
				c0.165,0,0.335-0.063,0.513-0.188c0.177-0.125,0.33-0.337,0.46-0.635c0.13-0.297,0.195-0.598,0.195-0.901
				c0-0.179-0.042-0.319-0.126-0.42s-0.184-0.152-0.298-0.152c-0.172,0-0.34,0.076-0.505,0.229
				c-0.165,0.152-0.284,0.358-0.359,0.617L29.671,78.272z"/>
			<path d="M32.69,77.391c-0.01,0.098-0.016,0.178-0.016,0.242c0,0.173,0.063,0.321,0.187,0.442
				c0.125,0.122,0.276,0.183,0.455,0.183c0.143,0,0.28-0.029,0.412-0.086c0.132-0.058,0.327-0.185,0.587-0.381l0.061,0.085
				c-0.463,0.463-0.904,0.695-1.324,0.695c-0.285,0-0.5-0.09-0.644-0.27s-0.217-0.378-0.217-0.596c0-0.292,0.09-0.59,0.269-0.895
				c0.18-0.306,0.405-0.543,0.676-0.712c0.271-0.169,0.55-0.254,0.837-0.254c0.207,0,0.36,0.042,0.459,0.126
				c0.1,0.084,0.149,0.184,0.149,0.299c0,0.162-0.065,0.317-0.196,0.466c-0.172,0.193-0.426,0.35-0.76,0.469
				C33.403,77.283,33.092,77.346,32.69,77.391z M32.711,77.25c0.295-0.033,0.535-0.09,0.72-0.17
				c0.245-0.107,0.429-0.236,0.551-0.386c0.123-0.149,0.184-0.292,0.184-0.427c0-0.082-0.026-0.148-0.079-0.199
				c-0.053-0.051-0.128-0.076-0.226-0.076c-0.203,0-0.419,0.106-0.647,0.318C32.986,76.522,32.818,76.836,32.711,77.25z"/>
			<path d="M37.639,75.891l-0.57,1.989l-0.066,0.266c-0.006,0.024-0.009,0.045-0.009,0.062c0,0.028,0.007,0.053,0.021,0.074
				c0.011,0.016,0.025,0.023,0.042,0.023c0.018,0,0.042-0.014,0.071-0.042c0.055-0.052,0.127-0.167,0.218-0.345l0.1,0.07
				c-0.114,0.197-0.232,0.344-0.353,0.439s-0.233,0.144-0.336,0.144c-0.071,0-0.126-0.021-0.165-0.063s-0.059-0.103-0.059-0.183
				c0-0.096,0.021-0.222,0.064-0.378l0.064-0.218c-0.282,0.333-0.542,0.566-0.778,0.699c-0.17,0.096-0.337,0.144-0.5,0.144
				c-0.157,0-0.293-0.058-0.407-0.174c-0.114-0.117-0.171-0.277-0.171-0.48c0-0.306,0.101-0.628,0.303-0.968
				c0.203-0.339,0.459-0.611,0.771-0.815c0.244-0.161,0.474-0.242,0.69-0.242c0.129,0,0.236,0.028,0.322,0.085
				s0.151,0.152,0.195,0.284l0.097-0.299L37.639,75.891z M36.558,76.039c-0.136,0-0.281,0.058-0.434,0.172
				c-0.217,0.163-0.411,0.404-0.58,0.725c-0.169,0.32-0.254,0.609-0.254,0.868c0,0.131,0.038,0.233,0.113,0.31
				c0.075,0.075,0.162,0.113,0.259,0.113c0.241,0,0.503-0.154,0.787-0.463c0.346-0.41,0.513-0.831,0.502-1.262
				c0-0.163-0.035-0.281-0.105-0.354S36.68,76.039,36.558,76.039z"/>
			<path d="M38.972,75.844l-0.38,1.33c0.174-0.313,0.321-0.547,0.443-0.705c0.189-0.244,0.374-0.42,0.554-0.531
				c0.106-0.063,0.216-0.094,0.333-0.094c0.1,0,0.183,0.033,0.248,0.099c0.066,0.065,0.099,0.149,0.099,0.252
				c0,0.095-0.024,0.218-0.073,0.37L39.972,77.3c0.336-0.597,0.656-1.016,0.957-1.256c0.167-0.133,0.333-0.2,0.496-0.2
				c0.095,0,0.173,0.034,0.234,0.102c0.061,0.068,0.091,0.174,0.091,0.316c0,0.112-0.02,0.231-0.06,0.356l-0.366,1.126
				c-0.08,0.246-0.12,0.381-0.12,0.409c0,0.026,0.008,0.049,0.024,0.068c0.01,0.013,0.025,0.02,0.042,0.02s0.048-0.018,0.093-0.054
				c0.101-0.085,0.195-0.198,0.284-0.338l0.097,0.062c-0.047,0.078-0.13,0.184-0.25,0.317s-0.221,0.225-0.306,0.272
				c-0.085,0.047-0.163,0.071-0.234,0.071c-0.065,0-0.121-0.023-0.165-0.07c-0.044-0.047-0.066-0.104-0.066-0.173
				c0-0.094,0.046-0.282,0.139-0.566l0.309-0.941c0.07-0.217,0.107-0.337,0.112-0.361c0.007-0.037,0.01-0.073,0.01-0.108
				c0-0.049-0.012-0.087-0.035-0.114c-0.025-0.027-0.054-0.041-0.086-0.041c-0.089,0-0.183,0.042-0.282,0.126
				c-0.292,0.249-0.565,0.596-0.819,1.044c-0.167,0.295-0.324,0.673-0.47,1.135h-0.444l0.535-1.767
				c0.058-0.191,0.087-0.318,0.087-0.383c0-0.052-0.011-0.091-0.033-0.117s-0.049-0.038-0.081-0.038c-0.066,0-0.136,0.023-0.21,0.07
				c-0.12,0.076-0.274,0.238-0.463,0.488c-0.189,0.249-0.335,0.488-0.439,0.715c-0.05,0.107-0.169,0.451-0.357,1.031h-0.431
				l0.549-1.902l0.071-0.247c0.014-0.037,0.021-0.063,0.021-0.081c0-0.042-0.02-0.08-0.059-0.114
				c-0.04-0.034-0.089-0.051-0.151-0.051c-0.025,0-0.096,0.012-0.212,0.035l-0.02-0.109L38.972,75.844z"/>
		</g>
		<g>
			<path d="M107.529,65.661h1.566c0.411,0,0.718,0.089,0.921,0.266c0.203,0.177,0.305,0.393,0.305,0.647
				c0,0.202-0.065,0.397-0.195,0.587c-0.129,0.19-0.322,0.344-0.578,0.462c-0.256,0.119-0.532,0.178-0.828,0.178
				c-0.185,0-0.42-0.034-0.705-0.103l-0.33,1.145c-0.074,0.237-0.111,0.394-0.111,0.469c0,0.058,0.026,0.105,0.079,0.143
				s0.179,0.062,0.378,0.073l-0.029,0.109h-1.552l0.032-0.109c0.207,0,0.351-0.036,0.432-0.107c0.081-0.071,0.168-0.268,0.262-0.589
				l0.653-2.264c0.078-0.272,0.117-0.454,0.117-0.546c0-0.068-0.028-0.125-0.083-0.17s-0.178-0.072-0.368-0.082L107.529,65.661z
				 M108.07,67.514c0.219,0.057,0.395,0.085,0.528,0.085c0.211,0,0.403-0.044,0.577-0.132s0.309-0.22,0.407-0.396
				c0.098-0.176,0.146-0.359,0.146-0.548c0-0.198-0.06-0.354-0.18-0.47c-0.12-0.115-0.301-0.173-0.544-0.173
				c-0.131,0-0.291,0.017-0.478,0.05L108.07,67.514z"/>
			<path d="M112.007,65.466l-0.831,2.882c0.385-0.55,0.685-0.915,0.901-1.095c0.216-0.181,0.422-0.271,0.619-0.271
				c0.102,0,0.186,0.036,0.254,0.108c0.067,0.072,0.102,0.167,0.102,0.287c0,0.128-0.031,0.283-0.093,0.465l-0.404,1.217
				c-0.051,0.147-0.076,0.229-0.076,0.244c0,0.026,0.007,0.048,0.021,0.064c0.015,0.017,0.031,0.025,0.05,0.025
				c0.022,0,0.048-0.012,0.077-0.036c0.097-0.084,0.193-0.203,0.288-0.355l0.091,0.056c-0.063,0.104-0.151,0.215-0.264,0.335
				c-0.112,0.12-0.209,0.203-0.29,0.249c-0.081,0.045-0.153,0.068-0.216,0.068c-0.069,0-0.125-0.023-0.169-0.069
				c-0.043-0.046-0.065-0.105-0.065-0.177c0-0.086,0.039-0.246,0.117-0.481l0.386-1.173c0.049-0.146,0.074-0.262,0.074-0.346
				c0-0.039-0.014-0.07-0.041-0.094s-0.062-0.035-0.104-0.035c-0.063,0-0.133,0.021-0.213,0.064
				c-0.146,0.082-0.314,0.234-0.506,0.456c-0.051,0.061-0.223,0.304-0.515,0.731c-0.091,0.136-0.162,0.286-0.214,0.448l-0.183,0.605
				h-0.431l0.97-3.359l0.103-0.369c0-0.052-0.021-0.098-0.063-0.137c-0.042-0.04-0.094-0.06-0.156-0.06
				c-0.036,0-0.091,0.006-0.165,0.018L111,65.739V65.63L112.007,65.466z"/>
			<path d="M116.03,67.9c0,0.293-0.078,0.584-0.233,0.872c-0.155,0.288-0.372,0.516-0.649,0.684
				c-0.278,0.168-0.548,0.252-0.81,0.252c-0.268,0-0.486-0.085-0.655-0.257c-0.169-0.171-0.254-0.393-0.254-0.665
				c0-0.287,0.083-0.576,0.248-0.865c0.165-0.29,0.386-0.519,0.663-0.687s0.544-0.252,0.802-0.252c0.258,0,0.471,0.085,0.638,0.255
				C115.947,67.407,116.03,67.628,116.03,67.9z M115.546,67.694c0-0.182-0.044-0.322-0.133-0.418s-0.204-0.146-0.344-0.146
				c-0.288,0-0.552,0.206-0.793,0.619c-0.242,0.412-0.362,0.822-0.362,1.229c0,0.186,0.047,0.33,0.141,0.43
				c0.094,0.101,0.212,0.151,0.354,0.151c0.276,0,0.534-0.205,0.775-0.615C115.425,68.534,115.546,68.117,115.546,67.694z"/>
			<path d="M117.883,66.263l-0.236,0.789h0.392l-0.047,0.188h-0.401l-0.534,1.728c-0.065,0.196-0.098,0.323-0.098,0.381
				c0,0.032,0.007,0.056,0.021,0.073c0.014,0.017,0.03,0.025,0.05,0.025c0.043,0,0.101-0.032,0.172-0.098
				c0.042-0.039,0.135-0.159,0.279-0.36l0.097,0.073c-0.17,0.259-0.33,0.439-0.481,0.542c-0.103,0.071-0.207,0.106-0.313,0.106
				c-0.081,0-0.147-0.027-0.199-0.081c-0.051-0.054-0.077-0.123-0.077-0.207c0-0.105,0.033-0.267,0.098-0.484l0.513-1.698h-0.447
				l0.029-0.116c0.215-0.059,0.397-0.146,0.546-0.262c0.149-0.116,0.318-0.315,0.507-0.599H117.883z"/>
			<path d="M120.697,67.9c0,0.293-0.078,0.584-0.233,0.872c-0.155,0.288-0.372,0.516-0.649,0.684
				c-0.278,0.168-0.548,0.252-0.81,0.252c-0.268,0-0.486-0.085-0.655-0.257c-0.169-0.171-0.254-0.393-0.254-0.665
				c0-0.287,0.083-0.576,0.248-0.865c0.165-0.29,0.386-0.519,0.663-0.687s0.544-0.252,0.802-0.252c0.258,0,0.471,0.085,0.638,0.255
				C120.614,67.407,120.697,67.628,120.697,67.9z M120.213,67.694c0-0.182-0.044-0.322-0.133-0.418s-0.204-0.146-0.344-0.146
				c-0.288,0-0.552,0.206-0.793,0.619c-0.242,0.412-0.362,0.822-0.362,1.229c0,0.186,0.047,0.33,0.141,0.43
				c0.094,0.101,0.212,0.151,0.354,0.151c0.276,0,0.534-0.205,0.775-0.615C120.092,68.534,120.213,68.117,120.213,67.694z"/>
			<path d="M124.056,67.161l-0.085,0.305h-0.492c0.036,0.105,0.054,0.205,0.054,0.296c0,0.258-0.11,0.488-0.331,0.689
				c-0.223,0.202-0.527,0.313-0.916,0.334c-0.205,0.063-0.359,0.138-0.461,0.224c-0.039,0.032-0.058,0.064-0.058,0.097
				c0,0.04,0.018,0.076,0.053,0.108c0.035,0.033,0.125,0.065,0.268,0.099l0.57,0.13c0.315,0.074,0.523,0.161,0.624,0.262
				c0.099,0.104,0.148,0.223,0.148,0.357c0,0.16-0.059,0.306-0.178,0.439c-0.118,0.132-0.291,0.236-0.519,0.312
				c-0.228,0.075-0.48,0.112-0.755,0.112c-0.243,0-0.463-0.029-0.663-0.086c-0.199-0.058-0.342-0.135-0.428-0.233
				s-0.129-0.198-0.129-0.302c0-0.084,0.028-0.171,0.084-0.262c0.056-0.091,0.125-0.166,0.21-0.224
				c0.053-0.037,0.202-0.125,0.449-0.264c-0.089-0.07-0.134-0.147-0.134-0.231c0-0.078,0.038-0.161,0.115-0.249
				c0.077-0.088,0.239-0.185,0.488-0.29c-0.209-0.041-0.375-0.131-0.498-0.27s-0.184-0.293-0.184-0.463
				c0-0.277,0.122-0.525,0.366-0.744s0.569-0.328,0.976-0.328c0.147,0,0.268,0.015,0.362,0.043s0.185,0.075,0.273,0.136H124.056z
				 M121.628,69.632c-0.157,0.072-0.276,0.166-0.356,0.279c-0.081,0.113-0.121,0.225-0.121,0.334c0,0.129,0.059,0.235,0.176,0.32
				c0.168,0.121,0.415,0.182,0.739,0.182c0.279,0,0.519-0.047,0.717-0.143c0.199-0.095,0.298-0.217,0.298-0.368
				c0-0.076-0.037-0.148-0.11-0.217c-0.073-0.069-0.216-0.125-0.428-0.167C122.426,69.829,122.122,69.755,121.628,69.632z
				 M123.049,67.629c0-0.155-0.045-0.276-0.135-0.365c-0.09-0.089-0.207-0.134-0.352-0.134c-0.228,0-0.416,0.11-0.564,0.329
				c-0.148,0.22-0.222,0.449-0.222,0.687c0,0.149,0.047,0.271,0.142,0.366s0.209,0.142,0.345,0.142c0.107,0,0.21-0.028,0.31-0.084
				c0.1-0.056,0.184-0.134,0.253-0.232c0.068-0.099,0.123-0.224,0.163-0.377S123.049,67.697,123.049,67.629z"/>
			<path d="M124.23,67.146l1-0.164l-0.412,1.424c0.344-0.584,0.656-0.993,0.937-1.225c0.159-0.133,0.288-0.199,0.389-0.199
				c0.064,0,0.116,0.019,0.153,0.057c0.038,0.038,0.056,0.093,0.056,0.165c0,0.128-0.033,0.25-0.1,0.367
				c-0.047,0.087-0.114,0.131-0.202,0.131c-0.045,0-0.083-0.015-0.116-0.043c-0.032-0.029-0.052-0.074-0.06-0.134
				c-0.004-0.037-0.013-0.061-0.026-0.072c-0.016-0.016-0.034-0.023-0.056-0.023c-0.033,0-0.064,0.008-0.094,0.023
				c-0.051,0.027-0.128,0.104-0.231,0.229c-0.162,0.192-0.338,0.441-0.527,0.748c-0.082,0.129-0.152,0.276-0.211,0.438
				c-0.082,0.224-0.129,0.358-0.141,0.403l-0.094,0.369h-0.447l0.525-1.82c0.063-0.212,0.094-0.363,0.094-0.454
				c0-0.035-0.015-0.065-0.044-0.088c-0.039-0.031-0.088-0.047-0.147-0.047c-0.038,0-0.107,0.009-0.209,0.026L124.23,67.146z"/>
			<path d="M129.232,67.028l-0.57,1.989l-0.066,0.266c-0.006,0.024-0.009,0.045-0.009,0.062c0,0.028,0.007,0.053,0.021,0.074
				c0.011,0.016,0.025,0.023,0.042,0.023c0.018,0,0.042-0.014,0.071-0.042c0.054-0.052,0.127-0.167,0.218-0.345l0.1,0.07
				c-0.114,0.197-0.232,0.344-0.353,0.439s-0.233,0.144-0.335,0.144c-0.071,0-0.127-0.021-0.166-0.063
				c-0.039-0.042-0.058-0.103-0.058-0.183c0-0.096,0.021-0.222,0.064-0.378l0.064-0.218c-0.282,0.333-0.542,0.566-0.778,0.699
				c-0.17,0.096-0.337,0.144-0.5,0.144c-0.157,0-0.293-0.058-0.407-0.174c-0.114-0.117-0.171-0.277-0.171-0.48
				c0-0.306,0.101-0.628,0.304-0.968c0.202-0.339,0.459-0.611,0.771-0.815c0.244-0.161,0.474-0.242,0.689-0.242
				c0.129,0,0.237,0.028,0.323,0.085s0.151,0.152,0.196,0.284l0.096-0.299L129.232,67.028z M128.151,67.177
				c-0.136,0-0.281,0.058-0.434,0.172c-0.217,0.163-0.411,0.404-0.58,0.725c-0.169,0.32-0.254,0.609-0.254,0.868
				c0,0.131,0.038,0.233,0.113,0.31c0.075,0.075,0.162,0.113,0.259,0.113c0.241,0,0.503-0.154,0.787-0.463
				c0.345-0.41,0.513-0.831,0.501-1.262c0-0.163-0.035-0.281-0.105-0.354S128.273,67.177,128.151,67.177z"/>
			<path d="M130.583,66.981l-0.195,0.679c0.212-0.252,0.401-0.428,0.567-0.528c0.167-0.1,0.336-0.15,0.51-0.15
				c0.173,0,0.321,0.069,0.443,0.207c0.123,0.138,0.184,0.317,0.184,0.539c0,0.43-0.175,0.868-0.523,1.313
				c-0.349,0.445-0.755,0.668-1.219,0.668c-0.098,0-0.184-0.011-0.259-0.032c-0.075-0.021-0.159-0.059-0.253-0.113l-0.218,0.754
				c-0.043,0.147-0.064,0.244-0.064,0.288c0,0.043,0.011,0.079,0.034,0.109s0.059,0.054,0.11,0.07
				c0.051,0.016,0.151,0.024,0.302,0.024l-0.026,0.109h-1.38l0.029-0.109c0.182-0.008,0.304-0.039,0.368-0.093
				s0.13-0.205,0.201-0.452l0.743-2.572c0.045-0.164,0.067-0.266,0.067-0.305c0-0.053-0.015-0.095-0.045-0.124
				c-0.03-0.03-0.076-0.044-0.138-0.044c-0.056,0-0.134,0.007-0.235,0.021V67.13L130.583,66.981z M129.905,69.329
				c0.122,0.144,0.286,0.215,0.493,0.215c0.103,0,0.207-0.028,0.313-0.085c0.106-0.057,0.21-0.141,0.311-0.252
				c0.102-0.111,0.192-0.239,0.273-0.385s0.153-0.317,0.217-0.514s0.096-0.392,0.096-0.585c0-0.156-0.036-0.276-0.108-0.359
				s-0.157-0.125-0.254-0.125c-0.214,0-0.425,0.122-0.634,0.364c-0.209,0.243-0.36,0.526-0.454,0.851L129.905,69.329z"/>
			<path d="M134.009,65.466l-0.831,2.882c0.385-0.55,0.685-0.915,0.901-1.095c0.216-0.181,0.422-0.271,0.619-0.271
				c0.102,0,0.186,0.036,0.254,0.108c0.067,0.072,0.102,0.167,0.102,0.287c0,0.128-0.031,0.283-0.093,0.465l-0.404,1.217
				c-0.051,0.147-0.076,0.229-0.076,0.244c0,0.026,0.007,0.048,0.021,0.064c0.015,0.017,0.031,0.025,0.05,0.025
				c0.022,0,0.048-0.012,0.077-0.036c0.097-0.084,0.193-0.203,0.288-0.355l0.091,0.056c-0.063,0.104-0.151,0.215-0.264,0.335
				c-0.112,0.12-0.209,0.203-0.29,0.249c-0.081,0.045-0.153,0.068-0.216,0.068c-0.069,0-0.125-0.023-0.169-0.069
				c-0.043-0.046-0.065-0.105-0.065-0.177c0-0.086,0.039-0.246,0.117-0.481l0.386-1.173c0.049-0.146,0.074-0.262,0.074-0.346
				c0-0.039-0.014-0.07-0.041-0.094s-0.062-0.035-0.104-0.035c-0.063,0-0.133,0.021-0.213,0.064
				c-0.146,0.082-0.314,0.234-0.506,0.456c-0.051,0.061-0.223,0.304-0.515,0.731c-0.091,0.136-0.162,0.286-0.214,0.448l-0.183,0.605
				h-0.431l0.97-3.359l0.103-0.369c0-0.052-0.021-0.098-0.063-0.137c-0.042-0.04-0.094-0.06-0.156-0.06
				c-0.036,0-0.091,0.006-0.165,0.018l-0.063,0.009V65.63L134.009,65.466z"/>
			<path d="M136.725,66.981l-0.616,2.069c-0.042,0.14-0.063,0.223-0.063,0.251c0,0.03,0.009,0.055,0.026,0.074
				s0.037,0.028,0.061,0.028c0.027,0,0.06-0.015,0.098-0.045c0.103-0.087,0.206-0.211,0.311-0.373l0.103,0.067
				c-0.127,0.202-0.276,0.37-0.448,0.505c-0.127,0.1-0.249,0.15-0.364,0.15c-0.077,0-0.139-0.024-0.188-0.072
				s-0.073-0.108-0.073-0.18s0.026-0.193,0.078-0.361l0.406-1.316c0.063-0.217,0.094-0.353,0.094-0.408
				c0-0.043-0.015-0.079-0.045-0.106c-0.03-0.027-0.072-0.041-0.125-0.041c-0.043,0-0.132,0.011-0.268,0.032v-0.109L136.725,66.981z
				 M136.601,65.825c0.082,0,0.151,0.028,0.208,0.085s0.085,0.126,0.085,0.208c0,0.08-0.028,0.149-0.086,0.207
				s-0.127,0.086-0.207,0.086s-0.148-0.029-0.206-0.086s-0.087-0.126-0.087-0.207c0-0.082,0.028-0.151,0.085-0.208
				S136.519,65.825,136.601,65.825z"/>
			<path d="M139.244,68.997c-0.203,0.244-0.407,0.424-0.613,0.539c-0.207,0.115-0.425,0.172-0.654,0.172
				c-0.276,0-0.492-0.078-0.647-0.235c-0.155-0.156-0.232-0.367-0.232-0.631c0-0.299,0.083-0.594,0.25-0.883
				s0.391-0.525,0.672-0.706c0.281-0.181,0.557-0.271,0.828-0.271c0.212,0,0.371,0.044,0.476,0.133
				c0.105,0.089,0.158,0.197,0.158,0.326c0,0.121-0.037,0.224-0.111,0.31c-0.055,0.066-0.122,0.099-0.202,0.099
				c-0.061,0-0.111-0.02-0.15-0.058c-0.04-0.039-0.06-0.087-0.06-0.146c0-0.037,0.007-0.071,0.022-0.102
				c0.015-0.031,0.045-0.068,0.091-0.112c0.046-0.044,0.074-0.075,0.083-0.095s0.015-0.04,0.015-0.062
				c0-0.041-0.019-0.075-0.056-0.102c-0.057-0.039-0.137-0.058-0.24-0.058c-0.192,0-0.381,0.067-0.569,0.202
				c-0.188,0.135-0.348,0.327-0.481,0.575c-0.16,0.301-0.24,0.602-0.24,0.903c0,0.2,0.057,0.357,0.17,0.474s0.268,0.174,0.463,0.174
				c0.15,0,0.3-0.038,0.447-0.113s0.313-0.211,0.497-0.409L139.244,68.997z"/>
			<path d="M118.416,73.981l-0.195,0.679c0.212-0.252,0.401-0.428,0.567-0.528c0.167-0.1,0.336-0.15,0.51-0.15
				c0.173,0,0.321,0.069,0.443,0.207c0.123,0.138,0.184,0.317,0.184,0.539c0,0.43-0.175,0.868-0.523,1.313
				c-0.349,0.445-0.755,0.668-1.219,0.668c-0.098,0-0.184-0.011-0.259-0.032c-0.075-0.021-0.159-0.059-0.253-0.113l-0.218,0.754
				c-0.043,0.147-0.064,0.244-0.064,0.288c0,0.043,0.011,0.079,0.034,0.109s0.059,0.054,0.11,0.07
				c0.051,0.016,0.151,0.024,0.302,0.024l-0.026,0.109h-1.38l0.029-0.109c0.182-0.008,0.304-0.039,0.368-0.093
				s0.13-0.205,0.201-0.452l0.743-2.572c0.045-0.164,0.067-0.266,0.067-0.305c0-0.053-0.015-0.095-0.045-0.124
				c-0.03-0.03-0.076-0.044-0.138-0.044c-0.056,0-0.134,0.007-0.235,0.021V74.13L118.416,73.981z M117.738,76.329
				c0.122,0.144,0.286,0.215,0.493,0.215c0.103,0,0.207-0.028,0.313-0.085c0.106-0.057,0.21-0.141,0.311-0.252
				c0.102-0.111,0.192-0.239,0.273-0.385s0.153-0.317,0.217-0.514s0.096-0.392,0.096-0.585c0-0.156-0.036-0.276-0.108-0.359
				s-0.157-0.125-0.254-0.125c-0.214,0-0.425,0.122-0.634,0.364c-0.209,0.243-0.36,0.526-0.454,0.851L117.738,76.329z"/>
			<path d="M121.917,72.466l-1.037,3.504c-0.051,0.175-0.076,0.282-0.076,0.321c0,0.029,0.008,0.054,0.025,0.073
				c0.017,0.02,0.038,0.029,0.062,0.029c0.034,0,0.07-0.017,0.109-0.05c0.092-0.082,0.188-0.211,0.289-0.386l0.086,0.091
				c-0.177,0.262-0.339,0.444-0.488,0.548c-0.109,0.074-0.214,0.111-0.313,0.111c-0.07,0-0.129-0.025-0.177-0.076
				c-0.048-0.051-0.071-0.109-0.071-0.176c0-0.07,0.032-0.216,0.098-0.435l0.825-2.758c0.064-0.223,0.097-0.351,0.097-0.384
				c0-0.046-0.019-0.085-0.056-0.115c-0.037-0.03-0.096-0.045-0.175-0.045c-0.046,0-0.116,0.007-0.209,0.021V72.63L121.917,72.466z"
				/>
			<path d="M124.732,74.028l-0.57,1.989l-0.066,0.266c-0.006,0.024-0.009,0.045-0.009,0.062c0,0.028,0.007,0.053,0.021,0.074
				c0.011,0.016,0.025,0.023,0.042,0.023c0.018,0,0.042-0.014,0.071-0.042c0.054-0.052,0.127-0.167,0.218-0.345l0.1,0.07
				c-0.114,0.197-0.232,0.344-0.353,0.439s-0.233,0.144-0.335,0.144c-0.071,0-0.127-0.021-0.166-0.063
				c-0.039-0.042-0.058-0.103-0.058-0.183c0-0.096,0.021-0.222,0.064-0.378l0.064-0.218c-0.282,0.333-0.542,0.566-0.778,0.699
				c-0.17,0.096-0.337,0.144-0.5,0.144c-0.157,0-0.293-0.058-0.407-0.174c-0.114-0.117-0.171-0.277-0.171-0.48
				c0-0.306,0.101-0.628,0.304-0.968c0.202-0.339,0.459-0.611,0.771-0.815c0.244-0.161,0.474-0.242,0.689-0.242
				c0.129,0,0.237,0.028,0.323,0.085s0.151,0.152,0.196,0.284l0.096-0.299L124.732,74.028z M123.651,74.177
				c-0.136,0-0.281,0.058-0.434,0.172c-0.217,0.163-0.411,0.404-0.58,0.725c-0.169,0.32-0.254,0.609-0.254,0.868
				c0,0.131,0.038,0.233,0.113,0.31c0.075,0.075,0.162,0.113,0.259,0.113c0.241,0,0.503-0.154,0.787-0.463
				c0.345-0.41,0.513-0.831,0.501-1.262c0-0.163-0.035-0.281-0.105-0.354S123.773,74.177,123.651,74.177z"/>
			<path d="M126.385,73.263l-0.236,0.789h0.392l-0.047,0.188h-0.401l-0.534,1.728c-0.065,0.196-0.098,0.323-0.098,0.381
				c0,0.032,0.007,0.056,0.021,0.073c0.014,0.017,0.03,0.025,0.05,0.025c0.043,0,0.101-0.032,0.172-0.098
				c0.042-0.039,0.135-0.159,0.279-0.36l0.097,0.073c-0.17,0.259-0.33,0.439-0.481,0.542c-0.103,0.071-0.207,0.106-0.313,0.106
				c-0.081,0-0.147-0.027-0.199-0.081c-0.051-0.054-0.077-0.123-0.077-0.207c0-0.105,0.033-0.267,0.098-0.484l0.513-1.698h-0.447
				l0.029-0.116c0.215-0.059,0.397-0.146,0.546-0.262c0.149-0.116,0.318-0.315,0.507-0.599H126.385z"/>
			<path d="M127.113,75.528c-0.011,0.098-0.016,0.178-0.016,0.242c0,0.173,0.063,0.321,0.187,0.442
				c0.125,0.122,0.276,0.183,0.455,0.183c0.143,0,0.28-0.029,0.412-0.086c0.131-0.058,0.327-0.185,0.586-0.381l0.061,0.085
				c-0.463,0.463-0.904,0.695-1.324,0.695c-0.285,0-0.5-0.09-0.645-0.27s-0.217-0.378-0.217-0.596c0-0.292,0.09-0.59,0.269-0.895
				c0.18-0.306,0.405-0.543,0.676-0.712c0.271-0.169,0.55-0.254,0.837-0.254c0.207,0,0.359,0.042,0.459,0.126
				s0.149,0.184,0.149,0.299c0,0.162-0.065,0.317-0.196,0.466c-0.172,0.193-0.425,0.35-0.76,0.469
				C127.827,75.421,127.515,75.483,127.113,75.528z M127.134,75.388c0.295-0.033,0.535-0.09,0.72-0.17
				c0.245-0.107,0.429-0.236,0.552-0.386c0.122-0.149,0.184-0.292,0.184-0.427c0-0.082-0.026-0.148-0.079-0.199
				s-0.128-0.076-0.226-0.076c-0.204,0-0.419,0.106-0.647,0.318C127.41,74.66,127.242,74.974,127.134,75.388z"/>
		</g>
		<g>
			<path d="M97.133,15.253l0.32-3.306c0.016-0.167,0.023-0.281,0.023-0.339c0-0.088-0.033-0.161-0.098-0.22S97.21,11.3,97.07,11.3
				h-0.105l0.029-0.109h1.568L98.529,11.3c-0.17,0.002-0.287,0.02-0.35,0.053c-0.063,0.034-0.114,0.09-0.151,0.171
				c-0.02,0.043-0.04,0.166-0.062,0.367l-0.23,2.376l1.56-2.116c0.168-0.23,0.273-0.391,0.316-0.482
				c0.029-0.061,0.044-0.114,0.044-0.159c0-0.053-0.022-0.1-0.067-0.139c-0.045-0.039-0.129-0.063-0.252-0.071l0.035-0.109h1.191
				l-0.029,0.109c-0.096,0.008-0.172,0.026-0.229,0.056c-0.107,0.051-0.214,0.128-0.321,0.231s-0.275,0.313-0.505,0.626l-2.237,3.04
				H97.133z"/>
			<path d="M100.908,12.511l-0.616,2.069c-0.042,0.14-0.063,0.223-0.063,0.251c0,0.03,0.009,0.055,0.026,0.074
				s0.038,0.028,0.061,0.028c0.027,0,0.059-0.015,0.097-0.045c0.103-0.087,0.206-0.211,0.311-0.373l0.103,0.067
				c-0.127,0.202-0.276,0.37-0.448,0.505c-0.127,0.1-0.249,0.15-0.364,0.15c-0.076,0-0.139-0.024-0.188-0.072
				s-0.073-0.108-0.073-0.18s0.026-0.193,0.078-0.361l0.406-1.316c0.063-0.217,0.094-0.353,0.094-0.408
				c0-0.043-0.015-0.079-0.045-0.106c-0.03-0.027-0.072-0.041-0.125-0.041c-0.043,0-0.132,0.011-0.268,0.032v-0.109L100.908,12.511z
				 M100.784,11.354c0.082,0,0.151,0.028,0.208,0.085s0.085,0.126,0.085,0.208c0,0.08-0.029,0.149-0.087,0.207
				s-0.126,0.086-0.206,0.086s-0.149-0.029-0.207-0.086s-0.086-0.126-0.086-0.207c0-0.082,0.028-0.151,0.085-0.208
				S100.702,11.354,100.784,11.354z"/>
			<path d="M101.416,12.675l1-0.164l-0.412,1.424c0.344-0.584,0.656-0.993,0.937-1.225c0.159-0.133,0.289-0.199,0.389-0.199
				c0.064,0,0.116,0.019,0.153,0.057c0.038,0.038,0.056,0.093,0.056,0.165c0,0.128-0.033,0.25-0.1,0.367
				c-0.047,0.087-0.114,0.131-0.202,0.131c-0.045,0-0.083-0.015-0.116-0.043c-0.032-0.029-0.052-0.074-0.06-0.134
				c-0.004-0.037-0.013-0.061-0.026-0.072c-0.016-0.016-0.034-0.023-0.056-0.023c-0.033,0-0.064,0.008-0.094,0.023
				c-0.051,0.027-0.128,0.104-0.231,0.229c-0.162,0.192-0.338,0.441-0.527,0.748c-0.082,0.129-0.152,0.276-0.211,0.438
				c-0.082,0.224-0.129,0.358-0.141,0.403l-0.094,0.369h-0.447l0.526-1.82c0.063-0.212,0.094-0.363,0.094-0.454
				c0-0.035-0.015-0.065-0.044-0.088c-0.039-0.031-0.088-0.047-0.148-0.047c-0.038,0-0.108,0.009-0.209,0.026L101.416,12.675z"/>
			<path d="M105.07,11.792l-0.236,0.789h0.392l-0.047,0.188h-0.401l-0.534,1.728c-0.065,0.196-0.098,0.323-0.098,0.381
				c0,0.032,0.007,0.056,0.021,0.073c0.014,0.017,0.03,0.025,0.049,0.025c0.044,0,0.101-0.032,0.172-0.098
				c0.042-0.039,0.135-0.159,0.279-0.36l0.097,0.073c-0.17,0.259-0.33,0.439-0.481,0.542c-0.103,0.071-0.208,0.106-0.313,0.106
				c-0.081,0-0.147-0.027-0.199-0.081c-0.052-0.054-0.078-0.123-0.078-0.207c0-0.105,0.033-0.267,0.098-0.484l0.513-1.698h-0.447
				l0.029-0.116c0.215-0.059,0.397-0.146,0.546-0.262c0.149-0.116,0.318-0.315,0.507-0.599H105.07z"/>
			<path d="M108.013,12.581l-0.536,1.776c-0.08,0.265-0.12,0.431-0.12,0.501c0,0.032,0.005,0.056,0.015,0.071
				c0.01,0.015,0.023,0.022,0.04,0.022c0.025,0,0.054-0.014,0.084-0.042s0.109-0.147,0.233-0.357l0.088,0.067
				c-0.135,0.237-0.274,0.408-0.417,0.514c-0.095,0.068-0.186,0.102-0.273,0.102c-0.067,0-0.12-0.021-0.159-0.064
				s-0.059-0.099-0.059-0.167c0-0.066,0.013-0.154,0.038-0.264c0.033-0.134,0.126-0.443,0.278-0.928
				c-0.346,0.544-0.635,0.917-0.868,1.119c-0.232,0.203-0.447,0.304-0.643,0.304c-0.092,0-0.17-0.031-0.234-0.094
				s-0.096-0.142-0.096-0.237c0-0.146,0.051-0.372,0.154-0.675l0.306-0.907c0.075-0.218,0.112-0.353,0.112-0.405
				c0-0.023-0.01-0.044-0.03-0.061s-0.042-0.025-0.065-0.025c-0.049,0-0.098,0.015-0.147,0.044c-0.049,0.029-0.16,0.138-0.333,0.326
				l-0.091-0.065c0.16-0.227,0.329-0.394,0.508-0.502c0.136-0.084,0.262-0.126,0.377-0.126c0.079,0,0.144,0.028,0.193,0.084
				s0.075,0.128,0.075,0.217c0,0.104-0.046,0.29-0.138,0.558l-0.323,0.934c-0.089,0.254-0.134,0.415-0.134,0.482
				c0,0.037,0.013,0.067,0.038,0.089s0.06,0.034,0.103,0.034c0.067,0,0.154-0.032,0.262-0.097c0.107-0.064,0.251-0.208,0.431-0.43
				c0.18-0.222,0.328-0.43,0.445-0.625c0.117-0.194,0.24-0.504,0.37-0.928l0.071-0.248H108.013z"/>
			<path d="M111.084,12.558l-0.57,1.989l-0.066,0.266c-0.006,0.024-0.009,0.045-0.009,0.062c0,0.028,0.007,0.053,0.021,0.074
				c0.011,0.016,0.025,0.023,0.042,0.023c0.018,0,0.042-0.014,0.071-0.042c0.055-0.052,0.127-0.167,0.218-0.345l0.1,0.07
				c-0.114,0.197-0.232,0.344-0.353,0.439s-0.233,0.144-0.336,0.144c-0.071,0-0.126-0.021-0.165-0.063s-0.059-0.103-0.059-0.183
				c0-0.096,0.021-0.222,0.064-0.378l0.064-0.218c-0.282,0.333-0.542,0.566-0.778,0.699c-0.17,0.096-0.337,0.144-0.5,0.144
				c-0.157,0-0.293-0.058-0.407-0.174c-0.114-0.117-0.171-0.277-0.171-0.48c0-0.306,0.101-0.628,0.303-0.968
				c0.203-0.339,0.459-0.611,0.771-0.815c0.244-0.161,0.474-0.242,0.69-0.242c0.129,0,0.236,0.028,0.322,0.085
				s0.151,0.152,0.195,0.284l0.097-0.299L111.084,12.558z M110.003,12.706c-0.136,0-0.281,0.058-0.434,0.172
				c-0.217,0.163-0.411,0.404-0.58,0.725c-0.169,0.32-0.254,0.609-0.254,0.868c0,0.131,0.038,0.233,0.113,0.31
				c0.075,0.075,0.162,0.113,0.259,0.113c0.241,0,0.503-0.154,0.787-0.463c0.346-0.41,0.513-0.831,0.502-1.262
				c0-0.163-0.035-0.281-0.105-0.354S110.125,12.706,110.003,12.706z"/>
			<path d="M112.937,10.995l-1.037,3.504c-0.051,0.175-0.076,0.282-0.076,0.321c0,0.029,0.009,0.054,0.025,0.073
				s0.038,0.029,0.063,0.029c0.033,0,0.069-0.017,0.108-0.05c0.092-0.082,0.188-0.211,0.289-0.386l0.086,0.091
				c-0.177,0.262-0.34,0.444-0.488,0.548c-0.11,0.074-0.214,0.111-0.313,0.111c-0.071,0-0.13-0.025-0.177-0.076
				s-0.071-0.109-0.071-0.176c0-0.07,0.033-0.216,0.097-0.435l0.825-2.758c0.064-0.223,0.097-0.351,0.097-0.384
				c0-0.046-0.019-0.085-0.056-0.115c-0.038-0.03-0.096-0.045-0.176-0.045c-0.046,0-0.115,0.007-0.209,0.021v-0.109L112.937,10.995z
				"/>
			<path d="M98.634,19.511l-0.616,2.069c-0.042,0.14-0.063,0.223-0.063,0.251c0,0.03,0.009,0.055,0.026,0.074
				s0.038,0.028,0.061,0.028c0.027,0,0.059-0.015,0.097-0.045c0.103-0.087,0.206-0.211,0.311-0.373l0.103,0.067
				c-0.127,0.202-0.276,0.37-0.448,0.505c-0.127,0.1-0.249,0.15-0.364,0.15c-0.076,0-0.139-0.024-0.188-0.072
				s-0.073-0.108-0.073-0.18s0.026-0.193,0.078-0.361l0.406-1.316c0.063-0.217,0.094-0.353,0.094-0.408
				c0-0.043-0.015-0.079-0.045-0.106c-0.03-0.027-0.072-0.041-0.125-0.041c-0.043,0-0.132,0.011-0.268,0.032v-0.109L98.634,19.511z
				 M98.511,18.354c0.082,0,0.151,0.028,0.208,0.085s0.085,0.126,0.085,0.208c0,0.08-0.029,0.149-0.087,0.207
				s-0.126,0.086-0.206,0.086s-0.149-0.029-0.207-0.086s-0.086-0.126-0.086-0.207c0-0.082,0.028-0.151,0.085-0.208
				S98.429,18.354,98.511,18.354z"/>
			<path d="M100.142,19.511l-0.38,1.33c0.174-0.313,0.321-0.547,0.443-0.705c0.189-0.244,0.374-0.42,0.554-0.531
				c0.106-0.063,0.216-0.094,0.333-0.094c0.1,0,0.183,0.033,0.248,0.099c0.066,0.065,0.099,0.149,0.099,0.252
				c0,0.095-0.024,0.218-0.073,0.37l-0.224,0.735c0.336-0.597,0.656-1.016,0.957-1.256c0.167-0.133,0.333-0.2,0.496-0.2
				c0.095,0,0.173,0.034,0.234,0.102c0.061,0.068,0.091,0.174,0.091,0.316c0,0.112-0.02,0.231-0.06,0.356l-0.366,1.126
				c-0.08,0.246-0.12,0.381-0.12,0.409c0,0.026,0.008,0.049,0.024,0.068c0.01,0.013,0.025,0.02,0.042,0.02s0.048-0.018,0.093-0.054
				c0.101-0.085,0.195-0.198,0.284-0.338l0.097,0.062c-0.047,0.078-0.13,0.184-0.25,0.317s-0.221,0.225-0.306,0.272
				c-0.085,0.047-0.163,0.071-0.234,0.071c-0.065,0-0.121-0.023-0.165-0.07c-0.044-0.047-0.066-0.104-0.066-0.173
				c0-0.094,0.046-0.282,0.139-0.566l0.309-0.941c0.07-0.217,0.107-0.337,0.112-0.361c0.007-0.037,0.01-0.073,0.01-0.108
				c0-0.049-0.012-0.087-0.035-0.114c-0.025-0.027-0.054-0.041-0.086-0.041c-0.089,0-0.183,0.042-0.282,0.126
				c-0.292,0.249-0.565,0.596-0.819,1.044c-0.167,0.295-0.324,0.673-0.47,1.135h-0.444l0.535-1.767
				c0.058-0.191,0.087-0.318,0.087-0.383c0-0.052-0.011-0.091-0.033-0.117s-0.049-0.038-0.081-0.038c-0.066,0-0.136,0.023-0.21,0.07
				c-0.12,0.076-0.274,0.238-0.463,0.488c-0.189,0.249-0.335,0.488-0.439,0.715c-0.05,0.107-0.169,0.451-0.357,1.031h-0.431
				l0.549-1.902l0.071-0.247c0.014-0.037,0.021-0.063,0.021-0.081c0-0.042-0.02-0.08-0.059-0.114
				c-0.04-0.034-0.089-0.051-0.151-0.051c-0.025,0-0.096,0.012-0.212,0.035l-0.02-0.109L100.142,19.511z"/>
			<path d="M106.142,19.558l-0.57,1.989l-0.066,0.266c-0.006,0.024-0.009,0.045-0.009,0.062c0,0.028,0.007,0.053,0.021,0.074
				c0.011,0.016,0.025,0.023,0.042,0.023c0.018,0,0.042-0.014,0.071-0.042c0.055-0.052,0.127-0.167,0.218-0.345l0.1,0.07
				c-0.114,0.197-0.232,0.344-0.353,0.439s-0.233,0.144-0.336,0.144c-0.071,0-0.126-0.021-0.165-0.063s-0.059-0.103-0.059-0.183
				c0-0.096,0.021-0.222,0.064-0.378l0.064-0.218c-0.282,0.333-0.542,0.566-0.778,0.699c-0.17,0.096-0.337,0.144-0.5,0.144
				c-0.157,0-0.293-0.058-0.407-0.174c-0.114-0.117-0.171-0.277-0.171-0.48c0-0.306,0.101-0.628,0.303-0.968
				c0.203-0.339,0.459-0.611,0.771-0.815c0.244-0.161,0.474-0.242,0.69-0.242c0.129,0,0.236,0.028,0.322,0.085
				s0.151,0.152,0.195,0.284l0.097-0.299L106.142,19.558z M105.061,19.706c-0.136,0-0.281,0.058-0.434,0.172
				c-0.217,0.163-0.411,0.404-0.58,0.725c-0.169,0.32-0.254,0.609-0.254,0.868c0,0.131,0.038,0.233,0.113,0.31
				c0.075,0.075,0.162,0.113,0.259,0.113c0.241,0,0.503-0.154,0.787-0.463c0.346-0.41,0.513-0.831,0.502-1.262
				c0-0.163-0.035-0.281-0.105-0.354S105.183,19.706,105.061,19.706z"/>
			<path d="M109.3,19.69l-0.085,0.305h-0.492c0.036,0.105,0.054,0.205,0.054,0.296c0,0.258-0.11,0.488-0.331,0.689
				c-0.223,0.202-0.528,0.313-0.916,0.334c-0.205,0.063-0.358,0.138-0.461,0.224c-0.039,0.032-0.058,0.064-0.058,0.097
				c0,0.04,0.018,0.076,0.053,0.108c0.035,0.033,0.125,0.065,0.268,0.099l0.57,0.13c0.315,0.074,0.523,0.161,0.625,0.262
				c0.099,0.104,0.148,0.223,0.148,0.357c0,0.16-0.059,0.306-0.177,0.439c-0.119,0.132-0.292,0.236-0.52,0.312
				c-0.228,0.075-0.479,0.112-0.755,0.112c-0.243,0-0.463-0.029-0.663-0.086c-0.199-0.058-0.342-0.135-0.428-0.233
				s-0.129-0.198-0.129-0.302c0-0.084,0.028-0.171,0.083-0.262c0.056-0.091,0.126-0.166,0.21-0.224
				c0.053-0.037,0.203-0.125,0.45-0.264c-0.089-0.07-0.134-0.147-0.134-0.231c0-0.078,0.039-0.161,0.115-0.249
				s0.239-0.185,0.488-0.29c-0.209-0.041-0.375-0.131-0.498-0.27s-0.184-0.293-0.184-0.463c0-0.277,0.122-0.525,0.366-0.744
				s0.569-0.328,0.976-0.328c0.147,0,0.268,0.015,0.362,0.043c0.094,0.029,0.185,0.075,0.273,0.136H109.3z M106.873,22.162
				c-0.157,0.072-0.276,0.166-0.357,0.279c-0.08,0.113-0.121,0.225-0.121,0.334c0,0.129,0.059,0.235,0.176,0.32
				c0.168,0.121,0.415,0.182,0.739,0.182c0.28,0,0.519-0.047,0.717-0.143c0.199-0.095,0.298-0.217,0.298-0.368
				c0-0.076-0.037-0.148-0.11-0.217c-0.073-0.069-0.216-0.125-0.428-0.167C107.671,22.358,107.366,22.285,106.873,22.162z
				 M108.293,20.158c0-0.155-0.045-0.276-0.135-0.365c-0.089-0.089-0.207-0.134-0.352-0.134c-0.228,0-0.416,0.11-0.564,0.329
				c-0.148,0.22-0.222,0.449-0.222,0.687c0,0.149,0.047,0.271,0.142,0.366s0.21,0.142,0.345,0.142c0.107,0,0.21-0.028,0.31-0.084
				c0.1-0.056,0.184-0.134,0.252-0.232c0.069-0.099,0.123-0.224,0.164-0.377S108.293,20.226,108.293,20.158z"/>
			<path d="M109.856,21.058c-0.01,0.098-0.016,0.178-0.016,0.242c0,0.173,0.063,0.321,0.187,0.442
				c0.125,0.122,0.276,0.183,0.455,0.183c0.143,0,0.28-0.029,0.412-0.086c0.132-0.058,0.327-0.185,0.587-0.381l0.061,0.085
				c-0.463,0.463-0.904,0.695-1.324,0.695c-0.285,0-0.5-0.09-0.644-0.27s-0.217-0.378-0.217-0.596c0-0.292,0.09-0.59,0.269-0.895
				c0.18-0.306,0.405-0.543,0.676-0.712c0.271-0.169,0.55-0.254,0.837-0.254c0.207,0,0.36,0.042,0.459,0.126
				c0.1,0.084,0.149,0.184,0.149,0.299c0,0.162-0.065,0.317-0.196,0.466c-0.172,0.193-0.426,0.35-0.76,0.469
				C110.569,20.95,110.258,21.013,109.856,21.058z M109.877,20.917c0.295-0.033,0.535-0.09,0.72-0.17
				c0.245-0.107,0.429-0.236,0.551-0.386c0.123-0.149,0.184-0.292,0.184-0.427c0-0.082-0.026-0.148-0.079-0.199
				c-0.053-0.051-0.128-0.076-0.226-0.076c-0.203,0-0.419,0.106-0.647,0.318C110.152,20.189,109.984,20.503,109.877,20.917z"/>
		</g>
		<path opacity="0.5" fill="none" stroke="#FF0000" stroke-width="0.5" d="M80.523,86.24l23.547-10.281"/>
		<path opacity="0.5" fill="none" stroke="#FF0000" stroke-width="0.5" d="M80.523,105.833l28.103-11.395"/>
		<path opacity="0.5" fill="none" stroke="#FF0000" stroke-width="0.5" d="M60.003,107.957l20.737,8.495l30.093-13.057"/>
		<path opacity="0.5" fill="none" stroke="#FF0000" stroke-width="0.5" d="M95.233,71.129l6.9-3.029"/>
		<path opacity="0.5" fill="none" stroke="#FF0000" stroke-width="0.5" stroke-dasharray="1 1" d="M59.105,68.515l21.227,9.154
			l14.901-6.54"/>
		<path opacity="0.5" fill="none" stroke="#FF0000" stroke-width="0.5" d="M59.306,118.28l21.557,8.083l32.202-13.919"/>
		<path opacity="0.5" fill="none" stroke="#FF0000" stroke-width="0.5" d="M58.652,127.186l22.292,8.083l34.128-14.682"/>
		<g>
			<path d="M89.834,108.361l-0.632-1.93c-0.146,0.002-0.294-0.013-0.447-0.044l-0.364,1.259c-0.045,0.142-0.067,0.262-0.067,0.36
				c0,0.075,0.028,0.133,0.085,0.176c0.043,0.032,0.16,0.055,0.352,0.069l-0.026,0.109h-1.521l0.032-0.109
				c0.145-0.006,0.242-0.021,0.293-0.044c0.08-0.033,0.139-0.078,0.176-0.135c0.063-0.091,0.128-0.253,0.196-0.485l0.693-2.402
				c0.047-0.16,0.07-0.284,0.07-0.373c0-0.09-0.037-0.166-0.11-0.229s-0.178-0.093-0.315-0.091l0.035-0.109h1.297
				c0.434,0,0.747,0.082,0.938,0.246c0.192,0.164,0.288,0.38,0.288,0.648c0,0.256-0.098,0.49-0.295,0.702
				c-0.197,0.212-0.466,0.346-0.809,0.403l0.381,1.164c0.094,0.286,0.188,0.472,0.281,0.558s0.245,0.135,0.454,0.146l-0.032,0.109
				H89.834z M88.804,106.218c0.124,0.018,0.234,0.026,0.331,0.026c0.332,0,0.595-0.094,0.789-0.281s0.29-0.421,0.29-0.7
				c0-0.218-0.061-0.385-0.182-0.501c-0.121-0.116-0.303-0.174-0.545-0.174c-0.062,0-0.136,0.008-0.221,0.023L88.804,106.218z"/>
			<path d="M91.707,107.252c-0.01,0.098-0.016,0.178-0.016,0.242c0,0.173,0.063,0.321,0.187,0.442
				c0.125,0.122,0.276,0.183,0.455,0.183c0.143,0,0.28-0.029,0.412-0.086c0.132-0.058,0.327-0.185,0.587-0.381l0.061,0.085
				c-0.463,0.463-0.904,0.695-1.324,0.695c-0.285,0-0.5-0.09-0.644-0.27s-0.217-0.378-0.217-0.596c0-0.292,0.09-0.59,0.269-0.895
				c0.18-0.306,0.405-0.543,0.676-0.712c0.271-0.169,0.55-0.254,0.837-0.254c0.207,0,0.36,0.042,0.459,0.126
				c0.1,0.084,0.149,0.184,0.149,0.299c0,0.162-0.065,0.317-0.196,0.466c-0.172,0.193-0.426,0.35-0.76,0.469
				C92.42,107.145,92.108,107.207,91.707,107.252z M91.728,107.111c0.295-0.033,0.535-0.09,0.72-0.17
				c0.245-0.107,0.429-0.236,0.551-0.386c0.123-0.149,0.184-0.292,0.184-0.427c0-0.082-0.026-0.148-0.079-0.199
				c-0.053-0.051-0.128-0.076-0.226-0.076c-0.203,0-0.419,0.106-0.647,0.318C92.003,106.384,91.835,106.697,91.728,107.111z"/>
			<path d="M96,107.721c-0.202,0.244-0.407,0.424-0.613,0.539c-0.206,0.115-0.424,0.172-0.654,0.172
				c-0.276,0-0.492-0.078-0.647-0.235c-0.155-0.156-0.232-0.367-0.232-0.631c0-0.299,0.083-0.594,0.25-0.883
				s0.391-0.525,0.672-0.706c0.281-0.181,0.557-0.271,0.828-0.271c0.212,0,0.371,0.044,0.476,0.133
				c0.105,0.089,0.158,0.197,0.158,0.326c0,0.121-0.037,0.224-0.111,0.31c-0.055,0.066-0.122,0.099-0.202,0.099
				c-0.061,0-0.11-0.02-0.15-0.058c-0.04-0.039-0.06-0.087-0.06-0.146c0-0.037,0.007-0.071,0.022-0.102
				c0.015-0.031,0.045-0.068,0.091-0.112c0.046-0.044,0.074-0.075,0.083-0.095s0.015-0.04,0.015-0.062
				c0-0.041-0.019-0.075-0.056-0.102c-0.057-0.039-0.137-0.058-0.24-0.058c-0.192,0-0.381,0.067-0.569,0.202
				c-0.188,0.135-0.348,0.327-0.481,0.575c-0.16,0.301-0.24,0.602-0.24,0.903c0,0.2,0.057,0.357,0.17,0.474s0.268,0.174,0.463,0.174
				c0.15,0,0.299-0.038,0.447-0.113s0.313-0.211,0.497-0.409L96,107.721z"/>
			<path d="M99.119,106.624c0,0.293-0.078,0.584-0.233,0.872c-0.156,0.288-0.372,0.516-0.65,0.684
				c-0.278,0.168-0.547,0.252-0.81,0.252c-0.268,0-0.486-0.085-0.656-0.257c-0.169-0.171-0.253-0.393-0.253-0.665
				c0-0.287,0.083-0.576,0.248-0.865c0.166-0.29,0.387-0.519,0.663-0.687s0.544-0.252,0.802-0.252s0.471,0.085,0.638,0.255
				C99.035,106.131,99.119,106.352,99.119,106.624z M98.634,106.417c0-0.182-0.044-0.322-0.133-0.418s-0.204-0.146-0.345-0.146
				c-0.287,0-0.551,0.206-0.793,0.619c-0.241,0.412-0.362,0.822-0.362,1.229c0,0.186,0.047,0.33,0.141,0.43
				c0.094,0.101,0.212,0.151,0.355,0.151c0.275,0,0.534-0.205,0.775-0.615C98.514,107.257,98.634,106.841,98.634,106.417z"/>
			<path d="M100.658,105.705l-0.388,1.347c0.394-0.551,0.695-0.913,0.904-1.086c0.209-0.174,0.411-0.261,0.604-0.261
				c0.105,0,0.192,0.036,0.26,0.107c0.068,0.072,0.103,0.165,0.103,0.28c0,0.116-0.032,0.271-0.096,0.464l-0.404,1.222
				c-0.046,0.141-0.07,0.228-0.07,0.258c0,0.026,0.007,0.048,0.021,0.066c0.014,0.018,0.029,0.027,0.044,0.027
				c0.021,0,0.046-0.012,0.077-0.037c0.093-0.081,0.194-0.205,0.305-0.373l0.091,0.056c-0.174,0.256-0.338,0.438-0.494,0.545
				c-0.108,0.073-0.206,0.11-0.292,0.11c-0.069,0-0.124-0.022-0.165-0.066c-0.042-0.044-0.062-0.103-0.062-0.177
				c0-0.094,0.038-0.254,0.115-0.482l0.39-1.176c0.049-0.146,0.074-0.26,0.074-0.342c0-0.039-0.014-0.071-0.042-0.095
				s-0.062-0.037-0.103-0.037c-0.06,0-0.131,0.023-0.214,0.07c-0.158,0.087-0.323,0.231-0.494,0.433
				c-0.171,0.201-0.352,0.458-0.542,0.771c-0.101,0.166-0.184,0.346-0.25,0.543l-0.14,0.487h-0.431l0.533-1.844
				c0.063-0.218,0.094-0.349,0.094-0.394c0-0.042-0.018-0.079-0.052-0.111c-0.034-0.032-0.076-0.048-0.126-0.048
				c-0.023,0-0.063,0.004-0.121,0.012l-0.109,0.018l-0.03-0.109L100.658,105.705z"/>
			<path d="M104.525,105.705l-0.18,0.898h-0.109c-0.01-0.262-0.065-0.452-0.165-0.571c-0.101-0.119-0.225-0.179-0.374-0.179
				c-0.12,0-0.215,0.033-0.285,0.1c-0.071,0.067-0.106,0.147-0.106,0.241c0,0.064,0.014,0.126,0.042,0.185
				c0.028,0.059,0.089,0.141,0.183,0.247c0.25,0.278,0.412,0.487,0.485,0.628c0.073,0.141,0.11,0.274,0.11,0.399
				c0,0.204-0.084,0.384-0.253,0.542s-0.382,0.236-0.64,0.236c-0.141,0-0.303-0.033-0.486-0.098
				c-0.064-0.023-0.114-0.035-0.149-0.035c-0.088,0-0.154,0.044-0.199,0.133h-0.108l0.18-0.953h0.109
				c0.012,0.299,0.074,0.511,0.186,0.634c0.112,0.124,0.265,0.186,0.46,0.186c0.149,0,0.268-0.042,0.355-0.125
				c0.087-0.083,0.131-0.186,0.131-0.307c0-0.079-0.016-0.151-0.047-0.218c-0.055-0.117-0.17-0.28-0.345-0.487
				s-0.288-0.363-0.338-0.467c-0.05-0.104-0.075-0.208-0.075-0.312c0-0.19,0.069-0.351,0.206-0.482
				c0.138-0.131,0.314-0.197,0.53-0.197c0.062,0,0.118,0.005,0.169,0.015c0.027,0.006,0.091,0.028,0.191,0.067
				c0.1,0.039,0.167,0.059,0.2,0.059c0.083,0,0.153-0.047,0.21-0.141H104.525z"/>
			<path d="M106.306,104.986l-0.236,0.789h0.392l-0.047,0.188h-0.401l-0.534,1.728c-0.065,0.196-0.098,0.323-0.098,0.381
				c0,0.032,0.007,0.056,0.021,0.073c0.014,0.017,0.03,0.025,0.049,0.025c0.044,0,0.101-0.032,0.172-0.098
				c0.042-0.039,0.135-0.159,0.279-0.36l0.097,0.073c-0.17,0.259-0.33,0.439-0.481,0.542c-0.103,0.071-0.208,0.106-0.313,0.106
				c-0.081,0-0.147-0.027-0.199-0.081c-0.052-0.054-0.078-0.123-0.078-0.207c0-0.105,0.033-0.267,0.098-0.484l0.513-1.698h-0.447
				l0.029-0.116c0.215-0.059,0.397-0.146,0.546-0.262c0.149-0.116,0.318-0.315,0.507-0.599H106.306z"/>
			<path d="M106.654,105.869l1-0.164l-0.412,1.424c0.344-0.584,0.656-0.993,0.937-1.225c0.159-0.133,0.289-0.199,0.389-0.199
				c0.064,0,0.116,0.019,0.153,0.057c0.038,0.038,0.056,0.093,0.056,0.165c0,0.128-0.033,0.25-0.1,0.367
				c-0.047,0.087-0.114,0.131-0.202,0.131c-0.045,0-0.083-0.015-0.116-0.043c-0.032-0.029-0.052-0.074-0.06-0.134
				c-0.004-0.037-0.013-0.061-0.026-0.072c-0.016-0.016-0.034-0.023-0.056-0.023c-0.033,0-0.064,0.008-0.094,0.023
				c-0.051,0.027-0.128,0.104-0.231,0.229c-0.162,0.192-0.338,0.441-0.527,0.748c-0.082,0.129-0.152,0.276-0.211,0.438
				c-0.082,0.224-0.129,0.358-0.141,0.403l-0.094,0.369h-0.447l0.526-1.82c0.063-0.212,0.094-0.363,0.094-0.454
				c0-0.035-0.015-0.065-0.044-0.088c-0.039-0.031-0.088-0.047-0.148-0.047c-0.038,0-0.108,0.009-0.209,0.026L106.654,105.869z"/>
			<path d="M111.584,105.775l-0.536,1.776c-0.08,0.265-0.12,0.431-0.12,0.501c0,0.032,0.005,0.056,0.015,0.071
				c0.01,0.015,0.023,0.022,0.04,0.022c0.025,0,0.054-0.014,0.084-0.042s0.109-0.147,0.233-0.357l0.088,0.067
				c-0.135,0.237-0.274,0.408-0.417,0.514c-0.095,0.068-0.186,0.102-0.273,0.102c-0.067,0-0.12-0.021-0.159-0.064
				s-0.059-0.099-0.059-0.167c0-0.066,0.013-0.154,0.038-0.264c0.033-0.134,0.126-0.443,0.278-0.928
				c-0.346,0.544-0.635,0.917-0.868,1.119c-0.232,0.203-0.447,0.304-0.643,0.304c-0.092,0-0.17-0.031-0.234-0.094
				s-0.096-0.142-0.096-0.237c0-0.146,0.051-0.372,0.154-0.675l0.306-0.907c0.075-0.218,0.112-0.353,0.112-0.405
				c0-0.023-0.01-0.044-0.03-0.061s-0.042-0.025-0.065-0.025c-0.049,0-0.098,0.015-0.147,0.044c-0.049,0.029-0.16,0.138-0.333,0.326
				l-0.091-0.065c0.16-0.227,0.329-0.394,0.508-0.502c0.136-0.084,0.262-0.126,0.377-0.126c0.079,0,0.144,0.028,0.193,0.084
				s0.075,0.128,0.075,0.217c0,0.104-0.046,0.29-0.138,0.558l-0.323,0.934c-0.089,0.254-0.134,0.415-0.134,0.482
				c0,0.037,0.013,0.067,0.038,0.089s0.06,0.034,0.103,0.034c0.067,0,0.154-0.032,0.262-0.097c0.107-0.064,0.251-0.208,0.431-0.43
				c0.18-0.222,0.328-0.43,0.445-0.625c0.117-0.194,0.24-0.504,0.37-0.928l0.071-0.248H111.584z"/>
			<path d="M114,107.721c-0.202,0.244-0.407,0.424-0.613,0.539c-0.206,0.115-0.424,0.172-0.654,0.172
				c-0.276,0-0.492-0.078-0.647-0.235c-0.155-0.156-0.232-0.367-0.232-0.631c0-0.299,0.083-0.594,0.25-0.883
				s0.391-0.525,0.672-0.706c0.281-0.181,0.557-0.271,0.828-0.271c0.212,0,0.371,0.044,0.476,0.133
				c0.105,0.089,0.158,0.197,0.158,0.326c0,0.121-0.037,0.224-0.111,0.31c-0.055,0.066-0.122,0.099-0.202,0.099
				c-0.061,0-0.11-0.02-0.15-0.058c-0.04-0.039-0.06-0.087-0.06-0.146c0-0.037,0.007-0.071,0.022-0.102
				c0.015-0.031,0.045-0.068,0.091-0.112c0.046-0.044,0.074-0.075,0.083-0.095s0.015-0.04,0.015-0.062
				c0-0.041-0.019-0.075-0.056-0.102c-0.057-0.039-0.137-0.058-0.24-0.058c-0.192,0-0.381,0.067-0.569,0.202
				c-0.188,0.135-0.348,0.327-0.481,0.575c-0.16,0.301-0.24,0.602-0.24,0.903c0,0.2,0.057,0.357,0.17,0.474s0.268,0.174,0.463,0.174
				c0.15,0,0.299-0.038,0.447-0.113s0.313-0.211,0.497-0.409L114,107.721z"/>
			<path d="M115.971,104.986l-0.236,0.789h0.392l-0.047,0.188h-0.401l-0.534,1.728c-0.065,0.196-0.098,0.323-0.098,0.381
				c0,0.032,0.007,0.056,0.021,0.073c0.014,0.017,0.03,0.025,0.049,0.025c0.044,0,0.101-0.032,0.172-0.098
				c0.042-0.039,0.135-0.159,0.279-0.36l0.097,0.073c-0.17,0.259-0.33,0.439-0.481,0.542c-0.103,0.071-0.208,0.106-0.313,0.106
				c-0.081,0-0.147-0.027-0.199-0.081c-0.052-0.054-0.078-0.123-0.078-0.207c0-0.105,0.033-0.267,0.098-0.484l0.513-1.698h-0.447
				l0.029-0.116c0.215-0.059,0.397-0.146,0.546-0.262c0.149-0.116,0.318-0.315,0.507-0.599H115.971z"/>
			<path d="M116.7,107.252c-0.01,0.098-0.016,0.178-0.016,0.242c0,0.173,0.063,0.321,0.187,0.442
				c0.125,0.122,0.276,0.183,0.455,0.183c0.143,0,0.28-0.029,0.412-0.086c0.132-0.058,0.327-0.185,0.587-0.381l0.061,0.085
				c-0.463,0.463-0.904,0.695-1.324,0.695c-0.285,0-0.5-0.09-0.644-0.27s-0.217-0.378-0.217-0.596c0-0.292,0.09-0.59,0.269-0.895
				c0.18-0.306,0.405-0.543,0.676-0.712c0.271-0.169,0.55-0.254,0.837-0.254c0.207,0,0.36,0.042,0.459,0.126
				c0.1,0.084,0.149,0.184,0.149,0.299c0,0.162-0.065,0.317-0.196,0.466c-0.172,0.193-0.426,0.35-0.76,0.469
				C117.413,107.145,117.102,107.207,116.7,107.252z M116.721,107.111c0.295-0.033,0.535-0.09,0.72-0.17
				c0.245-0.107,0.429-0.236,0.551-0.386c0.123-0.149,0.184-0.292,0.184-0.427c0-0.082-0.026-0.148-0.079-0.199
				c-0.053-0.051-0.128-0.076-0.226-0.076c-0.203,0-0.419,0.106-0.647,0.318C116.996,106.384,116.828,106.697,116.721,107.111z"/>
			<path d="M122.128,104.158l-1.037,3.534c-0.056,0.191-0.084,0.317-0.084,0.377c0,0.017,0.005,0.034,0.017,0.049
				c0.011,0.015,0.023,0.023,0.035,0.023c0.017,0,0.037-0.011,0.061-0.034c0.044-0.043,0.119-0.159,0.223-0.346l0.1,0.062
				c-0.115,0.191-0.23,0.341-0.347,0.448c-0.117,0.106-0.226,0.16-0.328,0.16c-0.054,0-0.101-0.023-0.142-0.07
				s-0.061-0.113-0.061-0.199c0-0.111,0.029-0.261,0.088-0.448l0.115-0.369c-0.313,0.44-0.597,0.744-0.854,0.913
				c-0.177,0.116-0.346,0.174-0.508,0.174c-0.164,0-0.307-0.066-0.429-0.198c-0.122-0.132-0.183-0.312-0.183-0.539
				c0-0.292,0.101-0.603,0.302-0.933s0.467-0.6,0.797-0.807c0.261-0.167,0.5-0.25,0.718-0.25c0.114,0,0.212,0.022,0.295,0.065
				c0.083,0.044,0.164,0.116,0.245,0.217l0.279-0.967c0.031-0.109,0.056-0.196,0.075-0.261c0.023-0.079,0.035-0.144,0.035-0.195
				c0-0.041-0.015-0.076-0.044-0.104c-0.042-0.033-0.096-0.05-0.162-0.05c-0.046,0-0.122,0.007-0.228,0.021v-0.109L122.128,104.158z
				 M120.99,106.271c0-0.125-0.04-0.226-0.12-0.303s-0.181-0.115-0.304-0.115c-0.272,0-0.555,0.204-0.849,0.611
				c-0.294,0.408-0.441,0.798-0.441,1.17c0,0.147,0.038,0.259,0.113,0.336c0.075,0.078,0.165,0.116,0.269,0.116
				c0.237,0,0.518-0.221,0.843-0.662C120.827,106.985,120.99,106.601,120.99,106.271z"/>
			<path d="M93.968,112.705l0.203,2.199c0.337-0.398,0.608-0.773,0.811-1.123c0.119-0.205,0.179-0.354,0.179-0.446
				c0-0.043-0.01-0.081-0.029-0.114c-0.008-0.018-0.038-0.043-0.091-0.078c-0.053-0.034-0.09-0.069-0.111-0.105
				s-0.032-0.075-0.032-0.116c0-0.061,0.022-0.112,0.067-0.154s0.102-0.063,0.171-0.063c0.08,0,0.147,0.03,0.202,0.09
				c0.055,0.06,0.083,0.139,0.083,0.239c0,0.102-0.015,0.197-0.044,0.285c-0.059,0.168-0.173,0.386-0.342,0.652
				c-0.207,0.319-0.42,0.615-0.639,0.888c-0.22,0.273-0.383,0.464-0.49,0.574h-0.109l-0.188-2.031l-1.207,2.031h-0.129
				c-0.014-0.837-0.056-1.497-0.126-1.981c-0.029-0.202-0.078-0.334-0.146-0.397c-0.049-0.045-0.123-0.067-0.222-0.067
				c-0.057,0-0.129,0.006-0.217,0.018V112.9l0.843-0.195c0.118,0.326,0.194,0.826,0.229,1.501c0.012,0.255,0.021,0.417,0.029,0.483
				l1.197-1.984H93.968z"/>
			<path d="M98.436,112.752l-0.57,1.989l-0.066,0.266c-0.006,0.024-0.009,0.045-0.009,0.062c0,0.028,0.007,0.053,0.021,0.074
				c0.011,0.016,0.025,0.023,0.042,0.023c0.018,0,0.042-0.014,0.071-0.042c0.054-0.052,0.127-0.167,0.218-0.345l0.1,0.07
				c-0.114,0.197-0.232,0.344-0.353,0.439s-0.233,0.144-0.335,0.144c-0.071,0-0.127-0.021-0.166-0.063
				c-0.039-0.042-0.058-0.103-0.058-0.183c0-0.096,0.021-0.222,0.064-0.378l0.064-0.218c-0.282,0.333-0.542,0.566-0.778,0.699
				c-0.17,0.096-0.337,0.144-0.5,0.144c-0.157,0-0.293-0.058-0.407-0.174c-0.114-0.117-0.171-0.277-0.171-0.48
				c0-0.306,0.101-0.628,0.304-0.968c0.202-0.339,0.459-0.611,0.771-0.815c0.244-0.161,0.474-0.242,0.689-0.242
				c0.129,0,0.237,0.028,0.323,0.085s0.151,0.152,0.196,0.284l0.096-0.299L98.436,112.752z M97.354,112.9
				c-0.136,0-0.281,0.058-0.434,0.172c-0.217,0.163-0.411,0.404-0.58,0.725c-0.169,0.32-0.254,0.609-0.254,0.868
				c0,0.131,0.038,0.233,0.113,0.31c0.075,0.075,0.162,0.113,0.259,0.113c0.241,0,0.503-0.154,0.787-0.463
				c0.345-0.41,0.513-0.831,0.501-1.262c0-0.163-0.035-0.281-0.105-0.354S97.476,112.9,97.354,112.9z"/>
			<path d="M98.595,112.885l0.829-0.18c0.061,0.145,0.11,0.293,0.147,0.443c0.053,0.221,0.097,0.483,0.13,0.787
				c0.016,0.152,0.038,0.476,0.065,0.969c0.246-0.27,0.394-0.438,0.44-0.502c0.261-0.351,0.41-0.556,0.45-0.617
				c0.065-0.104,0.11-0.195,0.136-0.273c0.021-0.059,0.034-0.115,0.036-0.167c0-0.051-0.046-0.11-0.137-0.176
				c-0.091-0.066-0.137-0.141-0.137-0.223c0-0.063,0.025-0.118,0.075-0.167c0.05-0.049,0.109-0.073,0.177-0.073
				c0.082,0,0.154,0.034,0.217,0.102c0.063,0.067,0.094,0.151,0.094,0.25c0,0.1-0.016,0.196-0.047,0.288
				c-0.051,0.149-0.146,0.331-0.285,0.545c-0.139,0.214-0.363,0.501-0.672,0.861c-0.039,0.045-0.256,0.271-0.652,0.681h-0.109
				c-0.047-1.239-0.144-2.012-0.292-2.319c-0.049-0.1-0.13-0.149-0.243-0.149c-0.049,0-0.118,0.009-0.208,0.026L98.595,112.885z"/>
			<path d="M101.813,114.252c-0.011,0.098-0.016,0.178-0.016,0.242c0,0.173,0.063,0.321,0.187,0.442
				c0.125,0.122,0.276,0.183,0.455,0.183c0.143,0,0.28-0.029,0.412-0.086c0.131-0.058,0.327-0.185,0.586-0.381l0.061,0.085
				c-0.463,0.463-0.904,0.695-1.324,0.695c-0.285,0-0.5-0.09-0.645-0.27s-0.217-0.378-0.217-0.596c0-0.292,0.09-0.59,0.269-0.895
				c0.18-0.306,0.405-0.543,0.676-0.712c0.271-0.169,0.55-0.254,0.837-0.254c0.207,0,0.359,0.042,0.459,0.126
				s0.149,0.184,0.149,0.299c0,0.162-0.065,0.317-0.196,0.466c-0.172,0.193-0.425,0.35-0.76,0.469
				C102.526,114.145,102.214,114.207,101.813,114.252z M101.833,114.111c0.295-0.033,0.535-0.09,0.72-0.17
				c0.245-0.107,0.429-0.236,0.552-0.386c0.122-0.149,0.184-0.292,0.184-0.427c0-0.082-0.026-0.148-0.079-0.199
				s-0.128-0.076-0.226-0.076c-0.204,0-0.419,0.106-0.647,0.318C102.109,113.384,101.941,113.697,101.833,114.111z"/>
			<path d="M105.643,112.775l-0.053,0.195h-0.434l-0.356,1.294c-0.157,0.561-0.308,0.994-0.453,1.3
				c-0.206,0.433-0.428,0.731-0.666,0.896c-0.18,0.126-0.361,0.189-0.542,0.189c-0.118,0-0.218-0.035-0.3-0.104
				c-0.061-0.049-0.091-0.112-0.091-0.189c0-0.062,0.025-0.116,0.075-0.161c0.05-0.046,0.111-0.068,0.183-0.068
				c0.053,0,0.097,0.017,0.133,0.05s0.054,0.071,0.054,0.114s-0.021,0.083-0.062,0.12c-0.032,0.027-0.047,0.048-0.047,0.062
				c0,0.018,0.007,0.031,0.021,0.041c0.017,0.014,0.044,0.021,0.081,0.021c0.083,0,0.171-0.026,0.263-0.079
				c0.092-0.053,0.173-0.131,0.245-0.235c0.071-0.104,0.139-0.255,0.203-0.451c0.029-0.082,0.107-0.351,0.233-0.808l0.566-1.99
				h-0.573l0.042-0.195c0.182,0,0.309-0.011,0.381-0.034s0.138-0.065,0.198-0.129c0.061-0.063,0.132-0.182,0.215-0.356
				c0.111-0.234,0.217-0.416,0.319-0.545c0.139-0.174,0.286-0.305,0.439-0.392s0.298-0.13,0.433-0.13
				c0.143,0,0.258,0.038,0.344,0.113c0.086,0.075,0.13,0.157,0.13,0.245c0,0.069-0.022,0.126-0.067,0.173s-0.103,0.07-0.173,0.07
				c-0.061,0-0.11-0.018-0.148-0.053s-0.057-0.077-0.057-0.125c0-0.031,0.013-0.07,0.039-0.116c0.026-0.046,0.039-0.076,0.039-0.092
				c0-0.027-0.008-0.048-0.024-0.062c-0.023-0.02-0.058-0.029-0.103-0.029c-0.113,0-0.215,0.041-0.305,0.121
				c-0.121,0.107-0.229,0.275-0.324,0.504c-0.049,0.119-0.145,0.398-0.289,0.836H105.643z"/>
			<path d="M105.762,112.869l1-0.164l-0.412,1.424c0.344-0.584,0.656-0.993,0.937-1.225c0.159-0.133,0.288-0.199,0.389-0.199
				c0.064,0,0.116,0.019,0.153,0.057c0.038,0.038,0.056,0.093,0.056,0.165c0,0.128-0.033,0.25-0.1,0.367
				c-0.047,0.087-0.114,0.131-0.202,0.131c-0.045,0-0.083-0.015-0.116-0.043c-0.032-0.029-0.052-0.074-0.06-0.134
				c-0.004-0.037-0.013-0.061-0.026-0.072c-0.016-0.016-0.034-0.023-0.056-0.023c-0.033,0-0.064,0.008-0.094,0.023
				c-0.051,0.027-0.128,0.104-0.231,0.229c-0.162,0.192-0.338,0.441-0.527,0.748c-0.082,0.129-0.152,0.276-0.211,0.438
				c-0.082,0.224-0.129,0.358-0.141,0.403l-0.094,0.369h-0.447l0.525-1.82c0.063-0.212,0.094-0.363,0.094-0.454
				c0-0.035-0.015-0.065-0.044-0.088c-0.039-0.031-0.088-0.047-0.147-0.047c-0.038,0-0.107,0.009-0.209,0.026L105.762,112.869z"/>
			<path d="M110.341,113.624c0,0.293-0.078,0.584-0.233,0.872c-0.155,0.288-0.372,0.516-0.649,0.684
				c-0.278,0.168-0.548,0.252-0.81,0.252c-0.268,0-0.486-0.085-0.655-0.257c-0.169-0.171-0.254-0.393-0.254-0.665
				c0-0.287,0.083-0.576,0.248-0.865c0.165-0.29,0.386-0.519,0.663-0.687s0.544-0.252,0.802-0.252c0.258,0,0.471,0.085,0.638,0.255
				C110.257,113.131,110.341,113.352,110.341,113.624z M109.856,113.417c0-0.182-0.044-0.322-0.133-0.418s-0.204-0.146-0.344-0.146
				c-0.288,0-0.552,0.206-0.793,0.619c-0.242,0.412-0.362,0.822-0.362,1.229c0,0.186,0.047,0.33,0.141,0.43
				c0.094,0.101,0.212,0.151,0.354,0.151c0.276,0,0.534-0.205,0.775-0.615C109.736,114.257,109.856,113.841,109.856,113.417z"/>
			<path d="M111.88,112.705l-0.388,1.347c0.394-0.551,0.695-0.913,0.904-1.086c0.209-0.174,0.411-0.261,0.604-0.261
				c0.105,0,0.192,0.036,0.26,0.107c0.068,0.072,0.103,0.165,0.103,0.28c0,0.116-0.032,0.271-0.096,0.464l-0.404,1.222
				c-0.046,0.141-0.069,0.228-0.069,0.258c0,0.026,0.007,0.048,0.021,0.066c0.014,0.018,0.029,0.027,0.045,0.027
				c0.021,0,0.047-0.012,0.076-0.037c0.093-0.081,0.195-0.205,0.306-0.373l0.091,0.056c-0.174,0.256-0.338,0.438-0.494,0.545
				c-0.108,0.073-0.206,0.11-0.292,0.11c-0.069,0-0.125-0.022-0.166-0.066c-0.041-0.044-0.062-0.103-0.062-0.177
				c0-0.094,0.038-0.254,0.114-0.482l0.391-1.176c0.049-0.146,0.074-0.26,0.074-0.342c0-0.039-0.014-0.071-0.042-0.095
				s-0.062-0.037-0.103-0.037c-0.06,0-0.131,0.023-0.215,0.07c-0.158,0.087-0.322,0.231-0.493,0.433
				c-0.171,0.201-0.352,0.458-0.542,0.771c-0.1,0.166-0.184,0.346-0.25,0.543l-0.14,0.487h-0.431l0.532-1.844
				c0.063-0.218,0.094-0.349,0.094-0.394c0-0.042-0.017-0.079-0.051-0.111c-0.034-0.032-0.076-0.048-0.126-0.048
				c-0.023,0-0.063,0.004-0.121,0.012l-0.109,0.018l-0.03-0.109L111.88,112.705z"/>
			<path d="M115.193,111.986l-0.236,0.789h0.392l-0.047,0.188h-0.401l-0.534,1.728c-0.065,0.196-0.098,0.323-0.098,0.381
				c0,0.032,0.007,0.056,0.021,0.073c0.014,0.017,0.03,0.025,0.05,0.025c0.043,0,0.101-0.032,0.172-0.098
				c0.042-0.039,0.135-0.159,0.279-0.36l0.097,0.073c-0.17,0.259-0.33,0.439-0.481,0.542c-0.103,0.071-0.207,0.106-0.313,0.106
				c-0.081,0-0.147-0.027-0.199-0.081c-0.051-0.054-0.077-0.123-0.077-0.207c0-0.105,0.033-0.267,0.098-0.484l0.513-1.698h-0.447
				l0.029-0.116c0.215-0.059,0.397-0.146,0.546-0.262c0.149-0.116,0.318-0.315,0.507-0.599H115.193z"/>
			<path d="M117.414,112.705l-0.18,0.898h-0.109c-0.01-0.262-0.065-0.452-0.165-0.571c-0.101-0.119-0.225-0.179-0.374-0.179
				c-0.12,0-0.215,0.033-0.286,0.1c-0.07,0.067-0.105,0.147-0.105,0.241c0,0.064,0.014,0.126,0.042,0.185
				c0.028,0.059,0.089,0.141,0.184,0.247c0.25,0.278,0.412,0.487,0.485,0.628c0.073,0.141,0.11,0.274,0.11,0.399
				c0,0.204-0.084,0.384-0.253,0.542s-0.382,0.236-0.64,0.236c-0.141,0-0.303-0.033-0.486-0.098
				c-0.064-0.023-0.114-0.035-0.149-0.035c-0.088,0-0.154,0.044-0.199,0.133h-0.108l0.18-0.953h0.109
				c0.012,0.299,0.074,0.511,0.186,0.634c0.112,0.124,0.266,0.186,0.46,0.186c0.149,0,0.268-0.042,0.355-0.125
				c0.087-0.083,0.131-0.186,0.131-0.307c0-0.079-0.016-0.151-0.047-0.218c-0.055-0.117-0.17-0.28-0.345-0.487
				s-0.288-0.363-0.338-0.467c-0.05-0.104-0.075-0.208-0.075-0.312c0-0.19,0.068-0.351,0.206-0.482
				c0.137-0.131,0.313-0.197,0.529-0.197c0.063,0,0.119,0.005,0.169,0.015c0.027,0.006,0.091,0.028,0.191,0.067
				c0.1,0.039,0.167,0.059,0.2,0.059c0.084,0,0.154-0.047,0.21-0.141H117.414z"/>
		</g>
		<g>
			<path d="M74.268,145.905l0.438-4.417c0.021-0.224,0.031-0.375,0.031-0.454c0-0.117-0.044-0.215-0.131-0.293
				c-0.087-0.078-0.225-0.117-0.412-0.117h-0.141l0.039-0.141h2.073l-0.043,0.141c-0.227,0.003-0.382,0.026-0.467,0.07
				c-0.084,0.045-0.151,0.121-0.201,0.228c-0.026,0.058-0.053,0.221-0.082,0.49l-0.313,3.166l2.084-2.836
				c0.224-0.303,0.364-0.513,0.422-0.632c0.039-0.08,0.059-0.15,0.059-0.209c0-0.07-0.03-0.13-0.09-0.182
				c-0.061-0.052-0.172-0.083-0.336-0.093l0.047-0.141h1.592l-0.039,0.141c-0.128,0.011-0.229,0.035-0.305,0.074
				c-0.144,0.068-0.286,0.171-0.428,0.31c-0.142,0.138-0.366,0.417-0.673,0.837l-2.983,4.061H74.268z"/>
			<path d="M79.309,142.233l-0.83,2.768c-0.056,0.187-0.083,0.299-0.083,0.335c0,0.04,0.011,0.073,0.034,0.098
				s0.049,0.038,0.08,0.038c0.035,0,0.078-0.02,0.128-0.06c0.135-0.115,0.271-0.281,0.408-0.497l0.137,0.09
				c-0.169,0.269-0.368,0.493-0.597,0.67c-0.169,0.133-0.331,0.199-0.485,0.199c-0.102,0-0.186-0.032-0.25-0.096
				c-0.064-0.063-0.097-0.144-0.097-0.24s0.035-0.258,0.104-0.483l0.544-1.759c0.083-0.291,0.125-0.474,0.125-0.548
				c0-0.059-0.021-0.106-0.061-0.143c-0.041-0.037-0.096-0.056-0.165-0.056c-0.057,0-0.175,0.015-0.353,0.043v-0.141L79.309,142.233
				z M79.119,140.687c0.109,0,0.202,0.038,0.277,0.113c0.076,0.076,0.113,0.168,0.113,0.277c0,0.107-0.038,0.199-0.115,0.275
				c-0.077,0.077-0.168,0.115-0.275,0.115c-0.106,0-0.198-0.038-0.275-0.115c-0.077-0.077-0.115-0.168-0.115-0.275
				c0-0.109,0.038-0.202,0.113-0.277C78.917,140.725,79.01,140.687,79.119,140.687z"/>
			<path d="M80.475,144.28c-0.021,0.132-0.031,0.241-0.031,0.327c0,0.234,0.084,0.434,0.251,0.598
				c0.168,0.165,0.371,0.247,0.61,0.247c0.191,0,0.375-0.039,0.552-0.116c0.177-0.077,0.439-0.249,0.788-0.514l0.083,0.113
				c-0.619,0.626-1.21,0.938-1.771,0.938c-0.382,0-0.669-0.12-0.862-0.36s-0.29-0.506-0.29-0.796c0-0.389,0.12-0.787,0.36-1.195
				c0.241-0.407,0.543-0.724,0.906-0.95c0.363-0.226,0.737-0.339,1.121-0.339c0.277,0,0.482,0.056,0.615,0.167
				c0.134,0.111,0.2,0.243,0.2,0.395c0,0.214-0.087,0.42-0.262,0.617c-0.23,0.256-0.57,0.462-1.017,0.62
				C81.43,144.138,81.012,144.221,80.475,144.28z M80.502,144.108c0.393-0.044,0.713-0.119,0.96-0.226
				c0.327-0.143,0.572-0.314,0.735-0.512c0.163-0.199,0.245-0.388,0.245-0.567c0-0.109-0.035-0.197-0.105-0.265
				s-0.171-0.102-0.301-0.102c-0.271,0-0.559,0.141-0.863,0.423C80.87,143.142,80.646,143.558,80.502,144.108z"/>
			<path d="M86.494,142.233l0.281,2.945c0.452-0.534,0.813-1.035,1.085-1.504c0.159-0.275,0.238-0.474,0.238-0.597
				c0-0.058-0.013-0.109-0.039-0.153c-0.01-0.023-0.051-0.059-0.123-0.104c-0.072-0.046-0.122-0.093-0.15-0.141
				c-0.029-0.048-0.043-0.1-0.043-0.155c0-0.081,0.03-0.15,0.09-0.206c0.06-0.056,0.137-0.084,0.23-0.084
				c0.106,0,0.197,0.04,0.271,0.12s0.111,0.186,0.111,0.319c0,0.136-0.02,0.262-0.059,0.38c-0.079,0.225-0.231,0.515-0.459,0.87
				c-0.277,0.426-0.563,0.821-0.857,1.186c-0.294,0.365-0.513,0.62-0.657,0.766h-0.141l-0.266-2.703l-1.624,2.703h-0.173
				c-0.019-1.112-0.074-1.989-0.169-2.633c-0.039-0.268-0.104-0.444-0.196-0.527c-0.065-0.06-0.165-0.09-0.298-0.09
				c-0.076,0-0.172,0.008-0.29,0.023v-0.148l1.136-0.266c0.158,0.437,0.262,1.106,0.309,2.01c0.016,0.342,0.029,0.558,0.04,0.646
				l1.604-2.656H86.494z"/>
			<path d="M89.361,144.28c-0.021,0.132-0.031,0.241-0.031,0.327c0,0.234,0.084,0.434,0.251,0.598
				c0.168,0.165,0.371,0.247,0.61,0.247c0.191,0,0.375-0.039,0.552-0.116c0.177-0.077,0.439-0.249,0.788-0.514l0.083,0.113
				c-0.619,0.626-1.21,0.938-1.771,0.938c-0.382,0-0.669-0.12-0.862-0.36s-0.29-0.506-0.29-0.796c0-0.389,0.12-0.787,0.36-1.195
				c0.241-0.407,0.543-0.724,0.906-0.95c0.363-0.226,0.737-0.339,1.121-0.339c0.277,0,0.482,0.056,0.615,0.167
				c0.134,0.111,0.2,0.243,0.2,0.395c0,0.214-0.087,0.42-0.262,0.617c-0.23,0.256-0.57,0.462-1.017,0.62
				C90.316,144.138,89.899,144.221,89.361,144.28z M89.389,144.108c0.393-0.044,0.713-0.119,0.96-0.226
				c0.327-0.143,0.572-0.314,0.735-0.512c0.163-0.199,0.245-0.388,0.245-0.567c0-0.109-0.035-0.197-0.105-0.265
				s-0.171-0.102-0.301-0.102c-0.271,0-0.559,0.141-0.863,0.423C89.757,143.142,89.533,143.558,89.389,144.108z"/>
			<path d="M92.414,142.452l1.31-0.219l-0.547,1.901c0.462-0.78,0.882-1.325,1.26-1.635c0.214-0.177,0.388-0.266,0.523-0.266
				c0.087,0,0.155,0.025,0.206,0.077c0.05,0.051,0.075,0.125,0.075,0.221c0,0.173-0.044,0.338-0.133,0.494
				c-0.063,0.118-0.153,0.177-0.271,0.177c-0.06,0-0.112-0.02-0.155-0.06s-0.07-0.102-0.08-0.184
				c-0.005-0.051-0.017-0.084-0.036-0.1c-0.021-0.021-0.045-0.032-0.074-0.032c-0.044,0-0.086,0.011-0.125,0.031
				c-0.068,0.037-0.171,0.139-0.31,0.307c-0.217,0.257-0.452,0.589-0.705,0.997c-0.11,0.173-0.204,0.368-0.282,0.585
				c-0.11,0.299-0.173,0.479-0.188,0.538l-0.136,0.495h-0.585l0.705-2.438c0.083-0.283,0.125-0.484,0.125-0.604
				c0-0.047-0.02-0.086-0.059-0.118c-0.051-0.042-0.117-0.063-0.196-0.063c-0.05,0-0.143,0.012-0.278,0.035L92.414,142.452z"/>
		</g>
		<path opacity="0.5" fill="none" stroke="#FF0000" stroke-width="0.5" stroke-dasharray="1 1" d="M57.564,76.524l22.83,9.845"/>
		<path opacity="0.5" fill="none" stroke="#FF0000" stroke-width="0.5" d="M73.927,92.835l6.239,2.665l26.182-10.3"/>
		<path opacity="0.5" fill="none" stroke="#FF0000" stroke-width="0.5" stroke-dasharray="1 1" d="M55.907,85.137l18.02,7.698"/>
		<path opacity="0.5" fill="none" stroke="#FF0000" stroke-width="0.5" d="M66.851,99.912l13.672,5.921"/>
		<path opacity="0.5" fill="none" stroke="#FF0000" stroke-width="0.5" stroke-dasharray="1 1" d="M54.125,94.401l12.726,5.511"/>
	</g>
</svg>
