<?xml version="1.0" encoding="UTF-8"?>
<svg xmlns="http://www.w3.org/2000/svg" xmlns:xlink="http://www.w3.org/1999/xlink" width="137.994pt" height="109.647pt" viewBox="0 0 137.994 109.647" version="1.1">
<defs>
<clipPath id="clip1">
  <path d="M 66 85 L 72 85 L 72 109.648438 L 66 109.648438 Z M 66 85 "/>
</clipPath>
<clipPath id="clip2">
  <path d="M 113 52 L 137.992188 52 L 137.992188 58 L 113 58 Z M 113 52 "/>
</clipPath>
</defs>
<g id="surface1">
<path style="fill:none;stroke-width:0.3985;stroke-linecap:butt;stroke-linejoin:miter;stroke:rgb(0%,0%,0%);stroke-opacity:1;stroke-miterlimit:10;" d="M 113.387406 -0.00075 L 113.188187 -0.00075 M 113.387406 -0.00075 L 62.645219 -0.00075 M 50.738969 -0.00075 L 0.0006875 -0.00075 M 0.199906 -0.00075 L 0.0006875 -0.00075 " transform="matrix(1,0,0,-1,12.304,97.343)"/>
<path style="fill:none;stroke-width:0.3985;stroke-linecap:butt;stroke-linejoin:miter;stroke:rgb(0%,0%,0%);stroke-opacity:1;stroke-miterlimit:10;" d="M 54.72725 -0.00075 L 50.738969 -0.00075 M 58.656937 -0.00075 L 62.645219 -0.00075 " transform="matrix(1,0,0,-1,12.304,97.343)"/>
<g clip-path="url(#clip1)" clip-rule="nonzero">
<path style="fill:none;stroke-width:0.797;stroke-linecap:butt;stroke-linejoin:miter;stroke:rgb(0%,0%,0%);stroke-opacity:1;stroke-miterlimit:10;" d="M 54.72725 -5.953875 L 54.72725 5.952375 M 58.656937 -11.907 L 58.656937 11.9055 " transform="matrix(1,0,0,-1,12.304,97.343)"/>
</g>
<path style="fill:none;stroke-width:0.3985;stroke-linecap:butt;stroke-linejoin:miter;stroke:rgb(0%,0%,0%);stroke-opacity:1;stroke-miterlimit:10;" d="M 0.0006875 85.042219 L 0.199906 85.042219 M 0.0006875 85.042219 L 50.738969 85.042219 M 62.645219 85.042219 L 113.387406 85.042219 M 113.188187 85.042219 L 113.387406 85.042219 " transform="matrix(1,0,0,-1,12.304,97.343)"/>
<path style="fill:none;stroke-width:0.3985;stroke-linecap:butt;stroke-linejoin:miter;stroke:rgb(0%,0%,0%);stroke-opacity:1;stroke-miterlimit:10;" d="M 58.656937 85.042219 L 62.645219 85.042219 M 54.72725 85.042219 L 50.738969 85.042219 " transform="matrix(1,0,0,-1,12.304,97.343)"/>
<path style="fill:none;stroke-width:0.797;stroke-linecap:butt;stroke-linejoin:miter;stroke:rgb(0%,0%,0%);stroke-opacity:1;stroke-miterlimit:10;" d="M 58.656937 90.991438 L 58.656937 79.089094 M 54.72725 96.944563 L 54.72725 73.135969 " transform="matrix(1,0,0,-1,12.304,97.343)"/>
<path style="fill:none;stroke-width:0.3985;stroke-linecap:butt;stroke-linejoin:miter;stroke:rgb(0%,0%,0%);stroke-opacity:1;stroke-miterlimit:10;" d="M 113.387406 85.042219 L 113.387406 84.843 M 113.387406 85.042219 L 113.387406 48.471906 M 113.387406 36.565656 L 113.387406 -0.00075 M 113.387406 0.198469 L 113.387406 -0.00075 " transform="matrix(1,0,0,-1,12.304,97.343)"/>
<path style="fill:none;stroke-width:0.3985;stroke-linecap:butt;stroke-linejoin:miter;stroke:rgb(0%,0%,0%);stroke-opacity:1;stroke-miterlimit:10;" d="M 113.387406 40.553938 L 113.387406 36.565656 M 113.387406 44.483625 L 113.387406 48.471906 " transform="matrix(1,0,0,-1,12.304,97.343)"/>
<g clip-path="url(#clip2)" clip-rule="nonzero">
<path style="fill:none;stroke-width:0.797;stroke-linecap:butt;stroke-linejoin:miter;stroke:rgb(0%,0%,0%);stroke-opacity:1;stroke-miterlimit:10;" d="M 119.340531 40.553938 L 107.434281 40.553938 M 125.293656 44.483625 L 101.481156 44.483625 " transform="matrix(1,0,0,-1,12.304,97.343)"/>
</g>
<path style="fill:none;stroke-width:0.3985;stroke-linecap:butt;stroke-linejoin:miter;stroke:rgb(0%,0%,0%);stroke-opacity:1;stroke-miterlimit:10;" d="M 0.0006875 -0.00075 L 0.0006875 0.198469 M 0.0006875 -0.00075 L 0.0006875 36.565656 M 0.0006875 48.471906 L 0.0006875 85.042219 M 0.0006875 84.843 L 0.0006875 85.042219 " transform="matrix(1,0,0,-1,12.304,97.343)"/>
<path style="fill:none;stroke-width:0.3985;stroke-linecap:butt;stroke-linejoin:miter;stroke:rgb(0%,0%,0%);stroke-opacity:1;stroke-miterlimit:10;" d="M 0.0006875 44.483625 L 0.0006875 48.471906 M 0.0006875 40.553938 L 0.0006875 36.565656 " transform="matrix(1,0,0,-1,12.304,97.343)"/>
<path style="fill:none;stroke-width:0.797;stroke-linecap:butt;stroke-linejoin:miter;stroke:rgb(0%,0%,0%);stroke-opacity:1;stroke-miterlimit:10;" d="M -5.952438 44.483625 L 5.953812 44.483625 M -11.905563 40.553938 L 11.906937 40.553938 " transform="matrix(1,0,0,-1,12.304,97.343)"/>
</g>
</svg>
