<?xml version="1.0" encoding="UTF-8" standalone="no"?>
<!-- Created with Inkscape (http://www.inkscape.org/) -->

<svg
   xmlns:dc="http://purl.org/dc/elements/1.1/"
   xmlns:cc="http://creativecommons.org/ns#"
   xmlns:rdf="http://www.w3.org/1999/02/22-rdf-syntax-ns#"
   xmlns:svg="http://www.w3.org/2000/svg"
   xmlns="http://www.w3.org/2000/svg"
   xmlns:sodipodi="http://sodipodi.sourceforge.net/DTD/sodipodi-0.dtd"
   xmlns:inkscape="http://www.inkscape.org/namespaces/inkscape"
   width="579.05951mm"
   height="169.5274mm"
   viewBox="0 0 579.05951 169.5274"
   version="1.1"
   id="svg8"
   inkscape:version="0.92.2 5c3e80d, 2017-08-06"
   sodipodi:docname="CoupledPendulumS1.svg">
  <sodipodi:namedview
     id="base"
     pagecolor="#ffffff"
     bordercolor="#666666"
     borderopacity="1.0"
     inkscape:pageopacity="0.0"
     inkscape:pageshadow="2"
     inkscape:zoom="0.35"
     inkscape:cx="1003.2756"
     inkscape:cy="215.72149"
     inkscape:document-units="mm"
     inkscape:current-layer="layer1"
     showgrid="false"
     inkscape:window-width="1440"
     inkscape:window-height="789"
     inkscape:window-x="0"
     inkscape:window-y="1"
     inkscape:window-maximized="1" />
  <defs
     id="defs2" />
  <metadata
     id="metadata5">
    <rdf:RDF>
      <cc:Work
         rdf:about="">
        <dc:format>image/svg+xml</dc:format>
        <dc:type
           rdf:resource="http://purl.org/dc/dcmitype/StillImage" />
        <dc:title />
      </cc:Work>
    </rdf:RDF>
  </metadata>
  <g
     inkscape:label="Layer 1"
     inkscape:groupmode="layer"
     id="layer1"
     transform="translate(26.458333,-66.620332)">
    <path
       style="fill:none;stroke:#000000;stroke-width:1;stroke-linecap:butt;stroke-linejoin:miter;stroke-miterlimit:4;stroke-dasharray:none;stroke-opacity:1"
       d="M -26.458333,67.190476 H 251.73214"
       id="path812"
       inkscape:connector-curvature="0" />
    <path
       inkscape:connector-curvature="0"
       id="path814"
       d="M 18.29198,66.762859 48.231823,226.51929"
       style="fill:none;stroke:#000000;stroke-width:1;stroke-linecap:butt;stroke-linejoin:miter;stroke-miterlimit:4;stroke-dasharray:none;stroke-opacity:1" />
    <path
       style="fill:none;stroke:#000000;stroke-width:1;stroke-linecap:butt;stroke-linejoin:miter;stroke-miterlimit:4;stroke-dasharray:none;stroke-opacity:1"
       d="M 187.74086,66.762859 227.3024,199.79234"
       id="path816"
       inkscape:connector-curvature="0"
       sodipodi:nodetypes="cc" />
    <path
       inkscape:connector-curvature="0"
       id="path851"
       d="M 274.41071,67.190476 H 552.60119"
       style="fill:none;stroke:#000000;stroke-width:1;stroke-linecap:butt;stroke-linejoin:miter;stroke-miterlimit:4;stroke-dasharray:none;stroke-opacity:1" />
    <path
       style="fill:none;stroke:#000000;stroke-width:1;stroke-linecap:butt;stroke-linejoin:miter;stroke-miterlimit:4;stroke-dasharray:none;stroke-opacity:1"
       d="M 488.60991,66.762858 458.67007,226.51929"
       id="path853"
       inkscape:connector-curvature="0" />
    <path
       sodipodi:nodetypes="cc"
       inkscape:connector-curvature="0"
       id="path855"
       d="M 319.16103,66.762858 279.59949,199.79234"
       style="fill:none;stroke:#000000;stroke-width:1;stroke-linecap:butt;stroke-linejoin:miter;stroke-miterlimit:4;stroke-dasharray:none;stroke-opacity:1" />
  </g>
  <path
     id="path858"
     inkscape:label="arc"
     sodipodi:type="arc"
     sodipodi:start="0"
     sodipodi:ry="4.5578375"
     sodipodi:rx="4.0956001"
     sodipodi:open="true"
     sodipodi:end="3.1415927"
     sodipodi:cy="170.09544"
     sodipodi:cx="58.407681"
     style="fill:none;stroke:#000000;stroke-width:1.0002507;stroke-linecap:round;stroke-linejoin:round;stroke-dasharray:none"
     d="m 62.503281,170.09544 a 4.0956001,4.5578375 0 0 1 -2.0478,3.94721 4.0956001,4.5578375 0 0 1 -4.095601,0 4.0956001,4.5578375 0 0 1 -2.0478,-3.94721"
     transform="matrix(0.98782551,-0.15556597,0.12421756,0.99225501,0,0)" />
  <path
     id="path860"
     inkscape:label="arc"
     sodipodi:type="arc"
     sodipodi:start="0"
     sodipodi:ry="4.5578375"
     sodipodi:rx="4.0956001"
     sodipodi:open="true"
     sodipodi:end="3.1415927"
     sodipodi:cy="170.09544"
     sodipodi:cx="66.598885"
     style="fill:none;stroke:#000000;stroke-width:1.0002507;stroke-linecap:round;stroke-linejoin:round;stroke-dasharray:none"
     d="m 70.694485,170.09544 a 4.0956001,4.5578375 0 0 1 -2.0478,3.94721 4.0956001,4.5578375 0 0 1 -4.095601,0 4.0956001,4.5578375 0 0 1 -2.0478,-3.94721"
     transform="matrix(0.98782551,-0.15556597,0.12421756,0.99225501,0,0)" />
  <path
     id="path862"
     inkscape:label="arc"
     sodipodi:type="arc"
     sodipodi:start="0"
     sodipodi:ry="4.5578375"
     sodipodi:rx="4.0956001"
     sodipodi:open="true"
     sodipodi:end="3.1415927"
     sodipodi:cy="170.09544"
     sodipodi:cx="74.790077"
     style="fill:none;stroke:#000000;stroke-width:1.0002507;stroke-linecap:round;stroke-linejoin:round;stroke-dasharray:none"
     d="m 78.885677,170.09544 a 4.0956001,4.5578375 0 0 1 -2.0478,3.94721 4.0956001,4.5578375 0 0 1 -4.0956,0 4.0956001,4.5578375 0 0 1 -2.0478,-3.94721"
     transform="matrix(0.98782551,-0.15556597,0.12421756,0.99225501,0,0)" />
  <path
     id="path864"
     inkscape:label="arc"
     sodipodi:type="arc"
     sodipodi:start="0"
     sodipodi:ry="4.5578375"
     sodipodi:rx="4.0956001"
     sodipodi:open="true"
     sodipodi:end="3.1415927"
     sodipodi:cy="170.09544"
     sodipodi:cx="82.98127"
     style="fill:none;stroke:#000000;stroke-width:1.0002507;stroke-linecap:round;stroke-linejoin:round;stroke-dasharray:none"
     d="m 87.07687,170.09544 a 4.0956001,4.5578375 0 0 1 -2.0478,3.94721 4.0956001,4.5578375 0 0 1 -4.0956,0 4.0956001,4.5578375 0 0 1 -2.0478,-3.94721"
     transform="matrix(0.98782551,-0.15556597,0.12421756,0.99225501,0,0)" />
  <path
     d="m 95.418056,170.1447 a 4.0956001,4.5578375 0 0 1 -2.0478,3.9472 4.0956001,4.5578375 0 0 1 -4.0956,0 4.0956001,4.5578375 0 0 1 -2.0478,-3.9472"
     style="fill:none;stroke:#000000;stroke-width:1.0002507;stroke-linecap:round;stroke-linejoin:round;stroke-dasharray:none"
     sodipodi:cx="91.322456"
     sodipodi:cy="170.1447"
     sodipodi:end="3.1415927"
     sodipodi:open="true"
     sodipodi:rx="4.0956001"
     sodipodi:ry="4.5578375"
     sodipodi:start="0"
     sodipodi:type="arc"
     inkscape:label="arc"
     id="path906"
     transform="matrix(0.98782551,-0.15556597,0.12421756,0.99225501,0,0)" />
  <path
     d="m 103.60925,170.1447 a 4.0956001,4.5578375 0 0 1 -2.0478,3.9472 4.0956001,4.5578375 0 0 1 -4.095601,0 4.0956001,4.5578375 0 0 1 -2.0478,-3.9472"
     style="fill:none;stroke:#000000;stroke-width:1.0002507;stroke-linecap:round;stroke-linejoin:round;stroke-dasharray:none"
     sodipodi:cx="99.513649"
     sodipodi:cy="170.1447"
     sodipodi:end="3.1415927"
     sodipodi:open="true"
     sodipodi:rx="4.0956001"
     sodipodi:ry="4.5578375"
     sodipodi:start="0"
     sodipodi:type="arc"
     inkscape:label="arc"
     id="path908"
     transform="matrix(0.98782551,-0.15556597,0.12421756,0.99225501,0,0)" />
  <path
     d="m 111.80046,170.1447 a 4.0956001,4.5578375 0 0 1 -2.0478,3.9472 4.0956001,4.5578375 0 0 1 -4.0956,0 4.0956001,4.5578375 0 0 1 -2.0478,-3.9472"
     style="fill:none;stroke:#000000;stroke-width:1.0002507;stroke-linecap:round;stroke-linejoin:round;stroke-dasharray:none"
     sodipodi:cx="107.70486"
     sodipodi:cy="170.1447"
     sodipodi:end="3.1415927"
     sodipodi:open="true"
     sodipodi:rx="4.0956001"
     sodipodi:ry="4.5578375"
     sodipodi:start="0"
     sodipodi:type="arc"
     inkscape:label="arc"
     id="path910"
     transform="matrix(0.98782551,-0.15556597,0.12421756,0.99225501,0,0)" />
  <path
     d="m 119.99166,170.1447 a 4.0956001,4.5578375 0 0 1 -2.0478,3.9472 4.0956001,4.5578375 0 0 1 -4.0956,0 4.0956001,4.5578375 0 0 1 -2.0478,-3.9472"
     style="fill:none;stroke:#000000;stroke-width:1.0002507;stroke-linecap:round;stroke-linejoin:round;stroke-dasharray:none"
     sodipodi:cx="115.89606"
     sodipodi:cy="170.1447"
     sodipodi:end="3.1415927"
     sodipodi:open="true"
     sodipodi:rx="4.0956001"
     sodipodi:ry="4.5578375"
     sodipodi:start="0"
     sodipodi:type="arc"
     inkscape:label="arc"
     id="path912"
     transform="matrix(0.98782551,-0.15556597,0.12421756,0.99225501,0,0)" />
  <path
     d="m 128.29494,170.09544 a 4.0956001,4.5578375 0 0 1 -2.0478,3.94721 4.0956001,4.5578375 0 0 1 -4.0956,0 4.0956001,4.5578375 0 0 1 -2.0478,-3.94721"
     style="fill:none;stroke:#000000;stroke-width:1.0002507;stroke-linecap:round;stroke-linejoin:round;stroke-dasharray:none"
     sodipodi:cx="124.19934"
     sodipodi:cy="170.09544"
     sodipodi:end="3.1415927"
     sodipodi:open="true"
     sodipodi:rx="4.0956001"
     sodipodi:ry="4.5578375"
     sodipodi:start="0"
     sodipodi:type="arc"
     inkscape:label="arc"
     id="path914"
     transform="matrix(0.98782551,-0.15556597,0.12421756,0.99225501,0,0)" />
  <path
     d="m 136.48615,170.09544 a 4.0956001,4.5578375 0 0 1 -2.0478,3.94721 4.0956001,4.5578375 0 0 1 -4.0956,0 4.0956001,4.5578375 0 0 1 -2.0478,-3.94721"
     style="fill:none;stroke:#000000;stroke-width:1.0002507;stroke-linecap:round;stroke-linejoin:round;stroke-dasharray:none"
     sodipodi:cx="132.39055"
     sodipodi:cy="170.09544"
     sodipodi:end="3.1415927"
     sodipodi:open="true"
     sodipodi:rx="4.0956001"
     sodipodi:ry="4.5578375"
     sodipodi:start="0"
     sodipodi:type="arc"
     inkscape:label="arc"
     id="path916"
     transform="matrix(0.98782551,-0.15556597,0.12421756,0.99225501,0,0)" />
  <path
     d="m 144.67734,170.09544 a 4.0956001,4.5578375 0 0 1 -2.0478,3.94721 4.0956001,4.5578375 0 0 1 -4.0956,0 4.0956001,4.5578375 0 0 1 -2.0478,-3.94721"
     style="fill:none;stroke:#000000;stroke-width:1.0002507;stroke-linecap:round;stroke-linejoin:round;stroke-dasharray:none"
     sodipodi:cx="140.58174"
     sodipodi:cy="170.09544"
     sodipodi:end="3.1415927"
     sodipodi:open="true"
     sodipodi:rx="4.0956001"
     sodipodi:ry="4.5578375"
     sodipodi:start="0"
     sodipodi:type="arc"
     inkscape:label="arc"
     id="path918"
     transform="matrix(0.98782551,-0.15556597,0.12421756,0.99225501,0,0)" />
  <path
     d="m 152.86853,170.09544 a 4.0956001,4.5578375 0 0 1 -2.0478,3.94721 4.0956001,4.5578375 0 0 1 -4.0956,0 4.0956001,4.5578375 0 0 1 -2.0478,-3.94721"
     style="fill:none;stroke:#000000;stroke-width:1.0002507;stroke-linecap:round;stroke-linejoin:round;stroke-dasharray:none"
     sodipodi:cx="148.77293"
     sodipodi:cy="170.09544"
     sodipodi:end="3.1415927"
     sodipodi:open="true"
     sodipodi:rx="4.0956001"
     sodipodi:ry="4.5578375"
     sodipodi:start="0"
     sodipodi:type="arc"
     inkscape:label="arc"
     id="path920"
     transform="matrix(0.98782551,-0.15556597,0.12421756,0.99225501,0,0)" />
  <path
     id="path922"
     inkscape:label="arc"
     sodipodi:type="arc"
     sodipodi:start="0"
     sodipodi:ry="4.5578375"
     sodipodi:rx="4.0956001"
     sodipodi:open="true"
     sodipodi:end="3.1415927"
     sodipodi:cy="170.1447"
     sodipodi:cx="157.11414"
     style="fill:none;stroke:#000000;stroke-width:1.0002507;stroke-linecap:round;stroke-linejoin:round;stroke-dasharray:none"
     d="m 161.20974,170.1447 a 4.0956001,4.5578375 0 0 1 -2.0478,3.9472 4.0956001,4.5578375 0 0 1 -4.0956,0 4.0956001,4.5578375 0 0 1 -2.0478,-3.9472"
     transform="matrix(0.98782551,-0.15556597,0.12421756,0.99225501,0,0)" />
  <path
     id="path924"
     inkscape:label="arc"
     sodipodi:type="arc"
     sodipodi:start="0"
     sodipodi:ry="4.5578375"
     sodipodi:rx="4.0956001"
     sodipodi:open="true"
     sodipodi:end="3.1415927"
     sodipodi:cy="170.1447"
     sodipodi:cx="165.30536"
     style="fill:none;stroke:#000000;stroke-width:1.0002507;stroke-linecap:round;stroke-linejoin:round;stroke-dasharray:none"
     d="m 169.40096,170.1447 a 4.0956001,4.5578375 0 0 1 -2.0478,3.9472 4.0956001,4.5578375 0 0 1 -4.0956,0 4.0956001,4.5578375 0 0 1 -2.0478,-3.9472"
     transform="matrix(0.98782551,-0.15556597,0.12421756,0.99225501,0,0)" />
  <path
     id="path926"
     inkscape:label="arc"
     sodipodi:type="arc"
     sodipodi:start="0"
     sodipodi:ry="4.5578375"
     sodipodi:rx="4.0956001"
     sodipodi:open="true"
     sodipodi:end="3.1415927"
     sodipodi:cy="170.1447"
     sodipodi:cx="173.49655"
     style="fill:none;stroke:#000000;stroke-width:1.0002507;stroke-linecap:round;stroke-linejoin:round;stroke-dasharray:none"
     d="m 177.59215,170.1447 a 4.0956001,4.5578375 0 0 1 -2.0478,3.9472 4.0956001,4.5578375 0 0 1 -4.0956,0 4.0956001,4.5578375 0 0 1 -2.0478,-3.9472"
     transform="matrix(0.98782551,-0.15556597,0.12421756,0.99225501,0,0)" />
  <path
     id="path928"
     inkscape:label="arc"
     sodipodi:type="arc"
     sodipodi:start="0"
     sodipodi:ry="4.5578375"
     sodipodi:rx="4.0956001"
     sodipodi:open="true"
     sodipodi:end="3.1415927"
     sodipodi:cy="170.1447"
     sodipodi:cx="181.68773"
     style="fill:none;stroke:#000000;stroke-width:1.0002507;stroke-linecap:round;stroke-linejoin:round;stroke-dasharray:none"
     d="m 185.78333,170.1447 a 4.0956001,4.5578375 0 0 1 -2.0478,3.9472 4.0956001,4.5578375 0 0 1 -4.0956,0 4.0956001,4.5578375 0 0 1 -2.0478,-3.9472"
     transform="matrix(0.98782551,-0.15556597,0.12421756,0.99225501,0,0)" />
  <path
     id="path930"
     inkscape:label="arc"
     sodipodi:type="arc"
     sodipodi:start="0"
     sodipodi:ry="4.5578375"
     sodipodi:rx="4.0956001"
     sodipodi:open="true"
     sodipodi:end="3.1415927"
     sodipodi:cy="170.09544"
     sodipodi:cx="190.11899"
     style="fill:none;stroke:#000000;stroke-width:1.0002507;stroke-linecap:round;stroke-linejoin:round;stroke-dasharray:none"
     d="m 194.21459,170.09544 a 4.0956001,4.5578375 0 0 1 -2.0478,3.94721 4.0956001,4.5578375 0 0 1 -4.0956,0 4.0956001,4.5578375 0 0 1 -2.0478,-3.94721"
     transform="matrix(0.98782551,-0.15556597,0.12421756,0.99225501,0,0)" />
  <path
     id="path932"
     inkscape:label="arc"
     sodipodi:type="arc"
     sodipodi:start="0"
     sodipodi:ry="4.5578375"
     sodipodi:rx="4.0956001"
     sodipodi:open="true"
     sodipodi:end="3.1415927"
     sodipodi:cy="170.09544"
     sodipodi:cx="198.31024"
     style="fill:none;stroke:#000000;stroke-width:1.0002507;stroke-linecap:round;stroke-linejoin:round;stroke-dasharray:none"
     d="m 202.40584,170.09544 a 4.0956001,4.5578375 0 0 1 -2.0478,3.94721 4.0956001,4.5578375 0 0 1 -4.0956,0 4.0956001,4.5578375 0 0 1 -2.0478,-3.94721"
     transform="matrix(0.98782551,-0.15556597,0.12421756,0.99225501,0,0)" />
  <path
     d="m 210.747,170.1447 a 4.0956001,4.5578375 0 0 1 -2.0478,3.9472 4.0956001,4.5578375 0 0 1 -4.0956,0 4.0956001,4.5578375 0 0 1 -2.0478,-3.9472"
     style="fill:none;stroke:#000000;stroke-width:1.0002507;stroke-linecap:round;stroke-linejoin:round;stroke-dasharray:none"
     sodipodi:cx="206.6514"
     sodipodi:cy="170.1447"
     sodipodi:end="3.1415927"
     sodipodi:open="true"
     sodipodi:rx="4.0956001"
     sodipodi:ry="4.5578375"
     sodipodi:start="0"
     sodipodi:type="arc"
     inkscape:label="arc"
     id="path934"
     transform="matrix(0.98782551,-0.15556597,0.12421756,0.99225501,0,0)" />
  <path
     d="m 218.93821,170.1447 a 4.0956001,4.5578375 0 0 1 -2.0478,3.9472 4.0956001,4.5578375 0 0 1 -4.0956,0 4.0956001,4.5578375 0 0 1 -2.0478,-3.9472"
     style="fill:none;stroke:#000000;stroke-width:1.0002507;stroke-linecap:round;stroke-linejoin:round;stroke-dasharray:none"
     sodipodi:cx="214.84261"
     sodipodi:cy="170.1447"
     sodipodi:end="3.1415927"
     sodipodi:open="true"
     sodipodi:rx="4.0956001"
     sodipodi:ry="4.5578375"
     sodipodi:start="0"
     sodipodi:type="arc"
     inkscape:label="arc"
     id="path936"
     transform="matrix(0.98782551,-0.15556597,0.12421756,0.99225501,0,0)" />
  <path
     d="m 227.12941,170.1447 a 4.0956001,4.5578375 0 0 1 -2.0478,3.9472 4.0956001,4.5578375 0 0 1 -4.0956,0 4.0956001,4.5578375 0 0 1 -2.0478,-3.9472"
     style="fill:none;stroke:#000000;stroke-width:1.0002507;stroke-linecap:round;stroke-linejoin:round;stroke-dasharray:none"
     sodipodi:cx="223.03381"
     sodipodi:cy="170.1447"
     sodipodi:end="3.1415927"
     sodipodi:open="true"
     sodipodi:rx="4.0956001"
     sodipodi:ry="4.5578375"
     sodipodi:start="0"
     sodipodi:type="arc"
     inkscape:label="arc"
     id="path938"
     transform="matrix(0.98782551,-0.15556597,0.12421756,0.99225501,0,0)" />
  <path
     d="m 235.32062,170.1447 a 4.0956001,4.5578375 0 0 1 -2.0478,3.9472 4.0956001,4.5578375 0 0 1 -4.0956,0 4.0956001,4.5578375 0 0 1 -2.0478,-3.9472"
     style="fill:none;stroke:#000000;stroke-width:1.0002507;stroke-linecap:round;stroke-linejoin:round;stroke-dasharray:none"
     sodipodi:cx="231.22502"
     sodipodi:cy="170.1447"
     sodipodi:end="3.1415927"
     sodipodi:open="true"
     sodipodi:rx="4.0956001"
     sodipodi:ry="4.5578375"
     sodipodi:start="0"
     sodipodi:type="arc"
     inkscape:label="arc"
     id="path940"
     transform="matrix(0.98782551,-0.15556597,0.12421756,0.99225501,0,0)" />
  <path
     style="fill:none;stroke:#000000;stroke-width:1;stroke-linecap:butt;stroke-linejoin:miter;stroke-miterlimit:4;stroke-dasharray:2, 2;stroke-dashoffset:0;stroke-opacity:1"
     d="M 44.750313,0.14252563 V 169.5274"
     id="path942"
     inkscape:connector-curvature="0" />
  <path
     inkscape:connector-curvature="0"
     id="path944"
     d="M 214.19919,0.14252663 V 169.5274"
     style="fill:none;stroke:#000000;stroke-width:1;stroke-linecap:butt;stroke-linejoin:miter;stroke-miterlimit:4;stroke-dasharray:2, 2;stroke-dashoffset:0;stroke-opacity:1" />
  <path
     transform="matrix(-0.98782551,-0.15556597,-0.12421756,0.99225501,0,0)"
     d="m -493.25801,82.963074 a 4.0956001,4.5578375 0 0 1 -2.0478,3.947203 4.0956001,4.5578375 0 0 1 -4.0956,0 4.0956001,4.5578375 0 0 1 -2.0478,-3.947203"
     style="fill:none;stroke:#000000;stroke-width:1.0002507;stroke-linecap:round;stroke-linejoin:round;stroke-dasharray:none"
     sodipodi:cx="-497.35361"
     sodipodi:cy="82.963074"
     sodipodi:end="3.1415927"
     sodipodi:open="true"
     sodipodi:rx="4.0956001"
     sodipodi:ry="4.5578375"
     sodipodi:start="0"
     sodipodi:type="arc"
     inkscape:label="arc"
     id="path857" />
  <path
     transform="matrix(-0.98782551,-0.15556597,-0.12421756,0.99225501,0,0)"
     d="m -485.06684,82.963074 a 4.0956001,4.5578375 0 0 1 -2.04781,3.947203 4.0956001,4.5578375 0 0 1 -4.0956,0 4.0956001,4.5578375 0 0 1 -2.0478,-3.947203"
     style="fill:none;stroke:#000000;stroke-width:1.0002507;stroke-linecap:round;stroke-linejoin:round;stroke-dasharray:none"
     sodipodi:cx="-489.16245"
     sodipodi:cy="82.963074"
     sodipodi:end="3.1415927"
     sodipodi:open="true"
     sodipodi:rx="4.0956001"
     sodipodi:ry="4.5578375"
     sodipodi:start="0"
     sodipodi:type="arc"
     inkscape:label="arc"
     id="path859" />
  <path
     transform="matrix(-0.98782551,-0.15556597,-0.12421756,0.99225501,0,0)"
     d="m -476.87562,82.963074 a 4.0956001,4.5578375 0 0 1 -2.0478,3.947203 4.0956001,4.5578375 0 0 1 -4.0956,0 4.0956001,4.5578375 0 0 1 -2.0478,-3.947203"
     style="fill:none;stroke:#000000;stroke-width:1.0002507;stroke-linecap:round;stroke-linejoin:round;stroke-dasharray:none"
     sodipodi:cx="-480.97122"
     sodipodi:cy="82.963074"
     sodipodi:end="3.1415927"
     sodipodi:open="true"
     sodipodi:rx="4.0956001"
     sodipodi:ry="4.5578375"
     sodipodi:start="0"
     sodipodi:type="arc"
     inkscape:label="arc"
     id="path861" />
  <path
     transform="matrix(-0.98782551,-0.15556597,-0.12421756,0.99225501,0,0)"
     d="m -468.68446,82.963074 a 4.0956001,4.5578375 0 0 1 -2.0478,3.947203 4.0956001,4.5578375 0 0 1 -4.0956,0 4.0956001,4.5578375 0 0 1 -2.0478,-3.947203"
     style="fill:none;stroke:#000000;stroke-width:1.0002507;stroke-linecap:round;stroke-linejoin:round;stroke-dasharray:none"
     sodipodi:cx="-472.78006"
     sodipodi:cy="82.963074"
     sodipodi:end="3.1415927"
     sodipodi:open="true"
     sodipodi:rx="4.0956001"
     sodipodi:ry="4.5578375"
     sodipodi:start="0"
     sodipodi:type="arc"
     inkscape:label="arc"
     id="path863" />
  <path
     transform="matrix(-0.98782551,-0.15556597,-0.12421756,0.99225501,0,0)"
     id="path865"
     inkscape:label="arc"
     sodipodi:type="arc"
     sodipodi:start="0"
     sodipodi:ry="4.5578375"
     sodipodi:rx="4.0956001"
     sodipodi:open="true"
     sodipodi:end="3.1415927"
     sodipodi:cy="83.012329"
     sodipodi:cx="-464.43884"
     style="fill:none;stroke:#000000;stroke-width:1.0002507;stroke-linecap:round;stroke-linejoin:round;stroke-dasharray:none"
     d="m -460.34324,83.012329 a 4.0956001,4.5578375 0 0 1 -2.0478,3.947203 4.0956001,4.5578375 0 0 1 -4.0956,0 4.0956001,4.5578375 0 0 1 -2.0478,-3.947203" />
  <path
     transform="matrix(-0.98782551,-0.15556597,-0.12421756,0.99225501,0,0)"
     id="path867"
     inkscape:label="arc"
     sodipodi:type="arc"
     sodipodi:start="0"
     sodipodi:ry="4.5578375"
     sodipodi:rx="4.0956001"
     sodipodi:open="true"
     sodipodi:end="3.1415927"
     sodipodi:cy="83.012329"
     sodipodi:cx="-456.24765"
     style="fill:none;stroke:#000000;stroke-width:1.0002507;stroke-linecap:round;stroke-linejoin:round;stroke-dasharray:none"
     d="m -452.15205,83.012329 a 4.0956001,4.5578375 0 0 1 -2.0478,3.947203 4.0956001,4.5578375 0 0 1 -4.0956,0 4.0956001,4.5578375 0 0 1 -2.0478,-3.947203" />
  <path
     transform="matrix(-0.98782551,-0.15556597,-0.12421756,0.99225501,0,0)"
     id="path869"
     inkscape:label="arc"
     sodipodi:type="arc"
     sodipodi:start="0"
     sodipodi:ry="4.5578375"
     sodipodi:rx="4.0956001"
     sodipodi:open="true"
     sodipodi:end="3.1415927"
     sodipodi:cy="83.012329"
     sodipodi:cx="-448.05643"
     style="fill:none;stroke:#000000;stroke-width:1.0002507;stroke-linecap:round;stroke-linejoin:round;stroke-dasharray:none"
     d="m -443.96083,83.012329 a 4.0956001,4.5578375 0 0 1 -2.0478,3.947203 4.0956001,4.5578375 0 0 1 -4.0956,0 4.0956001,4.5578375 0 0 1 -2.0478,-3.947203" />
  <path
     transform="matrix(-0.98782551,-0.15556597,-0.12421756,0.99225501,0,0)"
     id="path871"
     inkscape:label="arc"
     sodipodi:type="arc"
     sodipodi:start="0"
     sodipodi:ry="4.5578375"
     sodipodi:rx="4.0956001"
     sodipodi:open="true"
     sodipodi:end="3.1415927"
     sodipodi:cy="83.012329"
     sodipodi:cx="-439.86523"
     style="fill:none;stroke:#000000;stroke-width:1.0002507;stroke-linecap:round;stroke-linejoin:round;stroke-dasharray:none"
     d="m -435.76963,83.012329 a 4.0956001,4.5578375 0 0 1 -2.0478,3.947203 4.0956001,4.5578375 0 0 1 -4.0956,0 4.0956001,4.5578375 0 0 1 -2.0478,-3.947203" />
  <path
     transform="matrix(-0.98782551,-0.15556597,-0.12421756,0.99225501,0,0)"
     id="path873"
     inkscape:label="arc"
     sodipodi:type="arc"
     sodipodi:start="0"
     sodipodi:ry="4.5578375"
     sodipodi:rx="4.0956001"
     sodipodi:open="true"
     sodipodi:end="3.1415927"
     sodipodi:cy="82.963074"
     sodipodi:cx="-431.56195"
     style="fill:none;stroke:#000000;stroke-width:1.0002507;stroke-linecap:round;stroke-linejoin:round;stroke-dasharray:none"
     d="m -427.46635,82.963074 a 4.0956001,4.5578375 0 0 1 -2.0478,3.947203 4.0956001,4.5578375 0 0 1 -4.0956,0 4.0956001,4.5578375 0 0 1 -2.0478,-3.947203" />
  <path
     transform="matrix(-0.98782551,-0.15556597,-0.12421756,0.99225501,0,0)"
     id="path875"
     inkscape:label="arc"
     sodipodi:type="arc"
     sodipodi:start="0"
     sodipodi:ry="4.5578375"
     sodipodi:rx="4.0956001"
     sodipodi:open="true"
     sodipodi:end="3.1415927"
     sodipodi:cy="82.963074"
     sodipodi:cx="-423.37073"
     style="fill:none;stroke:#000000;stroke-width:1.0002507;stroke-linecap:round;stroke-linejoin:round;stroke-dasharray:none"
     d="m -419.27513,82.963074 a 4.0956001,4.5578375 0 0 1 -2.0478,3.947203 4.0956001,4.5578375 0 0 1 -4.0956,0 4.0956001,4.5578375 0 0 1 -2.0478,-3.947203" />
  <path
     transform="matrix(-0.98782551,-0.15556597,-0.12421756,0.99225501,0,0)"
     id="path877"
     inkscape:label="arc"
     sodipodi:type="arc"
     sodipodi:start="0"
     sodipodi:ry="4.5578375"
     sodipodi:rx="4.0956001"
     sodipodi:open="true"
     sodipodi:end="3.1415927"
     sodipodi:cy="82.963074"
     sodipodi:cx="-415.17953"
     style="fill:none;stroke:#000000;stroke-width:1.0002507;stroke-linecap:round;stroke-linejoin:round;stroke-dasharray:none"
     d="m -411.08393,82.963074 a 4.0956001,4.5578375 0 0 1 -2.0478,3.947203 4.0956001,4.5578375 0 0 1 -4.09561,0 4.0956001,4.5578375 0 0 1 -2.0478,-3.947203" />
  <path
     transform="matrix(-0.98782551,-0.15556597,-0.12421756,0.99225501,0,0)"
     id="path879"
     inkscape:label="arc"
     sodipodi:type="arc"
     sodipodi:start="0"
     sodipodi:ry="4.5578375"
     sodipodi:rx="4.0956001"
     sodipodi:open="true"
     sodipodi:end="3.1415927"
     sodipodi:cy="82.963074"
     sodipodi:cx="-406.98834"
     style="fill:none;stroke:#000000;stroke-width:1.0002507;stroke-linecap:round;stroke-linejoin:round;stroke-dasharray:none"
     d="m -402.89274,82.963074 a 4.0956001,4.5578375 0 0 1 -2.0478,3.947203 4.0956001,4.5578375 0 0 1 -4.0956,0 4.0956001,4.5578375 0 0 1 -2.0478,-3.947203" />
  <path
     transform="matrix(-0.98782551,-0.15556597,-0.12421756,0.99225501,0,0)"
     d="m -394.55156,83.012329 a 4.0956001,4.5578375 0 0 1 -2.0478,3.947203 4.0956001,4.5578375 0 0 1 -4.0956,0 4.0956001,4.5578375 0 0 1 -2.0478,-3.947203"
     style="fill:none;stroke:#000000;stroke-width:1.0002507;stroke-linecap:round;stroke-linejoin:round;stroke-dasharray:none"
     sodipodi:cx="-398.64716"
     sodipodi:cy="83.012329"
     sodipodi:end="3.1415927"
     sodipodi:open="true"
     sodipodi:rx="4.0956001"
     sodipodi:ry="4.5578375"
     sodipodi:start="0"
     sodipodi:type="arc"
     inkscape:label="arc"
     id="path881" />
  <path
     transform="matrix(-0.98782551,-0.15556597,-0.12421756,0.99225501,0,0)"
     d="m -386.36033,83.012329 a 4.0956001,4.5578375 0 0 1 -2.0478,3.947203 4.0956001,4.5578375 0 0 1 -4.0956,0 4.0956001,4.5578375 0 0 1 -2.0478,-3.947203"
     style="fill:none;stroke:#000000;stroke-width:1.0002507;stroke-linecap:round;stroke-linejoin:round;stroke-dasharray:none"
     sodipodi:cx="-390.45593"
     sodipodi:cy="83.012329"
     sodipodi:end="3.1415927"
     sodipodi:open="true"
     sodipodi:rx="4.0956001"
     sodipodi:ry="4.5578375"
     sodipodi:start="0"
     sodipodi:type="arc"
     inkscape:label="arc"
     id="path883" />
  <path
     transform="matrix(-0.98782551,-0.15556597,-0.12421756,0.99225501,0,0)"
     d="m -378.16914,83.012329 a 4.0956001,4.5578375 0 0 1 -2.0478,3.947203 4.0956001,4.5578375 0 0 1 -4.0956,0 4.0956001,4.5578375 0 0 1 -2.0478,-3.947203"
     style="fill:none;stroke:#000000;stroke-width:1.0002507;stroke-linecap:round;stroke-linejoin:round;stroke-dasharray:none"
     sodipodi:cx="-382.26474"
     sodipodi:cy="83.012329"
     sodipodi:end="3.1415927"
     sodipodi:open="true"
     sodipodi:rx="4.0956001"
     sodipodi:ry="4.5578375"
     sodipodi:start="0"
     sodipodi:type="arc"
     inkscape:label="arc"
     id="path885" />
  <path
     transform="matrix(-0.98782551,-0.15556597,-0.12421756,0.99225501,0,0)"
     d="m -369.97795,83.012329 a 4.0956001,4.5578375 0 0 1 -2.0478,3.947203 4.0956001,4.5578375 0 0 1 -4.0956,0 4.0956001,4.5578375 0 0 1 -2.0478,-3.947203"
     style="fill:none;stroke:#000000;stroke-width:1.0002507;stroke-linecap:round;stroke-linejoin:round;stroke-dasharray:none"
     sodipodi:cx="-374.07355"
     sodipodi:cy="83.012329"
     sodipodi:end="3.1415927"
     sodipodi:open="true"
     sodipodi:rx="4.0956001"
     sodipodi:ry="4.5578375"
     sodipodi:start="0"
     sodipodi:type="arc"
     inkscape:label="arc"
     id="path887" />
  <path
     transform="matrix(-0.98782551,-0.15556597,-0.12421756,0.99225501,0,0)"
     d="m -361.5467,82.963074 a 4.0956001,4.5578375 0 0 1 -2.0478,3.947203 4.0956001,4.5578375 0 0 1 -4.0956,0 4.0956001,4.5578375 0 0 1 -2.0478,-3.947203"
     style="fill:none;stroke:#000000;stroke-width:1.0002507;stroke-linecap:round;stroke-linejoin:round;stroke-dasharray:none"
     sodipodi:cx="-365.6423"
     sodipodi:cy="82.963074"
     sodipodi:end="3.1415927"
     sodipodi:open="true"
     sodipodi:rx="4.0956001"
     sodipodi:ry="4.5578375"
     sodipodi:start="0"
     sodipodi:type="arc"
     inkscape:label="arc"
     id="path889" />
  <path
     transform="matrix(-0.98782551,-0.15556597,-0.12421756,0.99225501,0,0)"
     d="m -353.35545,82.963074 a 4.0956001,4.5578375 0 0 1 -2.0478,3.947203 4.0956001,4.5578375 0 0 1 -4.0956,0 4.0956001,4.5578375 0 0 1 -2.0478,-3.947203"
     style="fill:none;stroke:#000000;stroke-width:1.0002507;stroke-linecap:round;stroke-linejoin:round;stroke-dasharray:none"
     sodipodi:cx="-357.45105"
     sodipodi:cy="82.963074"
     sodipodi:end="3.1415927"
     sodipodi:open="true"
     sodipodi:rx="4.0956001"
     sodipodi:ry="4.5578375"
     sodipodi:start="0"
     sodipodi:type="arc"
     inkscape:label="arc"
     id="path891" />
  <path
     transform="matrix(-0.98782551,-0.15556597,-0.12421756,0.99225501,0,0)"
     id="path893"
     inkscape:label="arc"
     sodipodi:type="arc"
     sodipodi:start="0"
     sodipodi:ry="4.5578375"
     sodipodi:rx="4.0956001"
     sodipodi:open="true"
     sodipodi:end="3.1415927"
     sodipodi:cy="83.012329"
     sodipodi:cx="-349.10989"
     style="fill:none;stroke:#000000;stroke-width:1.0002507;stroke-linecap:round;stroke-linejoin:round;stroke-dasharray:none"
     d="m -345.01429,83.012329 a 4.0956001,4.5578375 0 0 1 -2.0478,3.947203 4.0956001,4.5578375 0 0 1 -4.0956,0 4.0956001,4.5578375 0 0 1 -2.0478,-3.947203" />
  <path
     transform="matrix(-0.98782551,-0.15556597,-0.12421756,0.99225501,0,0)"
     id="path895"
     inkscape:label="arc"
     sodipodi:type="arc"
     sodipodi:start="0"
     sodipodi:ry="4.5578375"
     sodipodi:rx="4.0956001"
     sodipodi:open="true"
     sodipodi:end="3.1415927"
     sodipodi:cy="83.012329"
     sodipodi:cx="-340.91867"
     style="fill:none;stroke:#000000;stroke-width:1.0002507;stroke-linecap:round;stroke-linejoin:round;stroke-dasharray:none"
     d="m -336.82307,83.012329 a 4.0956001,4.5578375 0 0 1 -2.0478,3.947203 4.0956001,4.5578375 0 0 1 -4.0956,0 4.0956001,4.5578375 0 0 1 -2.0478,-3.947203" />
  <path
     transform="matrix(-0.98782551,-0.15556597,-0.12421756,0.99225501,0,0)"
     id="path897"
     inkscape:label="arc"
     sodipodi:type="arc"
     sodipodi:start="0"
     sodipodi:ry="4.5578375"
     sodipodi:rx="4.0956001"
     sodipodi:open="true"
     sodipodi:end="3.1415927"
     sodipodi:cy="83.012329"
     sodipodi:cx="-332.72745"
     style="fill:none;stroke:#000000;stroke-width:1.0002507;stroke-linecap:round;stroke-linejoin:round;stroke-dasharray:none"
     d="m -328.63185,83.012329 a 4.0956001,4.5578375 0 0 1 -2.0478,3.947203 4.0956001,4.5578375 0 0 1 -4.0956,0 4.0956001,4.5578375 0 0 1 -2.0478,-3.947203" />
  <path
     transform="matrix(-0.98782551,-0.15556597,-0.12421756,0.99225501,0,0)"
     id="path899"
     inkscape:label="arc"
     sodipodi:type="arc"
     sodipodi:start="0"
     sodipodi:ry="4.5578375"
     sodipodi:rx="4.0956001"
     sodipodi:open="true"
     sodipodi:end="3.1415927"
     sodipodi:cy="83.012329"
     sodipodi:cx="-324.53629"
     style="fill:none;stroke:#000000;stroke-width:1.0002507;stroke-linecap:round;stroke-linejoin:round;stroke-dasharray:none"
     d="m -320.44069,83.012329 a 4.0956001,4.5578375 0 0 1 -2.0478,3.947203 4.0956001,4.5578375 0 0 1 -4.0956,0 4.0956001,4.5578375 0 0 1 -2.0478,-3.947203" />
  <path
     inkscape:connector-curvature="0"
     id="path901"
     d="M 345.61936,0.14252563 V 169.5274"
     style="fill:none;stroke:#000000;stroke-width:1;stroke-linecap:butt;stroke-linejoin:miter;stroke-miterlimit:4;stroke-dasharray:2, 2;stroke-dashoffset:0;stroke-opacity:1" />
  <path
     style="fill:none;stroke:#000000;stroke-width:1;stroke-linecap:butt;stroke-linejoin:miter;stroke-miterlimit:4;stroke-dasharray:2, 2;stroke-dashoffset:0;stroke-opacity:1"
     d="M 515.06824,0.14252663 V 169.5274"
     id="path903"
     inkscape:connector-curvature="0" />
</svg>
