<?xml version="1.0" encoding="UTF-8" standalone="no"?>
<!-- Created with Inkscape (http://www.inkscape.org/) -->

<svg
   xmlns:dc="http://purl.org/dc/elements/1.1/"
   xmlns:cc="http://creativecommons.org/ns#"
   xmlns:rdf="http://www.w3.org/1999/02/22-rdf-syntax-ns#"
   xmlns:svg="http://www.w3.org/2000/svg"
   xmlns="http://www.w3.org/2000/svg"
   xmlns:sodipodi="http://sodipodi.sourceforge.net/DTD/sodipodi-0.dtd"
   xmlns:inkscape="http://www.inkscape.org/namespaces/inkscape"
   width="579.05951mm"
   height="169.5274mm"
   viewBox="0 0 579.05951 169.5274"
   version="1.1"
   id="svg8"
   inkscape:version="0.92.2 5c3e80d, 2017-08-06"
   sodipodi:docname="CoupledPendulumS2.svg">
  <sodipodi:namedview
     id="base"
     pagecolor="#ffffff"
     bordercolor="#666666"
     borderopacity="1.0"
     inkscape:pageopacity="0.0"
     inkscape:pageshadow="2"
     inkscape:zoom="0.24748738"
     inkscape:cx="1643.6817"
     inkscape:cy="15.721496"
     inkscape:document-units="mm"
     inkscape:current-layer="svg8"
     showgrid="false"
     inkscape:window-width="1440"
     inkscape:window-height="789"
     inkscape:window-x="0"
     inkscape:window-y="1"
     inkscape:window-maximized="1" />
  <defs
     id="defs2" />
  <metadata
     id="metadata5">
    <rdf:RDF>
      <cc:Work
         rdf:about="">
        <dc:format>image/svg+xml</dc:format>
        <dc:type
           rdf:resource="http://purl.org/dc/dcmitype/StillImage" />
        <dc:title></dc:title>
      </cc:Work>
    </rdf:RDF>
  </metadata>
  <g
     inkscape:label="Layer 1"
     inkscape:groupmode="layer"
     id="layer1"
     transform="translate(26.458333,-66.620332)">
    <path
       style="fill:none;stroke:#000000;stroke-width:1;stroke-linecap:butt;stroke-linejoin:miter;stroke-miterlimit:4;stroke-dasharray:none;stroke-opacity:1"
       d="M -26.458333,67.190476 H 251.73214"
       id="path812"
       inkscape:connector-curvature="0" />
    <path
       inkscape:connector-curvature="0"
       id="path814"
       d="M 18.29198,66.762859 48.231823,226.51929"
       style="fill:none;stroke:#000000;stroke-width:1;stroke-linecap:butt;stroke-linejoin:miter;stroke-miterlimit:4;stroke-dasharray:none;stroke-opacity:1" />
    <path
       inkscape:connector-curvature="0"
       id="path851"
       d="M 274.41071,67.190476 H 552.60119"
       style="fill:none;stroke:#000000;stroke-width:1;stroke-linecap:butt;stroke-linejoin:miter;stroke-miterlimit:4;stroke-dasharray:none;stroke-opacity:1" />
    <path
       style="fill:none;stroke:#000000;stroke-width:1;stroke-linecap:butt;stroke-linejoin:miter;stroke-miterlimit:4;stroke-dasharray:none;stroke-opacity:1"
       d="M 187.74086,66.762859 157.80101,226.51929"
       id="path925"
       inkscape:connector-curvature="0" />
    <path
       inkscape:connector-curvature="0"
       id="path927"
       d="M 319.16103,66.762858 289.22118,226.51929"
       style="fill:none;stroke:#000000;stroke-width:1;stroke-linecap:butt;stroke-linejoin:miter;stroke-miterlimit:4;stroke-dasharray:none;stroke-opacity:1" />
    <path
       style="fill:none;stroke:#000000;stroke-width:1;stroke-linecap:butt;stroke-linejoin:miter;stroke-miterlimit:4;stroke-dasharray:none;stroke-opacity:1"
       d="M 488.60991,66.762859 518.54975,226.51929"
       id="path929"
       inkscape:connector-curvature="0" />
  </g>
  <g
     id="g953"
     transform="matrix(0.59682738,0.15676093,-0.0947304,0.98763658,45.175347,-9.9443189)"
     style="stroke-width:1.2863946">
    <path
       transform="matrix(0.98782551,-0.15556597,0.12421756,0.99225501,0,0)"
       d="m 62.503281,170.09544 a 4.0956001,4.5578375 0 0 1 -2.0478,3.94721 4.0956001,4.5578375 0 0 1 -4.095601,0 4.0956001,4.5578375 0 0 1 -2.0478,-3.94721"
       style="fill:none;stroke:#000000;stroke-width:1.28671718;stroke-linecap:round;stroke-linejoin:round;stroke-dasharray:none"
       sodipodi:cx="58.407681"
       sodipodi:cy="170.09544"
       sodipodi:end="3.1415927"
       sodipodi:open="true"
       sodipodi:rx="4.0956001"
       sodipodi:ry="4.5578375"
       sodipodi:start="0"
       sodipodi:type="arc"
       inkscape:label="arc"
       id="path858" />
    <path
       transform="matrix(0.98782551,-0.15556597,0.12421756,0.99225501,0,0)"
       d="m 70.694485,170.09544 a 4.0956001,4.5578375 0 0 1 -2.0478,3.94721 4.0956001,4.5578375 0 0 1 -4.095601,0 4.0956001,4.5578375 0 0 1 -2.0478,-3.94721"
       style="fill:none;stroke:#000000;stroke-width:1.28671718;stroke-linecap:round;stroke-linejoin:round;stroke-dasharray:none"
       sodipodi:cx="66.598885"
       sodipodi:cy="170.09544"
       sodipodi:end="3.1415927"
       sodipodi:open="true"
       sodipodi:rx="4.0956001"
       sodipodi:ry="4.5578375"
       sodipodi:start="0"
       sodipodi:type="arc"
       inkscape:label="arc"
       id="path860" />
    <path
       transform="matrix(0.98782551,-0.15556597,0.12421756,0.99225501,0,0)"
       d="m 78.885677,170.09544 a 4.0956001,4.5578375 0 0 1 -2.0478,3.94721 4.0956001,4.5578375 0 0 1 -4.0956,0 4.0956001,4.5578375 0 0 1 -2.0478,-3.94721"
       style="fill:none;stroke:#000000;stroke-width:1.28671718;stroke-linecap:round;stroke-linejoin:round;stroke-dasharray:none"
       sodipodi:cx="74.790077"
       sodipodi:cy="170.09544"
       sodipodi:end="3.1415927"
       sodipodi:open="true"
       sodipodi:rx="4.0956001"
       sodipodi:ry="4.5578375"
       sodipodi:start="0"
       sodipodi:type="arc"
       inkscape:label="arc"
       id="path862" />
    <path
       transform="matrix(0.98782551,-0.15556597,0.12421756,0.99225501,0,0)"
       d="m 87.07687,170.09544 a 4.0956001,4.5578375 0 0 1 -2.0478,3.94721 4.0956001,4.5578375 0 0 1 -4.0956,0 4.0956001,4.5578375 0 0 1 -2.0478,-3.94721"
       style="fill:none;stroke:#000000;stroke-width:1.28671718;stroke-linecap:round;stroke-linejoin:round;stroke-dasharray:none"
       sodipodi:cx="82.98127"
       sodipodi:cy="170.09544"
       sodipodi:end="3.1415927"
       sodipodi:open="true"
       sodipodi:rx="4.0956001"
       sodipodi:ry="4.5578375"
       sodipodi:start="0"
       sodipodi:type="arc"
       inkscape:label="arc"
       id="path864" />
    <path
       transform="matrix(0.98782551,-0.15556597,0.12421756,0.99225501,0,0)"
       id="path906"
       inkscape:label="arc"
       sodipodi:type="arc"
       sodipodi:start="0"
       sodipodi:ry="4.5578375"
       sodipodi:rx="4.0956001"
       sodipodi:open="true"
       sodipodi:end="3.1415927"
       sodipodi:cy="170.1447"
       sodipodi:cx="91.322456"
       style="fill:none;stroke:#000000;stroke-width:1.28671718;stroke-linecap:round;stroke-linejoin:round;stroke-dasharray:none"
       d="m 95.418056,170.1447 a 4.0956001,4.5578375 0 0 1 -2.0478,3.9472 4.0956001,4.5578375 0 0 1 -4.0956,0 4.0956001,4.5578375 0 0 1 -2.0478,-3.9472" />
    <path
       transform="matrix(0.98782551,-0.15556597,0.12421756,0.99225501,0,0)"
       id="path908"
       inkscape:label="arc"
       sodipodi:type="arc"
       sodipodi:start="0"
       sodipodi:ry="4.5578375"
       sodipodi:rx="4.0956001"
       sodipodi:open="true"
       sodipodi:end="3.1415927"
       sodipodi:cy="170.1447"
       sodipodi:cx="99.513649"
       style="fill:none;stroke:#000000;stroke-width:1.28671718;stroke-linecap:round;stroke-linejoin:round;stroke-dasharray:none"
       d="m 103.60925,170.1447 a 4.0956001,4.5578375 0 0 1 -2.0478,3.9472 4.0956001,4.5578375 0 0 1 -4.095601,0 4.0956001,4.5578375 0 0 1 -2.0478,-3.9472" />
    <path
       transform="matrix(0.98782551,-0.15556597,0.12421756,0.99225501,0,0)"
       id="path910"
       inkscape:label="arc"
       sodipodi:type="arc"
       sodipodi:start="0"
       sodipodi:ry="4.5578375"
       sodipodi:rx="4.0956001"
       sodipodi:open="true"
       sodipodi:end="3.1415927"
       sodipodi:cy="170.1447"
       sodipodi:cx="107.70486"
       style="fill:none;stroke:#000000;stroke-width:1.28671718;stroke-linecap:round;stroke-linejoin:round;stroke-dasharray:none"
       d="m 111.80046,170.1447 a 4.0956001,4.5578375 0 0 1 -2.0478,3.9472 4.0956001,4.5578375 0 0 1 -4.0956,0 4.0956001,4.5578375 0 0 1 -2.0478,-3.9472" />
    <path
       transform="matrix(0.98782551,-0.15556597,0.12421756,0.99225501,0,0)"
       id="path912"
       inkscape:label="arc"
       sodipodi:type="arc"
       sodipodi:start="0"
       sodipodi:ry="4.5578375"
       sodipodi:rx="4.0956001"
       sodipodi:open="true"
       sodipodi:end="3.1415927"
       sodipodi:cy="170.1447"
       sodipodi:cx="115.89606"
       style="fill:none;stroke:#000000;stroke-width:1.28671718;stroke-linecap:round;stroke-linejoin:round;stroke-dasharray:none"
       d="m 119.99166,170.1447 a 4.0956001,4.5578375 0 0 1 -2.0478,3.9472 4.0956001,4.5578375 0 0 1 -4.0956,0 4.0956001,4.5578375 0 0 1 -2.0478,-3.9472" />
    <path
       transform="matrix(0.98782551,-0.15556597,0.12421756,0.99225501,0,0)"
       id="path914"
       inkscape:label="arc"
       sodipodi:type="arc"
       sodipodi:start="0"
       sodipodi:ry="4.5578375"
       sodipodi:rx="4.0956001"
       sodipodi:open="true"
       sodipodi:end="3.1415927"
       sodipodi:cy="170.09544"
       sodipodi:cx="124.19934"
       style="fill:none;stroke:#000000;stroke-width:1.28671718;stroke-linecap:round;stroke-linejoin:round;stroke-dasharray:none"
       d="m 128.29494,170.09544 a 4.0956001,4.5578375 0 0 1 -2.0478,3.94721 4.0956001,4.5578375 0 0 1 -4.0956,0 4.0956001,4.5578375 0 0 1 -2.0478,-3.94721" />
    <path
       transform="matrix(0.98782551,-0.15556597,0.12421756,0.99225501,0,0)"
       id="path916"
       inkscape:label="arc"
       sodipodi:type="arc"
       sodipodi:start="0"
       sodipodi:ry="4.5578375"
       sodipodi:rx="4.0956001"
       sodipodi:open="true"
       sodipodi:end="3.1415927"
       sodipodi:cy="170.09544"
       sodipodi:cx="132.39055"
       style="fill:none;stroke:#000000;stroke-width:1.28671718;stroke-linecap:round;stroke-linejoin:round;stroke-dasharray:none"
       d="m 136.48615,170.09544 a 4.0956001,4.5578375 0 0 1 -2.0478,3.94721 4.0956001,4.5578375 0 0 1 -4.0956,0 4.0956001,4.5578375 0 0 1 -2.0478,-3.94721" />
    <path
       transform="matrix(0.98782551,-0.15556597,0.12421756,0.99225501,0,0)"
       id="path918"
       inkscape:label="arc"
       sodipodi:type="arc"
       sodipodi:start="0"
       sodipodi:ry="4.5578375"
       sodipodi:rx="4.0956001"
       sodipodi:open="true"
       sodipodi:end="3.1415927"
       sodipodi:cy="170.09544"
       sodipodi:cx="140.58174"
       style="fill:none;stroke:#000000;stroke-width:1.28671718;stroke-linecap:round;stroke-linejoin:round;stroke-dasharray:none"
       d="m 144.67734,170.09544 a 4.0956001,4.5578375 0 0 1 -2.0478,3.94721 4.0956001,4.5578375 0 0 1 -4.0956,0 4.0956001,4.5578375 0 0 1 -2.0478,-3.94721" />
    <path
       transform="matrix(0.98782551,-0.15556597,0.12421756,0.99225501,0,0)"
       id="path920"
       inkscape:label="arc"
       sodipodi:type="arc"
       sodipodi:start="0"
       sodipodi:ry="4.5578375"
       sodipodi:rx="4.0956001"
       sodipodi:open="true"
       sodipodi:end="3.1415927"
       sodipodi:cy="170.09544"
       sodipodi:cx="148.77293"
       style="fill:none;stroke:#000000;stroke-width:1.28671718;stroke-linecap:round;stroke-linejoin:round;stroke-dasharray:none"
       d="m 152.86853,170.09544 a 4.0956001,4.5578375 0 0 1 -2.0478,3.94721 4.0956001,4.5578375 0 0 1 -4.0956,0 4.0956001,4.5578375 0 0 1 -2.0478,-3.94721" />
    <path
       transform="matrix(0.98782551,-0.15556597,0.12421756,0.99225501,0,0)"
       d="m 161.20974,170.1447 a 4.0956001,4.5578375 0 0 1 -2.0478,3.9472 4.0956001,4.5578375 0 0 1 -4.0956,0 4.0956001,4.5578375 0 0 1 -2.0478,-3.9472"
       style="fill:none;stroke:#000000;stroke-width:1.28671718;stroke-linecap:round;stroke-linejoin:round;stroke-dasharray:none"
       sodipodi:cx="157.11414"
       sodipodi:cy="170.1447"
       sodipodi:end="3.1415927"
       sodipodi:open="true"
       sodipodi:rx="4.0956001"
       sodipodi:ry="4.5578375"
       sodipodi:start="0"
       sodipodi:type="arc"
       inkscape:label="arc"
       id="path922" />
    <path
       transform="matrix(0.98782551,-0.15556597,0.12421756,0.99225501,0,0)"
       d="m 169.40096,170.1447 a 4.0956001,4.5578375 0 0 1 -2.0478,3.9472 4.0956001,4.5578375 0 0 1 -4.0956,0 4.0956001,4.5578375 0 0 1 -2.0478,-3.9472"
       style="fill:none;stroke:#000000;stroke-width:1.28671718;stroke-linecap:round;stroke-linejoin:round;stroke-dasharray:none"
       sodipodi:cx="165.30536"
       sodipodi:cy="170.1447"
       sodipodi:end="3.1415927"
       sodipodi:open="true"
       sodipodi:rx="4.0956001"
       sodipodi:ry="4.5578375"
       sodipodi:start="0"
       sodipodi:type="arc"
       inkscape:label="arc"
       id="path924" />
    <path
       transform="matrix(0.98782551,-0.15556597,0.12421756,0.99225501,0,0)"
       d="m 177.59215,170.1447 a 4.0956001,4.5578375 0 0 1 -2.0478,3.9472 4.0956001,4.5578375 0 0 1 -4.0956,0 4.0956001,4.5578375 0 0 1 -2.0478,-3.9472"
       style="fill:none;stroke:#000000;stroke-width:1.28671718;stroke-linecap:round;stroke-linejoin:round;stroke-dasharray:none"
       sodipodi:cx="173.49655"
       sodipodi:cy="170.1447"
       sodipodi:end="3.1415927"
       sodipodi:open="true"
       sodipodi:rx="4.0956001"
       sodipodi:ry="4.5578375"
       sodipodi:start="0"
       sodipodi:type="arc"
       inkscape:label="arc"
       id="path926" />
    <path
       transform="matrix(0.98782551,-0.15556597,0.12421756,0.99225501,0,0)"
       d="m 185.78333,170.1447 a 4.0956001,4.5578375 0 0 1 -2.0478,3.9472 4.0956001,4.5578375 0 0 1 -4.0956,0 4.0956001,4.5578375 0 0 1 -2.0478,-3.9472"
       style="fill:none;stroke:#000000;stroke-width:1.28671718;stroke-linecap:round;stroke-linejoin:round;stroke-dasharray:none"
       sodipodi:cx="181.68773"
       sodipodi:cy="170.1447"
       sodipodi:end="3.1415927"
       sodipodi:open="true"
       sodipodi:rx="4.0956001"
       sodipodi:ry="4.5578375"
       sodipodi:start="0"
       sodipodi:type="arc"
       inkscape:label="arc"
       id="path928" />
    <path
       transform="matrix(0.98782551,-0.15556597,0.12421756,0.99225501,0,0)"
       d="m 194.21459,170.09544 a 4.0956001,4.5578375 0 0 1 -2.0478,3.94721 4.0956001,4.5578375 0 0 1 -4.0956,0 4.0956001,4.5578375 0 0 1 -2.0478,-3.94721"
       style="fill:none;stroke:#000000;stroke-width:1.28671718;stroke-linecap:round;stroke-linejoin:round;stroke-dasharray:none"
       sodipodi:cx="190.11899"
       sodipodi:cy="170.09544"
       sodipodi:end="3.1415927"
       sodipodi:open="true"
       sodipodi:rx="4.0956001"
       sodipodi:ry="4.5578375"
       sodipodi:start="0"
       sodipodi:type="arc"
       inkscape:label="arc"
       id="path930" />
    <path
       transform="matrix(0.98782551,-0.15556597,0.12421756,0.99225501,0,0)"
       d="m 202.40584,170.09544 a 4.0956001,4.5578375 0 0 1 -2.0478,3.94721 4.0956001,4.5578375 0 0 1 -4.0956,0 4.0956001,4.5578375 0 0 1 -2.0478,-3.94721"
       style="fill:none;stroke:#000000;stroke-width:1.28671718;stroke-linecap:round;stroke-linejoin:round;stroke-dasharray:none"
       sodipodi:cx="198.31024"
       sodipodi:cy="170.09544"
       sodipodi:end="3.1415927"
       sodipodi:open="true"
       sodipodi:rx="4.0956001"
       sodipodi:ry="4.5578375"
       sodipodi:start="0"
       sodipodi:type="arc"
       inkscape:label="arc"
       id="path932" />
    <path
       transform="matrix(0.98782551,-0.15556597,0.12421756,0.99225501,0,0)"
       id="path934"
       inkscape:label="arc"
       sodipodi:type="arc"
       sodipodi:start="0"
       sodipodi:ry="4.5578375"
       sodipodi:rx="4.0956001"
       sodipodi:open="true"
       sodipodi:end="3.1415927"
       sodipodi:cy="170.1447"
       sodipodi:cx="206.6514"
       style="fill:none;stroke:#000000;stroke-width:1.28671718;stroke-linecap:round;stroke-linejoin:round;stroke-dasharray:none"
       d="m 210.747,170.1447 a 4.0956001,4.5578375 0 0 1 -2.0478,3.9472 4.0956001,4.5578375 0 0 1 -4.0956,0 4.0956001,4.5578375 0 0 1 -2.0478,-3.9472" />
    <path
       transform="matrix(0.98782551,-0.15556597,0.12421756,0.99225501,0,0)"
       id="path936"
       inkscape:label="arc"
       sodipodi:type="arc"
       sodipodi:start="0"
       sodipodi:ry="4.5578375"
       sodipodi:rx="4.0956001"
       sodipodi:open="true"
       sodipodi:end="3.1415927"
       sodipodi:cy="170.1447"
       sodipodi:cx="214.84261"
       style="fill:none;stroke:#000000;stroke-width:1.28671718;stroke-linecap:round;stroke-linejoin:round;stroke-dasharray:none"
       d="m 218.93821,170.1447 a 4.0956001,4.5578375 0 0 1 -2.0478,3.9472 4.0956001,4.5578375 0 0 1 -4.0956,0 4.0956001,4.5578375 0 0 1 -2.0478,-3.9472" />
    <path
       transform="matrix(0.98782551,-0.15556597,0.12421756,0.99225501,0,0)"
       id="path938"
       inkscape:label="arc"
       sodipodi:type="arc"
       sodipodi:start="0"
       sodipodi:ry="4.5578375"
       sodipodi:rx="4.0956001"
       sodipodi:open="true"
       sodipodi:end="3.1415927"
       sodipodi:cy="170.1447"
       sodipodi:cx="223.03381"
       style="fill:none;stroke:#000000;stroke-width:1.28671718;stroke-linecap:round;stroke-linejoin:round;stroke-dasharray:none"
       d="m 227.12941,170.1447 a 4.0956001,4.5578375 0 0 1 -2.0478,3.9472 4.0956001,4.5578375 0 0 1 -4.0956,0 4.0956001,4.5578375 0 0 1 -2.0478,-3.9472" />
    <path
       transform="matrix(0.98782551,-0.15556597,0.12421756,0.99225501,0,0)"
       id="path940"
       inkscape:label="arc"
       sodipodi:type="arc"
       sodipodi:start="0"
       sodipodi:ry="4.5578375"
       sodipodi:rx="4.0956001"
       sodipodi:open="true"
       sodipodi:end="3.1415927"
       sodipodi:cy="170.1447"
       sodipodi:cx="231.22502"
       style="fill:none;stroke:#000000;stroke-width:1.28671718;stroke-linecap:round;stroke-linejoin:round;stroke-dasharray:none"
       d="m 235.32062,170.1447 a 4.0956001,4.5578375 0 0 1 -2.0478,3.9472 4.0956001,4.5578375 0 0 1 -4.0956,0 4.0956001,4.5578375 0 0 1 -2.0478,-3.9472" />
  </g>
  <path
     style="fill:none;stroke:#000000;stroke-width:1;stroke-linecap:butt;stroke-linejoin:miter;stroke-miterlimit:4;stroke-dasharray:2, 2;stroke-dashoffset:0;stroke-opacity:1"
     d="M 44.750313,0.14252563 V 169.5274"
     id="path942"
     inkscape:connector-curvature="0" />
  <path
     inkscape:connector-curvature="0"
     id="path944"
     d="M 214.19919,0.14252663 V 169.5274"
     style="fill:none;stroke:#000000;stroke-width:1;stroke-linecap:butt;stroke-linejoin:miter;stroke-miterlimit:4;stroke-dasharray:2, 2;stroke-dashoffset:0;stroke-opacity:1" />
  <path
     inkscape:connector-curvature="0"
     id="path901"
     d="M 345.61936,0.14252563 V 169.5274"
     style="fill:none;stroke:#000000;stroke-width:1;stroke-linecap:butt;stroke-linejoin:miter;stroke-miterlimit:4;stroke-dasharray:2, 2;stroke-dashoffset:0;stroke-opacity:1" />
  <path
     style="fill:none;stroke:#000000;stroke-width:1;stroke-linecap:butt;stroke-linejoin:miter;stroke-miterlimit:4;stroke-dasharray:2, 2;stroke-dashoffset:0;stroke-opacity:1"
     d="M 515.06824,0.14252663 V 169.5274"
     id="path903"
     inkscape:connector-curvature="0" />
  <g
     style="stroke-width:0.89025927"
     transform="matrix(1.2495337,0.15230295,-0.19501923,0.98599142,253.73168,-9.3444538)"
     id="g999">
    <path
       id="path955"
       inkscape:label="arc"
       sodipodi:type="arc"
       sodipodi:start="0"
       sodipodi:ry="4.5578375"
       sodipodi:rx="4.0956001"
       sodipodi:open="true"
       sodipodi:end="3.1415927"
       sodipodi:cy="170.09544"
       sodipodi:cx="58.407681"
       style="fill:none;stroke:#000000;stroke-width:0.89048254;stroke-linecap:round;stroke-linejoin:round;stroke-dasharray:none"
       d="m 62.503281,170.09544 a 4.0956001,4.5578375 0 0 1 -2.0478,3.94721 4.0956001,4.5578375 0 0 1 -4.095601,0 4.0956001,4.5578375 0 0 1 -2.0478,-3.94721"
       transform="matrix(0.98782551,-0.15556597,0.12421756,0.99225501,0,0)" />
    <path
       id="path957"
       inkscape:label="arc"
       sodipodi:type="arc"
       sodipodi:start="0"
       sodipodi:ry="4.5578375"
       sodipodi:rx="4.0956001"
       sodipodi:open="true"
       sodipodi:end="3.1415927"
       sodipodi:cy="170.09544"
       sodipodi:cx="66.598885"
       style="fill:none;stroke:#000000;stroke-width:0.89048254;stroke-linecap:round;stroke-linejoin:round;stroke-dasharray:none"
       d="m 70.694485,170.09544 a 4.0956001,4.5578375 0 0 1 -2.0478,3.94721 4.0956001,4.5578375 0 0 1 -4.095601,0 4.0956001,4.5578375 0 0 1 -2.0478,-3.94721"
       transform="matrix(0.98782551,-0.15556597,0.12421756,0.99225501,0,0)" />
    <path
       id="path959"
       inkscape:label="arc"
       sodipodi:type="arc"
       sodipodi:start="0"
       sodipodi:ry="4.5578375"
       sodipodi:rx="4.0956001"
       sodipodi:open="true"
       sodipodi:end="3.1415927"
       sodipodi:cy="170.09544"
       sodipodi:cx="74.790077"
       style="fill:none;stroke:#000000;stroke-width:0.89048254;stroke-linecap:round;stroke-linejoin:round;stroke-dasharray:none"
       d="m 78.885677,170.09544 a 4.0956001,4.5578375 0 0 1 -2.0478,3.94721 4.0956001,4.5578375 0 0 1 -4.0956,0 4.0956001,4.5578375 0 0 1 -2.0478,-3.94721"
       transform="matrix(0.98782551,-0.15556597,0.12421756,0.99225501,0,0)" />
    <path
       id="path961"
       inkscape:label="arc"
       sodipodi:type="arc"
       sodipodi:start="0"
       sodipodi:ry="4.5578375"
       sodipodi:rx="4.0956001"
       sodipodi:open="true"
       sodipodi:end="3.1415927"
       sodipodi:cy="170.09544"
       sodipodi:cx="82.98127"
       style="fill:none;stroke:#000000;stroke-width:0.89048254;stroke-linecap:round;stroke-linejoin:round;stroke-dasharray:none"
       d="m 87.07687,170.09544 a 4.0956001,4.5578375 0 0 1 -2.0478,3.94721 4.0956001,4.5578375 0 0 1 -4.0956,0 4.0956001,4.5578375 0 0 1 -2.0478,-3.94721"
       transform="matrix(0.98782551,-0.15556597,0.12421756,0.99225501,0,0)" />
    <path
       d="m 95.418056,170.1447 a 4.0956001,4.5578375 0 0 1 -2.0478,3.9472 4.0956001,4.5578375 0 0 1 -4.0956,0 4.0956001,4.5578375 0 0 1 -2.0478,-3.9472"
       style="fill:none;stroke:#000000;stroke-width:0.89048254;stroke-linecap:round;stroke-linejoin:round;stroke-dasharray:none"
       sodipodi:cx="91.322456"
       sodipodi:cy="170.1447"
       sodipodi:end="3.1415927"
       sodipodi:open="true"
       sodipodi:rx="4.0956001"
       sodipodi:ry="4.5578375"
       sodipodi:start="0"
       sodipodi:type="arc"
       inkscape:label="arc"
       id="path963"
       transform="matrix(0.98782551,-0.15556597,0.12421756,0.99225501,0,0)" />
    <path
       d="m 103.60925,170.1447 a 4.0956001,4.5578375 0 0 1 -2.0478,3.9472 4.0956001,4.5578375 0 0 1 -4.095601,0 4.0956001,4.5578375 0 0 1 -2.0478,-3.9472"
       style="fill:none;stroke:#000000;stroke-width:0.89048254;stroke-linecap:round;stroke-linejoin:round;stroke-dasharray:none"
       sodipodi:cx="99.513649"
       sodipodi:cy="170.1447"
       sodipodi:end="3.1415927"
       sodipodi:open="true"
       sodipodi:rx="4.0956001"
       sodipodi:ry="4.5578375"
       sodipodi:start="0"
       sodipodi:type="arc"
       inkscape:label="arc"
       id="path965"
       transform="matrix(0.98782551,-0.15556597,0.12421756,0.99225501,0,0)" />
    <path
       d="m 111.80046,170.1447 a 4.0956001,4.5578375 0 0 1 -2.0478,3.9472 4.0956001,4.5578375 0 0 1 -4.0956,0 4.0956001,4.5578375 0 0 1 -2.0478,-3.9472"
       style="fill:none;stroke:#000000;stroke-width:0.89048254;stroke-linecap:round;stroke-linejoin:round;stroke-dasharray:none"
       sodipodi:cx="107.70486"
       sodipodi:cy="170.1447"
       sodipodi:end="3.1415927"
       sodipodi:open="true"
       sodipodi:rx="4.0956001"
       sodipodi:ry="4.5578375"
       sodipodi:start="0"
       sodipodi:type="arc"
       inkscape:label="arc"
       id="path967"
       transform="matrix(0.98782551,-0.15556597,0.12421756,0.99225501,0,0)" />
    <path
       d="m 119.99166,170.1447 a 4.0956001,4.5578375 0 0 1 -2.0478,3.9472 4.0956001,4.5578375 0 0 1 -4.0956,0 4.0956001,4.5578375 0 0 1 -2.0478,-3.9472"
       style="fill:none;stroke:#000000;stroke-width:0.89048254;stroke-linecap:round;stroke-linejoin:round;stroke-dasharray:none"
       sodipodi:cx="115.89606"
       sodipodi:cy="170.1447"
       sodipodi:end="3.1415927"
       sodipodi:open="true"
       sodipodi:rx="4.0956001"
       sodipodi:ry="4.5578375"
       sodipodi:start="0"
       sodipodi:type="arc"
       inkscape:label="arc"
       id="path969"
       transform="matrix(0.98782551,-0.15556597,0.12421756,0.99225501,0,0)" />
    <path
       d="m 128.29494,170.09544 a 4.0956001,4.5578375 0 0 1 -2.0478,3.94721 4.0956001,4.5578375 0 0 1 -4.0956,0 4.0956001,4.5578375 0 0 1 -2.0478,-3.94721"
       style="fill:none;stroke:#000000;stroke-width:0.89048254;stroke-linecap:round;stroke-linejoin:round;stroke-dasharray:none"
       sodipodi:cx="124.19934"
       sodipodi:cy="170.09544"
       sodipodi:end="3.1415927"
       sodipodi:open="true"
       sodipodi:rx="4.0956001"
       sodipodi:ry="4.5578375"
       sodipodi:start="0"
       sodipodi:type="arc"
       inkscape:label="arc"
       id="path971"
       transform="matrix(0.98782551,-0.15556597,0.12421756,0.99225501,0,0)" />
    <path
       d="m 136.48615,170.09544 a 4.0956001,4.5578375 0 0 1 -2.0478,3.94721 4.0956001,4.5578375 0 0 1 -4.0956,0 4.0956001,4.5578375 0 0 1 -2.0478,-3.94721"
       style="fill:none;stroke:#000000;stroke-width:0.89048254;stroke-linecap:round;stroke-linejoin:round;stroke-dasharray:none"
       sodipodi:cx="132.39055"
       sodipodi:cy="170.09544"
       sodipodi:end="3.1415927"
       sodipodi:open="true"
       sodipodi:rx="4.0956001"
       sodipodi:ry="4.5578375"
       sodipodi:start="0"
       sodipodi:type="arc"
       inkscape:label="arc"
       id="path973"
       transform="matrix(0.98782551,-0.15556597,0.12421756,0.99225501,0,0)" />
    <path
       d="m 144.67734,170.09544 a 4.0956001,4.5578375 0 0 1 -2.0478,3.94721 4.0956001,4.5578375 0 0 1 -4.0956,0 4.0956001,4.5578375 0 0 1 -2.0478,-3.94721"
       style="fill:none;stroke:#000000;stroke-width:0.89048254;stroke-linecap:round;stroke-linejoin:round;stroke-dasharray:none"
       sodipodi:cx="140.58174"
       sodipodi:cy="170.09544"
       sodipodi:end="3.1415927"
       sodipodi:open="true"
       sodipodi:rx="4.0956001"
       sodipodi:ry="4.5578375"
       sodipodi:start="0"
       sodipodi:type="arc"
       inkscape:label="arc"
       id="path975"
       transform="matrix(0.98782551,-0.15556597,0.12421756,0.99225501,0,0)" />
    <path
       d="m 152.86853,170.09544 a 4.0956001,4.5578375 0 0 1 -2.0478,3.94721 4.0956001,4.5578375 0 0 1 -4.0956,0 4.0956001,4.5578375 0 0 1 -2.0478,-3.94721"
       style="fill:none;stroke:#000000;stroke-width:0.89048254;stroke-linecap:round;stroke-linejoin:round;stroke-dasharray:none"
       sodipodi:cx="148.77293"
       sodipodi:cy="170.09544"
       sodipodi:end="3.1415927"
       sodipodi:open="true"
       sodipodi:rx="4.0956001"
       sodipodi:ry="4.5578375"
       sodipodi:start="0"
       sodipodi:type="arc"
       inkscape:label="arc"
       id="path977"
       transform="matrix(0.98782551,-0.15556597,0.12421756,0.99225501,0,0)" />
    <path
       id="path979"
       inkscape:label="arc"
       sodipodi:type="arc"
       sodipodi:start="0"
       sodipodi:ry="4.5578375"
       sodipodi:rx="4.0956001"
       sodipodi:open="true"
       sodipodi:end="3.1415927"
       sodipodi:cy="170.1447"
       sodipodi:cx="157.11414"
       style="fill:none;stroke:#000000;stroke-width:0.89048254;stroke-linecap:round;stroke-linejoin:round;stroke-dasharray:none"
       d="m 161.20974,170.1447 a 4.0956001,4.5578375 0 0 1 -2.0478,3.9472 4.0956001,4.5578375 0 0 1 -4.0956,0 4.0956001,4.5578375 0 0 1 -2.0478,-3.9472"
       transform="matrix(0.98782551,-0.15556597,0.12421756,0.99225501,0,0)" />
    <path
       id="path981"
       inkscape:label="arc"
       sodipodi:type="arc"
       sodipodi:start="0"
       sodipodi:ry="4.5578375"
       sodipodi:rx="4.0956001"
       sodipodi:open="true"
       sodipodi:end="3.1415927"
       sodipodi:cy="170.1447"
       sodipodi:cx="165.30536"
       style="fill:none;stroke:#000000;stroke-width:0.89048254;stroke-linecap:round;stroke-linejoin:round;stroke-dasharray:none"
       d="m 169.40096,170.1447 a 4.0956001,4.5578375 0 0 1 -2.0478,3.9472 4.0956001,4.5578375 0 0 1 -4.0956,0 4.0956001,4.5578375 0 0 1 -2.0478,-3.9472"
       transform="matrix(0.98782551,-0.15556597,0.12421756,0.99225501,0,0)" />
    <path
       id="path983"
       inkscape:label="arc"
       sodipodi:type="arc"
       sodipodi:start="0"
       sodipodi:ry="4.5578375"
       sodipodi:rx="4.0956001"
       sodipodi:open="true"
       sodipodi:end="3.1415927"
       sodipodi:cy="170.1447"
       sodipodi:cx="173.49655"
       style="fill:none;stroke:#000000;stroke-width:0.89048254;stroke-linecap:round;stroke-linejoin:round;stroke-dasharray:none"
       d="m 177.59215,170.1447 a 4.0956001,4.5578375 0 0 1 -2.0478,3.9472 4.0956001,4.5578375 0 0 1 -4.0956,0 4.0956001,4.5578375 0 0 1 -2.0478,-3.9472"
       transform="matrix(0.98782551,-0.15556597,0.12421756,0.99225501,0,0)" />
    <path
       id="path985"
       inkscape:label="arc"
       sodipodi:type="arc"
       sodipodi:start="0"
       sodipodi:ry="4.5578375"
       sodipodi:rx="4.0956001"
       sodipodi:open="true"
       sodipodi:end="3.1415927"
       sodipodi:cy="170.1447"
       sodipodi:cx="181.68773"
       style="fill:none;stroke:#000000;stroke-width:0.89048254;stroke-linecap:round;stroke-linejoin:round;stroke-dasharray:none"
       d="m 185.78333,170.1447 a 4.0956001,4.5578375 0 0 1 -2.0478,3.9472 4.0956001,4.5578375 0 0 1 -4.0956,0 4.0956001,4.5578375 0 0 1 -2.0478,-3.9472"
       transform="matrix(0.98782551,-0.15556597,0.12421756,0.99225501,0,0)" />
    <path
       id="path987"
       inkscape:label="arc"
       sodipodi:type="arc"
       sodipodi:start="0"
       sodipodi:ry="4.5578375"
       sodipodi:rx="4.0956001"
       sodipodi:open="true"
       sodipodi:end="3.1415927"
       sodipodi:cy="170.09544"
       sodipodi:cx="190.11899"
       style="fill:none;stroke:#000000;stroke-width:0.89048254;stroke-linecap:round;stroke-linejoin:round;stroke-dasharray:none"
       d="m 194.21459,170.09544 a 4.0956001,4.5578375 0 0 1 -2.0478,3.94721 4.0956001,4.5578375 0 0 1 -4.0956,0 4.0956001,4.5578375 0 0 1 -2.0478,-3.94721"
       transform="matrix(0.98782551,-0.15556597,0.12421756,0.99225501,0,0)" />
    <path
       id="path989"
       inkscape:label="arc"
       sodipodi:type="arc"
       sodipodi:start="0"
       sodipodi:ry="4.5578375"
       sodipodi:rx="4.0956001"
       sodipodi:open="true"
       sodipodi:end="3.1415927"
       sodipodi:cy="170.09544"
       sodipodi:cx="198.31024"
       style="fill:none;stroke:#000000;stroke-width:0.89048254;stroke-linecap:round;stroke-linejoin:round;stroke-dasharray:none"
       d="m 202.40584,170.09544 a 4.0956001,4.5578375 0 0 1 -2.0478,3.94721 4.0956001,4.5578375 0 0 1 -4.0956,0 4.0956001,4.5578375 0 0 1 -2.0478,-3.94721"
       transform="matrix(0.98782551,-0.15556597,0.12421756,0.99225501,0,0)" />
    <path
       d="m 210.747,170.1447 a 4.0956001,4.5578375 0 0 1 -2.0478,3.9472 4.0956001,4.5578375 0 0 1 -4.0956,0 4.0956001,4.5578375 0 0 1 -2.0478,-3.9472"
       style="fill:none;stroke:#000000;stroke-width:0.89048254;stroke-linecap:round;stroke-linejoin:round;stroke-dasharray:none"
       sodipodi:cx="206.6514"
       sodipodi:cy="170.1447"
       sodipodi:end="3.1415927"
       sodipodi:open="true"
       sodipodi:rx="4.0956001"
       sodipodi:ry="4.5578375"
       sodipodi:start="0"
       sodipodi:type="arc"
       inkscape:label="arc"
       id="path991"
       transform="matrix(0.98782551,-0.15556597,0.12421756,0.99225501,0,0)" />
    <path
       d="m 218.93821,170.1447 a 4.0956001,4.5578375 0 0 1 -2.0478,3.9472 4.0956001,4.5578375 0 0 1 -4.0956,0 4.0956001,4.5578375 0 0 1 -2.0478,-3.9472"
       style="fill:none;stroke:#000000;stroke-width:0.89048254;stroke-linecap:round;stroke-linejoin:round;stroke-dasharray:none"
       sodipodi:cx="214.84261"
       sodipodi:cy="170.1447"
       sodipodi:end="3.1415927"
       sodipodi:open="true"
       sodipodi:rx="4.0956001"
       sodipodi:ry="4.5578375"
       sodipodi:start="0"
       sodipodi:type="arc"
       inkscape:label="arc"
       id="path993"
       transform="matrix(0.98782551,-0.15556597,0.12421756,0.99225501,0,0)" />
    <path
       d="m 227.12941,170.1447 a 4.0956001,4.5578375 0 0 1 -2.0478,3.9472 4.0956001,4.5578375 0 0 1 -4.0956,0 4.0956001,4.5578375 0 0 1 -2.0478,-3.9472"
       style="fill:none;stroke:#000000;stroke-width:0.89048254;stroke-linecap:round;stroke-linejoin:round;stroke-dasharray:none"
       sodipodi:cx="223.03381"
       sodipodi:cy="170.1447"
       sodipodi:end="3.1415927"
       sodipodi:open="true"
       sodipodi:rx="4.0956001"
       sodipodi:ry="4.5578375"
       sodipodi:start="0"
       sodipodi:type="arc"
       inkscape:label="arc"
       id="path995"
       transform="matrix(0.98782551,-0.15556597,0.12421756,0.99225501,0,0)" />
    <path
       d="m 235.32062,170.1447 a 4.0956001,4.5578375 0 0 1 -2.0478,3.9472 4.0956001,4.5578375 0 0 1 -4.0956,0 4.0956001,4.5578375 0 0 1 -2.0478,-3.9472"
       style="fill:none;stroke:#000000;stroke-width:0.89048254;stroke-linecap:round;stroke-linejoin:round;stroke-dasharray:none"
       sodipodi:cx="231.22502"
       sodipodi:cy="170.1447"
       sodipodi:end="3.1415927"
       sodipodi:open="true"
       sodipodi:rx="4.0956001"
       sodipodi:ry="4.5578375"
       sodipodi:start="0"
       sodipodi:type="arc"
       inkscape:label="arc"
       id="path997"
       transform="matrix(0.98782551,-0.15556597,0.12421756,0.99225501,0,0)" />
  </g>
</svg>
