<?xml version="1.0" encoding="UTF-8" standalone="no"?>
<!-- Created with Inkscape (http://www.inkscape.org/) -->

<svg
   xmlns:dc="http://purl.org/dc/elements/1.1/"
   xmlns:cc="http://creativecommons.org/ns#"
   xmlns:rdf="http://www.w3.org/1999/02/22-rdf-syntax-ns#"
   xmlns:svg="http://www.w3.org/2000/svg"
   xmlns="http://www.w3.org/2000/svg"
   xmlns:sodipodi="http://sodipodi.sourceforge.net/DTD/sodipodi-0.dtd"
   xmlns:inkscape="http://www.inkscape.org/namespaces/inkscape"
   width="396.72498mm"
   height="280.50888mm"
   viewBox="0 0 396.72498 280.50888"
   version="1.1"
   id="svg8"
   inkscape:version="0.92.2 5c3e80d, 2017-08-06"
   sodipodi:docname="ComplexTopology.svg">
  <defs
     id="defs2" />
  <sodipodi:namedview
     id="base"
     pagecolor="#ffffff"
     bordercolor="#666666"
     borderopacity="1.0"
     inkscape:pageopacity="0.0"
     inkscape:pageshadow="2"
     inkscape:zoom="0.49497475"
     inkscape:cx="614.18511"
     inkscape:cy="503.30554"
     inkscape:document-units="mm"
     inkscape:current-layer="layer1"
     showgrid="false"
     inkscape:window-width="1440"
     inkscape:window-height="789"
     inkscape:window-x="0"
     inkscape:window-y="1"
     inkscape:window-maximized="1" />
  <metadata
     id="metadata5">
    <rdf:RDF>
      <cc:Work
         rdf:about="">
        <dc:format>image/svg+xml</dc:format>
        <dc:type
           rdf:resource="http://purl.org/dc/dcmitype/StillImage" />
        <dc:title />
      </cc:Work>
    </rdf:RDF>
  </metadata>
  <g
     inkscape:label="Layer 1"
     inkscape:groupmode="layer"
     id="layer1"
     transform="translate(151.32694,19.890844)">
    <path
       style="fill:#e6e6e6;stroke:#000000;stroke-width:0.26458332px;stroke-linecap:butt;stroke-linejoin:miter;stroke-opacity:1"
       d="m 33.261905,231.23214 c 29.482143,2.26786 36.285712,-31.75 61.232142,-37.04167 24.946423,-5.29166 37.041663,30.99405 58.208333,34.77381 21.16667,3.77976 98.27381,-65.0119 92.22619,-106.58928 -6.04762,-41.577381 -66.52381,-45.357145 -83.91071,-60.47619 -17.38691,-15.119049 -17.38691,-68.0357148 -59.72024,-77.863096 -42.333336,-9.82738 -111.880953,-0.755952 -130.779762,29.482143 -18.898809,30.238095 21.9226182,71.815477 0.755952,89.202383 -21.166667,17.3869 -123.22024,34.01785 -122.46428,74.83928 0.75595,40.82143 34.01785,73.32738 73.327377,81.64286 39.309521,8.31547 83.910712,-26.45834 111.124998,-27.97024 z"
       id="path812"
       inkscape:connector-curvature="0" />
    <flowRoot
       xml:space="preserve"
       id="flowRoot814"
       style="font-style:normal;font-weight:normal;font-size:40px;line-height:1.25;font-family:sans-serif;letter-spacing:0px;word-spacing:0px;fill:#000000;fill-opacity:1;stroke:none"
       transform="matrix(0.26458333,0,0,0.26458333,25.702381,-11.339286)"><flowRegion
         id="flowRegion816"><rect
           id="rect818"
           width="600"
           height="228.57143"
           x="208.57143"
           y="245.37683" /></flowRegion><flowPara
         id="flowPara820">$A$</flowPara></flowRoot>    <path
       style="opacity:1;fill:#000000;fill-opacity:1;fill-rule:nonzero;stroke:none;stroke-width:1;stroke-linecap:round;stroke-linejoin:miter;stroke-miterlimit:4;stroke-dasharray:none;stroke-dashoffset:0;stroke-opacity:1"
       d="m 108.85668,145.99233 a 2.8406911,2.8406911 0 0 0 -2.83998,2.84094 2.8406911,2.8406911 0 0 0 2.83998,2.84098 2.8406911,2.8406911 0 0 0 2.84098,-2.84098 2.8406911,2.8406911 0 0 0 -2.84098,-2.84094 z"
       id="path822"
       inkscape:connector-curvature="0" />
    <flowRoot
       xml:space="preserve"
       id="flowRoot825"
       style="font-style:normal;font-weight:normal;font-size:40px;line-height:1.25;font-family:sans-serif;letter-spacing:0px;word-spacing:0px;fill:#000000;fill-opacity:1;stroke:none"
       transform="matrix(0.26458333,0,0,0.26458333,-1.1066849,4.2010989)"><flowRegion
         id="flowRegion827"><rect
           id="rect829"
           width="296.98486"
           height="141.42136"
           x="440.42651"
           y="593.19977" /></flowRegion><flowPara
         id="flowPara831">$x$</flowPara></flowRoot>    <circle
       style="opacity:1;fill:none;fill-opacity:1;fill-rule:nonzero;stroke:#000000;stroke-width:1;stroke-linecap:round;stroke-linejoin:miter;stroke-miterlimit:4;stroke-dasharray:none;stroke-dashoffset:0;stroke-opacity:1"
       id="path833"
       cx="108.77333"
       cy="148.68147"
       r="12.428033" />
    <path
       inkscape:connector-curvature="0"
       id="path847"
       d="m 211.48818,18.981584 a 2.8406911,2.8406911 0 0 0 -2.83998,2.84094 2.8406911,2.8406911 0 0 0 2.83998,2.84098 2.8406911,2.8406911 0 0 0 2.84098,-2.84098 2.8406911,2.8406911 0 0 0 -2.84098,-2.84094 z"
       style="opacity:1;fill:#000000;fill-opacity:1;fill-rule:nonzero;stroke:none;stroke-width:1;stroke-linecap:round;stroke-linejoin:miter;stroke-miterlimit:4;stroke-dasharray:none;stroke-dashoffset:0;stroke-opacity:1" />
    <flowRoot
       transform="matrix(0.26458333,0,0,0.26458333,101.52481,-122.80969)"
       style="font-style:normal;font-weight:normal;font-size:40px;line-height:1.25;font-family:sans-serif;letter-spacing:0px;word-spacing:0px;fill:#000000;fill-opacity:1;stroke:none"
       id="flowRoot855"
       xml:space="preserve"><flowRegion
         id="flowRegion851"><rect
           y="593.19977"
           x="440.42651"
           height="141.42136"
           width="296.98486"
           id="rect849" /></flowRegion><flowPara
         id="flowPara853">$x'$</flowPara></flowRoot>    <circle
       r="12.428033"
       cy="21.670755"
       cx="211.40483"
       id="circle857"
       style="opacity:1;fill:none;fill-opacity:1;fill-rule:nonzero;stroke:#000000;stroke-width:1;stroke-linecap:round;stroke-linejoin:miter;stroke-miterlimit:4;stroke-dasharray:none;stroke-dashoffset:0;stroke-opacity:1" />
  </g>
</svg>
