<?xml version="1.0" encoding="UTF-8" standalone="no"?>
<!-- Created with Inkscape (http://www.inkscape.org/) -->

<svg
   xmlns:dc="http://purl.org/dc/elements/1.1/"
   xmlns:cc="http://creativecommons.org/ns#"
   xmlns:rdf="http://www.w3.org/1999/02/22-rdf-syntax-ns#"
   xmlns:svg="http://www.w3.org/2000/svg"
   xmlns="http://www.w3.org/2000/svg"
   xmlns:sodipodi="http://sodipodi.sourceforge.net/DTD/sodipodi-0.dtd"
   xmlns:inkscape="http://www.inkscape.org/namespaces/inkscape"
   width="58.838909mm"
   height="101.01424mm"
   viewBox="0 0 58.838909 101.01424"
   version="1.1"
   id="svg8"
   inkscape:version="0.92.2 5c3e80d, 2017-08-06"
   sodipodi:docname="triplet.svg">
  <sodipodi:namedview
     id="base"
     pagecolor="#ffffff"
     bordercolor="#666666"
     borderopacity="1.0"
     inkscape:pageopacity="0.0"
     inkscape:pageshadow="2"
     inkscape:zoom="0.49497475"
     inkscape:cx="17.047029"
     inkscape:cy="195.30251"
     inkscape:document-units="mm"
     inkscape:current-layer="svg8"
     showgrid="false"
     inkscape:window-width="1440"
     inkscape:window-height="789"
     inkscape:window-x="0"
     inkscape:window-y="1"
     inkscape:window-maximized="1" />
  <defs
     id="defs2" />
  <metadata
     id="metadata5">
    <rdf:RDF>
      <cc:Work
         rdf:about="">
        <dc:format>image/svg+xml</dc:format>
        <dc:type
           rdf:resource="http://purl.org/dc/dcmitype/StillImage" />
        <dc:title />
      </cc:Work>
    </rdf:RDF>
  </metadata>
  <g
     inkscape:label="Layer 1"
     inkscape:groupmode="layer"
     id="layer1"
     transform="translate(-81.668212,-99.492879)" />
  <g
     id="g847"
     inkscape:label="Resistor"
     transform="translate(-81.668212,-99.492879)">
    <g
       id="g841">
      <path
         id="path839"
         inkscape:label="none"
         style="fill:none;stroke:#000000;stroke-width:1;stroke-linecap:round;stroke-linejoin:round;stroke-dasharray:none"
         d="m 90,150 h 15.5 l 2,3 3,-6 3,6 3,-6 3,6 3,-6 2,3 H 140"
         inkscape:connector-curvature="0" />
    </g>
    <text
       id="text845"
       transform="translate(115,143.66667)"
       xml:space="preserve"
       y="0"
       x="0"
       style="font-style:normal;font-weight:normal;font-size:6.57894754px;line-height:100%;font-family:Sans;text-align:center;letter-spacing:0px;word-spacing:0px;text-anchor:middle;fill:#000000;fill-opacity:1;stroke:none"><tspan
         id="tspan843"
         sodipodi:role="line"
         y="0"
         x="-2.2351742e-08">$R$</tspan></text>
  </g>
  <g
     transform="rotate(-90,-0.58054528,141.08767)"
     inkscape:label="Inductro"
     id="g885">
    <g
       inkscape:label="Inductro"
       id="g879">
      <path
         inkscape:connector-curvature="0"
         d="m 90,150 h 13"
         style="fill:none;stroke:#000000;stroke-width:1;stroke-linecap:round;stroke-linejoin:round;stroke-dasharray:none"
         inkscape:label="none"
         id="path867" />
      <path
         inkscape:connector-curvature="0"
         d="M 140,150 H 127"
         style="fill:none;stroke:#000000;stroke-width:1;stroke-linecap:round;stroke-linejoin:round;stroke-dasharray:none"
         inkscape:label="none"
         id="path869" />
      <path
         d="m 109,150 a 3,3 0 0 1 -1.5,2.59808 3,3 0 0 1 -3,0 A 3,3 0 0 1 103,150"
         style="fill:none;stroke:#000000;stroke-width:1;stroke-linecap:round;stroke-linejoin:round;stroke-dasharray:none"
         sodipodi:cx="106"
         sodipodi:cy="150"
         sodipodi:end="3.1415927"
         sodipodi:open="true"
         sodipodi:rx="3"
         sodipodi:ry="3"
         sodipodi:start="0"
         sodipodi:type="arc"
         inkscape:label="arc"
         id="path871" />
      <path
         d="m 115,150 a 3,3 0 0 1 -1.5,2.59808 3,3 0 0 1 -3,0 A 3,3 0 0 1 109,150"
         style="fill:none;stroke:#000000;stroke-width:1;stroke-linecap:round;stroke-linejoin:round;stroke-dasharray:none"
         sodipodi:cx="112"
         sodipodi:cy="150"
         sodipodi:end="3.1415927"
         sodipodi:open="true"
         sodipodi:rx="3"
         sodipodi:ry="3"
         sodipodi:start="0"
         sodipodi:type="arc"
         inkscape:label="arc"
         id="path873" />
      <path
         d="m 121,150 a 3,3 0 0 1 -1.5,2.59808 3,3 0 0 1 -3,0 A 3,3 0 0 1 115,150"
         style="fill:none;stroke:#000000;stroke-width:1;stroke-linecap:round;stroke-linejoin:round;stroke-dasharray:none"
         sodipodi:cx="118"
         sodipodi:cy="150"
         sodipodi:end="3.1415927"
         sodipodi:open="true"
         sodipodi:rx="3"
         sodipodi:ry="3"
         sodipodi:start="0"
         sodipodi:type="arc"
         inkscape:label="arc"
         id="path875" />
      <path
         d="m 127,150 a 3,3 0 0 1 -1.5,2.59808 3,3 0 0 1 -3,0 A 3,3 0 0 1 121,150"
         style="fill:none;stroke:#000000;stroke-width:1;stroke-linecap:round;stroke-linejoin:round;stroke-dasharray:none"
         sodipodi:cx="124"
         sodipodi:cy="150"
         sodipodi:end="3.1415927"
         sodipodi:open="true"
         sodipodi:rx="3"
         sodipodi:ry="3"
         sodipodi:start="0"
         sodipodi:type="arc"
         inkscape:label="arc"
         id="path877" />
    </g>
    <text
       style="font-style:normal;font-weight:normal;font-size:6.57894754px;line-height:100%;font-family:Sans;text-align:center;letter-spacing:0px;word-spacing:0px;text-anchor:middle;fill:#000000;fill-opacity:1;stroke:none"
       x="0"
       y="0"
       xml:space="preserve"
       transform="translate(115,146.66667)"
       id="text883"><tspan
         x="-2.1094456e-07"
         y="0"
         sodipodi:role="line"
         id="tspan881">$L$</tspan></text>
  </g>
  <g
     id="g943"
     transform="rotate(90,98.912333,59.419455)"
     inkscape:label="Inductro">
    <g
       id="g937"
       inkscape:label="Inductro">
      <path
         id="path925"
         inkscape:label="none"
         style="fill:none;stroke:#000000;stroke-width:1;stroke-linecap:round;stroke-linejoin:round;stroke-dasharray:none"
         d="m 90,150 h 13"
         inkscape:connector-curvature="0" />
      <path
         id="path927"
         inkscape:label="none"
         style="fill:none;stroke:#000000;stroke-width:1;stroke-linecap:round;stroke-linejoin:round;stroke-dasharray:none"
         d="M 140,150 H 127"
         inkscape:connector-curvature="0" />
      <path
         id="path929"
         inkscape:label="arc"
         sodipodi:type="arc"
         sodipodi:start="0"
         sodipodi:ry="3"
         sodipodi:rx="3"
         sodipodi:open="true"
         sodipodi:end="3.1415927"
         sodipodi:cy="150"
         sodipodi:cx="106"
         style="fill:none;stroke:#000000;stroke-width:1;stroke-linecap:round;stroke-linejoin:round;stroke-dasharray:none"
         d="m 109,150 a 3,3 0 0 1 -1.5,2.59808 3,3 0 0 1 -3,0 A 3,3 0 0 1 103,150" />
      <path
         id="path931"
         inkscape:label="arc"
         sodipodi:type="arc"
         sodipodi:start="0"
         sodipodi:ry="3"
         sodipodi:rx="3"
         sodipodi:open="true"
         sodipodi:end="3.1415927"
         sodipodi:cy="150"
         sodipodi:cx="112"
         style="fill:none;stroke:#000000;stroke-width:1;stroke-linecap:round;stroke-linejoin:round;stroke-dasharray:none"
         d="m 115,150 a 3,3 0 0 1 -1.5,2.59808 3,3 0 0 1 -3,0 A 3,3 0 0 1 109,150" />
      <path
         id="path933"
         inkscape:label="arc"
         sodipodi:type="arc"
         sodipodi:start="0"
         sodipodi:ry="3"
         sodipodi:rx="3"
         sodipodi:open="true"
         sodipodi:end="3.1415927"
         sodipodi:cy="150"
         sodipodi:cx="118"
         style="fill:none;stroke:#000000;stroke-width:1;stroke-linecap:round;stroke-linejoin:round;stroke-dasharray:none"
         d="m 121,150 a 3,3 0 0 1 -1.5,2.59808 3,3 0 0 1 -3,0 A 3,3 0 0 1 115,150" />
      <path
         id="path935"
         inkscape:label="arc"
         sodipodi:type="arc"
         sodipodi:start="0"
         sodipodi:ry="3"
         sodipodi:rx="3"
         sodipodi:open="true"
         sodipodi:end="3.1415927"
         sodipodi:cy="150"
         sodipodi:cx="124"
         style="fill:none;stroke:#000000;stroke-width:1;stroke-linecap:round;stroke-linejoin:round;stroke-dasharray:none"
         d="m 127,150 a 3,3 0 0 1 -1.5,2.59808 3,3 0 0 1 -3,0 A 3,3 0 0 1 121,150" />
    </g>
    <text
       id="text941"
       transform="translate(115,146.66667)"
       xml:space="preserve"
       y="0"
       x="0"
       style="font-style:normal;font-weight:normal;font-size:6.57894754px;line-height:100%;font-family:Sans;text-align:center;letter-spacing:0px;word-spacing:0px;text-anchor:middle;fill:#000000;fill-opacity:1;stroke:none"><tspan
         id="tspan939"
         sodipodi:role="line"
         y="0"
         x="-1.9837171e-07">$C$</tspan></text>
  </g>
</svg>
