<?xml version="1.0" encoding="UTF-8" standalone="no"?>
<!-- Created with Inkscape (http://www.inkscape.org/) -->

<svg
   xmlns:dc="http://purl.org/dc/elements/1.1/"
   xmlns:cc="http://creativecommons.org/ns#"
   xmlns:rdf="http://www.w3.org/1999/02/22-rdf-syntax-ns#"
   xmlns:svg="http://www.w3.org/2000/svg"
   xmlns="http://www.w3.org/2000/svg"
   xmlns:sodipodi="http://sodipodi.sourceforge.net/DTD/sodipodi-0.dtd"
   xmlns:inkscape="http://www.inkscape.org/namespaces/inkscape"
   width="205.61823mm"
   height="188.75874mm"
   viewBox="0 0 205.61823 188.75874"
   version="1.1"
   id="svg8"
   inkscape:version="0.92.2 5c3e80d, 2017-08-06"
   sodipodi:docname="SingleG.svg">
  <sodipodi:namedview
     id="base"
     pagecolor="#ffffff"
     bordercolor="#666666"
     borderopacity="1.0"
     inkscape:pageopacity="0.0"
     inkscape:pageshadow="2"
     inkscape:zoom="0.24748737"
     inkscape:cx="508.36182"
     inkscape:cy="438.93474"
     inkscape:document-units="mm"
     inkscape:current-layer="svg8"
     showgrid="false"
     inkscape:window-width="1440"
     inkscape:window-height="789"
     inkscape:window-x="0"
     inkscape:window-y="1"
     inkscape:window-maximized="1" />
  <defs
     id="defs2">
    <marker
       inkscape:isstock="true"
       style="overflow:visible"
       id="Arrow1Lend"
       refX="0"
       refY="0"
       orient="auto"
       inkscape:stockid="Arrow1Lend">
      <path
         transform="matrix(-0.8,0,0,-0.8,-10,0)"
         style="fill:#000000;fill-opacity:1;fill-rule:evenodd;stroke:#000000;stroke-width:1.00000003pt;stroke-opacity:1"
         d="M 0,0 5,-5 -12.5,0 5,5 Z"
         id="path825"
         inkscape:connector-curvature="0" />
    </marker>
    <marker
       inkscape:stockid="ArrowAxisStart"
       style="overflow:visible"
       refY="0"
       refX="0"
       orient="auto"
       id="ArrowAxisStart">
      <path
         id="path1303"
         transform="matrix(0.4,0,0,0.4,3.5272,0)"
         style="fill:#000000;fill-rule:evenodd;stroke:#000000;stroke-width:1"
         d="M 0,0 5,-5 -12.5,0 5,5 Z"
         inkscape:connector-curvature="0" />
    </marker>
    <marker
       inkscape:stockid="ArrowAxisEnd"
       style="overflow:visible"
       refY="0"
       refX="0"
       orient="auto"
       id="ArrowAxisEnd">
      <path
         id="path1306"
         transform="matrix(-0.4,0,0,-0.4,-3.5272,0)"
         style="fill:#000000;fill-rule:evenodd;stroke:#000000;stroke-width:1"
         d="M 0,0 5,-5 -12.5,0 5,5 Z"
         inkscape:connector-curvature="0" />
    </marker>
  </defs>
  <metadata
     id="metadata5">
    <rdf:RDF>
      <cc:Work
         rdf:about="">
        <dc:format>image/svg+xml</dc:format>
        <dc:type
           rdf:resource="http://purl.org/dc/dcmitype/StillImage" />
        <dc:title />
      </cc:Work>
    </rdf:RDF>
  </metadata>
  <g
     id="layer1"
     inkscape:groupmode="layer"
     inkscape:label="Layer 1"
     transform="translate(-22.045165,-45.971313)">
    <path
       inkscape:connector-curvature="0"
       id="path812"
       d="m 44.60119,46.02381 v 85.42262"
       style="fill:none;stroke:#000000;stroke-width:0.60000002;stroke-linecap:butt;stroke-linejoin:miter;stroke-miterlimit:4;stroke-dasharray:none;stroke-opacity:1" />
    <path
       style="fill:none;stroke:#000000;stroke-width:0.60000002;stroke-linecap:butt;stroke-linejoin:miter;stroke-miterlimit:4;stroke-dasharray:none;stroke-opacity:1"
       d="m 44.60119,148.83333 v 85.42262"
       id="path814"
       inkscape:connector-curvature="0" />
    <path
       style="fill:none;stroke:#000000;stroke-width:0.60000008;stroke-linecap:butt;stroke-linejoin:miter;stroke-miterlimit:4;stroke-dasharray:none;stroke-opacity:1"
       d="M 129.26786,46.023812 V 148.83333"
       id="path816"
       inkscape:connector-curvature="0" />
    <path
       inkscape:connector-curvature="0"
       id="path818"
       d="m 129.26786,148.83333 v 85.42262"
       style="fill:none;stroke:#000000;stroke-width:0.60000002;stroke-linecap:butt;stroke-linejoin:miter;stroke-miterlimit:4;stroke-dasharray:none;stroke-opacity:1" />
    <path
       inkscape:connector-curvature="0"
       id="path820"
       d="m 43.089284,140.51785 85.422616,-31.75"
       style="fill:none;stroke:#000000;stroke-width:0.60000002;stroke-linecap:butt;stroke-linejoin:miter;stroke-miterlimit:4;stroke-dasharray:none;stroke-opacity:1;marker-end:url(#Arrow1Lend)" />
    <path
       inkscape:connector-curvature="0"
       id="path1104"
       d="M 43.089284,140.51785 H 126.24405"
       style="fill:none;stroke:#000000;stroke-width:0.60000002;stroke-linecap:butt;stroke-linejoin:miter;stroke-miterlimit:4;stroke-dasharray:0.6, 1.8;stroke-dashoffset:0;stroke-opacity:1" />
    <text
       id="text1108"
       y="139.00594"
       x="63.5"
       style="font-style:normal;font-weight:normal;font-size:10.58333302px;line-height:1.25;font-family:sans-serif;letter-spacing:0px;word-spacing:0px;fill:#000000;fill-opacity:1;stroke:none;stroke-width:0.26458332"
       xml:space="preserve"><tspan
         style="stroke-width:0.26458332"
         y="139.00594"
         x="63.5"
         id="tspan1106"
         sodipodi:role="line">$\theta_1$</tspan></text>
    <text
       id="text1112"
       y="141.65179"
       x="21.166666"
       style="font-style:normal;font-weight:normal;font-size:10.58333302px;line-height:1.25;font-family:sans-serif;letter-spacing:0px;word-spacing:0px;fill:#000000;fill-opacity:1;stroke:none;stroke-width:0.26458332"
       xml:space="preserve"><tspan
         style="stroke-width:0.26458332"
         y="141.65179"
         x="21.166666"
         id="tspan1110"
         sodipodi:role="line">$d$</tspan></text>
    <text
       id="text1116"
       y="55.851189"
       x="30.238094"
       style="font-style:normal;font-weight:normal;font-size:10.58333302px;line-height:1.25;font-family:sans-serif;letter-spacing:0px;word-spacing:0px;fill:#000000;fill-opacity:1;stroke:none;stroke-width:0.26458332"
       xml:space="preserve"><tspan
         style="stroke-width:0.26458332"
         y="55.851189"
         x="30.238094"
         id="tspan1114"
         sodipodi:role="line">$A$</tspan></text>
    <text
       xml:space="preserve"
       style="font-style:normal;font-weight:normal;font-size:10.58333302px;line-height:1.25;font-family:sans-serif;letter-spacing:0px;word-spacing:0px;fill:#000000;fill-opacity:1;stroke:none;stroke-width:0.26458332"
       x="30.238094"
       y="230.4762"
       id="text1120"><tspan
         sodipodi:role="line"
         id="tspan1118"
         x="30.238094"
         y="230.4762"
         style="stroke-width:0.26458332">$B$</tspan></text>
    <text
       id="text1124"
       y="123.88691"
       x="66.145836"
       style="font-style:normal;font-weight:normal;font-size:10.58333302px;line-height:1.25;font-family:sans-serif;letter-spacing:0px;word-spacing:0px;fill:#000000;fill-opacity:1;stroke:none;stroke-width:0.26458332"
       xml:space="preserve"><tspan
         style="stroke-width:0.26458332"
         y="123.88691"
         x="66.145836"
         id="tspan1122"
         sodipodi:role="line">$\+vp$</tspan></text>
  </g>
  <path
     inkscape:connector-curvature="0"
     d="m 106.58331,94.379357 h 95.8909"
     style="fill:none;stroke:#4c4c4c;stroke-width:1.42857146;stroke-linecap:round;stroke-linejoin:round;stroke-dasharray:none;marker-end:url(#ArrowAxisEnd)"
     inkscape:label="Yaxis"
     id="path1336" />
  <path
     inkscape:connector-curvature="0"
     d="m 106.5854,0.842065 0.17336,0.187261 0.17821,0.187261 0.17879,0.187262 0.17932,0.187258 0.17979,0.187262 0.18021,0.187261 0.18055,0.187262 0.18084,0.187269 0.18107,0.187262 0.18123,0.187262 0.18133,0.187261 0.18138,0.187262 0.18134,0.187262 0.18126,0.187262 0.18111,0.187261 0.1809,0.187262 0.18061,0.187262 0.18027,0.187261 0.17987,0.187262 0.17939,0.187262 0.17886,0.187262 0.17826,0.187261 0.1776,0.187262 0.17686,0.187262 0.17607,0.187261 0.17522,0.187262 0.17429,0.187262 0.1733,0.187262 0.17225,0.187261 0.17113,0.187262 0.16996,0.187262 0.1687,0.187261 0.1674,0.187262 0.16603,0.187262 0.16459,0.187262 0.1631,0.187261 0.16152,0.187262 0.1599,0.187262 0.15822,0.187261 0.15647,0.187262 0.15465,0.187262 0.15277,0.187269 0.15085,0.187254 0.14884,0.187262 0.14679,0.187262 0.14468,0.187261 0.14249,0.187262 0.14027,0.187269 0.13796,0.187262 0.13562,0.187262 0.1332,0.187261 0.13074,0.187255 0.12822,0.187261 0.12564,0.18727 0.123,0.187261 0.12032,0.187255 0.11757,0.187269 0.11478,0.187261 0.11193,0.187262 0.10904,0.187262 0.10607,0.187254 0.10308,0.187269 0.10003,0.187262 0.0969,0.187262 0.0938,0.187261 0.0906,0.187262 0.0874,0.187262 0.0841,0.187262 0.0807,0.187261 0.0774,0.187262 0.0739,0.187262 0.0705,0.187261 0.067,0.187262 0.0634,0.187262 0.0599,0.187262 0.0563,0.187261 0.0526,0.187262 0.0489,0.187262 0.0452,0.187261 0.0415,0.187262 0.0377,0.187262 0.0339,0.187262 0.03,0.187261 0.0261,0.187262 0.0223,0.187262 0.0183,0.187261 0.0144,0.187262 0.0103,0.187269 0.007,0.187262 0.002,0.187262 -0.001,0.187254 -0.006,0.187262 -0.01,0.187261 -0.0139,0.187262 -0.018,0.187262 -0.0222,0.187262 -0.0264,0.187269 -0.0305,0.187261 -0.0346,0.187262 -0.0388,0.187254 -0.043,0.187262 -0.0471,0.187262 -0.0514,0.187269 -0.0555,0.187262 -0.0597,0.187261 -0.064,0.187262 -0.0681,0.187262 -0.0723,0.187262 -0.0765,0.187261 -0.0807,0.187254 -0.0849,0.187262 -0.089,0.187269 -0.0932,0.187262 -0.0974,0.187262 -0.1015,0.187254 -0.10562,0.187262 -0.10974,0.187269 -0.11385,0.187262 -0.11791,0.187261 -0.12197,0.187262 -0.12602,0.187262 -0.13002,0.187262 -0.13402,0.187261 -0.13799,0.187262 -0.14194,0.187262 -0.14584,0.187261 -0.14973,0.187262 -0.15359,0.187262 -0.15741,0.187261 -0.16121,0.187262 -0.16496,0.187262 -0.16867,0.187262 -0.17236,0.187261 -0.17601,0.187262 -0.17961,0.187262 -0.18317,0.187261 -0.18668,0.187262 -0.19017,0.187262 -0.19359,0.187262 -0.19697,0.187261 -0.20031,0.187262 -0.20359,0.187262 -0.20681,0.187269 -0.21001,0.187262 -0.21312,0.187254 -0.2162,0.187262 -0.21922,0.187261 -0.22217,0.187262 -0.22506,0.187262 -0.22791,0.187261 -0.23068,0.187262 -0.2334,0.187269 -0.23604,0.187262 -0.23864,0.187254 -0.24115,0.187262 -0.24359,0.187262 -0.24599,0.187261 -0.2483,0.18727 -0.25054,0.187261 -0.25271,0.187262 -0.25481,0.187262 -0.25683,0.187261 -0.25878,0.187262 -0.26066,0.187254 -0.26244,0.187262 -0.26417,0.187269 -0.004,0.187262 0.26735,0.187262 0.26884,0.187261 0.27023,0.187262 0.27153,0.187262 0.27277,0.187262 0.27389,0.187261 0.27497,0.187262 0.27593,0.187262 0.27681,0.187261 0.2776,0.187262 0.27832,0.187262 0.27893,0.187262 0.27945,0.187261 0.27989,0.187262 0.28022,0.187262 0.28048,0.187261 0.28064,0.187262 0.2807,0.187262 0.28068,0.187262 0.28054,0.187261 0.28032,0.187262 0.28001,0.187262 0.27959,0.187261 0.27909,0.187262 0.27847,0.187269 0.27778,0.187255 0.27697,0.187261 0.27608,0.187262 0.27507,0.187262 0.27398,0.187261 0.27278,0.18727 0.27148,0.187261 0.27009,0.187255 0.2686,0.187269 0.26699,0.187254 0.2653,0.187262 0.26351,0.187261 0.26161,0.187262 0.25961,0.187262 0.25752,0.187269 0.25533,0.187262 0.25301,0.187261 0.25063,0.187262 0.24813,0.187254 0.24552,0.187262 0.24284,0.187269 0.24004,0.187262 0.23713,0.187262 0.23415,0.187261 0.23104,0.187262 0.22785,0.187262 0.22457,0.187262 0.22116,0.187261 0.21769,0.187262 0.2141,0.187262 0.21041,0.187261 0.20664,0.187262 0.20276,0.187262 0.1988,0.187262 0.19472,0.187261 0.19058,0.187262 0.18631,0.187262 0.18197,0.187261 0.17754,0.187262 0.173,0.187262 0.16839,0.187262 0.16368,0.187261 0.15887,0.187262 0.15399,0.187262 0.14901,0.187261 0.14395,0.187262 0.1388,0.187262 0.13357,0.187262 0.12825,0.187261 0.12284,0.187262 0.11737,0.187262 0.11179,0.187261 0.10616,0.187262 0.10042,0.187262 0.0946,0.187269 0.0888,0.187262 0.0828,0.187261 0.0768,0.187262 0.0707,0.187254 0.0645,0.187262 0.0582,0.187269 0.0519,0.187254 0.0456,0.187262 0.0391,0.187269 0.0325,0.187262 0.026,0.187262 0.0193,0.187262 0.0127,0.187254 0.006,0.187261 -7.5e-4,0.18727 -0.008,0.187261 -0.0148,0.187262 -0.0217,0.187262 -0.0288,0.187262 -0.0359,0.187261 -0.043,0.187262 -0.0503,0.187262 -0.0575,0.187261 -0.0648,0.187262 -0.0721,0.187262 -0.0795,0.187262 -0.0869,0.187261 -0.0943,0.187262 -0.10181,0.187262 -0.10933,0.187261 -0.11689,0.187262 -0.12448,0.187262 -0.13208,0.187261 -0.13973,0.187262 -0.14739,0.187262 -0.15509,0.187262 -0.1628,0.187261 -0.17053,0.187266 -0.17829,0.18726 -0.18606,0.18726 -0.19385,0.18727 -0.20163,0.18726 -0.20946,0.18725 -0.21727,0.18727 -0.22509,0.18726 -0.23292,0.18726 -0.24077,0.18726 -0.2486,0.18726 -0.25643,0.18727 -0.26427,0.18726 -0.27211,0.18727 -0.27992,0.18725 -0.28775,0.18726 -0.29555,0.18726 -0.30334,0.18727 -0.31112,0.18726 -0.31889,0.18727 -0.32664,0.18726 -0.33436,0.18726 -0.34207,0.18726 -0.34976,0.18726 -0.3574,0.18726 -0.36504,0.18726 -0.37264,0.18727 -0.38021,0.18726 -0.38773,0.18726 -0.39524,0.18726 -0.4027,0.18726 -0.41012,0.18727 -0.4175,0.18726 -0.42483,0.18726 -0.43213,0.18726 -0.43939,0.18726 -0.44656,0.18727 -0.45372,0.18726 -0.46081,0.18726 -0.46784,0.18726 -0.47482,0.18726 -0.48176,0.18726 -0.4886,0.18727 -0.49541,0.18726 -0.50214,0.18726 -0.50881,0.18726 -0.51541,0.18726 -0.52194,0.18726 -0.5284,0.18727 0.53061,0.18726 0.5411,0.18726 0.54733,0.18726 0.55349,0.18727 0.55956,0.18725 0.56557,0.18727 0.57146,0.18726 0.5773,0.18726 0.58302,0.18726 0.58867,0.18727 0.59424,0.18726 0.59969,0.18726 0.60508,0.18727 0.61035,0.18726 0.61552,0.18725 0.62061,0.18726 0.62559,0.18726 0.63047,0.18727 0.63526,0.18727 0.63991,0.18726 0.6445,0.18726 0.64894,0.18726 0.65331,0.18726 0.65753,0.18726 0.66167,0.18727 0.6657,0.18726 0.66959,0.18726 0.67339,0.18726 0.67706,0.18726 0.68061,0.18726 0.68404,0.18727 0.68736,0.18726 0.69056,0.18726 0.69364,0.18726 0.69657,0.18726 0.69941,0.18726 0.70211,0.18727 0.70469,0.18726 0.70713,0.18726 0.70944,0.18726 0.71164,0.18726 0.71369,0.18727 0.71563,0.18726 0.71742,0.18727 0.71908,0.18725 0.72062,0.18726 0.72202,0.18726 0.72327,0.18727 0.72441,0.18726 0.72539,0.18726 0.72625,0.18726 0.72697,0.18726 0.72755,0.18727 0.728,0.18726 0.72829,0.18726 0.72846,0.18726 0.72849,0.18726 0.72837,0.18726 0.72812,0.18727 0.72772,0.18726 0.72718,0.18727 0.72651,0.18726 0.7257,0.18725 0.72473,0.18727 0.72363,0.18726 0.7224,0.18726 0.721,0.18727 0.71949,0.18726 0.71781,0.18726 0.71601,0.18726 0.71406,0.18726 0.71197,0.18726 0.70974,0.18727 0.70737,0.18726 0.70484,0.18726 0.7022,0.18726 0.69941,0.18726 0.69647,0.18726 0.69339,0.18727 0.69018,0.18726 0.68682,0.18726 0.68334,0.18726 0.67971,0.18726 0.67594,0.18726 0.67204,0.18727 0.668,0.18726 0.66383,0.18726 0.65952,0.18726 0.65507,0.18726 0.65049,0.18726 0.64579,0.18727 0.64094,0.18726 0.63598,0.18726 0.63086,0.18726 0.62564,0.18726 0.62027,0.18727 0.61479,0.18726 0.60916,0.18726 0.60343,0.18727 0.59756,0.18725 0.59157,0.18726 0.58546,0.18727 0.57922,0.18726 0.57288,0.18726 0.5664,0.18726 0.55981,0.18726 0.55311,0.18726 0.54628,0.18727 0.53936,0.18726 0.5323,0.18726 0.52514,0.18726 0.51789,0.18726 0.5105,0.18726 0.50302,0.18727 0.49543,0.18727 0.48774,0.18726 0.47994,0.18726 0.47205,0.18725 0.46406,0.18726 0.45596,0.18727 0.44778,0.18726 0.43949,0.18727 0.43112,0.18726 0.42266,0.18726 0.41409,0.18726 0.40547,0.18726 0.39673,0.18726 0.38792,0.18727 0.37903,0.18726 0.37005,0.18726 0.361,0.18726 0.35188,0.18726 0.34267,0.18727 0.3334,0.18726 0.32406,0.18726 0.31464,0.18726 0.30515,0.18726 0.29561,0.18726 0.286,0.18727 0.27633,0.18726 0.26661,0.18726 0.25682,0.18726 0.24697,0.18726 0.23709,0.18726 0.22715,0.18727 0.21715,0.18726 0.20712,0.18726 0.19704,0.18726 0.18691,0.18726 0.17675,0.18726 0.16654,0.18727 0.15631,0.18726 0.14605,0.18726 0.13574,0.18727 0.1254,0.18726 0.11506,0.18726 0.10467,0.18726 0.0943,0.18726 0.0838,0.18726 0.0734,0.18726 0.063,0.18726 0.0525,0.18727 0.042,0.18726 0.0315,0.18727 0.021,0.18726 0.0105,0.18726 v 0.18725 l -0.0105,0.18727 -0.021,0.18727 -0.0315,0.18726 -0.042,0.18726 -0.0525,0.18726 -0.063,0.18726 -0.0734,0.18726 -0.0838,0.18727 -0.0943,0.18725 -0.10467,0.18727 -0.11506,0.18726 -0.1254,0.18726 -0.13574,0.18726 -0.14605,0.18727 -0.15631,0.18726 -0.16654,0.18726 -0.17675,0.18726 -0.18691,0.18726 -0.19704,0.18726 -0.20712,0.18727 -0.21715,0.18726 -0.22715,0.18726 -0.23709,0.18726 -0.24697,0.18726 -0.25682,0.18726 -0.26661,0.18727 -0.27633,0.18726 -0.286,0.18726 -0.29561,0.18726 -0.30515,0.187263 -0.31464,0.18726 -0.32406,0.18727 -0.3334,0.18726 -0.34267,0.18726 -0.35188,0.18726 -0.361,0.18727 -0.37005,0.18726 -0.37903,0.18726 -0.38792,0.18726 -0.39673,0.18726 -0.40547,0.18726 -0.41409,0.18727 -0.42266,0.18726 -0.43112,0.18726 -0.43949,0.18727 -0.44778,0.18726 -0.45596,0.18726 -0.46406,0.18725 -0.47205,0.18727 -0.47994,0.18726 -0.48774,0.18727 -0.49543,0.18726 -0.50302,0.18726 -0.5105,0.18726 -0.51789,0.18726 -0.52514,0.18726 -0.5323,0.18727 -0.53936,0.18726 -0.54628,0.18726 -0.55311,0.18726 -0.55981,0.18726 -0.5664,0.18727 -0.57288,0.18726 -0.57922,0.18726 -0.58546,0.18726 -0.59157,0.18726 -0.59756,0.18727 -0.60343,0.18726 -0.60916,0.18726 -0.61479,0.18726 -0.62027,0.18727 -0.62564,0.18726 -0.63086,0.18726 -0.63598,0.18726 -0.64094,0.18726 -0.64579,0.18727 -0.65049,0.18726 -0.65507,0.18726 -0.65952,0.18726 -0.66383,0.18726 -0.668,0.18727 -0.67204,0.18726 -0.67594,0.18726 -0.67971,0.18726 -0.68334,0.18726 -0.68682,0.18726 -0.69018,0.18727 -0.69339,0.18726 -0.69647,0.18726 -0.69941,0.18726 -0.7022,0.18726 -0.70484,0.18726 -0.70737,0.18727 -0.70974,0.18726 -0.71197,0.18726 -0.71406,0.18726 -0.71601,0.18726 -0.71781,0.18726 -0.71949,0.18727 -0.721,0.18726 -0.7224,0.18726 -0.72363,0.18726 -0.72473,0.18726 -0.7257,0.18726 -0.72651,0.18727 -0.72718,0.18727 -0.72772,0.18726 -0.72812,0.18725 -0.72837,0.18726 -0.72849,0.18726 -0.72846,0.18727 -0.72829,0.18727 -0.728,0.18726 -0.72755,0.18726 -0.72697,0.18726 -0.72625,0.18726 -0.72539,0.18726 -0.72441,0.18726 -0.72327,0.18727 -0.72202,0.18726 -0.72062,0.18726 -0.71908,0.18726 -0.71742,0.18726 -0.71563,0.18727 -0.71369,0.18726 -0.71164,0.18726 -0.70944,0.18726 -0.70713,0.18726 -0.70469,0.18726 -0.70211,0.18727 -0.69941,0.18726 -0.69657,0.18726 -0.69364,0.18726 -0.69056,0.18726 -0.68736,0.18727 -0.68404,0.18726 -0.68061,0.18726 -0.67706,0.18726 -0.67339,0.18726 -0.66959,0.18726 -0.6657,0.18727 -0.66167,0.18726 -0.65753,0.18726 -0.65331,0.18726 -0.64894,0.18726 -0.6445,0.18726 -0.63991,0.18727 -0.63526,0.18726 -0.63047,0.18726 -0.62559,0.18726 -0.62061,0.18726 -0.61552,0.18726 -0.61035,0.18727 -0.60508,0.18727 -0.59969,0.18726 -0.59424,0.18726 -0.58867,0.18725 -0.58302,0.18726 -0.5773,0.18727 -0.57146,0.18727 -0.56557,0.18726 -0.55956,0.18726 -0.55349,0.18726 -0.54733,0.18726 -0.5411,0.18726 -0.53061,0.18726 0.5284,0.18727 0.52194,0.18726 0.51541,0.18726 0.50881,0.18726 0.50214,0.18726 0.49541,0.18727 0.4886,0.18726 0.48176,0.18726 0.47482,0.18726 0.46784,0.18726 0.46081,0.18726 0.45372,0.18727 0.44656,0.18726 0.43939,0.18726 0.43213,0.18726 0.42483,0.18726 0.4175,0.18726 0.41012,0.18727 0.4027,0.18726 0.39524,0.18726 0.38773,0.18726 0.38021,0.18726 0.37264,0.18727 0.36504,0.18726 0.3574,0.18726 0.34976,0.18726 0.34207,0.18726 0.33436,0.18726 0.32664,0.18727 0.31889,0.18726 0.31112,0.18726 0.30334,0.18726 0.29555,0.18726 0.28775,0.18726 0.27992,0.18727 0.27211,0.18726 0.26427,0.18727 0.25643,0.18726 0.2486,0.18725 0.24077,0.18726 0.23292,0.18727 0.22509,0.18727 0.21727,0.18726 0.20946,0.18726 0.20163,0.18726 0.19385,0.18726 0.18606,0.18726 0.17829,0.18726 0.17053,0.18727 0.1628,0.18726 0.15509,0.18726 0.14739,0.18726 0.13973,0.18726 0.13208,0.18727 0.12448,0.18726 0.11689,0.18726 0.10933,0.18726 0.10181,0.18726 0.0943,0.18726 0.0869,0.18727 0.0795,0.18726 0.0721,0.18726 0.0648,0.18726 0.0575,0.18726 0.0503,0.18726 0.043,0.18727 0.0359,0.18726 0.0288,0.18726 0.0217,0.18726 0.0148,0.18726 0.008,0.18726 7.5e-4,0.18727 -0.006,0.18726 -0.0127,0.18726 -0.0193,0.18726 -0.026,0.18726 -0.0325,0.18727 -0.0391,0.18726 -0.0456,0.18726 -0.0519,0.18726 -0.0582,0.18726 -0.0645,0.18726 -0.0707,0.18727 -0.0768,0.18726 -0.0828,0.18727 -0.0888,0.18726 -0.0946,0.18726 -0.10042,0.18725 -0.10616,0.18727 -0.11179,0.18726 -0.11737,0.18727 -0.12284,0.18726 -0.12825,0.18726 -0.13357,0.18726 -0.1388,0.18726 -0.14395,0.18727 -0.14901,0.18726 -0.15399,0.18726 -0.15887,0.18726 -0.16368,0.18726 -0.16839,0.18726 -0.173,0.18727 -0.17754,0.18726 -0.18197,0.18726 -0.18631,0.18726 -0.19058,0.18726 -0.19472,0.18726 -0.1988,0.18727 -0.20276,0.18726 -0.20664,0.18726 -0.21041,0.18726 -0.2141,0.18726 -0.21769,0.18726 -0.22116,0.18727 -0.22457,0.18726 -0.22785,0.18726 -0.23104,0.18726 -0.23415,0.18726 -0.23713,0.18726 -0.24004,0.18727 -0.24284,0.18726 -0.24552,0.18726 -0.24813,0.18726 -0.25063,0.18726 -0.25301,0.18727 -0.25533,0.18726 -0.25752,0.18726 -0.25961,0.18726 -0.26161,0.18726 -0.26351,0.18726 -0.2653,0.18726 -0.26699,0.18727 -0.2686,0.18727 -0.27009,0.18726 -0.27148,0.18726 -0.27278,0.18725 -0.27398,0.18727 -0.27507,0.18726 -0.27608,0.18727 -0.27697,0.18726 -0.27778,0.18726 -0.27847,0.18726 -0.27909,0.18726 -0.27959,0.18726 -0.28001,0.18727 -0.28032,0.18726 -0.28054,0.18726 -0.28068,0.18726 -0.2807,0.18726 -0.28064,0.18727 -0.28048,0.18726 -0.28022,0.18726 -0.27989,0.18726 -0.27945,0.18726 -0.27893,0.18726 -0.27832,0.18727 -0.2776,0.18726 -0.27681,0.18726 -0.27593,0.18726 -0.27497,0.18726 -0.27389,0.18726 -0.27277,0.18727 -0.27153,0.18726 -0.27023,0.18726 -0.26884,0.18727 -0.26735,0.18725 0.004,0.18726 0.26417,0.18727 0.26244,0.18726 0.26066,0.18726 0.25878,0.18726 0.25683,0.18726 0.25481,0.18727 0.25271,0.18726 0.25054,0.18727 0.2483,0.18725 0.24599,0.18726 0.24359,0.18726 0.24115,0.18727 0.23864,0.18726 0.23604,0.18727 0.2334,0.18726 0.23068,0.18726 0.22791,0.18726 0.22506,0.18725 0.22217,0.18727 0.21922,0.18726 0.2162,0.18727 0.21312,0.18726 0.21001,0.18726 0.20681,0.18726 0.20359,0.18726 0.20031,0.18727 0.19697,0.18726 0.19359,0.18726 0.19017,0.18726 0.18668,0.18726 0.18317,0.18726 0.17961,0.18727 0.17601,0.18726 0.17236,0.18726 0.16867,0.18726 0.16496,0.18726 0.16121,0.18726 0.15741,0.18727 0.15359,0.18726 0.14973,0.18726 0.14584,0.18726 0.14194,0.18726 0.13799,0.18727 0.13402,0.18726 0.13002,0.18726 0.12602,0.18726 0.12197,0.18727 0.11791,0.18725 0.11385,0.18727 0.10974,0.18726 0.10562,0.18726 0.1015,0.18726 0.0974,0.18726 0.0932,0.18726 0.089,0.18727 0.0849,0.18726 0.0807,0.18726 0.0765,0.18726 0.0723,0.18726 0.0681,0.18726 0.064,0.18727 0.0597,0.18727 0.0555,0.18726 0.0514,0.18726 0.0471,0.18726 0.043,0.18725 0.0388,0.18727 0.0346,0.18727 0.0305,0.18726 0.0264,0.18726 0.0222,0.18726 0.018,0.18726 0.0139,0.18726 0.01,0.18727 0.006,0.18726 0.001,0.18726 -0.002,0.18726 -0.007,0.18726 -0.0103,0.18726 -0.0144,0.18727 -0.0183,0.18726 -0.0223,0.18726 -0.0261,0.18726 -0.03,0.18726 -0.0339,0.18726 -0.0377,0.18727 -0.0415,0.18726 -0.0452,0.18726 -0.0489,0.18726 -0.0526,0.18726 -0.0563,0.18726 -0.0599,0.18727 -0.0634,0.18726 -0.067,0.18726 -0.0705,0.18726 -0.0739,0.18726 -0.0774,0.18727 -0.0807,0.18726 -0.0841,0.18726 -0.0874,0.18726 -0.0906,0.18726 -0.0938,0.18727 -0.0969,0.18726 -0.10003,0.18726 -0.10308,0.18727 -0.10607,0.18725 -0.10904,0.18726 -0.11193,0.18726 -0.11478,0.18727 -0.11757,0.18726 -0.12032,0.18727 -0.123,0.18726 -0.12564,0.18726 -0.12822,0.18726 -0.13074,0.18726 -0.1332,0.18727 -0.13562,0.18726 -0.13796,0.18726 -0.14027,0.18726 -0.14249,0.18726 -0.14468,0.18726 -0.14679,0.18727 -0.14884,0.18726 -0.15085,0.18726 -0.15277,0.18726 -0.15465,0.18726 -0.15647,0.18726 -0.15822,0.18727 -0.1599,0.18726 -0.16152,0.18726 -0.1631,0.18726 -0.16459,0.18726 -0.16603,0.18726 -0.1674,0.18727 -0.1687,0.18726 -0.16996,0.18726 -0.17113,0.18726 -0.17225,0.18726 -0.1733,0.18726 -0.17429,0.18727 -0.17522,0.18726 -0.17607,0.18727 -0.17686,0.18726 -0.1776,0.18725 -0.17826,0.18726 -0.17886,0.18727 -0.17939,0.18726 -0.17987,0.18726 -0.18027,0.18726 -0.18061,0.18726 -0.1809,0.18727 -0.18111,0.18726 -0.18126,0.18727 -0.18134,0.18725 -0.18138,0.18726 -0.18133,0.18726 -0.18123,0.18727 -0.18107,0.18726 -0.18084,0.18727 -0.18055,0.18726 -0.18021,0.18726 -0.17979,0.18726 -0.17932,0.18726 -0.17879,0.18726 -0.17821,0.18727 -0.17336,0.18726"
     style="fill:none;stroke:#000000;stroke-width:1.66666663;stroke-linecap:round;stroke-linejoin:round;stroke-dasharray:none"
     inkscape:label="none"
     id="path1346" />
</svg>
