<?xml version="1.0" encoding="UTF-8" standalone="no"?>
<!-- Created with Inkscape (http://www.inkscape.org/) -->

<svg
   xmlns:dc="http://purl.org/dc/elements/1.1/"
   xmlns:cc="http://creativecommons.org/ns#"
   xmlns:rdf="http://www.w3.org/1999/02/22-rdf-syntax-ns#"
   xmlns:svg="http://www.w3.org/2000/svg"
   xmlns="http://www.w3.org/2000/svg"
   xmlns:sodipodi="http://sodipodi.sourceforge.net/DTD/sodipodi-0.dtd"
   xmlns:inkscape="http://www.inkscape.org/namespaces/inkscape"
   width="326.15088mm"
   height="152.74791mm"
   viewBox="0 0 326.15088 152.74791"
   version="1.1"
   id="svg8"
   inkscape:version="0.92.2 5c3e80d, 2017-08-06"
   sodipodi:docname="Windows.svg">
  <defs
     id="defs2" />
  <sodipodi:namedview
     id="base"
     pagecolor="#ffffff"
     bordercolor="#666666"
     borderopacity="1.0"
     inkscape:pageopacity="0.0"
     inkscape:pageshadow="2"
     inkscape:zoom="0.49497475"
     inkscape:cx="724.62451"
     inkscape:cy="165.46215"
     inkscape:document-units="mm"
     inkscape:current-layer="layer1"
     showgrid="false"
     inkscape:window-width="1440"
     inkscape:window-height="789"
     inkscape:window-x="0"
     inkscape:window-y="1"
     inkscape:window-maximized="1" />
  <metadata
     id="metadata5">
    <rdf:RDF>
      <cc:Work
         rdf:about="">
        <dc:format>image/svg+xml</dc:format>
        <dc:type
           rdf:resource="http://purl.org/dc/dcmitype/StillImage" />
        <dc:title />
      </cc:Work>
    </rdf:RDF>
  </metadata>
  <g
     inkscape:label="Layer 1"
     inkscape:groupmode="layer"
     id="layer1"
     transform="translate(-24.097018,-61.245509)">
    <circle
       style="opacity:1;fill:#000000;fill-opacity:1;fill-rule:nonzero;stroke:#000000;stroke-width:0.60000002;stroke-linecap:round;stroke-linejoin:miter;stroke-miterlimit:4;stroke-dasharray:none;stroke-dashoffset:0;stroke-opacity:1"
       id="path812"
       cx="32.505951"
       cy="140.51785"
       r="1.1339288" />
    <path
       style="fill:none;stroke:#000000;stroke-width:0.60000002;stroke-linecap:butt;stroke-linejoin:miter;stroke-miterlimit:4;stroke-dasharray:none;stroke-opacity:1"
       d="m 34.811797,140.65148 h 5.951975"
       id="path814"
       inkscape:connector-curvature="0" />
    <path
       inkscape:connector-curvature="0"
       id="path818"
       d="m 34.2264,139.15118 4.208689,-4.20868"
       style="fill:none;stroke:#000000;stroke-width:0.60000002;stroke-linecap:butt;stroke-linejoin:miter;stroke-miterlimit:4;stroke-dasharray:none;stroke-opacity:1" />
    <path
       style="fill:none;stroke:#000000;stroke-width:0.60000002;stroke-linecap:butt;stroke-linejoin:miter;stroke-miterlimit:4;stroke-dasharray:none;stroke-opacity:1"
       d="m 34.2264,139.15118 4.208689,-4.20868"
       id="path820"
       inkscape:connector-curvature="0" />
    <path
       inkscape:connector-curvature="0"
       id="path822"
       d="m 32.364673,137.90615 1.1e-5,-5.95198"
       style="fill:none;stroke:#000000;stroke-width:0.60000002;stroke-linecap:butt;stroke-linejoin:miter;stroke-miterlimit:4;stroke-dasharray:none;stroke-opacity:1" />
    <path
       style="fill:none;stroke:#000000;stroke-width:0.60000002;stroke-linecap:butt;stroke-linejoin:miter;stroke-miterlimit:4;stroke-dasharray:none;stroke-opacity:1"
       d="m 30.369321,138.88393 -4.208681,-4.2087"
       id="path824"
       inkscape:connector-curvature="0" />
    <path
       inkscape:connector-curvature="0"
       id="path826"
       d="m 30.049004,140.61741 -5.951985,-2e-5"
       style="fill:none;stroke:#000000;stroke-width:0.60000002;stroke-linecap:butt;stroke-linejoin:miter;stroke-miterlimit:4;stroke-dasharray:none;stroke-opacity:1" />
    <path
       style="fill:none;stroke:#000000;stroke-width:0.60000002;stroke-linecap:butt;stroke-linejoin:miter;stroke-miterlimit:4;stroke-dasharray:none;stroke-opacity:1"
       d="m 30.764867,142.35086 -4.208709,4.20866"
       id="path828"
       inkscape:connector-curvature="0" />
    <path
       inkscape:connector-curvature="0"
       id="path830"
       d="m 32.631967,142.9384 -3.7e-5,5.95198"
       style="fill:none;stroke:#000000;stroke-width:0.60000002;stroke-linecap:butt;stroke-linejoin:miter;stroke-miterlimit:4;stroke-dasharray:none;stroke-opacity:1" />
    <path
       style="fill:none;stroke:#000000;stroke-width:0.60000002;stroke-linecap:butt;stroke-linejoin:miter;stroke-miterlimit:4;stroke-dasharray:none;stroke-opacity:1"
       d="m 34.231788,142.61807 4.208659,4.2087"
       id="path832"
       inkscape:connector-curvature="0" />
    <path
       style="opacity:1;fill:none;fill-opacity:1;fill-rule:nonzero;stroke:#000000;stroke-width:0.60000002;stroke-linecap:round;stroke-linejoin:miter;stroke-miterlimit:4;stroke-dasharray:none;stroke-dashoffset:0;stroke-opacity:1"
       id="path834"
       sodipodi:type="arc"
       sodipodi:cx="32.33424"
       sodipodi:cy="140.38544"
       sodipodi:rx="22.183374"
       sodipodi:ry="22.183374"
       sodipodi:start="5.7595865"
       sodipodi:end="0.52359878"
       sodipodi:open="true"
       d="m 51.545605,129.29375 a 22.183374,22.183374 0 0 1 10e-7,22.18337" />
    <path
       cx="32.33424"
       cy="140.38544"
       r="27.528765"
       id="path838"
       style="opacity:1;fill:none;fill-opacity:1;fill-rule:nonzero;stroke:#000000;stroke-width:0.60000002;stroke-linecap:round;stroke-linejoin:miter;stroke-miterlimit:4;stroke-dasharray:none;stroke-dashoffset:0;stroke-opacity:1"
       d=""
       inkscape:connector-curvature="0" />
    <path
       id="circle840"
       style="opacity:1;fill:none;fill-opacity:1;fill-rule:nonzero;stroke:#000000;stroke-width:0.60000002;stroke-linecap:round;stroke-linejoin:miter;stroke-miterlimit:4;stroke-dasharray:none;stroke-dashoffset:0;stroke-opacity:1"
       sodipodi:type="arc"
       sodipodi:cx="32.33424"
       sodipodi:cy="140.38544"
       sodipodi:rx="37.685009"
       sodipodi:ry="37.685009"
       sodipodi:start="5.7595865"
       sodipodi:end="0.52359878"
       sodipodi:open="true"
       d="m 64.970415,121.54293 a 37.685009,37.685009 0 0 1 0,37.68501" />
    <path
       style="opacity:1;fill:none;fill-opacity:1;fill-rule:nonzero;stroke:#000000;stroke-width:0.59999996;stroke-linecap:round;stroke-linejoin:miter;stroke-miterlimit:4;stroke-dasharray:none;stroke-dashoffset:0;stroke-opacity:1"
       id="circle842"
       sodipodi:type="arc"
       sodipodi:cx="32.33424"
       sodipodi:cy="140.38544"
       sodipodi:rx="54.255718"
       sodipodi:ry="54.255718"
       sodipodi:start="5.7595865"
       sodipodi:end="0.52359878"
       d="m 79.321069,113.25758 a 54.255718,54.255718 0 0 1 1e-6,54.25572"
       sodipodi:open="true" />
    <path
       id="circle844"
       style="opacity:1;fill:none;fill-opacity:1;fill-rule:nonzero;stroke:#000000;stroke-width:0.59999996;stroke-linecap:round;stroke-linejoin:miter;stroke-miterlimit:4;stroke-dasharray:none;stroke-dashoffset:0;stroke-opacity:1"
       sodipodi:type="arc"
       sodipodi:cx="32.33424"
       sodipodi:cy="140.38544"
       sodipodi:rx="70.826431"
       sodipodi:ry="70.826431"
       sodipodi:start="5.7595865"
       sodipodi:end="0.52359878"
       d="m 93.671728,104.97222 a 70.826431,70.826431 0 0 1 10e-7,70.82643"
       sodipodi:open="true" />
    <path
       style="opacity:1;fill:none;fill-opacity:1;fill-rule:nonzero;stroke:#000000;stroke-width:0.59999996;stroke-linecap:round;stroke-linejoin:miter;stroke-miterlimit:4;stroke-dasharray:none;stroke-dashoffset:0;stroke-opacity:1"
       id="circle846"
       sodipodi:type="arc"
       sodipodi:cx="32.33424"
       sodipodi:cy="140.38544"
       sodipodi:rx="87.397141"
       sodipodi:ry="87.397141"
       sodipodi:start="5.7595865"
       sodipodi:end="0.52359878"
       d="m 108.02238,96.686864 a 87.397141,87.397141 0 0 1 0,87.397146"
       sodipodi:open="true" />
    <path
       style="fill:none;stroke:#000000;stroke-width:1;stroke-linecap:butt;stroke-linejoin:miter;stroke-miterlimit:4;stroke-dasharray:none;stroke-opacity:1"
       d="M 128.43309,81.567814 V 199.20305"
       id="path848"
       inkscape:connector-curvature="0" />
    <path
       inkscape:connector-curvature="0"
       id="path850"
       d="M 149.59977,81.567814 V 199.20305"
       style="fill:none;stroke:#000000;stroke-width:1;stroke-linecap:butt;stroke-linejoin:miter;stroke-miterlimit:4;stroke-dasharray:none;stroke-opacity:1" />
    <path
       style="fill:none;stroke:#000000;stroke-width:1;stroke-linecap:butt;stroke-linejoin:miter;stroke-miterlimit:4;stroke-dasharray:none;stroke-opacity:1"
       d="m 165.70711,85.338648 c -7.48355,14.432545 0.53453,10.156243 2.13815,17.105242 1.60362,6.94901 -5.34539,17.63979 -6.41447,25.12334 -1.06907,7.48354 8.55263,6.949 9.08717,11.75985 0.53454,4.81085 -9.62171,6.41447 -9.08717,16.03618 0.53454,9.6217 9.08717,7.48354 9.08717,16.57071 0,9.08716 -10.15624,11.22532 -8.55263,14.96709 1.60362,3.74177 4.81085,2.6727 4.81085,8.01809"
       id="path852"
       inkscape:connector-curvature="0" />
    <path
       inkscape:connector-curvature="0"
       id="path854"
       d="m 186.87379,85.338648 c -7.48355,14.432545 -1e-5,19.777942 1.60361,26.726942 1.60362,6.94901 0,8.55263 -1.06908,16.03618 -1.06907,7.48354 3.74178,6.41446 4.27632,11.22531 0.53454,4.81085 -5.87994,12.2944 -5.3454,21.91611 0.53454,9.6217 5.3454,1.60361 5.3454,10.69078 0,9.08716 -6.41447,6.94901 -4.81086,10.69078 1.60362,3.74177 1.06908,6.94901 1.06908,12.2944"
       style="fill:none;stroke:#000000;stroke-width:1;stroke-linecap:butt;stroke-linejoin:miter;stroke-miterlimit:4;stroke-dasharray:none;stroke-opacity:1"
       sodipodi:nodetypes="cscssscc" />
    <path
       style="fill:none;stroke:#000000;stroke-width:1;stroke-linecap:butt;stroke-linejoin:miter;stroke-miterlimit:4;stroke-dasharray:none;stroke-opacity:1"
       d="m 208.04047,85.338648 c -7.48355,14.432545 -2.6727,13.363477 -1.06908,20.312472 1.60362,6.94901 -2.13816,14.43256 -3.20724,21.91611 -1.06907,7.48354 2.13816,9.6217 2.6727,14.43255 0.53454,4.81085 -3.20724,3.74177 -2.6727,13.36348 0.53454,9.6217 3.74178,10.69077 3.74178,19.77794 0,9.08716 -4.81085,8.01809 -3.20724,11.75986 1.60362,3.74177 4.81085,2.6727 4.81085,8.01809"
       id="path856"
       inkscape:connector-curvature="0"
       sodipodi:nodetypes="cscssscc" />
    <path
       inkscape:connector-curvature="0"
       id="path858"
       d="m 229.20715,85.338648 c -7.48355,14.432545 -4.27632,15.501632 -2.6727,22.450632 1.60362,6.94901 3.20723,11.22532 2.13815,18.70887 -1.06907,7.48354 -9.08716,11.22531 -8.55262,16.03616 0.53454,4.81085 4.27631,3.20724 4.81085,12.82895 0.53454,9.6217 4.27632,10.15624 4.27632,19.24341 0,9.08716 -5.34539,8.55262 -3.74178,12.29439 1.60362,3.74177 4.81085,2.6727 4.81085,8.01809"
       style="fill:none;stroke:#000000;stroke-width:1;stroke-linecap:butt;stroke-linejoin:miter;stroke-miterlimit:4;stroke-dasharray:none;stroke-opacity:1"
       sodipodi:nodetypes="cscssscc" />
    <path
       style="fill:none;stroke:#000000;stroke-width:1;stroke-linecap:butt;stroke-linejoin:miter;stroke-miterlimit:4;stroke-dasharray:none;stroke-opacity:1"
       d="m 250.37383,85.338648 c -7.48355,14.432545 -2.13817,16.570712 -0.53455,23.519712 1.60362,6.94901 0.53454,11.75986 -0.53454,19.24341 -1.06907,7.48354 -2.67269,9.62169 -2.13815,14.43254 0.53454,4.81085 -1.60362,3.20724 -1.06908,12.82895 0.53454,9.6217 4.27632,8.01808 4.27632,17.10525 0,9.08716 -5.34539,10.69078 -3.74178,14.43255 1.60362,3.74177 0.0483,2.6727 0.0483,8.01809"
       id="path860"
       inkscape:connector-curvature="0"
       sodipodi:nodetypes="cscssscc" />
    <path
       inkscape:connector-curvature="0"
       id="path862"
       d="m 271.54051,85.338648 c -7.48355,14.432545 -2.86726,17.337792 -1.26364,24.286792 1.60362,6.94901 -1.9436,10.45824 -3.01268,17.94179 -1.06907,7.48354 2.88299,8.83888 3.41753,13.64973 0.53454,4.81085 -0.92826,7.92638 -0.39372,17.54809 0.53454,9.6217 -2.63009,6.34961 -2.63009,15.43678 0,9.08716 -1.46279,8.95746 0.14082,12.69923 1.60362,3.74177 1.03109,2.6727 1.03109,8.01809"
       style="fill:none;stroke:#000000;stroke-width:1;stroke-linecap:butt;stroke-linejoin:miter;stroke-miterlimit:4;stroke-dasharray:none;stroke-opacity:1"
       sodipodi:nodetypes="cscssscc" />
    <path
       style="fill:none;stroke:#000000;stroke-width:1;stroke-linecap:butt;stroke-linejoin:miter;stroke-miterlimit:4;stroke-dasharray:none;stroke-opacity:1"
       d="M 291.78716,81.567814 V 199.20305"
       id="path864"
       inkscape:connector-curvature="0" />
    <text
       xml:space="preserve"
       style="font-style:normal;font-weight:normal;font-size:10.58333302px;line-height:1.25;font-family:sans-serif;letter-spacing:0px;word-spacing:0px;fill:#000000;fill-opacity:1;stroke:none;stroke-width:0.26458332"
       x="117.74231"
       y="211.49745"
       id="text868"><tspan
         sodipodi:role="line"
         id="tspan866"
         x="117.74231"
         y="211.49745"
         style="stroke-width:0.26458332">$\tilde{U}_1$</tspan></text>
    <text
       id="text872"
       y="211.49745"
       x="144.20065"
       style="font-style:normal;font-weight:normal;font-size:10.58333302px;line-height:1.25;font-family:sans-serif;letter-spacing:0px;word-spacing:0px;fill:#000000;fill-opacity:1;stroke:none;stroke-width:0.26458332"
       xml:space="preserve"><tspan
         style="stroke-width:0.26458332"
         y="211.49745"
         x="144.20065"
         id="tspan870"
         sodipodi:role="line">$\tilde{U}_2$</tspan></text>
    <text
       xml:space="preserve"
       style="font-style:normal;font-weight:normal;font-size:10.58333302px;line-height:1.25;font-family:sans-serif;letter-spacing:0px;word-spacing:0px;fill:#000000;fill-opacity:1;stroke:none;stroke-width:0.26458332"
       x="132.03114"
       y="69.286362"
       id="text876"><tspan
         sodipodi:role="line"
         id="tspan874"
         x="132.03114"
         y="69.286362"
         style="stroke-width:0.26458332">$\pare{x,y}$</tspan></text>
    <text
       id="text880"
       y="69.286362"
       x="274.75308"
       style="font-style:normal;font-weight:normal;font-size:10.58333302px;line-height:1.25;font-family:sans-serif;letter-spacing:0px;word-spacing:0px;fill:#000000;fill-opacity:1;stroke:none;stroke-width:0.26458332"
       xml:space="preserve"><tspan
         style="stroke-width:0.26458332"
         y="69.286362"
         x="274.75308"
         id="tspan878"
         sodipodi:role="line">$\pare{x',y'}$</tspan></text>
    <text
       xml:space="preserve"
       style="font-style:normal;font-weight:normal;font-size:10.58333302px;line-height:1.25;font-family:sans-serif;letter-spacing:0px;word-spacing:0px;fill:#000000;fill-opacity:1;stroke:none;stroke-width:0.26458332"
       x="289.59528"
       y="211.49745"
       id="text884"><tspan
         sodipodi:role="line"
         id="tspan882"
         x="289.59528"
         y="211.49745"
         style="stroke-width:0.26458332">$\tilde{U}$</tspan></text>
  </g>
</svg>
