<?xml version="1.0" encoding="UTF-8" standalone="no"?>
<!-- Created with Inkscape (http://www.inkscape.org/) -->

<svg
   xmlns:dc="http://purl.org/dc/elements/1.1/"
   xmlns:cc="http://creativecommons.org/ns#"
   xmlns:rdf="http://www.w3.org/1999/02/22-rdf-syntax-ns#"
   xmlns:svg="http://www.w3.org/2000/svg"
   xmlns="http://www.w3.org/2000/svg"
   xmlns:sodipodi="http://sodipodi.sourceforge.net/DTD/sodipodi-0.dtd"
   xmlns:inkscape="http://www.inkscape.org/namespaces/inkscape"
   width="445.48184mm"
   height="314.11444mm"
   viewBox="0 0 445.48184 314.11444"
   version="1.1"
   id="svg8"
   inkscape:version="0.92.2 5c3e80d, 2017-08-06"
   sodipodi:docname="SinAndArcsin.svg">
  <sodipodi:namedview
     id="base"
     pagecolor="#ffffff"
     bordercolor="#666666"
     borderopacity="1.0"
     inkscape:pageopacity="0.0"
     inkscape:pageshadow="2"
     inkscape:zoom="0.24748737"
     inkscape:cx="704.9367"
     inkscape:cy="466.47705"
     inkscape:document-units="mm"
     inkscape:current-layer="svg8"
     showgrid="false"
     inkscape:window-width="1440"
     inkscape:window-height="789"
     inkscape:window-x="0"
     inkscape:window-y="1"
     inkscape:window-maximized="1" />
  <defs
     id="defs2">
    <marker
       inkscape:isstock="true"
       style="overflow:visible"
       id="marker2587"
       refX="0"
       refY="0"
       orient="auto"
       inkscape:stockid="Arrow1Lend">
      <path
         transform="matrix(-0.8,0,0,-0.8,-10,0)"
         style="fill:#ff6600;fill-opacity:1;fill-rule:evenodd;stroke:#ff6600;stroke-width:1.00000003pt;stroke-opacity:1"
         d="M 0,0 5,-5 -12.5,0 5,5 Z"
         id="path2585"
         inkscape:connector-curvature="0" />
    </marker>
    <marker
       inkscape:collect="always"
       inkscape:stockid="Arrow1Lend"
       orient="auto"
       refY="0"
       refX="0"
       id="marker2115"
       style="overflow:visible"
       inkscape:isstock="true">
      <path
         id="path2113"
         d="M 0,0 5,-5 -12.5,0 5,5 Z"
         style="fill:#ff6600;fill-opacity:1;fill-rule:evenodd;stroke:#ff6600;stroke-width:1.00000003pt;stroke-opacity:1"
         transform="matrix(-0.8,0,0,-0.8,-10,0)"
         inkscape:connector-curvature="0" />
    </marker>
    <marker
       inkscape:stockid="Arrow1Lend"
       orient="auto"
       refY="0"
       refX="0"
       id="marker1957"
       style="overflow:visible"
       inkscape:isstock="true">
      <path
         id="path1955"
         d="M 0,0 5,-5 -12.5,0 5,5 Z"
         style="fill:#ff6600;fill-opacity:1;fill-rule:evenodd;stroke:#ff6600;stroke-width:1.00000003pt;stroke-opacity:1"
         transform="matrix(-0.8,0,0,-0.8,-10,0)"
         inkscape:connector-curvature="0" />
    </marker>
    <marker
       inkscape:stockid="Arrow1Lend"
       orient="auto"
       refY="0"
       refX="0"
       id="marker1477"
       style="overflow:visible"
       inkscape:isstock="true">
      <path
         id="path1475"
         d="M 0,0 5,-5 -12.5,0 5,5 Z"
         style="fill:#000000;fill-opacity:1;fill-rule:evenodd;stroke:#000000;stroke-width:1.00000003pt;stroke-opacity:1"
         transform="matrix(-0.8,0,0,-0.8,-10,0)"
         inkscape:connector-curvature="0" />
    </marker>
    <marker
       inkscape:collect="always"
       inkscape:isstock="true"
       style="overflow:visible"
       id="marker1451"
       refX="0"
       refY="0"
       orient="auto"
       inkscape:stockid="Arrow1Lend">
      <path
         transform="matrix(-0.8,0,0,-0.8,-10,0)"
         style="fill:#ff6600;fill-opacity:1;fill-rule:evenodd;stroke:#ff6600;stroke-width:1.00000003pt;stroke-opacity:1"
         d="M 0,0 5,-5 -12.5,0 5,5 Z"
         id="path1449"
         inkscape:connector-curvature="0" />
    </marker>
    <marker
       inkscape:isstock="true"
       style="overflow:visible"
       id="Arrow1Lend"
       refX="0"
       refY="0"
       orient="auto"
       inkscape:stockid="Arrow1Lend">
      <path
         transform="matrix(-0.8,0,0,-0.8,-10,0)"
         style="fill:#ff6600;fill-opacity:1;fill-rule:evenodd;stroke:#ff6600;stroke-width:1.00000003pt;stroke-opacity:1"
         d="M 0,0 5,-5 -12.5,0 5,5 Z"
         id="path1060"
         inkscape:connector-curvature="0" />
    </marker>
    <marker
       inkscape:stockid="ArrowAxisStart"
       style="overflow:visible"
       refY="0"
       refX="0"
       orient="auto"
       id="ArrowAxisStart">
      <path
         id="path2792"
         transform="matrix(0.4,0,0,0.4,3.5272,0)"
         style="fill:#000000;fill-rule:evenodd;stroke:#000000;stroke-width:1"
         d="M 0,0 5,-5 -12.5,0 5,5 Z"
         inkscape:connector-curvature="0" />
    </marker>
    <marker
       inkscape:stockid="ArrowAxisEnd"
       style="overflow:visible"
       refY="0"
       refX="0"
       orient="auto"
       id="ArrowAxisEnd">
      <path
         id="path2795"
         transform="matrix(-0.4,0,0,-0.4,-3.5272,0)"
         style="fill:#000000;fill-rule:evenodd;stroke:#000000;stroke-width:1"
         d="M 0,0 5,-5 -12.5,0 5,5 Z"
         inkscape:connector-curvature="0" />
    </marker>
  </defs>
  <metadata
     id="metadata5">
    <rdf:RDF>
      <cc:Work
         rdf:about="">
        <dc:format>image/svg+xml</dc:format>
        <dc:type
           rdf:resource="http://purl.org/dc/dcmitype/StillImage" />
        <dc:title />
      </cc:Work>
    </rdf:RDF>
  </metadata>
  <g
     id="layer1"
     inkscape:groupmode="layer"
     inkscape:label="Layer 1"
     transform="translate(250.48847,101.03824)" />
  <g
     inkscape:label="Ticks"
     id="g977"
     transform="translate(350.48847,251.03824)" />
  <path
     style="fill:none;stroke:#ff6600;stroke-width:0.60000002;stroke-linecap:butt;stroke-linejoin:miter;stroke-miterlimit:4;stroke-dasharray:none;stroke-opacity:1;marker-end:url(#marker1451)"
     d="m 168.55724,102.51017 h 67.81813"
     id="path1447"
     inkscape:connector-curvature="0" />
  <path
     inkscape:connector-curvature="0"
     id="path1473"
     d="m 235.83333,102.51018 h 45.57976"
     style="fill:none;stroke:#ff6600;stroke-width:0.60000002;stroke-linecap:butt;stroke-linejoin:miter;stroke-miterlimit:4;stroke-dasharray:none;stroke-opacity:1" />
  <path
     inkscape:connector-curvature="0"
     id="path1951"
     d="m 281.41309,102.51018 v 60.57905"
     style="fill:none;stroke:#ff6600;stroke-width:0.60000002;stroke-linecap:butt;stroke-linejoin:miter;stroke-miterlimit:4;stroke-dasharray:none;stroke-opacity:1;marker-end:url(#marker1957)" />
  <path
     style="fill:none;stroke:#ff6600;stroke-width:0.60000002;stroke-linecap:butt;stroke-linejoin:miter;stroke-miterlimit:4;stroke-dasharray:none;stroke-opacity:1"
     d="m 281.41309,162.60503 -2e-5,37.50862"
     id="path1953"
     inkscape:connector-curvature="0" />
  <path
     inkscape:connector-curvature="0"
     id="path2109"
     d="m 169.39366,259.8848 h -36.0966"
     style="fill:none;stroke:#ff6600;stroke-width:0.60000002;stroke-linecap:butt;stroke-linejoin:miter;stroke-miterlimit:4;stroke-dasharray:none;stroke-opacity:1;marker-end:url(#marker2115)" />
  <path
     style="fill:none;stroke:#ff6600;stroke-width:0.60000002;stroke-linecap:butt;stroke-linejoin:miter;stroke-miterlimit:4;stroke-dasharray:none;stroke-opacity:1"
     d="M 133.58557,259.88481 H 109.32548"
     id="path2111"
     inkscape:connector-curvature="0" />
  <path
     style="fill:none;stroke:#ff6600;stroke-width:0.60000002;stroke-linecap:butt;stroke-linejoin:miter;stroke-miterlimit:4;stroke-dasharray:none;stroke-opacity:1;marker-end:url(#marker2587)"
     d="m 109.32548,259.88481 -2e-5,-32.40689"
     id="path2581"
     inkscape:connector-curvature="0" />
  <path
     inkscape:connector-curvature="0"
     id="path2583"
     d="M 108.79082,227.73714 V 200.42941"
     style="fill:none;stroke:#ff6600;stroke-width:0.60000002;stroke-linecap:butt;stroke-linejoin:miter;stroke-miterlimit:4;stroke-dasharray:none;stroke-opacity:1" />
  <path
     inkscape:connector-curvature="0"
     d="M 0.84520204,200.50392 H 391.5469"
     style="fill:#ff0000;stroke:#ff0000;stroke-width:1.42857146;stroke-linecap:round;stroke-linejoin:round;stroke-dasharray:none;marker-end:url(#ArrowAxisEnd)"
     inkscape:label="Xaxis"
     id="path2820" />
  <text
     style="font-style:normal;font-weight:normal;font-size:36.18174744px;line-height:100%;font-family:Sans;text-align:start;letter-spacing:0px;word-spacing:0px;text-anchor:start;fill:#000000;fill-opacity:1;stroke:none;stroke-width:1"
     x="392.2933"
     y="236.80049"
     xml:space="preserve"
     transform="scale(0.975309,1.0253161)"
     id="text2824"><tspan
       style="stroke-width:1"
       x="392.2933"
       y="236.80049"
       sodipodi:role="line"
       id="tspan2822">$x$</tspan></text>
  <path
     inkscape:connector-curvature="0"
     d="M 169.37688,313.28101 V 3.1440158"
     style="fill:#0000ff;stroke:#0000ff;stroke-width:1.42857146;stroke-linecap:round;stroke-linejoin:round;stroke-dasharray:none;marker-end:url(#ArrowAxisEnd)"
     inkscape:label="Yaxis"
     id="path2826" />
  <text
     style="font-style:normal;font-weight:normal;font-size:36.18174744px;line-height:100%;font-family:Sans;text-align:start;letter-spacing:0px;word-spacing:0px;text-anchor:start;fill:#000000;fill-opacity:1;stroke:none;stroke-width:1"
     x="187.41389"
     y="30.564512"
     xml:space="preserve"
     transform="scale(0.975309,1.0253161)"
     id="text2830"><tspan
       style="stroke-width:1"
       x="187.41389"
       y="30.564512"
       sodipodi:role="line"
       id="tspan2828">$y(x)$</tspan></text>
  <path
     inkscape:connector-curvature="0"
     d="m 0.84520204,313.28101 0.33739996,-5e-4 0.3374,-0.002 0.3374,-0.002 0.33741,-0.005 0.3374,-0.005 0.3374,-0.007 0.3374,-0.007 0.3374,-0.009 0.3374,-0.009 0.3374,-0.0113 0.3374,-0.0113 0.3374,-0.0135 0.3374,-0.0135 0.3374,-0.0158 0.3374,-0.0158 0.3374,-0.0181 0.3374,-0.018 0.33741,-0.0203 0.3374,-0.0203 0.3374,-0.0226 0.3374,-0.0228 0.3374,-0.0239 0.3374,-0.025 0.3374,-0.0262 0.3374,-0.0273 0.3374,-0.0284 0.3374,-0.0296 0.3374,-0.0307 0.3374,-0.0316 0.33741,-0.0327 0.3374,-0.0338 0.3374,-0.035 0.3374,-0.0361 0.3374,-0.0372 0.3374,-0.0383 0.3374,-0.0395 0.3374,-0.0406 0.3374,-0.0417 0.3374,-0.0428 0.3374,-0.044 0.3374,-0.0449 0.3374,-0.046 0.3374,-0.0471 0.3374,-0.0483 0.33741,-0.0494 0.3374,-0.0505 0.3374,-0.0516 0.3374,-0.0528 0.3374,-0.0539 0.3374,-0.0548 0.3374,-0.0559 0.3374,-0.0571 0.3374,-0.0582 0.3374,-0.0593 0.3374,-0.0605 0.3374,-0.0616 0.33741,-0.0627 0.3374,-0.0638 0.3374,-0.0647 0.3374,-0.0659 0.3374,-0.067 0.3374,-0.0681 0.3374,-0.0693 0.3374,-0.0704 0.3374,-0.0715 0.3374,-0.0724 0.3374,-0.0735 0.3374,-0.0747 0.33741,-0.0758 0.3374,-0.0769 0.3374,-0.078 0.3374,-0.0789 0.3374,-0.0801 0.3374,-0.0812 0.3374,-0.0823 0.3374,-0.0834 0.3374,-0.0844 0.3374,-0.0855 0.3374,-0.0866 0.3374,-0.0877 0.3374,-0.0889 0.3374,-0.0898 0.3374,-0.0909 0.3374,-0.092 0.33741,-0.0932 0.3374,-0.0943 0.3374,-0.0952 0.3374,-0.0963 0.3374,-0.0974 0.3374,-0.0986 0.3374,-0.0995 0.3374,-0.1006 0.3374,-0.10172 0.3374,-0.10263 0.3374,-0.10375 0.33741,-0.10489 0.3374,-0.10601 0.3374,-0.10691 0.3374,-0.10804 0.3374,-0.10917 0.3374,-0.11007 0.3374,-0.1112 0.3374,-0.11232 0.3374,-0.11346 0.3374,-0.11435 0.3374,-0.11549 0.3374,-0.11661 0.3374,-0.11751 0.3374,-0.11864 0.33741,-0.11977 0.3374,-0.12067 0.3374,-0.1218 0.3374,-0.12293 0.3374,-0.12383 0.3374,-0.12496 0.3374,-0.12586 0.3374,-0.12698 0.3374,-0.12812 0.3374,-0.12902 0.3374,-0.13014 0.3374,-0.13127 0.3374,-0.13218 0.3374,-0.1333 0.33741,-0.1342 0.3374,-0.13534 0.3374,-0.13646 0.3374,-0.13736 0.3374,-0.13849 0.3374,-0.13939 0.3374,-0.14052 0.3374,-0.14143 0.3374,-0.14255 0.3374,-0.14345 0.3374,-0.14458 0.3374,-0.14548 0.33741,-0.14661 0.3374,-0.14751 0.3374,-0.14864 0.3374,-0.14955 0.3374,-0.15067 0.3374,-0.15157 0.3374,-0.1527 0.3374,-0.1536 0.3374,-0.15473 0.3374,-0.15563 0.3374,-0.15654 0.3374,-0.15766 0.3374,-0.15857 0.3374,-0.15969 0.33741,-0.16059 0.3374,-0.16172 0.3374,-0.16263 0.3374,-0.16353 0.3374,-0.16465 0.3374,-0.16556 0.3374,-0.16646 0.3374,-0.16758 0.3374,-0.16849 0.3374,-0.16962 0.3374,-0.17052 0.3374,-0.17142 0.3374,-0.17255 0.33741,-0.17345 0.3374,-0.17435 0.3374,-0.17548 0.3374,-0.17639 0.3374,-0.17728 0.3374,-0.17819 0.3374,-0.17932 0.3374,-0.18021 0.3374,-0.18112 0.3374,-0.18203 0.3374,-0.18315 0.3374,-0.18405 0.33741,-0.18495 0.3374,-0.18586 0.3374,-0.18676 0.3374,-0.18788 0.3374,-0.18879 0.3374,-0.18969 0.3374,-0.1906 0.3374,-0.19172 0.3374,-0.19262 0.3374,-0.19353 0.3374,-0.19443 0.3374,-0.19533 0.3374,-0.19623 0.3374,-0.19713 0.3374,-0.19804 0.3374,-0.19916 0.33741,-0.20007 0.3374,-0.20097 0.3374,-0.20187 0.3374,-0.20277 0.3374,-0.20368 0.3374,-0.20458 0.3374,-0.20548 0.3374,-0.20638 0.3374,-0.20728 0.3374,-0.20819 0.3374,-0.20909 0.33741,-0.20999 0.3374,-0.21089 0.3374,-0.2118 0.3374,-0.21269 0.3374,-0.2136 0.3374,-0.21451 0.3374,-0.2154 0.3374,-0.21631 0.3374,-0.21721 0.3374,-0.21788 0.3374,-0.21879 0.3374,-0.21969 0.3374,-0.22059 0.33741,-0.22149 0.3374,-0.2224 0.3374,-0.2233 0.3374,-0.2242 0.3374,-0.22488 0.3374,-0.22582 0.3374,-0.22668 0.3374,-0.22754 0.3374,-0.2284 0.3374,-0.22925 0.3374,-0.23009 0.3374,-0.23095 0.3374,-0.23177 0.3374,-0.23264 0.3374,-0.23347 0.33741,-0.23433 0.3374,-0.23514 0.3374,-0.23598 0.3374,-0.23683 0.3374,-0.23764 0.3374,-0.23846 0.3374,-0.23929 0.3374,-0.24012 0.3374,-0.24094 0.3374,-0.24175 0.3374,-0.24258 0.33741,-0.24338 0.3374,-0.2442 0.3374,-0.245 0.3374,-0.24581 0.3374,-0.2466 0.3374,-0.24741 0.3374,-0.2482 0.3374,-0.24901 0.3374,-0.2498 0.3374,-0.25059 0.3374,-0.25138 0.3374,-0.25215 0.3374,-0.25296 0.3374,-0.25372 0.3374,-0.2545 0.33741,-0.25528 0.3374,-0.25605 0.3374,-0.25684 0.3374,-0.25758 0.3374,-0.25837 0.3374,-0.25912 0.3374,-0.25988 0.3374,-0.26063 0.3374,-0.26139 0.3374,-0.26217 0.3374,-0.26288 0.3374,-0.26365 0.3374,-0.26439 0.33741,-0.26514 0.3374,-0.26586 0.3374,-0.26661 0.3374,-0.26735 0.3374,-0.26807 0.3374,-0.26881 0.3374,-0.26954 0.3374,-0.27026 0.3374,-0.27096 0.3374,-0.2717 0.3374,-0.27243 0.3374,-0.27312 0.33741,-0.27382 0.3374,-0.27455 0.3374,-0.27524 0.3374,-0.27594 0.3374,-0.27667 0.3374,-0.27734 0.3374,-0.27804 0.3374,-0.27874 0.3374,-0.27942 0.3374,-0.28009 0.3374,-0.28079 0.3374,-0.28147 0.3374,-0.28215 0.337398,-0.28282 0.3374,-0.2835 0.33741,-0.28415 0.3374,-0.28483 0.3374,-0.28551 0.3374,-0.28614 0.3374,-0.28681 0.3374,-0.28747 0.3374,-0.28812 0.3374,-0.28876 0.3374,-0.28941 0.3374,-0.29006 0.3374,-0.29069 0.3374,-0.29135 0.33741,-0.29196 0.3374,-0.29261 0.3374,-0.29322 0.3374,-0.29385 0.3374,-0.29449 0.3374,-0.29511 0.3374,-0.2957 0.3374,-0.29633 0.3374,-0.29697 0.3374,-0.29755 0.3374,-0.29816 0.3374,-0.29875 0.3374,-0.29938 0.33741,-0.29994 0.3374,-0.30055 0.3374,-0.30116 0.3374,-0.30172 0.3374,-0.30231 0.3374,-0.3029 0.3374,-0.30348 0.3374,-0.30405 0.3374,-0.30463 0.3374,-0.3052 0.3374,-0.30576 0.3374,-0.30633 0.3374,-0.30689 0.3374,-0.30745 0.33741,-0.30799 0.3374,-0.30856 0.3374,-0.3091 0.3374,-0.30964 0.3374,-0.31018 0.3374,-0.31075 0.3374,-0.31126 0.3374,-0.31179 0.3374,-0.31234 0.3374,-0.31285 0.3374,-0.31338 0.3374,-0.31391 0.33741,-0.31442 0.3374,-0.31492 0.3374,-0.31546 0.3374,-0.31595 0.3374,-0.31646 0.3374,-0.31697 0.3374,-0.31744 0.3374,-0.31797 0.3374,-0.31846 0.3374,-0.31893 0.3374,-0.31943 0.3374,-0.3199 0.3374,-0.3204 0.3374,-0.32085 0.3374,-0.32135 0.33741,-0.32182 0.3374,-0.32227 0.3374,-0.32275 0.3374,-0.3232 0.3374,-0.32367 0.3374,-0.32412 0.3374,-0.32457 0.3374,-0.325 0.3374,-0.32548 0.3374,-0.3259 0.3374,-0.32633 0.3374,-0.32678 0.3374,-0.32722 0.33741,-0.32764 0.3374,-0.32806 0.3374,-0.3285 0.3374,-0.3289 0.3374,-0.32931 0.3374,-0.32974 0.3374,-0.33014 0.3374,-0.33058 0.3374,-0.33095 0.3374,-0.33134 0.3374,-0.33175 0.33741,-0.33215 0.3374,-0.33253 0.3374,-0.33292 0.3374,-0.3333 0.3374,-0.33369 0.3374,-0.33406 0.3374,-0.33443 0.3374,-0.33482 0.3374,-0.33517 0.3374,-0.33553 0.3374,-0.33588 0.3374,-0.33625 0.3374,-0.33662 0.3374,-0.33696 0.3374,-0.33729 0.3374,-0.33763 0.33741,-0.33799 0.3374,-0.33834 0.3374,-0.33864 0.3374,-0.33899 0.3374,-0.3393 0.3374,-0.33964 0.3374,-0.33995 0.3374,-0.34028 0.3374,-0.34058 0.3374,-0.3409 0.3374,-0.3412 0.3374,-0.34151 0.33741,-0.34181 0.3374,-0.34209 0.3374,-0.3424 0.3374,-0.34268 0.3374,-0.34296 0.3374,-0.34327 0.3374,-0.34352 0.3374,-0.34381 0.3374,-0.34408 0.3374,-0.34435 0.3374,-0.34461 0.3374,-0.34487 0.3374,-0.34514 0.33741,-0.34539 0.3374,-0.34564 0.3374,-0.34591 0.3374,-0.34614 0.3374,-0.34638 0.3374,-0.34661 0.3374,-0.34686 0.3374,-0.34708 0.3374,-0.34731 0.3374,-0.34755 0.3374,-0.34776 0.3374,-0.34797 0.3374,-0.34818 0.3374,-0.34842 0.33741,-0.34861 0.3374,-0.34882 0.3374,-0.349 0.3374,-0.34923 0.3374,-0.34941 0.3374,-0.34958 0.3374,-0.34979 0.3374,-0.34997 0.33741,-0.35015 0.3374,-0.35031 0.3374,-0.35051 0.3374,-0.35067 0.3374,-0.35083 0.3374,-0.35098 0.3374,-0.35117 0.3374,-0.3513 0.3374,-0.35146 0.3374,-0.35161 0.3374,-0.35175 0.3374,-0.35189 0.3374,-0.35205 0.3374,-0.35218 0.3374,-0.35229 0.3374,-0.35243 0.33741,-0.35254 0.3374,-0.35268 0.3374,-0.35279 0.3374,-0.35292 0.3374,-0.35301 0.3374,-0.35311 0.3374,-0.35324 0.3374,-0.35333 0.3374,-0.35342 0.3374,-0.35351 0.3374,-0.3536 0.33741,-0.3537 0.3374,-0.35375 0.3374,-0.35388 0.3374,-0.35391 0.3374,-0.35401 0.3374,-0.35405 0.3374,-0.35415 0.3374,-0.35418 0.3374,-0.35426 0.3374,-0.3543 0.3374,-0.35435 0.3374,-0.35441 0.3374,-0.35446 0.3374,-0.35448 0.33741,-0.35452 0.3374,-0.35455 0.3374,-0.3546 0.3374,-0.35461 0.3374,-0.35464 0.3374,-0.35466 0.3374,-0.35466 0.3374,-0.35469 0.3374,-0.35468 0.3374,-0.3547 0.33741,-0.35471 0.3374,-0.35471 0.33739,-0.35468 0.3374,-0.35468 0.33741,-0.35467 0.33739,-0.35466 0.3374,-0.35464 0.33741,-0.35461 0.33741,-0.3546 0.33738,-0.35455 0.33741,-0.35452 0.3374,-0.35448 0.33741,-0.35446 0.33739,-0.35441 0.3374,-0.35435 0.33741,-0.3543 0.33738,-0.35426 0.33741,-0.35418 0.33741,-0.35415 0.3374,-0.35405 0.33739,-0.35401 0.33741,-0.35391 0.3374,-0.35387 0.33741,-0.35376 0.33739,-0.35369 0.3374,-0.35361 0.33741,-0.35351 0.33738,-0.35342 0.33741,-0.35333 0.33741,-0.35324 0.3374,-0.3531 0.33739,-0.35302 0.33741,-0.35292 0.3374,-0.35279 0.33741,-0.35268 0.33738,-0.35254 0.33741,-0.35243 0.33741,-0.35229 0.33738,-0.35218 0.33741,-0.35205 0.33741,-0.35188 0.3374,-0.35176 0.33739,-0.35161 0.3374,-0.35146 0.33741,-0.3513 0.33741,-0.35117 0.33738,-0.35098 0.33741,-0.35083 0.33741,-0.35067 0.33738,-0.35051 0.33741,-0.35031 0.3374,-0.35015 0.33741,-0.34997 0.33739,-0.34979 0.3374,-0.34958 0.33741,-0.34941 0.33738,-0.34923 0.33741,-0.34899 0.33741,-0.34882 0.3374,-0.34862 0.33739,-0.34841 0.33741,-0.34819 0.3374,-0.34797 0.33741,-0.34775 0.33738,-0.34756 0.33741,-0.34731 0.33741,-0.34708 0.33738,-0.34686 0.33741,-0.34661 0.33741,-0.34638 0.3374,-0.34614 0.33739,-0.34591 0.33741,-0.34564 0.3374,-0.34539 0.33741,-0.34514 0.33738,-0.34487 0.33741,-0.3446 0.33741,-0.34436 0.33738,-0.34408 0.33741,-0.34381 0.33741,-0.34352 0.3374,-0.34327 0.33739,-0.34296 0.3374,-0.34268 0.33741,-0.34239 0.33741,-0.3421 0.33738,-0.34181 0.33741,-0.34151 0.33741,-0.34119 0.33738,-0.34091 0.33741,-0.34058 0.3374,-0.34027 0.33741,-0.33996 0.33739,-0.33964 0.3374,-0.3393 0.33741,-0.33899 0.33741,-0.33864 0.33738,-0.33833 0.33741,-0.338 0.3374,-0.33763 0.33739,-0.33729 0.33741,-0.33696 0.3374,-0.33662 0.33741,-0.33625 0.33738,-0.33587 0.33741,-0.33554 0.33741,-0.33517 0.33738,-0.33481 0.33741,-0.33443 0.33741,-0.33407 0.3374,-0.33369 0.33739,-0.3333 0.3374,-0.33292 0.33741,-0.33253 0.33741,-0.33215 0.33738,-0.33175 0.33741,-0.33134 0.33741,-0.33095 0.33738,-0.33057 0.33741,-0.33015 0.33741,-0.32974 0.3374,-0.3293 0.33739,-0.32891 0.3374,-0.32849 0.33741,-0.32807 0.33741,-0.32764 0.33738,-0.32721 0.33741,-0.32679 0.33741,-0.32633 0.33738,-0.3259 0.33741,-0.32548 0.3374,-0.325 0.33741,-0.32457 0.33739,-0.32412 0.3374,-0.32367 0.33741,-0.3232 0.33741,-0.32274 0.33738,-0.32228 0.33741,-0.32182 0.3374,-0.32134 0.33739,-0.32086 0.33741,-0.32039 0.3374,-0.31991 0.33741,-0.31943 0.33738,-0.31893 0.33741,-0.31846 0.33741,-0.31797 0.3374,-0.31744 0.33739,-0.31697 0.33741,-0.31645 0.3374,-0.31596 0.33739,-0.31546 0.3374,-0.31492 0.33741,-0.31442 0.33741,-0.31391 0.33738,-0.31338 0.33741,-0.31284 0.33741,-0.31235 0.33738,-0.31179 0.33741,-0.31126 0.33741,-0.31075 0.3374,-0.31018 0.33739,-0.30964 0.3374,-0.3091 0.33741,-0.30856 0.33741,-0.30799 0.33738,-0.30745 0.33741,-0.30689 0.33741,-0.30633 0.33738,-0.30576 0.33741,-0.3052 0.3374,-0.30463 0.33741,-0.30405 0.33739,-0.30348 0.3374,-0.3029 0.33741,-0.30231 0.33741,-0.30172 0.33738,-0.30116 0.33741,-0.30055 0.3374,-0.29994 0.33739,-0.29938 0.33741,-0.29875 0.3374,-0.29816 0.33741,-0.29755 0.33738,-0.29696 0.33741,-0.29634 0.33741,-0.2957 0.3374,-0.29511 0.33739,-0.29449 0.33741,-0.29385 0.3374,-0.29322 0.33739,-0.29261 0.3374,-0.29196 0.33741,-0.29135 0.33741,-0.29069 0.33738,-0.29006 0.33741,-0.28941 0.33741,-0.28876 0.3374,-0.28812 0.33739,-0.28747 0.3374,-0.28681 0.33741,-0.28614 0.33739,-0.28551 0.3374,-0.28483 0.33741,-0.28415 0.33741,-0.2835 0.33738,-0.28282 0.33741,-0.28215 0.33741,-0.28147 0.33738,-0.28079 0.33741,-0.28009 0.3374,-0.27942 0.33741,-0.27874 0.33738,-0.27804 0.33741,-0.27734 0.33741,-0.27667 0.3374,-0.27594 0.33739,-0.27524 0.33741,-0.27455 0.3374,-0.27382 0.33739,-0.27312 0.33741,-0.27243 0.3374,-0.2717 0.33741,-0.27096 0.33738,-0.27026 0.33741,-0.26953 0.33741,-0.26882 0.3374,-0.26807 0.33739,-0.26735 0.33741,-0.26661 0.3374,-0.26586 0.33739,-0.26514 0.3374,-0.26439 0.33741,-0.26365 0.33741,-0.26288 0.33738,-0.26217 0.33741,-0.26139 0.33741,-0.26063 0.3374,-0.25988 0.33739,-0.25912 0.3374,-0.25837 0.33741,-0.25758 0.33739,-0.25684 0.3374,-0.25605 0.33741,-0.25528 0.33741,-0.2545 0.33738,-0.25372 0.33741,-0.25296 0.3374,-0.25215 0.33741,-0.25138 0.33739,-0.25059 0.3374,-0.2498 0.33741,-0.24901 0.33738,-0.2482 0.33741,-0.24741 0.33741,-0.2466 0.3374,-0.24581 0.33739,-0.245 0.33741,-0.2442 0.3374,-0.24338 0.33739,-0.24258 0.33741,-0.24175 0.3374,-0.24094 0.33741,-0.24012 0.33738,-0.23929 0.33741,-0.23846 0.33741,-0.23764 0.3374,-0.23683 0.33739,-0.23598 0.33741,-0.23514 0.3374,-0.23433 0.33739,-0.23347 0.3374,-0.23263 0.33741,-0.23178 0.33741,-0.23095 0.33738,-0.23009 0.33741,-0.22925 0.33741,-0.2284 0.3374,-0.22753 0.33739,-0.22669 0.3374,-0.22582 0.33741,-0.22488 0.33739,-0.2242 0.3374,-0.2233 0.33741,-0.22239 0.33741,-0.2215 0.33738,-0.22059 0.33741,-0.21969 0.3374,-0.21879 0.33741,-0.21788 0.33739,-0.21721 0.3374,-0.21631 0.33741,-0.2154 0.33739,-0.2145 0.3374,-0.21196 0.33741,-0.2127 0.3374,-0.2118 0.33739,-0.21089 0.33741,-0.20999 0.3374,-0.20909 0.33741,-0.20819 0.33739,-0.20728 0.3374,-0.20638 0.33741,-0.20548 0.33738,-0.20458 0.33741,-0.20368 0.33741,-0.20277 0.3374,-0.20187 0.33739,-0.20097 0.33741,-0.20007 0.3374,-0.19916 0.33741,-0.19804 0.33738,-0.19713 0.33741,-0.19623 0.33741,-0.19533 0.33738,-0.19443 0.33741,-0.19353 0.33741,-0.19262 0.3374,-0.1915 0.33739,-0.19059 0.3374,-0.18969 0.33741,-0.18879 0.33739,-0.18788 0.3374,-0.18699 0.33741,-0.18586 0.33741,-0.18495 0.33738,-0.18405 0.33741,-0.18315 0.3374,-0.18202 0.33741,-0.18112 0.33739,-0.18022 0.3374,-0.17932 0.33741,-0.17819 0.33738,-0.17728 0.33741,-0.17638 0.33741,-0.17526 0.3374,-0.17435 0.33739,-0.17346 0.33741,-0.17254 0.3374,-0.17143 0.33741,-0.17051 0.33739,-0.16962 0.3374,-0.16849 0.33741,-0.16759 0.33738,-0.16668 0.33741,-0.16556 0.33741,-0.16465 0.3374,-0.16353 0.33739,-0.16262 0.33741,-0.16173 0.3374,-0.160591 0.33741,-0.159692 0.33738,-0.158565 0.33741,-0.157662 0.33741,-0.15676 0.33738,-0.155633 0.33741,-0.15473 0.33741,-0.153602 0.3374,-0.1527 0.33739,-0.151573 0.3374,-0.15067 0.33741,-0.149542 0.33741,-0.148641 0.33738,-0.147512 0.33741,-0.14661 0.33741,-0.145483 0.33738,-0.14458 0.33741,-0.143452 0.3374,-0.142551 0.33741,-0.141422 0.33739,-0.14052 0.3374,-0.139393 0.33741,-0.138265 0.33738,-0.137362 0.33741,-0.13646 0.33741,-0.135333 0.3374,-0.134205 0.33739,-0.133302 0.33741,-0.132175 0.3374,-0.131272 0.33741,-0.130145 0.33738,-0.129017 0.33741,-0.128115 0.33741,-0.126987 0.33738,-0.126085 0.33741,-0.124957 0.33741,-0.123829 0.3374,-0.122927 0.33739,-0.121799 0.33741,-0.120672 0.3374,-0.119769 0.33741,-0.118641 0.33738,-0.117514 0.33741,-0.116612 0.33741,-0.115483 0.33738,-0.114356 0.33741,-0.113454 0.33741,-0.112326 0.3374,-0.111198 0.33739,-0.110071 0.3374,-0.109168 0.33741,-0.10804 0.33741,-0.106913 0.33738,-0.106011 0.33741,-0.104882 0.33741,-0.103755 0.33738,-0.102853 0.33741,-0.101725 0.3374,-0.100597 0.33741,-0.09947 0.33739,-0.09857 0.3374,-0.09744 0.33741,-0.09631 0.33741,-0.09518 0.33738,-0.09406 0.33741,-0.09315 0.3374,-0.09203 0.33739,-0.0909 0.33741,-0.08977 0.3374,-0.08887 0.33741,-0.08774 0.33738,-0.08661 0.33741,-0.08549 0.33741,-0.08436 0.33738,-0.08345 0.33741,-0.08233 0.33741,-0.0812 0.3374,-0.08007 0.33739,-0.07894 0.3374,-0.07804 0.33741,-0.07691 0.33741,-0.07579 0.33738,-0.07466 0.33741,-0.07353 0.33741,-0.0724 0.33738,-0.0715 0.33741,-0.07037 0.33741,-0.06925 0.3374,-0.06812 0.33739,-0.06699 0.3374,-0.06586 0.33741,-0.06473 0.33741,-0.06361 0.33738,-0.0627 0.33741,-0.06158 0.33741,-0.06045 0.33738,-0.05932 0.33741,-0.05819 0.3374,-0.05706 0.33741,-0.05594 0.33739,-0.05481 0.3374,-0.05391 0.33741,-0.05278 0.33741,-0.05165 0.33738,-0.05053 0.33741,-0.0494 0.3374,-0.04827 0.33739,-0.04714 0.33741,-0.04601 0.3374,-0.04489 0.33741,-0.04398 0.33738,-0.04285 0.33741,-0.04173 0.33741,-0.0406 0.3374,-0.03947 0.33739,-0.03834 0.33741,-0.03722 0.3374,-0.03609 0.33739,-0.03496 0.3374,-0.03383 0.33741,-0.0327 0.33741,-0.03158 0.33738,-0.03045 0.33741,-0.02955 0.33741,-0.02842 0.33738,-0.02729 0.33741,-0.02616 0.33741,-0.02504 0.3374,-0.02391 0.33739,-0.02278 0.3374,-0.02256 0.33741,-0.0203 0.33741,-0.0203 0.33738,-0.01804 0.33741,-0.01804 0.33741,-0.01579 0.33738,-0.01579 0.33741,-0.01353 0.3374,-0.01353 0.33741,-0.01128 0.33739,-0.01128 0.3374,-0.009 0.33741,-0.009 0.33741,-0.0068 0.33738,-0.0068 0.33741,-0.0045 0.3374,-0.0045 0.33739,-0.0023 0.33741,-0.0016 0.3374,0.0092"
     style="fill:none;stroke:#000000;stroke-width:1.66666663;stroke-linecap:round;stroke-linejoin:round;stroke-dasharray:none"
     inkscape:label="none"
     id="path2836" />
</svg>
