<?xml version="1.0" encoding="UTF-8" standalone="no"?>
<!-- Created with Inkscape (http://www.inkscape.org/) -->

<svg
   xmlns:dc="http://purl.org/dc/elements/1.1/"
   xmlns:cc="http://creativecommons.org/ns#"
   xmlns:rdf="http://www.w3.org/1999/02/22-rdf-syntax-ns#"
   xmlns:svg="http://www.w3.org/2000/svg"
   xmlns="http://www.w3.org/2000/svg"
   xmlns:sodipodi="http://sodipodi.sourceforge.net/DTD/sodipodi-0.dtd"
   xmlns:inkscape="http://www.inkscape.org/namespaces/inkscape"
   width="228.2738mm"
   height="228.2738mm"
   viewBox="0 0 228.2738 228.2738"
   version="1.1"
   id="svg8"
   inkscape:version="0.92.2 5c3e80d, 2017-08-06"
   sodipodi:docname="BabinetIII.svg">
  <defs
     id="defs2" />
  <sodipodi:namedview
     id="base"
     pagecolor="#ffffff"
     bordercolor="#666666"
     borderopacity="1.0"
     inkscape:pageopacity="0.0"
     inkscape:pageshadow="2"
     inkscape:zoom="0.24748737"
     inkscape:cx="518.52643"
     inkscape:cy="359.95498"
     inkscape:document-units="mm"
     inkscape:current-layer="layer1"
     showgrid="false"
     inkscape:window-width="1440"
     inkscape:window-height="789"
     inkscape:window-x="0"
     inkscape:window-y="1"
     inkscape:window-maximized="1" />
  <metadata
     id="metadata5">
    <rdf:RDF>
      <cc:Work
         rdf:about="">
        <dc:format>image/svg+xml</dc:format>
        <dc:type
           rdf:resource="http://purl.org/dc/dcmitype/StillImage" />
        <dc:title></dc:title>
      </cc:Work>
    </rdf:RDF>
  </metadata>
  <g
     inkscape:label="Layer 1"
     inkscape:groupmode="layer"
     id="layer1"
     transform="translate(-3.7916665,-46.035713)">
    <rect
       style="opacity:1;fill:#ffffff;fill-opacity:1;fill-rule:nonzero;stroke:#000000;stroke-width:3;stroke-linecap:round;stroke-linejoin:miter;stroke-miterlimit:4;stroke-dasharray:none;stroke-dashoffset:0;stroke-opacity:1"
       id="rect812"
       width="225.2738"
       height="225.2738"
       x="5.2916665"
       y="47.535713" />
    <path
       style="fill:#ffffff;stroke:#ffffff;stroke-width:0.26458332px;stroke-linecap:butt;stroke-linejoin:miter;stroke-opacity:1"
       d="M 20.410714,231.23214 C 9.8273803,224.42857 7.5595233,96.672618 11.339284,86.089285 c 3.779763,-10.583333 49.136905,-15.875 59.720238,-15.119048 10.583333,0.755952 15.874997,3.023809 15.874997,7.559524 0,4.535715 -51.40476,5.291667 -55.940472,10.583333 -4.535715,5.291667 -6.047621,46.869046 -5.291667,51.404756 0.755952,4.53572 48.380951,-1.5119 57.452379,-1.5119 9.071427,0 6.803567,6.80357 6.803567,12.09524 0,5.29166 -59.720233,-0.75595 -62.744043,2.26786 -3.023809,3.0238 6.047621,70.30357 3.779764,74.83928 -2.267858,4.53571 -2.267858,9.07143 -10.583333,3.02381 z"
       id="path814"
       inkscape:connector-curvature="0" />
    <path
       style="fill:#ffffff;stroke:#ffffff;stroke-width:0.26458332px;stroke-linecap:butt;stroke-linejoin:miter;stroke-opacity:1"
       d="M 118.68451,165.46429 C 101.2976,145.80953 86.934519,125.39882 87.690469,120.10715 c 0.75595,-5.29167 27.214271,21.92262 33.261891,28.72619 6.04762,6.80357 9.82738,8.31548 12.85119,8.31548 3.02381,0 18.89881,-43.08929 21.92262,-44.6012 3.02381,-1.5119 6.04762,-6.04762 6.80357,1.51191 0.75596,7.55952 -19.65476,46.86905 -22.67857,53.67262 -3.02381,6.80357 1.51191,59.72023 1.51191,69.54762 0,9.82738 -2.36292,19.82854 -9.82738,15.11904 -7.46447,-4.7095 -3.77977,-80.8869 -12.85119,-86.93452 z"
       id="path816"
       inkscape:connector-curvature="0"
       sodipodi:nodetypes="csssccsszc" />
    <path
       sodipodi:nodetypes="csssccsszc"
       inkscape:connector-curvature="0"
       id="path818"
       d="m 182.18455,128.4226 c -17.38691,-19.65476 -31.75,-40.065461 -30.99405,-45.357128 0.75595,-5.291667 27.21428,21.922608 33.2619,28.726178 6.04762,6.80357 9.82738,8.31548 12.85119,8.31548 3.02381,0 18.89881,-43.089275 21.92262,-44.601185 3.02381,-1.5119 6.04762,-6.047617 6.80357,1.51191 0.75596,7.559514 -19.65476,46.869035 -22.67857,53.672605 -3.02381,6.80357 1.51191,59.72023 1.51191,69.54762 0,9.82738 -2.36292,19.82854 -9.82738,15.11904 -7.46447,-4.7095 -3.77977,-80.8869 -12.85119,-86.93452 z"
       style="fill:#ffffff;stroke:#ffffff;stroke-width:0.26458332px;stroke-linecap:butt;stroke-linejoin:miter;stroke-opacity:1" />
  </g>
</svg>
