<?xml version="1.0" encoding="UTF-8" standalone="no"?>
<!-- Created with Inkscape (http://www.inkscape.org/) -->

<svg
   xmlns:dc="http://purl.org/dc/elements/1.1/"
   xmlns:cc="http://creativecommons.org/ns#"
   xmlns:rdf="http://www.w3.org/1999/02/22-rdf-syntax-ns#"
   xmlns:svg="http://www.w3.org/2000/svg"
   xmlns="http://www.w3.org/2000/svg"
   xmlns:sodipodi="http://sodipodi.sourceforge.net/DTD/sodipodi-0.dtd"
   xmlns:inkscape="http://www.inkscape.org/namespaces/inkscape"
   width="914.27881mm"
   height="877.68774mm"
   viewBox="0 0 914.27881 877.68776"
   version="1.1"
   id="svg8"
   inkscape:version="0.92.2 5c3e80d, 2017-08-06"
   sodipodi:docname="VectorSuperposition.svg">
  <defs
     id="defs2" />
  <sodipodi:namedview
     id="base"
     pagecolor="#ffffff"
     bordercolor="#666666"
     borderopacity="1.0"
     inkscape:pageopacity="0.0"
     inkscape:pageshadow="2"
     inkscape:zoom="0.24748737"
     inkscape:cx="1884.202"
     inkscape:cy="2748.2507"
     inkscape:document-units="mm"
     inkscape:current-layer="layer1"
     showgrid="false"
     inkscape:window-width="1440"
     inkscape:window-height="789"
     inkscape:window-x="29"
     inkscape:window-y="0"
     inkscape:window-maximized="0" />
  <metadata
     id="metadata5">
    <rdf:RDF>
      <cc:Work
         rdf:about="">
        <dc:format>image/svg+xml</dc:format>
        <dc:type
           rdf:resource="http://purl.org/dc/dcmitype/StillImage" />
        <dc:title></dc:title>
      </cc:Work>
    </rdf:RDF>
  </metadata>
  <g
     inkscape:label="Layer 1"
     inkscape:groupmode="layer"
     id="layer1"
     transform="translate(-19.358373,482.03844)">
    <path
       sodipodi:type="spiral"
       style="fill:none;fill-rule:evenodd;stroke:#000000;stroke-width:1;stroke-miterlimit:4;stroke-dasharray:none"
       id="path1012"
       sodipodi:cx="415.02975"
       sodipodi:cy="-53.938667"
       sodipodi:expansion="1"
       sodipodi:revolution="10.21"
       sodipodi:radius="426.88428"
       sodipodi:argument="-125.40311"
       sodipodi:t0="0"
       d="m 415.02975,-53.938667 c 6.07659,1.620402 0.81371,8.990559 -2.69321,10.099677 -9.50353,3.005641 -17.10201,-6.996917 -17.50614,-15.486108 -0.7229,-15.185173 14.17695,-25.639427 28.279,-24.912602 20.69533,1.066646 34.3454,21.42385 32.31906,41.071895 -2.70078,26.187753 -28.69048,43.1181132 -53.86478,39.7255248 -31.67929,-4.2692263 -51.92433,-35.9655588 -47.13199,-66.6576798 5.80417,-37.17227 43.24518,-60.74975 79.45057,-54.53845 42.6668,7.3198 69.5872,50.527612 61.94491,92.243467 -8.82331,48.162606 -57.81191,78.432666 -105.03636,69.351372 -53.65941,-10.318743 -87.28376,-65.097545 -76.75783,-117.829252 11.8085,-59.157007 72.38415,-96.138947 130.62215,-84.164297 64.65521,13.29413 104.99719,79.671495 91.57075,143.415039 C 521.44922,48.53383 449.26647,92.237719 380.01795,77.357139 304.36495,61.100321 257.29769,-16.89065 273.63427,-91.643685 291.36937,-172.7961 375.1708,-223.22789 455.42799,-205.43383 542.08008,-186.22194 595.87733,-96.608248 576.62459,-10.847219 555.93713,81.304773 460.50971,138.46826 369.24509,117.75585 271.59302,95.593811 211.06265,-5.648539 233.23556,-102.41655 256.87134,-205.56886 363.92964,-269.46664 466.20085,-245.83254 574.85354,-220.72372 642.11919,-107.84862 617.0233,-0.07435667 590.44205,114.07883 471.74942,184.71273 358.47223,158.15456 238.81845,130.10137 164.81595,5.5905868 192.83685,-113.18941 222.36153,-238.34387 352.69101,-315.71525 476.97371,-286.23125 607.62893,-255.23547 688.36946,-119.08682 657.42201,10.698505 624.95547,146.85455 482.98723,230.96444 347.69937,198.55327 206.04244,164.61625 118.56298,16.828069 152.43814,-123.96227 187.84538,-271.12014 341.45382,-361.96934 487.74657,-326.62996 640.40543,-289.75274 734.62452,-130.32374 697.82072,21.471368 659.47374,179.63126 494.22392,277.22038 336.9265,238.95198 173.26554,199.1354 72.306254,28.064549 112.03943,-134.73513 c 41.286,-169.16207 218.1781,-273.49164 386.48001,-232.29354 174.6632,42.75527 282.36315,225.46881 239.69999,399.2729 C 693.99504,212.4086 505.45989,323.47902 326.15364,279.35069 140.48808,233.65729 26.047096,39.300373 71.640723,-145.508 118.80302,-336.67478 318.98184,-454.4864 509.2923,-407.42738 705.96032,-358.79629 827.14265,-152.79544 778.61814,43.017092 728.51836,245.18638 516.69536,369.73948 315.38078,319.7494 107.71022,268.18101 -20.213724,50.535743 31.242013,-156.28086 84.278931,-369.45272 307.74656,-500.74755 520.06516,-447.82609 738.73833,-393.32071 873.40411,-164.03064 819.01685,53.789954 772.7854,238.9466 601.50603,371.72473 411.07162,372.92726" />
    <text
       xml:space="preserve"
       style="font-style:normal;font-weight:normal;font-size:10.58333302px;line-height:1.25;font-family:sans-serif;letter-spacing:0px;word-spacing:0px;fill:#000000;fill-opacity:1;stroke:none;stroke-width:0.26458332"
       x="411.07159"
       y="394.09384"
       id="text1016"><tspan
         sodipodi:role="line"
         id="tspan1014"
         x="411.07159"
         y="394.09384"
         style="stroke-width:0.26458332">$b+0$</tspan></text>
    <text
       id="text1020"
       y="-48.504498"
       x="848.32458"
       style="font-style:normal;font-weight:normal;font-size:10.58333302px;line-height:1.25;font-family:sans-serif;letter-spacing:0px;word-spacing:0px;fill:#000000;fill-opacity:1;stroke:none;stroke-width:0.26458332"
       xml:space="preserve"><tspan
         style="stroke-width:0.26458332"
         y="-48.504498"
         x="848.32458"
         id="tspan1018"
         sodipodi:role="line">$b+\lambda/4$</tspan></text>
    <text
       xml:space="preserve"
       style="font-style:normal;font-weight:normal;font-size:10.58333302px;line-height:1.25;font-family:sans-serif;letter-spacing:0px;word-spacing:0px;fill:#000000;fill-opacity:1;stroke:none;stroke-width:0.26458332"
       x="426.03873"
       y="-473.99759"
       id="text1024"><tspan
         sodipodi:role="line"
         id="tspan1022"
         x="426.03873"
         y="-473.99759"
         style="stroke-width:0.26458332">$b+\lambda/2$</tspan></text>
    <text
       id="text1028"
       y="343.84717"
       x="408.93344"
       style="font-style:normal;font-weight:normal;font-size:10.58333302px;line-height:1.25;font-family:sans-serif;letter-spacing:0px;word-spacing:0px;fill:#000000;fill-opacity:1;stroke:none;stroke-width:0.26458332"
       xml:space="preserve"><tspan
         style="stroke-width:0.26458332"
         y="343.84717"
         x="408.93344"
         id="tspan1026"
         sodipodi:role="line">$b+\lambda$</tspan></text>
    <text
       xml:space="preserve"
       style="font-style:normal;font-weight:normal;font-size:10.58333302px;line-height:1.25;font-family:sans-serif;letter-spacing:0px;word-spacing:0px;fill:#000000;fill-opacity:1;stroke:none;stroke-width:0.26458332"
       x="416.09885"
       y="-57.145905"
       id="text1032"><tspan
         sodipodi:role="line"
         id="tspan1030"
         x="416.09885"
         y="-57.145905"
         style="stroke-width:0.26458332">$b+k\+_max_\lambda$</tspan></text>
  </g>
</svg>
