<?xml version="1.0" encoding="UTF-8" standalone="no"?>
<!-- Created with Inkscape (http://www.inkscape.org/) -->
<svg
   xmlns:dc="http://purl.org/dc/elements/1.1/"
   xmlns:cc="http://creativecommons.org/ns#"
   xmlns:rdf="http://www.w3.org/1999/02/22-rdf-syntax-ns#"
   xmlns:svg="http://www.w3.org/2000/svg"
   xmlns="http://www.w3.org/2000/svg"
   xmlns:sodipodi="http://sodipodi.sourceforge.net/DTD/sodipodi-0.dtd"
   xmlns:inkscape="http://www.inkscape.org/namespaces/inkscape"
   width="560"
   height="248"
   id="svg2"
   version="1.0"
   inkscape:version="0.46"
   docname="Glan-Thompson_prism_DE.svg"
   inkscape:output_extension="org.inkscape.output.svg.inkscape"
   sodipodi:version="0.32"
   sodipodi:docname="Nicols_prism_DE.svg">
  <sodipodi:namedview
     inkscape:window-height="964"
     inkscape:window-width="1400"
     inkscape:pageshadow="2"
     inkscape:pageopacity="0.0"
     guidetolerance="10.0"
     gridtolerance="10.0"
     objecttolerance="10.0"
     borderopacity="1.0"
     bordercolor="#666666"
     pagecolor="#ffffff"
     id="base"
     showgrid="true"
     inkscape:zoom="1.7236992"
     inkscape:cx="246.24502"
     inkscape:cy="121.13039"
     inkscape:window-x="-4"
     inkscape:window-y="-4"
     inkscape:current-layer="layer1"
     showguides="true"
     inkscape:guide-bbox="true">
    <inkscape:grid
       type="xygrid"
       id="grid2502"
       visible="true"
       enabled="false" />
    <inkscape:grid
       type="axonomgrid"
       id="grid2504"
       units="px"
       visible="true"
       enabled="false"
       gridanglex="68"
       gridanglez="22"
       spacingy="1px"
       empspacing="10" />
    <sodipodi:guide
       orientation="-0.70710678,0.70710678"
       position="419.44674,116.02953"
       id="guide5757" />
  </sodipodi:namedview>
  <defs
     id="defs118">
    <marker
       inkscape:stockid="Arrow2Mend"
       orient="auto"
       refY="0.0"
       refX="0.0"
       id="Arrow2Mend"
       style="overflow:visible;">
      <path
         id="path3330"
         style="font-size:12.0;fill-rule:evenodd;stroke-width:0.62500000;stroke-linejoin:round;"
         d="M 8.7185878,4.0337352 L -2.2072895,0.016013256 L 8.7185884,-4.0017078 C 6.9730900,-1.6296469 6.9831476,1.6157441 8.7185878,4.0337352 z "
         transform="scale(0.6) rotate(180) translate(0,0)" />
    </marker>
    <marker
       inkscape:stockid="Arrow2Mstart"
       orient="auto"
       refY="0.0"
       refX="0.0"
       id="Arrow2Mstart"
       style="overflow:visible">
      <path
         id="path3327"
         style="font-size:12.0;fill-rule:evenodd;stroke-width:0.62500000;stroke-linejoin:round"
         d="M 8.7185878,4.0337352 L -2.2072895,0.016013256 L 8.7185884,-4.0017078 C 6.9730900,-1.6296469 6.9831476,1.6157441 8.7185878,4.0337352 z "
         transform="scale(0.6) translate(0,0)" />
    </marker>
  </defs>
  <metadata
     id="metadata7">
    <rdf:RDF>
      <cc:Work
         rdf:about="">
        <dc:format>image/svg+xml</dc:format>
        <dc:type
           rdf:resource="http://purl.org/dc/dcmitype/StillImage" />
      </cc:Work>
    </rdf:RDF>
  </metadata>
  <g
     inkscape:label="Ebene 1"
     inkscape:groupmode="layer"
     id="layer1"
     transform="translate(-127.857,-98.6479)">
    <path
       sodipodi:nodetypes="cc"
       nodetypes="cc"
       style="fill:none;fill-rule:evenodd;stroke:#ff0000;stroke-width:3;stroke-linecap:round;stroke-linejoin:miter;marker-end:none;stroke-miterlimit:4;stroke-dasharray:none;stroke-opacity:1"
       d="M 215.74831,236.67671 L 392.1304,224.67671"
       id="path4607" />
    <path
       id="path5492"
       d="M 142.0279,236.67671 L 215.74831,236.67671"
       style="fill:none;fill-rule:evenodd;stroke:#bec000;stroke-width:3;stroke-linecap:round;stroke-linejoin:miter;marker-end:none;stroke-miterlimit:4;stroke-dasharray:none;stroke-opacity:1"
       nodetypes="cc"
       sodipodi:nodetypes="cc" />
    <g
       id="g2640"
       style="fill:#c0c000;fill-opacity:1"
       transform="translate(4,52)">
      <path
         d="M 141.46066,177.41599 L 161.12724,184.64789 L 141.46066,191.87978 C 144.60256,187.61007 144.58445,181.76837 141.46066,177.41599 z"
         style="font-size:12px;fill:#c0c000;fill-opacity:1;fill-rule:evenodd;stroke-width:0.625;stroke-linejoin:round"
         id="path2646" />
    </g>
    <g
       transform="matrix(0.9483973,-0.3170845,0.3170845,0.9483973,-92.39134,151.323)"
       style="fill:#00ff00"
       id="g5705"
       inkscape:transform-center-x="-2.6091314"
       inkscape:transform-center-y="2.399882">
      <path
         id="path5707"
         style="font-size:12px;fill:#00ff00;fill-rule:evenodd;stroke-width:0.625;stroke-linejoin:round"
         d="M 630.65069,179.41599 L 650.31727,186.64789 L 630.65069,193.87978 C 633.79259,189.61007 633.77448,183.76837 630.65069,179.41599 z" />
    </g>
    <g
       id="g2736"
       style="fill:#ff0000"
       transform="translate(20,26)">
      <path
         d="M 630.65069,179.41599 L 650.31727,186.64789 L 630.65069,193.87978 C 633.79259,189.61007 633.77448,183.76837 630.65069,179.41599 z"
         style="font-size:12px;fill:#ff0000;fill-rule:evenodd;stroke-width:0.625;stroke-linejoin:round"
         id="path2742" />
    </g>
    <path
       id="path5703"
       d="M 657.84683,212.65071 L 576.89129,212.7882 L 404.63586,222.65071 L 392.1304,224.67671"
       style="fill:none;fill-rule:evenodd;stroke:#ff0000;stroke-width:3;stroke-linecap:round;stroke-linejoin:miter;marker-end:none;stroke-miterlimit:4;stroke-dasharray:none;stroke-opacity:1"
       nodetypes="cc"
       sodipodi:nodetypes="cccc" />
    <path
       id="path4609"
       d="M 215.74831,236.67671 L 452.73938,198.38337 L 491.34229,155.34623 L 572.31727,125.86902"
       style="fill:none;fill-rule:evenodd;stroke:#00ff00;stroke-width:3;stroke-linecap:round;stroke-linejoin:miter;marker-end:none;stroke-miterlimit:4;stroke-dasharray:none;stroke-opacity:1"
       nodetypes="cc"
       sodipodi:nodetypes="cccc" />
    <path
       id="path5009"
       d="M 555.59861,157.44518 L 610.64457,293.58906 L 243.00234,293.74227 L 555.59861,157.44518 z"
       style="fill:#b8cccc;fill-opacity:0.25;fill-rule:nonzero;stroke:#000000;stroke-width:1.5;stroke-linecap:square;stroke-linejoin:miter;stroke-miterlimit:4;stroke-dasharray:none;stroke-dashoffset:0;stroke-opacity:1"
       sodipodi:nodetypes="cccc" />
    <path
       style="fill:#b7cccc;fill-opacity:0.25;fill-rule:nonzero;stroke:#000000;stroke-width:1.5;stroke-linecap:square;stroke-linejoin:miter;stroke-miterlimit:4;stroke-dasharray:none;stroke-dashoffset:0;stroke-opacity:1"
       d="M 239.00234,291.74227 L 179.95638,155.59839 L 551.59861,155.44518 L 239.00234,291.74227 z"
       id="rect5002"
       sodipodi:nodetypes="cccc" />
    <path
       id="path8758"
       style="fill:#779fbf;fill-opacity:0.63247865;fill-rule:nonzero;stroke:#000000;stroke-width:0.50000000000000000;stroke-linecap:square;stroke-linejoin:miter;stroke-miterlimit:4;stroke-dasharray:none;stroke-dashoffset:0;stroke-opacity:1"
       d="M 243.00234,293.74227 L 555.59861,157.44518 L 551.59861,155.44518 L 239.00234,291.74227"
       sodipodi:nodetypes="cccc" />
    <g
       id="g8785"
       transform="translate(4,4)" />
    <g
       id="g2628"
       transform="translate(4,52)">
      <path
         style="opacity:1;fill:#000000;fill-opacity:1;fill-rule:evenodd;stroke:none;stroke-width:1.5;stroke-linecap:butt;stroke-linejoin:miter;stroke-miterlimit:4;stroke-dasharray:none;stroke-opacity:1"
         d="M 169.09375,167.125 L 169.09375,184.65625 L 169.09375,202.15625 L 170.59375,202.15625 L 170.59375,184.65625 L 170.59375,167.125 L 169.09375,167.125 z"
         id="path5011" />
      <path
         d="M 166.22678,174.9775 L 169.84273,165.14421 L 173.45868,174.9775 C 171.32382,173.40655 168.40297,173.4156 166.22678,174.9775 z"
         style="font-size:12px;fill-rule:evenodd;stroke-width:0.625;stroke-linejoin:round"
         id="path2634" />
      <path
         style="fill-rule:evenodd;stroke:#000000;stroke-width:0.4pt;marker-start:none;marker-end:none"
         d="M 169.85714,187.58789 C 168.20114,187.58789 166.85714,186.24389 166.85714,184.58789 C 166.85714,182.93189 168.20114,181.58789 169.85714,181.58789 C 171.51314,181.58789 172.85714,182.93189 172.85714,184.58789 C 172.85714,186.24389 171.51314,187.58789 169.85714,187.58789 z"
         id="path2636" />
      <path
         d="M 173.4875,194.31828 L 169.87155,204.15157 L 166.2556,194.31828 C 168.39046,195.88923 171.31131,195.88018 173.4875,194.31828 z"
         style="font-size:12px;fill-rule:evenodd;stroke-width:0.625;stroke-linejoin:round"
         id="path2638" />
    </g>
    <g
       id="g2616"
       transform="translate(4,52)">
      <path
         style="opacity:1;fill:#000000;fill-opacity:1;fill-rule:evenodd;stroke:none;stroke-width:1.5;stroke-linecap:butt;stroke-linejoin:miter;stroke-miterlimit:4;stroke-dasharray:none;stroke-opacity:1"
         d="M 185.09375,167.125 L 185.09375,184.65625 L 185.09375,202.15625 L 186.59375,202.15625 L 186.59375,184.65625 L 186.59375,167.125 L 185.09375,167.125 z"
         id="path6598" />
      <path
         d="M 182.22678,174.9775 L 185.84273,165.14421 L 189.45868,174.9775 C 187.32382,173.40655 184.40297,173.4156 182.22678,174.9775 z"
         style="font-size:12px;fill-rule:evenodd;stroke-width:0.625;stroke-linejoin:round"
         id="path2622" />
      <path
         style="fill-rule:evenodd;stroke:#000000;stroke-width:0.4pt;marker-start:none;marker-end:none"
         d="M 185.85714,187.58789 C 184.20114,187.58789 182.85714,186.24389 182.85714,184.58789 C 182.85714,182.93189 184.20114,181.58789 185.85714,181.58789 C 187.51314,181.58789 188.85714,182.93189 188.85714,184.58789 C 188.85714,186.24389 187.51314,187.58789 185.85714,187.58789 z"
         id="path2624" />
      <path
         d="M 189.4875,194.31828 L 185.87155,204.15157 L 182.2556,194.31828 C 184.39046,195.88923 187.31131,195.88018 189.4875,194.31828 z"
         style="font-size:12px;fill-rule:evenodd;stroke-width:0.625;stroke-linejoin:round"
         id="path2626" />
    </g>
    <g
       id="g5709"
       transform="matrix(0.9894598,-0.1448077,0.1448077,0.9894598,3.9580841,38.263675)">
      <path
         style="fill-rule:evenodd;stroke:#000000;stroke-width:0.4pt;marker-start:none;marker-end:none"
         d="M 320.85714,227.58789 C 319.20114,227.58789 317.85714,226.24389 317.85714,224.58789 C 317.85714,222.93189 319.20114,221.58789 320.85714,221.58789 C 322.51314,221.58789 323.85714,222.93189 323.85714,224.58789 C 323.85714,226.24389 322.51314,227.58789 320.85714,227.58789 z"
         id="path2672" />
      <path
         style="fill-rule:evenodd;stroke:#000000;stroke-width:0.4pt;marker-start:none;marker-end:none"
         d="M 336.85714,227.58789 C 335.20114,227.58789 333.85714,226.24389 333.85714,224.58789 C 333.85714,222.93189 335.20114,221.58789 336.85714,221.58789 C 338.51314,221.58789 339.85714,222.93189 339.85714,224.58789 C 339.85714,226.24389 338.51314,227.58789 336.85714,227.58789 z"
         id="path2684" />
    </g>
    <g
       id="g4619"
       transform="matrix(0.9965398,-8.3117298e-2,8.3117298e-2,0.9965398,-30.269771,33.417169)">
      <path
         style="fill:#000000;fill-opacity:1;fill-rule:evenodd;stroke:none;stroke-width:1.5;stroke-linecap:butt;stroke-linejoin:miter;stroke-miterlimit:4;stroke-dasharray:none;stroke-opacity:1"
         d="M 328.09375,207.125 L 328.09375,224.65625 L 328.09375,242.15625 L 329.59375,242.15625 L 329.59375,224.65625 L 329.59375,207.125 L 328.09375,207.125 z"
         id="path6600" />
      <path
         d="M 325.22678,214.9775 L 328.84273,205.14421 L 332.45868,214.9775 C 330.32382,213.40655 327.40297,213.4156 325.22678,214.9775 z"
         style="font-size:12px;fill-rule:evenodd;stroke-width:0.625;stroke-linejoin:round"
         id="path2670" />
      <path
         d="M 332.4875,234.31828 L 328.87155,244.15157 L 325.2556,234.31828 C 327.39046,235.88923 330.31131,235.88018 332.4875,234.31828 z"
         style="font-size:12px;fill-rule:evenodd;stroke-width:0.625;stroke-linejoin:round"
         id="path2674" />
      <path
         style="fill:#000000;fill-opacity:1;fill-rule:evenodd;stroke:none;stroke-width:1.5;stroke-linecap:butt;stroke-linejoin:miter;stroke-miterlimit:4;stroke-dasharray:none;stroke-opacity:1"
         d="M 344.09375,207.125 L 344.09375,224.65625 L 344.09375,242.15625 L 345.59375,242.15625 L 345.59375,224.65625 L 345.59375,207.125 L 344.09375,207.125 z"
         id="path6602" />
      <path
         d="M 341.22678,214.9775 L 344.84273,205.14421 L 348.45868,214.9775 C 346.32382,213.40655 343.40297,213.4156 341.22678,214.9775 z"
         style="font-size:12px;fill-rule:evenodd;stroke-width:0.625;stroke-linejoin:round"
         id="path2682" />
      <path
         d="M 348.4875,234.31828 L 344.87155,244.15157 L 341.2556,234.31828 C 343.39046,235.88923 346.31131,235.88018 348.4875,234.31828 z"
         style="font-size:12px;fill-rule:evenodd;stroke-width:0.625;stroke-linejoin:round"
         id="path2686" />
    </g>
    <path
       id="path6608"
       d="M 601.85714,226.64789 L 601.85714,226.64789 L 601.85714,226.64789"
       style="opacity:1;fill:none;fill-rule:evenodd;stroke:#000000;stroke-width:1.5;stroke-linecap:butt;stroke-linejoin:miter;marker-start:none;marker-mid:url(#DotM);marker-end:none;stroke-miterlimit:4;stroke-dasharray:none;stroke-opacity:1" />
    <path
       style="opacity:1;fill:none;fill-rule:evenodd;stroke:#000000;stroke-width:1.5;stroke-linecap:butt;stroke-linejoin:miter;marker-start:none;marker-mid:url(#DotM);marker-end:none;stroke-miterlimit:4;stroke-dasharray:none;stroke-opacity:1"
       d="M 616.85714,226.64789 L 616.85714,226.64789 L 616.85714,226.64789"
       id="path6610" />
    <path
       sodipodi:type="arc"
       style="opacity:1;fill:none;fill-opacity:1;stroke:#000000;stroke-width:1;stroke-linecap:round;stroke-linejoin:round;marker-start:url(#Arrow2Mstart);marker-end:url(#Arrow2Mend);stroke-miterlimit:4;stroke-dasharray:none;stroke-dashoffset:0;stroke-opacity:1"
       id="path2528"
       sodipodi:cx="51.207977"
       sodipodi:cy="26.515095"
       sodipodi:rx="46.212078"
       sodipodi:ry="46.212078"
       d="M 97.36288,28.813154 A 46.212078,46.212078 0 0 1 71.662925,67.953619"
       transform="translate(127.857,128.6479)"
       sodipodi:start="0.049749057"
       sodipodi:end="1.1122645"
       sodipodi:open="true" />
    <text
       xml:space="preserve"
       style="font-size:18px;font-style:normal;font-variant:normal;font-weight:normal;font-stretch:normal;text-align:start;text-anchor:start;fill:#000000;fill-opacity:1;stroke:none;stroke-width:1px;stroke-linecap:butt;stroke-linejoin:miter;stroke-opacity:1;font-family:DejaVu Sans;-inkscape-font-specification:DejaVu Sans"
       x="192.56831"
       y="176.20596"
       id="text4601"><tspan
         sodipodi:role="line"
         id="tspan4603"
         x="192.56831"
         y="176.20596"
         style="font-size:14px">68°</tspan></text>
    <path
       sodipodi:end="5.8424916"
       sodipodi:start="4.3327878"
       transform="matrix(0.4916277,0,0,0.4818657,214.99897,277.1399)"
       d="M 34.084089,-16.407261 A 46.212078,46.212078 0 0 1 93.004767,6.8025475"
       sodipodi:ry="46.212078"
       sodipodi:rx="46.212078"
       sodipodi:cy="26.515095"
       sodipodi:cx="51.207977"
       id="path4605"
       style="opacity:1;fill:none;fill-opacity:1;stroke:#000000;stroke-width:2.05455995;stroke-linecap:round;stroke-linejoin:round;marker-start:url(#Arrow2Mstart);marker-end:url(#Arrow2Mend);stroke-miterlimit:4;stroke-dasharray:none;stroke-dashoffset:0;stroke-opacity:1"
       sodipodi:type="arc"
       sodipodi:open="true" />
    <path
       style="fill:none;fill-rule:evenodd;stroke:#000000;stroke-width:1px;stroke-linecap:butt;stroke-linejoin:miter;marker-start:none;marker-end:url(#Arrow2Mend);stroke-opacity:1"
       d="M 210.26577,325.80201 L 239.4124,296.71947"
       id="path4631"
       sodipodi:nodetypes="cc" />
    <g
       id="g5675"
       transform="matrix(0.9965398,-8.3117298e-2,8.3117298e-2,0.9965398,130.49348,22.775989)">
      <path
         id="path5677"
         d="M 328.09375,207.125 L 328.09375,224.65625 L 328.09375,242.15625 L 329.59375,242.15625 L 329.59375,224.65625 L 329.59375,207.125 L 328.09375,207.125 z"
         style="fill:#000000;fill-opacity:1;fill-rule:evenodd;stroke:none;stroke-width:1.5;stroke-linecap:butt;stroke-linejoin:miter;stroke-miterlimit:4;stroke-dasharray:none;stroke-opacity:1" />
      <path
         id="path5679"
         style="font-size:12px;fill-rule:evenodd;stroke-width:0.625;stroke-linejoin:round"
         d="M 325.22678,214.9775 L 328.84273,205.14421 L 332.45868,214.9775 C 330.32382,213.40655 327.40297,213.4156 325.22678,214.9775 z" />
      <path
         id="path5681"
         style="font-size:12px;fill-rule:evenodd;stroke-width:0.625;stroke-linejoin:round"
         d="M 332.4875,234.31828 L 328.87155,244.15157 L 325.2556,234.31828 C 327.39046,235.88923 330.31131,235.88018 332.4875,234.31828 z" />
      <path
         id="path5683"
         d="M 344.09375,207.125 L 344.09375,224.65625 L 344.09375,242.15625 L 345.59375,242.15625 L 345.59375,224.65625 L 345.59375,207.125 L 344.09375,207.125 z"
         style="fill:#000000;fill-opacity:1;fill-rule:evenodd;stroke:none;stroke-width:1.5;stroke-linecap:butt;stroke-linejoin:miter;stroke-miterlimit:4;stroke-dasharray:none;stroke-opacity:1" />
      <path
         id="path5685"
         style="font-size:12px;fill-rule:evenodd;stroke-width:0.625;stroke-linejoin:round"
         d="M 341.22678,214.9775 L 344.84273,205.14421 L 348.45868,214.9775 C 346.32382,213.40655 343.40297,213.4156 341.22678,214.9775 z" />
      <path
         id="path5687"
         style="font-size:12px;fill-rule:evenodd;stroke-width:0.625;stroke-linejoin:round"
         d="M 348.4875,234.31828 L 344.87155,244.15157 L 341.2556,234.31828 C 343.39046,235.88923 346.31131,235.88018 348.4875,234.31828 z" />
    </g>
    <g
       transform="translate(274,-12)"
       id="g5689">
      <path
         style="fill:#000000;fill-opacity:1;fill-rule:evenodd;stroke:none;stroke-width:1.5;stroke-linecap:butt;stroke-linejoin:miter;stroke-miterlimit:4;stroke-dasharray:none;stroke-opacity:1"
         d="M 328.09375,207.125 L 328.09375,224.65625 L 328.09375,242.15625 L 329.59375,242.15625 L 329.59375,224.65625 L 329.59375,207.125 L 328.09375,207.125 z"
         id="path5691" />
      <path
         d="M 325.22678,214.9775 L 328.84273,205.14421 L 332.45868,214.9775 C 330.32382,213.40655 327.40297,213.4156 325.22678,214.9775 z"
         style="font-size:12px;fill-rule:evenodd;stroke-width:0.625;stroke-linejoin:round"
         id="path5693" />
      <path
         d="M 332.4875,234.31828 L 328.87155,244.15157 L 325.2556,234.31828 C 327.39046,235.88923 330.31131,235.88018 332.4875,234.31828 z"
         style="font-size:12px;fill-rule:evenodd;stroke-width:0.625;stroke-linejoin:round"
         id="path5695" />
      <path
         style="fill:#000000;fill-opacity:1;fill-rule:evenodd;stroke:none;stroke-width:1.5;stroke-linecap:butt;stroke-linejoin:miter;stroke-miterlimit:4;stroke-dasharray:none;stroke-opacity:1"
         d="M 344.09375,207.125 L 344.09375,224.65625 L 344.09375,242.15625 L 345.59375,242.15625 L 345.59375,224.65625 L 345.59375,207.125 L 344.09375,207.125 z"
         id="path5697" />
      <path
         d="M 341.22678,214.9775 L 344.84273,205.14421 L 348.45868,214.9775 C 346.32382,213.40655 343.40297,213.4156 341.22678,214.9775 z"
         style="font-size:12px;fill-rule:evenodd;stroke-width:0.625;stroke-linejoin:round"
         id="path5699" />
      <path
         d="M 348.4875,234.31828 L 344.87155,244.15157 L 341.2556,234.31828 C 343.39046,235.88923 346.31131,235.88018 348.4875,234.31828 z"
         style="font-size:12px;fill-rule:evenodd;stroke-width:0.625;stroke-linejoin:round"
         id="path5701" />
    </g>
    <g
       transform="matrix(0.705833,-0.7083782,0.7083782,0.705833,83.883301,247.50619)"
       id="g5713">
      <path
         id="path5715"
         d="M 320.85714,227.58789 C 319.20114,227.58789 317.85714,226.24389 317.85714,224.58789 C 317.85714,222.93189 319.20114,221.58789 320.85714,221.58789 C 322.51314,221.58789 323.85714,222.93189 323.85714,224.58789 C 323.85714,226.24389 322.51314,227.58789 320.85714,227.58789 z"
         style="fill-rule:evenodd;stroke:#000000;stroke-width:0.4pt;marker-start:none;marker-end:none" />
      <path
         id="path5717"
         d="M 336.85714,227.58789 C 335.20114,227.58789 333.85714,226.24389 333.85714,224.58789 C 333.85714,222.93189 335.20114,221.58789 336.85714,221.58789 C 338.51314,221.58789 339.85714,222.93189 339.85714,224.58789 C 339.85714,226.24389 338.51314,227.58789 336.85714,227.58789 z"
         style="fill-rule:evenodd;stroke:#000000;stroke-width:0.4pt;marker-start:none;marker-end:none" />
    </g>
    <g
       id="g5719"
       transform="matrix(0.9464488,-0.3228537,0.3228537,0.9464488,151.3392,32.684303)">
      <path
         style="fill-rule:evenodd;stroke:#000000;stroke-width:0.4pt;marker-start:none;marker-end:none"
         d="M 320.85714,227.58789 C 319.20114,227.58789 317.85714,226.24389 317.85714,224.58789 C 317.85714,222.93189 319.20114,221.58789 320.85714,221.58789 C 322.51314,221.58789 323.85714,222.93189 323.85714,224.58789 C 323.85714,226.24389 322.51314,227.58789 320.85714,227.58789 z"
         id="path5721" />
      <path
         style="fill-rule:evenodd;stroke:#000000;stroke-width:0.4pt;marker-start:none;marker-end:none"
         d="M 336.85714,227.58789 C 335.20114,227.58789 333.85714,226.24389 333.85714,224.58789 C 333.85714,222.93189 335.20114,221.58789 336.85714,221.58789 C 338.51314,221.58789 339.85714,222.93189 339.85714,224.58789 C 339.85714,226.24389 338.51314,227.58789 336.85714,227.58789 z"
         id="path5723" />
    </g>
    <path
       style="fill-rule:evenodd;stroke:#000000;stroke-width:0.4pt;marker-start:none;marker-end:none"
       d="M 243.10034,282.87101 C 242.34933,282.98092 241.65061,282.46061 241.5407,281.70961 C 241.43079,280.95859 241.9511,280.25988 242.70211,280.14997 C 243.45312,280.04006 244.15184,280.56037 244.26175,281.31138 C 244.37166,282.06238 243.85135,282.7611 243.10034,282.87101 z"
       id="path5725" />
    <g
       transform="matrix(0.4698463,0.1710101,-0.17101,0.4698463,219.11161,54.835613)"
       id="g5727">
      <path
         id="path5729"
         d="M 169.09375,167.125 L 169.09375,184.65625 L 169.09375,202.15625 L 170.59375,202.15625 L 170.59375,184.65625 L 170.59375,167.125 L 169.09375,167.125 z"
         style="opacity:1;fill:#000000;fill-opacity:1;fill-rule:evenodd;stroke:none;stroke-width:1.5;stroke-linecap:butt;stroke-linejoin:miter;stroke-miterlimit:4;stroke-dasharray:none;stroke-opacity:1" />
      <path
         id="path5731"
         style="font-size:12px;fill-rule:evenodd;stroke-width:0.625;stroke-linejoin:round"
         d="M 166.22678,174.9775 L 169.84273,165.14421 L 173.45868,174.9775 C 171.32382,173.40655 168.40297,173.4156 166.22678,174.9775 z" />
      <path
         id="path5735"
         style="font-size:12px;fill-rule:evenodd;stroke-width:0.625;stroke-linejoin:round"
         d="M 173.4875,194.31828 L 169.87155,204.15157 L 166.2556,194.31828 C 168.39046,195.88923 171.31131,195.88018 173.4875,194.31828 z" />
    </g>
    <text
       xml:space="preserve"
       style="font-size:18px;font-style:normal;font-variant:normal;font-weight:normal;font-stretch:normal;text-align:start;text-anchor:start;fill:#000000;fill-opacity:1;stroke:none;stroke-width:1px;stroke-linecap:butt;stroke-linejoin:miter;stroke-opacity:1;font-family:DejaVu Sans;-inkscape-font-specification:DejaVu Sans"
       x="274.2373"
       y="168.80214"
       id="text5737"><tspan
         sodipodi:role="line"
         id="tspan5739"
         x="274.2373"
         y="168.80214"
         style="font-size:8px">optische</tspan><tspan
         sodipodi:role="line"
         x="274.2373"
         y="178.80214"
         id="tspan5741"
         style="font-size:8px">Achse</tspan></text>
    <g
       id="g5743"
       transform="matrix(0.4698463,0.1710101,-0.17101,0.4698463,319.32292,164.48352)">
      <path
         style="opacity:1;fill:#000000;fill-opacity:1;fill-rule:evenodd;stroke:none;stroke-width:1.5;stroke-linecap:butt;stroke-linejoin:miter;stroke-miterlimit:4;stroke-dasharray:none;stroke-opacity:1"
         d="M 169.09375,167.125 L 169.09375,184.65625 L 169.09375,202.15625 L 170.59375,202.15625 L 170.59375,184.65625 L 170.59375,167.125 L 169.09375,167.125 z"
         id="path5745" />
      <path
         d="M 166.22678,174.9775 L 169.84273,165.14421 L 173.45868,174.9775 C 171.32382,173.40655 168.40297,173.4156 166.22678,174.9775 z"
         style="font-size:12px;fill-rule:evenodd;stroke-width:0.625;stroke-linejoin:round"
         id="path5747" />
      <path
         d="M 173.4875,194.31828 L 169.87155,204.15157 L 166.2556,194.31828 C 168.39046,195.88923 171.31131,195.88018 173.4875,194.31828 z"
         style="font-size:12px;fill-rule:evenodd;stroke-width:0.625;stroke-linejoin:round"
         id="path5749" />
    </g>
    <text
       id="text5751"
       y="278.45004"
       x="374.44861"
       style="font-size:18px;font-style:normal;font-variant:normal;font-weight:normal;font-stretch:normal;text-align:start;text-anchor:start;fill:#000000;fill-opacity:1;stroke:none;stroke-width:1px;stroke-linecap:butt;stroke-linejoin:miter;stroke-opacity:1;font-family:DejaVu Sans;-inkscape-font-specification:DejaVu Sans"
       xml:space="preserve"><tspan
         style="font-size:8px"
         y="278.45004"
         x="374.44861"
         id="tspan5753"
         sodipodi:role="line">optische</tspan><tspan
         style="font-size:8px"
         id="tspan5755"
         y="288.45004"
         x="374.44861"
         sodipodi:role="line">Achse</tspan></text>
    <path
       sodipodi:open="true"
       sodipodi:end="1.1122645"
       sodipodi:start="0.049749057"
       transform="matrix(-1,0,0,-1,663.8374,320.68629)"
       d="M 97.36288,28.813154 A 46.212078,46.212078 0 0 1 71.662925,67.953619"
       sodipodi:ry="46.212078"
       sodipodi:rx="46.212078"
       sodipodi:cy="26.515095"
       sodipodi:cx="51.207977"
       id="path5759"
       style="opacity:1;fill:none;fill-opacity:1;stroke:#000000;stroke-width:1;stroke-linecap:round;stroke-linejoin:round;marker-start:url(#Arrow2Mstart);marker-end:url(#Arrow2Mend);stroke-miterlimit:4;stroke-dasharray:none;stroke-dashoffset:0;stroke-opacity:1"
       sodipodi:type="arc" />
    <text
       id="text5761"
       y="286.37363"
       x="574.61389"
       style="font-size:18px;font-style:normal;font-variant:normal;font-weight:normal;font-stretch:normal;text-align:start;text-anchor:start;fill:#000000;fill-opacity:1;stroke:none;stroke-width:1px;stroke-linecap:butt;stroke-linejoin:miter;stroke-opacity:1;font-family:DejaVu Sans;-inkscape-font-specification:DejaVu Sans"
       xml:space="preserve"><tspan
         style="font-size:14px"
         y="286.37363"
         x="574.61389"
         id="tspan5763"
         sodipodi:role="line">68°</tspan></text>
  </g>
  <g
     inkscape:groupmode="layer"
     id="layer2"
     inkscape:label="Beschriftung">
    <text
       xml:space="preserve"
       style="font-size:13px;font-style:normal;font-variant:normal;font-weight:normal;font-stretch:normal;text-align:center;line-height:125%;text-anchor:middle;fill:#000000;fill-opacity:1;stroke:none;stroke-width:1px;stroke-linecap:butt;stroke-linejoin:miter;stroke-opacity:1;font-family:DejaVu Sans"
       x="82.598396"
       y="225.85849"
       id="text6620"
       sodipodi:linespacing="125%"><tspan
         x="82.598396"
         y="242.10849"
         id="tspan8824">Kanadabalsam</tspan></text>
    <g
       id="g8914"
       transform="matrix(0.75,0,0,0.75,129.263,142.043)">
      <text
         id="text8826"
         y="129.619"
         x="439.66901"
         style="font-size:19.79999924px;font-style:normal;font-variant:normal;font-weight:normal;font-stretch:normal;text-align:start;line-height:125%;text-anchor:start;fill:#000000;fill-opacity:1;stroke:none;stroke-width:1px;stroke-linecap:butt;stroke-linejoin:miter;stroke-opacity:1;font-family:DejaVu Sans"
         xml:space="preserve"
         sodipodi:linespacing="125%"><tspan
           y="129.619"
           x="439.66901"
           id="tspan8828">n</tspan></text>
      <text
         id="text8830"
         y="134.353"
         x="453.57999"
         style="font-size:13.85999966px;font-style:normal;font-variant:normal;font-weight:normal;font-stretch:normal;text-align:start;line-height:125%;text-anchor:start;fill:#000000;fill-opacity:1;stroke:none;stroke-width:1px;stroke-linecap:butt;stroke-linejoin:miter;stroke-opacity:1;font-family:DejaVu Sans"
         xml:space="preserve"
         sodipodi:linespacing="125%"><tspan
           y="134.353"
           x="453.57999"
           id="tspan8832">Kleber</tspan></text>
      <text
         id="text8834"
         y="130.64799"
         x="498.85699"
         style="font-size:19.79999924px;font-style:normal;font-variant:normal;font-weight:normal;font-stretch:normal;text-align:start;line-height:125%;text-anchor:start;fill:#000000;fill-opacity:1;stroke:none;stroke-width:1px;stroke-linecap:butt;stroke-linejoin:miter;stroke-opacity:1;font-family:DejaVu Sans"
         xml:space="preserve"
         sodipodi:linespacing="125%"><tspan
           y="130.64799"
           x="498.85699"
           id="tspan8836">&lt;</tspan></text>
      <text
         id="text8838"
         y="129.748"
         x="516.85699"
         style="font-size:19.79999924px;font-style:normal;font-variant:normal;font-weight:normal;font-stretch:normal;text-align:start;line-height:125%;text-anchor:start;fill:#000000;fill-opacity:1;stroke:none;stroke-width:1px;stroke-linecap:butt;stroke-linejoin:miter;stroke-opacity:1;font-family:DejaVu Sans"
         xml:space="preserve"
         sodipodi:linespacing="125%"><tspan
           y="129.748"
           x="516.85699"
           id="tspan8840">n</tspan></text>
      <text
         id="text8842"
         y="135.67599"
         x="530.771"
         style="font-size:13.85999966px;font-style:normal;font-variant:normal;font-weight:normal;font-stretch:normal;text-align:start;line-height:125%;text-anchor:start;fill:#000000;fill-opacity:1;stroke:none;stroke-width:1px;stroke-linecap:butt;stroke-linejoin:miter;stroke-opacity:1;font-family:DejaVu Sans"
         xml:space="preserve"
         sodipodi:linespacing="125%"><tspan
           y="135.67599"
           x="530.771"
           id="tspan8844">ord.</tspan></text>
      <text
         xml:space="preserve"
         style="font-size:19.79999924px;font-style:normal;font-variant:normal;font-weight:normal;font-stretch:normal;text-align:start;line-height:125%;text-anchor:start;fill:#000000;fill-opacity:1;stroke:none;stroke-width:1px;stroke-linecap:butt;stroke-linejoin:miter;stroke-opacity:1;font-family:DejaVu Sans"
         x="341.66901"
         y="129.619"
         id="text8868"
         sodipodi:linespacing="125%"><tspan
           id="tspan8870"
           x="341.66901"
           y="129.619">n</tspan></text>
      <text
         xml:space="preserve"
         style="font-size:13.85999966px;font-style:normal;font-variant:normal;font-weight:normal;font-stretch:normal;text-align:start;line-height:125%;text-anchor:start;fill:#000000;fill-opacity:1;stroke:none;stroke-width:1px;stroke-linecap:butt;stroke-linejoin:miter;stroke-opacity:1;font-family:DejaVu Sans"
         x="355.57999"
         y="134.353"
         id="text8872"
         sodipodi:linespacing="125%"><tspan
           id="tspan8874"
           x="355.57999"
           y="134.353">außerord.</tspan></text>
      <text
         xml:space="preserve"
         style="font-size:19.79999924px;font-style:normal;font-variant:normal;font-weight:normal;font-stretch:normal;text-align:start;line-height:125%;text-anchor:start;fill:#000000;fill-opacity:1;stroke:none;stroke-width:1px;stroke-linecap:butt;stroke-linejoin:miter;stroke-opacity:1;font-family:DejaVu Sans"
         x="420.85699"
         y="130.64799"
         id="text8876"
         sodipodi:linespacing="125%"><tspan
           id="tspan8878"
           x="420.85699"
           y="130.64799">&lt;</tspan></text>
    </g>
    <text
       xml:space="preserve"
       style="font-size:16px;font-style:normal;font-variant:normal;font-weight:normal;font-stretch:normal;text-align:center;line-height:125%;text-anchor:middle;fill:#000000;fill-opacity:1;stroke:none;stroke-width:1px;stroke-linecap:butt;stroke-linejoin:miter;stroke-opacity:1;font-family:DejaVu Sans"
       x="509.22122"
       y="47.956047"
       id="text15332"
       sodipodi:linespacing="125%"><tspan
         id="tspan15334"
         x="509.22122"
         y="47.956047">außer-</tspan><tspan
         x="509.22122"
         y="67.956047"
         id="tspan15344">ordentlicher</tspan><tspan
         x="509.22122"
         y="87.956047"
         id="tspan3277">Strahl</tspan></text>
    <text
       xml:space="preserve"
       style="font-size:16px;font-style:normal;font-variant:normal;font-weight:normal;font-stretch:normal;text-align:center;line-height:125%;text-anchor:middle;fill:#000000;fill-opacity:1;stroke:none;stroke-width:1px;stroke-linecap:butt;stroke-linejoin:miter;stroke-opacity:1;font-family:DejaVu Sans"
       x="346.88205"
       y="21.948284"
       id="text15336"
       sodipodi:linespacing="125%"><tspan
         x="346.88205"
         y="21.948284"
         id="tspan15340">ordentlicher</tspan><tspan
         x="346.88205"
         y="41.948284"
         id="tspan3275">Strahl</tspan></text>
    <text
       xml:space="preserve"
       style="font-size:22px;font-style:normal;font-variant:normal;font-weight:normal;font-stretch:normal;text-align:start;line-height:125%;text-anchor:start;fill:#000000;fill-opacity:1;stroke:none;stroke-width:1px;stroke-linecap:butt;stroke-linejoin:miter;stroke-opacity:1;font-family:DejaVu Sans"
       x="2.9932799"
       y="195.776"
       id="text6668"
       sodipodi:linespacing="125%"><tspan
         id="tspan6670"
         x="2.9932799"
         y="195.776"
         style="font-size:16px">unpolarisiert</tspan></text>
  </g>
</svg>
