<?xml version="1.0" encoding="UTF-8" standalone="no"?>
<!-- Created with Inkscape (http://www.inkscape.org/) -->

<svg
   xmlns:dc="http://purl.org/dc/elements/1.1/"
   xmlns:cc="http://creativecommons.org/ns#"
   xmlns:rdf="http://www.w3.org/1999/02/22-rdf-syntax-ns#"
   xmlns:svg="http://www.w3.org/2000/svg"
   xmlns="http://www.w3.org/2000/svg"
   xmlns:sodipodi="http://sodipodi.sourceforge.net/DTD/sodipodi-0.dtd"
   xmlns:inkscape="http://www.inkscape.org/namespaces/inkscape"
   width="540"
   height="230"
   id="svg2"
   sodipodi:version="0.32"
   inkscape:version="0.92.2 5c3e80d, 2017-08-06"
   version="1.0"
   sodipodi:docname="RochonPrismaDe.svg"
   inkscape:output_extension="org.inkscape.output.svg.inkscape">
  <defs
     id="defs4" />
  <sodipodi:namedview
     id="base"
     pagecolor="#ffffff"
     bordercolor="#666666"
     borderopacity="1.0"
     inkscape:pageopacity="0.0"
     inkscape:pageshadow="2"
     inkscape:zoom="1.33065"
     inkscape:cx="202.65286"
     inkscape:cy="98.181458"
     inkscape:document-units="px"
     inkscape:current-layer="layer2"
     showgrid="true"
     gridtolerance="10000"
     inkscape:window-width="1440"
     inkscape:window-height="789"
     inkscape:window-x="0"
     inkscape:window-y="1"
     showguides="true"
     inkscape:guide-bbox="true"
     inkscape:snap-global="false"
     inkscape:window-maximized="1">
    <inkscape:grid
       type="xygrid"
       units="px"
       visible="true"
       enabled="true"
       spacingx="5"
       spacingy="5"
       id="grid2406"
       originx="0"
       originy="0" />
    <sodipodi:guide
       orientation="0,1"
       position="264.3179,143.97495"
       id="guide6051"
       inkscape:locked="false" />
    <sodipodi:guide
       orientation="1,0"
       position="264.26917,143.95546"
       id="guide6053"
       inkscape:locked="false" />
  </sodipodi:namedview>
  <metadata
     id="metadata7">
    <rdf:RDF>
      <cc:Work
         rdf:about="">
        <dc:format>image/svg+xml</dc:format>
        <dc:type
           rdf:resource="http://purl.org/dc/dcmitype/StillImage" />
      </cc:Work>
    </rdf:RDF>
  </metadata>
  <g
     inkscape:groupmode="layer"
     id="layer3"
     inkscape:label="Prisma"
     style="display:inline">
    <g
       transform="matrix(0.452727, 0, 0, 1, 89.3319, -98.6479)"
       id="g2456"
       style="fill:#e0e3e3;fill-opacity:1">
      <path
         style="opacity:1;fill:#e0e3e3;fill-opacity:1;fill-rule:nonzero;stroke:#000000;stroke-width:2.2293222;stroke-linecap:square;stroke-linejoin:miter;stroke-miterlimit:4;stroke-dasharray:none;stroke-dashoffset:0;stroke-opacity:1"
         d="M 578.85714,259.64789 L 689.29795,259.64789 L 689.29795,109.64789 L 223.85714,109.64789 L 578.85714,259.64789 z"
         id="path5009"
         sodipodi:nodetypes="ccccc" />
      <path
         sodipodi:nodetypes="ccccc"
         id="rect5002"
         d="M 214.85802,109.64789 L 104.41631,109.64789 L 104.41631,259.64789 L 569.85714,259.64789 L 214.85802,109.64789 z"
         style="opacity:1;fill:#e0e3e3;fill-opacity:1;fill-rule:nonzero;stroke:#000000;stroke-width:2.2293222;stroke-linecap:square;stroke-linejoin:miter;stroke-miterlimit:4;stroke-dasharray:none;stroke-dashoffset:0;stroke-opacity:1" />
    </g>
    <path
       id="path8758"
       style="opacity:1;fill:#779fbf;fill-opacity:0.78431373;fill-rule:nonzero;stroke:#000000;stroke-width:0.5;stroke-linecap:square;stroke-linejoin:miter;stroke-miterlimit:4;stroke-dasharray:none;stroke-dashoffset:0;stroke-opacity:1;display:inline"
       d="M 190.67815,11.000002 L 351.39641,161 L 347.32186,161 L 186.6036,11.000002"
       sodipodi:nodetypes="cccc" />
    <g
       id="g2753">
      <path
         style="opacity:1;fill:#000000;fill-opacity:1;fill-rule:evenodd;stroke:none;stroke-width:1.5;stroke-linecap:butt;stroke-linejoin:miter;stroke-miterlimit:4;stroke-dasharray:none;stroke-opacity:1;display:inline"
         d="M 145.46875,149.25 L 145.46875,150.75 L 163,150.75 L 180.53125,150.75 L 180.53125,149.25 L 163,149.25 L 145.46875,149.25 z"
         id="path2464" />
      <path
         d="M 153.32961,153.63036 L 143.49632,150.01441 L 153.32961,146.39846 C 151.75866,148.53332 151.76771,151.45417 153.32961,153.63036 z"
         style="font-size:12px;fill-rule:evenodd;stroke-width:0.625;stroke-linejoin:round"
         id="path2759" />
      <path
         d="M 172.67039,146.36964 L 182.50368,149.98559 L 172.67039,153.60154 C 174.24134,151.46668 174.23229,148.54583 172.67039,146.36964 z"
         style="font-size:12px;fill-rule:evenodd;stroke-width:0.625;stroke-linejoin:round"
         id="path2761" />
    </g>
  </g>
  <g
     inkscape:label="Ebene 1"
     inkscape:groupmode="layer"
     id="layer1"
     transform="translate(-127.857, -98.6479)"
     style="display:inline">
    <path
       id="path5492"
       d="M 206.0279,184.67671 L 393.56637,184.67671"
       style="fill:none;fill-rule:evenodd;stroke:#bec000;stroke-width:3;stroke-linecap:round;stroke-linejoin:miter;marker-end:none;stroke-miterlimit:4;stroke-dasharray:none;stroke-opacity:1"
       sodipodi:nodetypes="cc" />
    <g
       id="g8785"
       transform="translate(4, 4)" />
    <g
       id="g2709"
       style="fill:#c0c000;fill-opacity:1">
      <path
         style="fill:#c0c000;fill-opacity:1;fill-rule:evenodd;stroke:none;stroke-width:3;stroke-linecap:round;stroke-linejoin:miter;stroke-miterlimit:4;stroke-dasharray:none;stroke-opacity:1"
         d="M 137.75,183.1875 C 136.92157,183.27379 136.31996,184.01532 136.40625,184.84375 C 136.49254,185.67218 137.23407,186.27379 138.0625,186.1875 L 211.15625,186.1875 C 211.6972,186.19515 212.20037,185.91094 212.47308,185.44369 C 212.74579,184.97644 212.74579,184.39856 212.47308,183.93131 C 212.20037,183.46406 211.6972,183.17985 211.15625,183.1875 L 138.0625,183.1875 C 137.95862,183.17662 137.85388,183.17662 137.75,183.1875 L 137.75,183.1875 z"
         id="path2474" />
      <path
         d="M 195.46066,177.41599 L 215.12724,184.64789 L 195.46066,191.87978 C 198.60256,187.61007 198.58445,181.76837 195.46066,177.41599 z"
         style="font-size:12px;fill-rule:evenodd;stroke-width:0.62500000000000000;stroke-linejoin:round;fill:#c0c000;fill-opacity:1"
         id="path2715" />
    </g>
    <g
       id="g2697">
      <path
         style="opacity:1;fill:#000000;fill-opacity:1;fill-rule:evenodd;stroke:none;stroke-width:1.5;stroke-linecap:butt;stroke-linejoin:miter;stroke-miterlimit:4;stroke-dasharray:none;stroke-opacity:1"
         d="M 169.09375,167.125 L 169.09375,184.65625 L 169.09375,202.15625 L 170.59375,202.15625 L 170.59375,184.65625 L 170.59375,167.125 L 169.09375,167.125 z"
         id="path5011" />
      <path
         d="M 166.22678,174.9775 L 169.84273,165.14421 L 173.45868,174.9775 C 171.32382,173.40655 168.40297,173.4156 166.22678,174.9775 z"
         style="font-size:12px;fill-rule:evenodd;stroke-width:0.625;stroke-linejoin:round"
         id="path2703" />
      <path
         style="fill-rule:evenodd;stroke:#000000;stroke-width:0.4pt;marker-start:none;marker-end:none"
         d="M 169.85714,187.58789 C 168.20114,187.58789 166.85714,186.24389 166.85714,184.58789 C 166.85714,182.93189 168.20114,181.58789 169.85714,181.58789 C 171.51314,181.58789 172.85714,182.93189 172.85714,184.58789 C 172.85714,186.24389 171.51314,187.58789 169.85714,187.58789 z"
         id="path2705" />
      <path
         d="M 173.4875,194.31828 L 169.87155,204.15157 L 166.2556,194.31828 C 168.39046,195.88923 171.31131,195.88018 173.4875,194.31828 z"
         style="font-size:12px;fill-rule:evenodd;stroke-width:0.625;stroke-linejoin:round"
         id="path2707" />
    </g>
    <g
       id="g2685">
      <path
         style="opacity:1;fill:#000000;fill-opacity:1;fill-rule:evenodd;stroke:none;stroke-width:1.5;stroke-linecap:butt;stroke-linejoin:miter;stroke-miterlimit:4;stroke-dasharray:none;stroke-opacity:1"
         d="M 185.09375,167.125 L 185.09375,184.65625 L 185.09375,202.15625 L 186.59375,202.15625 L 186.59375,184.65625 L 186.59375,167.125 L 185.09375,167.125 z"
         id="path6598" />
      <path
         d="M 182.22678,174.9775 L 185.84273,165.14421 L 189.45868,174.9775 C 187.32382,173.40655 184.40297,173.4156 182.22678,174.9775 z"
         style="font-size:12px;fill-rule:evenodd;stroke-width:0.625;stroke-linejoin:round"
         id="path2691" />
      <path
         style="fill-rule:evenodd;stroke:#000000;stroke-width:0.4pt;marker-start:none;marker-end:none"
         d="M 185.85714,187.58789 C 184.20114,187.58789 182.85714,186.24389 182.85714,184.58789 C 182.85714,182.93189 184.20114,181.58789 185.85714,181.58789 C 187.51314,181.58789 188.85714,182.93189 188.85714,184.58789 C 188.85714,186.24389 187.51314,187.58789 185.85714,187.58789 z"
         id="path2693" />
      <path
         d="M 189.4875,194.31828 L 185.87155,204.15157 L 182.2556,194.31828 C 184.39046,195.88923 187.31131,195.88018 189.4875,194.31828 z"
         style="font-size:12px;fill-rule:evenodd;stroke-width:0.625;stroke-linejoin:round"
         id="path2695" />
    </g>
    <g
       id="g2462">
      <g
         id="g2717">
        <path
           style="opacity:1;fill:#000000;fill-opacity:1;fill-rule:evenodd;stroke:none;stroke-width:1.5;stroke-linecap:butt;stroke-linejoin:miter;stroke-miterlimit:4;stroke-dasharray:none;stroke-opacity:1"
           d="M 328.09375,167.125 L 328.09375,184.65625 L 328.09375,202.15625 L 329.59375,202.15625 L 329.59375,184.65625 L 329.59375,167.125 L 328.09375,167.125 z"
           id="path6600" />
        <path
           d="M 325.22678,174.9775 L 328.84273,165.14421 L 332.45868,174.9775 C 330.32382,173.40655 327.40297,173.4156 325.22678,174.9775 z"
           style="font-size:12px;fill-rule:evenodd;stroke-width:0.625;stroke-linejoin:round"
           id="path2723" />
        <path
           d="M 332.4875,194.31828 L 328.87155,204.15157 L 325.2556,194.31828 C 327.39046,195.88923 330.31131,195.88018 332.4875,194.31828 z"
           style="font-size:12px;fill-rule:evenodd;stroke-width:0.625;stroke-linejoin:round"
           id="path2725" />
      </g>
      <g
         id="g2727">
        <path
           style="opacity:1;fill:#000000;fill-opacity:1;fill-rule:evenodd;stroke:none;stroke-width:1.5;stroke-linecap:butt;stroke-linejoin:miter;stroke-miterlimit:4;stroke-dasharray:none;stroke-opacity:1"
           d="M 344.09375,167.125 L 344.09375,184.65625 L 344.09375,202.15625 L 345.59375,202.15625 L 345.59375,184.65625 L 345.59375,167.125 L 344.09375,167.125 z"
           id="path6602" />
        <path
           d="M 341.22678,174.9775 L 344.84273,165.14421 L 348.45868,174.9775 C 346.32382,173.40655 343.40297,173.4156 341.22678,174.9775 z"
           style="font-size:12px;fill-rule:evenodd;stroke-width:0.625;stroke-linejoin:round"
           id="path2733" />
        <path
           d="M 348.4875,194.31828 L 344.87155,204.15157 L 341.2556,194.31828 C 343.39046,195.88923 346.31131,195.88018 348.4875,194.31828 z"
           style="font-size:12px;fill-rule:evenodd;stroke-width:0.625;stroke-linejoin:round"
           id="path2735" />
      </g>
    </g>
    <g
       id="g2773">
      <path
         style="fill:#000000;fill-opacity:1;fill-rule:evenodd;stroke:none;stroke-width:1px;stroke-linecap:butt;stroke-linejoin:miter;stroke-opacity:1"
         d="M 477.8125,262.625 L 473.96875,274.96875 L 448.71875,279.125 L 448.875,280.125 L 474.4375,275.875 L 474.75,275.84375 L 474.84375,275.53125 L 478.75,262.9375 L 477.8125,262.625 z"
         id="path6624" />
      <path
         d="M 474.41846,267.04798 L 478.67098,261.50703 L 479.02123,268.48294 C 477.97421,267.05951 476.11342,266.48571 474.41846,267.04798 z"
         style="font-size:12px;fill-rule:evenodd;stroke-width:0.625;stroke-linejoin:round"
         id="path2779" />
    </g>
    <path
       sodipodi:nodetypes="cc"
       id="path2439"
       d="M 384.75275,207.36661 L 399.96153,169.92919"
       style="opacity:1;fill:none;fill-opacity:0.78431373;fill-rule:nonzero;stroke:#000000;stroke-width:1.00000012;stroke-linecap:butt;stroke-linejoin:miter;stroke-miterlimit:4;stroke-dasharray:4.00000008, 2.00000004, 1.00000002, 2.00000004;stroke-dashoffset:0;stroke-opacity:1" />
    <g
       id="g2675">
      <path
         style="opacity:1;fill:#000000;fill-opacity:1;fill-rule:nonzero;stroke:none;stroke-width:1.12212849;stroke-linecap:butt;stroke-linejoin:miter;marker:none;stroke-miterlimit:4;stroke-dasharray:none;stroke-dashoffset:0;stroke-opacity:1;visibility:visible;display:inline;overflow:visible;enable-background:accumulate"
         d="M 374.56702,186.13677 C 374.56752,193.52754 378.69894,199.84689 385.47162,202.84984 L 385.86207,201.93215 C 379.42628,199.07857 375.5715,193.1599 375.57102,186.13677 L 374.56702,186.13677 z"
         id="path3235" />
      <path
         d="M 384.39613,200.51367 L 386.90501,202.9433 L 383.41525,202.71317 C 384.18397,202.27634 384.57737,201.38677 384.39613,200.51367 z"
         style="font-size:12px;fill-rule:evenodd;stroke-width:0.625;stroke-linejoin:round"
         id="path2681" />
      <path
         style="fill-rule:evenodd;stroke:#000000;stroke-width:0.2pt;marker-start:none"
         d="M 375.0691,187.33628 L 376.07061,188.33477 L 375.06893,184.83987 L 374.06773,188.3349 L 375.0691,187.33628 z"
         id="path2683" />
    </g>
    <g
       id="g2763">
      <path
         style="opacity:1;fill:#000000;fill-opacity:1;fill-rule:nonzero;stroke:none;stroke-width:0.28865585;stroke-linecap:butt;stroke-linejoin:miter;marker:none;stroke-miterlimit:4;stroke-dasharray:none;stroke-dashoffset:0;stroke-opacity:1;visibility:visible;display:inline;overflow:visible;enable-background:accumulate"
         d="M 444.69914,233.87892 L 443.70725,233.48941 C 440.58176,241.55041 439.16049,248.84216 438.95179,257.51121 L 439.91073,257.55694 C 440.11699,248.98906 441.61012,241.84586 444.69914,233.87892 z"
         id="path6055" />
      <path
         d="M 440.68533,255.66912 L 439.41125,258.94204 L 438.29634,255.60437 C 438.98885,256.15153 439.95381,256.17464 440.68533,255.66912 z"
         style="font-size:12px;fill-rule:evenodd;stroke-width:0.625;stroke-linejoin:round"
         id="path2769" />
      <path
         style="fill-rule:evenodd;stroke:#000000;stroke-width:0.2pt;marker-start:none"
         d="M 443.76841,234.79261 L 444.32709,236.10225 L 444.67732,232.44843 L 442.4826,235.35832 L 443.76841,234.79261 z"
         id="path2771" />
    </g>
    <text
       xml:space="preserve"
       style="font-style:normal;font-variant:normal;font-weight:normal;font-stretch:normal;line-height:0%;font-family:'DejaVu Sans';-inkscape-font-specification:'DejaVu Sans';text-align:start;writing-mode:lr-tb;text-anchor:start;fill:#000000;fill-opacity:1;stroke:none;stroke-width:1px;stroke-linecap:butt;stroke-linejoin:miter;stroke-opacity:1"
       x="361.81409"
       y="215.48393"
       id="text6660"><tspan
         sodipodi:role="line"
         id="tspan6662"
         x="361.81409"
         y="215.48393"
         style="font-size:22px;line-height:1.25">β</tspan></text>
    <g
       id="g2781">
      <path
         style="fill:#000000;fill-opacity:1;fill-rule:evenodd;stroke:none;stroke-width:1.5;stroke-linecap:butt;stroke-linejoin:miter;stroke-miterlimit:4;stroke-dasharray:none;stroke-opacity:1;display:inline"
         d="M 520.35089,118.31162 L 520.35089,118.31162 L 520.35089,118.31162"
         id="path2450" />
      <path
         style="fill-rule:evenodd;stroke:#000000;stroke-width:0.4pt;marker-start:none;marker-end:none"
         d="M 523.29087,118.31162 C 523.29087,119.96762 521.94687,121.31162 520.29087,121.31162 C 518.63487,121.31162 517.29087,119.96762 517.29087,118.31162 C 517.29087,116.65562 518.63487,115.31162 520.29087,115.31162 C 521.94687,115.31162 523.29087,116.65562 523.29087,118.31162 z"
         id="path2787" />
    </g>
    <g
       id="g2821"
       style="fill:#ff0000">
      <path
         style="fill:#ff0000;fill-opacity:1;fill-rule:evenodd;stroke:none;stroke-width:3;stroke-linecap:round;stroke-linejoin:miter;stroke-miterlimit:4;stroke-dasharray:none;stroke-opacity:1"
         d="M 393.59375,183.25 C 392.85378,183.34116 392.29305,183.96192 392.27735,184.70732 C 392.26166,185.45272 392.79577,186.09653 393.53125,186.21875 L 401.71875,188.09375 L 401.875,188.15625 L 402.0625,188.15625 L 529.28125,188.15625 L 638.34375,188.15625 C 638.8847,188.1639 639.38787,187.87969 639.66058,187.41244 C 639.93329,186.94519 639.93329,186.36731 639.66058,185.90006 C 639.38787,185.43281 638.8847,185.1486 638.34375,185.15625 L 529.28125,185.15625 L 402.28125,185.15625 L 394.1875,183.28125 C 393.99365,183.23132 393.79177,183.2207 393.59375,183.25 L 393.59375,183.25 z"
         id="path5498"
         sodipodi:nodetypes="csccccccsscccccc" />
      <path
         d="M 630.65069,179.38717 L 650.31727,186.61907 L 630.65069,193.85096 C 633.79259,189.58125 633.77448,183.73955 630.65069,179.38717 z"
         style="font-size:12px;fill-rule:evenodd;stroke-width:0.62500000000000000;stroke-linejoin:round;fill:#ff0000"
         id="path2827" />
    </g>
    <g
       id="g2829"
       style="fill:#00ff00">
      <path
         style="fill:#00ff00;fill-opacity:1;fill-rule:evenodd;stroke:none;stroke-width:3;stroke-linecap:round;stroke-linejoin:miter;stroke-miterlimit:4;stroke-dasharray:none;stroke-opacity:1"
         d="M 393.59375,183.21875 C 392.89413,183.34794 392.38148,183.95077 392.36634,184.66205 C 392.35121,185.37333 392.83776,185.99742 393.53125,186.15625 L 400.90625,187.90625 L 400.9375,187.90625 L 401,187.9375 L 527.71875,208.5 L 645.71875,263.9375 C 646.21098,264.20885 646.8136,264.18227 647.28004,263.86864 C 647.74647,263.55501 647.99845,263.00695 647.93287,262.44872 C 647.86729,261.89049 647.49517,261.41575 646.96875,261.21875 L 528.8125,205.6875 L 528.625,205.59375 L 528.40625,205.5625 L 401.5625,185 L 401.46875,184.96875 L 394.1875,183.25 C 393.99365,183.20007 393.79177,183.18945 393.59375,183.21875 L 393.59375,183.21875 z"
         id="path3830" />
      <path
         d="M 635.22902,249.34015 L 649.95226,264.24991 L 629.07728,262.43051 C 633.73683,259.90255 636.20503,254.60785 635.22902,249.34015 z"
         style="font-size:12px;fill-rule:evenodd;stroke-width:0.62500000000000000;stroke-linejoin:round;fill:#00ff00"
         id="path2835" />
    </g>
    <g
       transform="matrix(0.90889202,0.41703152,-0.41703152,0.90889202,186.38383,-133.88477)"
       id="g4253">
      <g
         id="g2805">
        <path
           style="fill:#000000;fill-opacity:1;fill-rule:evenodd;stroke:none"
           d="m 482.81625,167.24004 0,0 0,0"
           id="path4255"
           inkscape:connector-curvature="0" />
        <path
           style="fill-rule:evenodd;stroke:#000000;stroke-width:0.4pt;marker-start:none;marker-end:none"
           d="m 485.75626,167.24004 c 0,1.656 -1.344,3 -3,3 -1.656,0 -3,-1.344 -3,-3 0,-1.656 1.344,-3 3,-3 1.656,0 3,1.344 3,3 z"
           id="path2811"
           inkscape:connector-curvature="0" />
      </g>
      <g
         id="g2813">
        <path
           style="fill:#000000;fill-opacity:1;fill-rule:evenodd;stroke:none"
           d="m 497.65927,167.24004 0,0 0,0"
           id="path4257"
           inkscape:connector-curvature="0" />
        <path
           style="fill-rule:evenodd;stroke:#000000;stroke-width:0.4pt;marker-start:none;marker-end:none"
           d="m 500.59926,167.24004 c 0,1.656 -1.344,3 -3,3 -1.656,0 -3,-1.344 -3,-3 0,-1.656 1.344,-3 3,-3 1.656,0 3,1.344 3,3 z"
           id="path2819"
           inkscape:connector-curvature="0" />
      </g>
    </g>
    <g
       id="g2466"
       transform="translate(-8)">
      <g
         id="g2745">
        <path
           style="opacity:1;fill:#000000;fill-opacity:1;fill-rule:evenodd;stroke:none;stroke-width:1.5;stroke-linecap:butt;stroke-linejoin:miter;stroke-miterlimit:4;stroke-dasharray:none;stroke-opacity:1"
           d="M 328.09375,184.65625 L 328.09375,184.84375 L 328.09375,184.875 L 329.59375,184.875 L 329.59375,184.84375 L 329.59375,184.65625 L 328.09375,184.65625 z"
           id="path2468" />
        <path
           style="fill-rule:evenodd;stroke:#000000;stroke-width:0.4pt;marker-start:none;marker-end:none"
           d="M 331.79714,184.64789 C 331.79714,186.30389 330.45314,187.64789 328.79714,187.64789 C 327.14114,187.64789 325.79714,186.30389 325.79714,184.64789 C 325.79714,182.99189 327.14114,181.64789 328.79714,181.64789 C 330.45314,181.64789 331.79714,182.99189 331.79714,184.64789 z"
           id="path2751" />
      </g>
      <g
         id="g2737">
        <path
           style="opacity:1;fill:#000000;fill-opacity:1;fill-rule:evenodd;stroke:none;stroke-width:1.5;stroke-linecap:butt;stroke-linejoin:miter;stroke-miterlimit:4;stroke-dasharray:none;stroke-opacity:1"
           d="M 344.09375,184.625 L 344.09375,184.65625 L 344.09375,184.78125 L 345.59375,184.78125 L 345.59375,184.65625 L 345.59375,184.625 L 344.09375,184.625 z"
           id="path2470" />
        <path
           style="fill-rule:evenodd;stroke:#000000;stroke-width:0.4pt;marker-start:none;marker-end:none"
           d="M 344.85714,187.58789 C 343.20114,187.58789 341.85714,186.24389 341.85714,184.58789 C 341.85714,182.93189 343.20114,181.58789 344.85714,181.58789 C 346.51314,181.58789 347.85714,182.93189 347.85714,184.58789 C 347.85714,186.24389 346.51314,187.58789 344.85714,187.58789 z"
           id="path2743" />
      </g>
    </g>
    <g
       id="g4241"
       transform="matrix(0.98632804,0.16479379,-0.16479379,0.98632804,12.033446,-48.316016)">
      <g
         id="g2789">
        <path
           style="fill:#000000;fill-opacity:1;fill-rule:evenodd;stroke:none"
           d="m 482.81625,167.24004 0,0 0,0"
           id="path6604"
           inkscape:connector-curvature="0" />
        <path
           style="fill-rule:evenodd;stroke:#000000;stroke-width:0.4pt;marker-start:none;marker-end:none"
           d="m 485.75626,167.24004 c 0,1.656 -1.344,3 -3,3 -1.656,0 -3,-1.344 -3,-3 0,-1.656 1.344,-3 3,-3 1.656,0 3,1.344 3,3 z"
           id="path2795"
           inkscape:connector-curvature="0" />
      </g>
      <g
         id="g2797">
        <path
           style="fill:#000000;fill-opacity:1;fill-rule:evenodd;stroke:none"
           d="m 497.65927,167.24004 0,0 0,0"
           id="path6606"
           inkscape:connector-curvature="0" />
        <path
           style="fill-rule:evenodd;stroke:#000000;stroke-width:0.4pt;marker-start:none;marker-end:none"
           d="m 500.59926,167.24004 c 0,1.656 -1.344,3 -3,3 -1.656,0 -3,-1.344 -3,-3 0,-1.656 1.344,-3 3,-3 1.656,0 3,1.344 3,3 z"
           id="path2803"
           inkscape:connector-curvature="0" />
      </g>
    </g>
    <g
       id="g3093"
       transform="translate(160,0)">
      <g
         id="g3095">
        <path
           id="path3097"
           d="m 328.09375,167.125 0,17.53125 0,17.5 1.5,0 0,-17.5 0,-17.53125 -1.5,0 z"
           style="fill:#000000;fill-opacity:1;fill-rule:evenodd;stroke:none"
           inkscape:connector-curvature="0" />
        <path
           id="path3099"
           style="font-size:12px;fill-rule:evenodd;stroke-width:0.625;stroke-linejoin:round"
           d="m 325.22678,174.9775 3.61595,-9.83329 3.61595,9.83329 c -2.13486,-1.57095 -5.05571,-1.5619 -7.2319,0 z"
           inkscape:connector-curvature="0" />
        <path
           id="path3101"
           style="font-size:12px;fill-rule:evenodd;stroke-width:0.625;stroke-linejoin:round"
           d="m 332.4875,194.31828 -3.61595,9.83329 -3.61595,-9.83329 c 2.13486,1.57095 5.05571,1.5619 7.2319,0 z"
           inkscape:connector-curvature="0" />
      </g>
      <g
         id="g3103">
        <path
           id="path3105"
           d="m 344.09375,167.125 0,17.53125 0,17.5 1.5,0 0,-17.5 0,-17.53125 -1.5,0 z"
           style="fill:#000000;fill-opacity:1;fill-rule:evenodd;stroke:none"
           inkscape:connector-curvature="0" />
        <path
           id="path3107"
           style="font-size:12px;fill-rule:evenodd;stroke-width:0.625;stroke-linejoin:round"
           d="m 341.22678,174.9775 3.61595,-9.83329 3.61595,9.83329 c -2.13486,-1.57095 -5.05571,-1.5619 -7.2319,0 z"
           inkscape:connector-curvature="0" />
        <path
           id="path3109"
           style="font-size:12px;fill-rule:evenodd;stroke-width:0.625;stroke-linejoin:round"
           d="m 348.4875,194.31828 -3.61595,9.83329 -3.61595,-9.83329 c 2.13486,1.57095 5.05571,1.5619 7.2319,0 z"
           inkscape:connector-curvature="0" />
      </g>
    </g>
    <g
       transform="translate(258,0)"
       id="g3111">
      <g
         id="g3113">
        <path
           inkscape:connector-curvature="0"
           style="fill:#000000;fill-opacity:1;fill-rule:evenodd;stroke:none"
           d="m 328.09375,167.125 0,17.53125 0,17.5 1.5,0 0,-17.5 0,-17.53125 -1.5,0 z"
           id="path3115" />
        <path
           inkscape:connector-curvature="0"
           d="m 325.22678,174.9775 3.61595,-9.83329 3.61595,9.83329 c -2.13486,-1.57095 -5.05571,-1.5619 -7.2319,0 z"
           style="font-size:12px;fill-rule:evenodd;stroke-width:0.625;stroke-linejoin:round"
           id="path3117" />
        <path
           inkscape:connector-curvature="0"
           d="m 332.4875,194.31828 -3.61595,9.83329 -3.61595,-9.83329 c 2.13486,1.57095 5.05571,1.5619 7.2319,0 z"
           style="font-size:12px;fill-rule:evenodd;stroke-width:0.625;stroke-linejoin:round"
           id="path3119" />
      </g>
      <g
         id="g3121">
        <path
           inkscape:connector-curvature="0"
           style="fill:#000000;fill-opacity:1;fill-rule:evenodd;stroke:none"
           d="m 344.09375,167.125 0,17.53125 0,17.5 1.5,0 0,-17.5 0,-17.53125 -1.5,0 z"
           id="path3123" />
        <path
           inkscape:connector-curvature="0"
           d="m 341.22678,174.9775 3.61595,-9.83329 3.61595,9.83329 c -2.13486,-1.57095 -5.05571,-1.5619 -7.2319,0 z"
           style="font-size:12px;fill-rule:evenodd;stroke-width:0.625;stroke-linejoin:round"
           id="path3125" />
        <path
           inkscape:connector-curvature="0"
           d="m 348.4875,194.31828 -3.61595,9.83329 -3.61595,-9.83329 c 2.13486,1.57095 5.05571,1.5619 7.2319,0 z"
           style="font-size:12px;fill-rule:evenodd;stroke-width:0.625;stroke-linejoin:round"
           id="path3127" />
      </g>
    </g>
  </g>
  <g
     inkscape:groupmode="layer"
     id="layer2"
     inkscape:label="Beschriftung">
    <text
       xml:space="preserve"
       style="font-style:normal;font-variant:normal;font-weight:normal;font-stretch:normal;line-height:0%;font-family:'DejaVu Sans';-inkscape-font-specification:'DejaVu Sans';text-align:center;writing-mode:lr-tb;text-anchor:middle;fill:#000000;fill-opacity:1;stroke:none;stroke-width:1px;stroke-linecap:butt;stroke-linejoin:miter;stroke-opacity:1"
       x="273.87106"
       y="183"
       id="text6620"><tspan
         sodipodi:role="line"
         x="273.87106"
         y="183"
         id="tspan8824"
         style="font-size:13px;line-height:1.25">Kleber</tspan></text>
    <text
       xml:space="preserve"
       style="font-style:normal;font-variant:normal;font-weight:normal;font-stretch:normal;line-height:0%;font-family:'DejaVu Sans';-inkscape-font-specification:'DejaVu Sans';text-align:center;writing-mode:lr-tb;text-anchor:middle;fill:#000000;fill-opacity:1;stroke:none"
       x="473.36011"
       y="188.94164"
       id="text15332"><tspan
         sodipodi:role="line"
         x="473.36011"
         y="188.94164"
         id="tspan15344"
         style="font-size:16px;line-height:1.25">au\ss erordentlich</tspan></text>
    <text
       xml:space="preserve"
       style="font-style:normal;font-variant:normal;font-weight:normal;font-stretch:normal;line-height:0%;font-family:'DejaVu Sans';-inkscape-font-specification:'DejaVu Sans';text-align:center;writing-mode:lr-tb;text-anchor:middle;fill:#000000;fill-opacity:1;stroke:none"
       x="455.73218"
       y="60.678215"
       id="text15336"><tspan
         sodipodi:role="line"
         x="455.73218"
         y="60.678215"
         id="tspan15340"
         style="font-size:16px;line-height:1.25">ordentlich</tspan></text>
    <text
       xml:space="preserve"
       style="font-style:normal;font-variant:normal;font-weight:normal;font-stretch:normal;line-height:0%;font-family:'DejaVu Sans';-inkscape-font-specification:'DejaVu Sans';text-align:start;writing-mode:lr-tb;text-anchor:start;fill:#000000;fill-opacity:1;stroke:none;stroke-width:1px;stroke-linecap:butt;stroke-linejoin:miter;stroke-opacity:1"
       x="294.1142"
       y="151.16667"
       id="text6656"><tspan
         sodipodi:role="line"
         id="tspan6658"
         x="294.1142"
         y="151.16667"
         style="font-size:22px;line-height:1.25">α</tspan></text>
    <text
       xml:space="preserve"
       style="font-style:normal;font-variant:normal;font-weight:normal;font-stretch:normal;line-height:0%;font-family:'DejaVu Sans';-inkscape-font-specification:'DejaVu Sans';text-align:start;writing-mode:lr-tb;text-anchor:start;fill:#000000;fill-opacity:1;stroke:none;stroke-width:1px;stroke-linecap:butt;stroke-linejoin:miter;stroke-opacity:1"
       x="10.993278"
       y="121.77554"
       id="text6668"><tspan
         sodipodi:role="line"
         id="tspan6670"
         x="10.993278"
         y="121.77554"
         style="font-size:16px;line-height:1.25">unpolarisiert</tspan></text>
  </g>
</svg>
