<?xml version="1.0" encoding="UTF-8" standalone="no"?>
<!-- Created with Inkscape (http://www.inkscape.org/) -->

<svg
   xmlns:dc="http://purl.org/dc/elements/1.1/"
   xmlns:cc="http://creativecommons.org/ns#"
   xmlns:rdf="http://www.w3.org/1999/02/22-rdf-syntax-ns#"
   xmlns:svg="http://www.w3.org/2000/svg"
   xmlns="http://www.w3.org/2000/svg"
   xmlns:sodipodi="http://sodipodi.sourceforge.net/DTD/sodipodi-0.dtd"
   xmlns:inkscape="http://www.inkscape.org/namespaces/inkscape"
   width="540"
   height="230"
   id="svg2"
   sodipodi:version="0.32"
   inkscape:version="0.92.2 5c3e80d, 2017-08-06"
   version="1.0"
   sodipodi:docname="WollastonPrismDe.svg"
   inkscape:output_extension="org.inkscape.output.svg.inkscape">
  <defs
     id="defs4">
    <marker
       inkscape:stockid="Arrow2Sstart"
       orient="auto"
       refY="0.0"
       refX="0.0"
       id="Arrow2Sstart"
       style="overflow:visible">
      <path
         id="path3270"
         style="font-size:12.0;fill-rule:evenodd;stroke-width:0.62500000;stroke-linejoin:round"
         d="M 8.7185878,4.0337352 L -2.2072895,0.016013256 L 8.7185884,-4.0017078 C 6.9730900,-1.6296469 6.9831476,1.6157441 8.7185878,4.0337352 z "
         transform="scale(0.3) translate(-2.3,0)" />
    </marker>
    <marker
       inkscape:stockid="Arrow2Send"
       orient="auto"
       refY="0.0"
       refX="0.0"
       id="Arrow2Send"
       style="overflow:visible;">
      <path
         id="path3273"
         style="font-size:12.0;fill-rule:evenodd;stroke-width:0.62500000;stroke-linejoin:round;"
         d="M 8.7185878,4.0337352 L -2.2072895,0.016013256 L 8.7185884,-4.0017078 C 6.9730900,-1.6296469 6.9831476,1.6157441 8.7185878,4.0337352 z "
         transform="scale(0.3) rotate(180) translate(-2.3,0)" />
    </marker>
    <marker
       inkscape:stockid="Arrow1Send"
       orient="auto"
       refY="0.0"
       refX="0.0"
       id="Arrow1Send"
       style="overflow:visible;">
      <path
         id="path3255"
         d="M 0.0,0.0 L 5.0,-5.0 L -12.5,0.0 L 5.0,5.0 L 0.0,0.0 z "
         style="fill-rule:evenodd;stroke:#000000;stroke-width:1.0pt;marker-start:none;"
         transform="scale(0.2) rotate(180) translate(6,0)" />
    </marker>
    <marker
       inkscape:stockid="DotM"
       orient="auto"
       refY="0"
       refX="0"
       id="DotM"
       style="overflow:visible">
      <path
         id="path3254"
         d="M -2.5,-1 C -2.5,1.76 -4.74,4 -7.5,4 C -10.26,4 -12.5,1.76 -12.5,-1 C -12.5,-3.76 -10.26,-6 -7.5,-6 C -4.74,-6 -2.5,-3.76 -2.5,-1 z"
         style="fill-rule:evenodd;stroke:#000000;stroke-width:1pt;marker-start:none;marker-end:none"
         transform="matrix(0.4,0,0,0.4,2.96,0.4)" />
    </marker>
    <marker
       inkscape:stockid="Arrow2Mstart"
       orient="auto"
       refY="0"
       refX="0"
       id="Arrow2Mstart"
       style="overflow:visible">
      <path
         id="path3213"
         style="font-size:12px;fill-rule:evenodd;stroke-width:0.625;stroke-linejoin:round"
         d="M 8.7185878,4.0337352 L -2.2072895,0.016013256 L 8.7185884,-4.0017078 C 6.97309,-1.6296469 6.9831476,1.6157441 8.7185878,4.0337352 z"
         transform="scale(0.6,0.6)" />
    </marker>
    <marker
       inkscape:stockid="Arrow2Mend"
       orient="auto"
       refY="0"
       refX="0"
       id="Arrow2Mend"
       style="overflow:visible">
      <path
         id="path3216"
         style="font-size:12px;fill-rule:evenodd;stroke-width:0.625;stroke-linejoin:round"
         d="M 8.7185878,4.0337352 L -2.2072895,0.016013256 L 8.7185884,-4.0017078 C 6.97309,-1.6296469 6.9831476,1.6157441 8.7185878,4.0337352 z"
         transform="scale(-0.6,-0.6)" />
    </marker>
    <marker
       inkscape:stockid="Arrow2Lend"
       orient="auto"
       refY="0"
       refX="0"
       id="Arrow2Lend"
       style="overflow:visible">
      <path
         id="path3210"
         style="font-size:12px;fill-rule:evenodd;stroke-width:0.625;stroke-linejoin:round"
         d="M 8.7185878,4.0337352 L -2.2072895,0.016013256 L 8.7185884,-4.0017078 C 6.97309,-1.6296469 6.9831476,1.6157441 8.7185878,4.0337352 z"
         transform="matrix(-1.1,0,0,-1.1,-1.1,0)" />
    </marker>
    <inkscape:perspective
       sodipodi:type="inkscape:persp3d"
       inkscape:vp_x="0 : 526.18109 : 1"
       inkscape:vp_y="0 : 1000 : 0"
       inkscape:vp_z="744.09448 : 526.18109 : 1"
       inkscape:persp3d-origin="372.04724 : 350.78739 : 1"
       id="perspective10" />
    <inkscape:perspective
       id="perspective2390"
       inkscape:persp3d-origin="372.04724 : 350.78739 : 1"
       inkscape:vp_z="744.09448 : 526.18109 : 1"
       inkscape:vp_y="0 : 1000 : 0"
       inkscape:vp_x="0 : 526.18109 : 1"
       sodipodi:type="inkscape:persp3d" />
    <inkscape:perspective
       id="perspective6232"
       inkscape:persp3d-origin="372.04724 : 350.78739 : 1"
       inkscape:vp_z="744.09448 : 526.18109 : 1"
       inkscape:vp_y="0 : 1000 : 0"
       inkscape:vp_x="0 : 526.18109 : 1"
       sodipodi:type="inkscape:persp3d" />
  </defs>
  <sodipodi:namedview
     id="base"
     pagecolor="#ffffff"
     bordercolor="#666666"
     borderopacity="1.0"
     inkscape:pageopacity="0.0"
     inkscape:pageshadow="2"
     inkscape:zoom="1.8184026"
     inkscape:cx="370.16169"
     inkscape:cy="114.74469"
     inkscape:document-units="px"
     inkscape:current-layer="layer2"
     showgrid="true"
     gridtolerance="10000"
     inkscape:window-width="1280"
     inkscape:window-height="856"
     inkscape:window-x="-4"
     inkscape:window-y="0"
     showguides="true"
     inkscape:guide-bbox="true"
     inkscape:snap-global="false"
     inkscape:window-maximized="0">
    <inkscape:grid
       type="xygrid"
       units="px"
       visible="true"
       enabled="true"
       spacingx="5"
       spacingy="5"
       id="grid2406"
       originx="0"
       originy="0" />
    <sodipodi:guide
       orientation="0,1"
       position="264.3179,143.97495"
       id="guide6051"
       inkscape:locked="false" />
    <sodipodi:guide
       orientation="1,0"
       position="264.26917,143.95546"
       id="guide6053"
       inkscape:locked="false" />
  </sodipodi:namedview>
  <metadata
     id="metadata7">
    <rdf:RDF>
      <cc:Work
         rdf:about="">
        <dc:format>image/svg+xml</dc:format>
        <dc:type
           rdf:resource="http://purl.org/dc/dcmitype/StillImage" />
      </cc:Work>
    </rdf:RDF>
  </metadata>
  <g
     inkscape:groupmode="layer"
     id="layer3"
     inkscape:label="Prisma"
     style="display:inline">
    <g
       transform="matrix(0.4527275,0,0,1,89.331864,-98.647888)"
       id="g2456"
       style="fill:#e0e3e3;fill-opacity:1">
      <path
         style="opacity:1;fill:#e0e3e3;fill-opacity:1;fill-rule:nonzero;stroke:#000000;stroke-width:2.2293222;stroke-linecap:square;stroke-linejoin:miter;stroke-miterlimit:4;stroke-dasharray:none;stroke-dashoffset:0;stroke-opacity:1"
         d="M 578.85714,259.64789 L 689.29795,259.64789 L 689.29795,109.64789 L 223.85714,109.64789 L 578.85714,259.64789 z"
         id="path5009"
         sodipodi:nodetypes="ccccc" />
      <path
         sodipodi:nodetypes="ccccc"
         id="rect5002"
         d="M 214.85802,109.64789 L 104.41631,109.64789 L 104.41631,259.64789 L 569.85714,259.64789 L 214.85802,109.64789 z"
         style="opacity:1;fill:#e0e3e3;fill-opacity:1;fill-rule:nonzero;stroke:#000000;stroke-width:2.2293222;stroke-linecap:square;stroke-linejoin:miter;stroke-miterlimit:4;stroke-dasharray:none;stroke-dashoffset:0;stroke-opacity:1" />
    </g>
    <path
       id="path8758"
       style="opacity:1;fill:#779fbf;fill-opacity:0.78431373;fill-rule:nonzero;stroke:#000000;stroke-width:0.5;stroke-linecap:square;stroke-linejoin:miter;stroke-miterlimit:4;stroke-dasharray:none;stroke-dashoffset:0;stroke-opacity:1;display:inline"
       d="M 190.67815,11.000002 L 351.39641,161 L 347.32186,161 L 186.6036,11.000002"
       sodipodi:nodetypes="cccc" />
    <g
       id="g3592">
      <path
         style="opacity:1;fill:#000000;fill-opacity:1;fill-rule:evenodd;stroke:none;stroke-width:1.5;stroke-linecap:butt;stroke-linejoin:miter;stroke-miterlimit:4;stroke-dasharray:none;stroke-opacity:1;display:inline"
         d="M 392.49374,18.554213 L 392.49374,18.554213 L 392.49374,18.554213"
         id="path2450" />
      <path
         style="fill-rule:evenodd;stroke:#000000;stroke-width:0.4pt;marker-start:none;marker-end:none"
         d="M 395.43373,18.554212 C 395.43373,20.210212 394.08973,21.554212 392.43373,21.554212 C 390.77773,21.554212 389.43373,20.210212 389.43373,18.554212 C 389.43373,16.898212 390.77773,15.554212 392.43373,15.554212 C 394.08973,15.554212 395.43373,16.898212 395.43373,18.554212 z"
         id="path3598" />
    </g>
    <g
       id="g2754">
      <path
         style="opacity:1;fill:#000000;fill-opacity:1;fill-rule:evenodd;stroke:none;stroke-width:1.5;stroke-linecap:butt;stroke-linejoin:miter;stroke-miterlimit:4;stroke-dasharray:none;stroke-opacity:1;display:inline"
         d="M 146.25,118.46875 L 146.25,136 L 146.25,153.53125 L 147.75,153.53125 L 147.75,136 L 147.75,118.46875 L 146.25,118.46875 z"
         id="path2464" />
      <path
         d="M 150.63036,145.67039 L 147.01441,155.50368 L 143.39846,145.67039 C 145.53332,147.24134 148.45417,147.23229 150.63036,145.67039 z"
         style="font-size:12px;fill-rule:evenodd;stroke-width:0.625;stroke-linejoin:round"
         id="path2760" />
      <path
         d="M 143.36964,126.32961 L 146.98559,116.49632 L 150.60154,126.32961 C 148.46668,124.75866 145.54583,124.76771 143.36964,126.32961 z"
         style="font-size:12px;fill-rule:evenodd;stroke-width:0.625;stroke-linejoin:round"
         id="path2762" />
    </g>
  </g>
  <g
     inkscape:label="Ebene 1"
     inkscape:groupmode="layer"
     id="layer1"
     transform="translate(-127.85714,-98.647888)"
     style="display:inline">
    <path
       id="path5492"
       d="M 206.0279,184.67671 L 393.56637,184.67671"
       style="fill:none;fill-rule:evenodd;stroke:#d4d600;stroke-width:3;stroke-linecap:round;stroke-linejoin:miter;marker-end:none;stroke-miterlimit:4;stroke-dasharray:none;stroke-opacity:1"
       sodipodi:nodetypes="cc" />
    <g
       id="g8785"
       transform="translate(4,4)" />
    <g
       id="g2610">
      <path
         style="fill:#d4d600;fill-opacity:1;fill-rule:evenodd;stroke:none;stroke-width:3;stroke-linecap:round;stroke-linejoin:miter;stroke-miterlimit:4;stroke-dasharray:none;stroke-opacity:1"
         d="M 137.75,183.1875 C 136.92157,183.27379 136.31996,184.01532 136.40625,184.84375 C 136.49254,185.67218 137.23407,186.27379 138.0625,186.1875 L 211.15625,186.1875 C 211.6972,186.19515 212.20037,185.91094 212.47308,185.44369 C 212.74579,184.97644 212.74579,184.39856 212.47308,183.93131 C 212.20037,183.46406 211.6972,183.17985 211.15625,183.1875 L 138.0625,183.1875 C 137.95862,183.17662 137.85388,183.17662 137.75,183.1875 L 137.75,183.1875 z"
         id="path2474" />
      <path
         d="M 195.46066,177.41599 L 215.12724,184.64789 L 195.46066,191.87978 C 198.60256,187.61007 198.58445,181.76837 195.46066,177.41599 z"
         style="font-size:12px;fill-rule:evenodd;stroke-width:0.62500000000000000;stroke-linejoin:round;fill:#c0c000;fill-opacity:1"
         id="path2616" />
    </g>
    <g
       id="g2586">
      <path
         style="opacity:1;fill:#000000;fill-opacity:1;fill-rule:evenodd;stroke:none;stroke-width:1.5;stroke-linecap:butt;stroke-linejoin:miter;stroke-miterlimit:4;stroke-dasharray:none;stroke-opacity:1"
         d="M 169.09375,167.125 L 169.09375,184.65625 L 169.09375,202.15625 L 170.59375,202.15625 L 170.59375,184.65625 L 170.59375,167.125 L 169.09375,167.125 z"
         id="path5011" />
      <path
         d="M 166.22678,174.9775 L 169.84273,165.14421 L 173.45868,174.9775 C 171.32382,173.40655 168.40297,173.4156 166.22678,174.9775 z"
         style="font-size:12px;fill-rule:evenodd;stroke-width:0.625;stroke-linejoin:round"
         id="path2592" />
      <path
         style="fill-rule:evenodd;stroke:#000000;stroke-width:0.4pt;marker-start:none;marker-end:none"
         d="M 169.85714,187.58789 C 168.20114,187.58789 166.85714,186.24389 166.85714,184.58789 C 166.85714,182.93189 168.20114,181.58789 169.85714,181.58789 C 171.51314,181.58789 172.85714,182.93189 172.85714,184.58789 C 172.85714,186.24389 171.51314,187.58789 169.85714,187.58789 z"
         id="path2594" />
      <path
         d="M 173.4875,194.31828 L 169.87155,204.15157 L 166.2556,194.31828 C 168.39046,195.88923 171.31131,195.88018 173.4875,194.31828 z"
         style="font-size:12px;fill-rule:evenodd;stroke-width:0.625;stroke-linejoin:round"
         id="path2596" />
    </g>
    <g
       id="g2598">
      <path
         style="opacity:1;fill:#000000;fill-opacity:1;fill-rule:evenodd;stroke:none;stroke-width:1.5;stroke-linecap:butt;stroke-linejoin:miter;stroke-miterlimit:4;stroke-dasharray:none;stroke-opacity:1"
         d="M 185.09375,167.125 L 185.09375,184.65625 L 185.09375,202.15625 L 186.59375,202.15625 L 186.59375,184.65625 L 186.59375,167.125 L 185.09375,167.125 z"
         id="path6598" />
      <path
         d="M 182.22678,174.9775 L 185.84273,165.14421 L 189.45868,174.9775 C 187.32382,173.40655 184.40297,173.4156 182.22678,174.9775 z"
         style="font-size:12px;fill-rule:evenodd;stroke-width:0.625;stroke-linejoin:round"
         id="path2604" />
      <path
         style="fill-rule:evenodd;stroke:#000000;stroke-width:0.4pt;marker-start:none;marker-end:none"
         d="M 185.85714,187.58789 C 184.20114,187.58789 182.85714,186.24389 182.85714,184.58789 C 182.85714,182.93189 184.20114,181.58789 185.85714,181.58789 C 187.51314,181.58789 188.85714,182.93189 188.85714,184.58789 C 188.85714,186.24389 187.51314,187.58789 185.85714,187.58789 z"
         id="path2606" />
      <path
         d="M 189.4875,194.31828 L 185.87155,204.15157 L 182.2556,194.31828 C 184.39046,195.88923 187.31131,195.88018 189.4875,194.31828 z"
         style="font-size:12px;fill-rule:evenodd;stroke-width:0.625;stroke-linejoin:round"
         id="path2608" />
    </g>
    <g
       id="g2462">
      <g
         id="g2626">
        <path
           style="opacity:1;fill:#000000;fill-opacity:1;fill-rule:evenodd;stroke:none;stroke-width:1.5;stroke-linecap:butt;stroke-linejoin:miter;stroke-miterlimit:4;stroke-dasharray:none;stroke-opacity:1"
           d="M 328.09375,167.125 L 328.09375,184.65625 L 328.09375,202.15625 L 329.59375,202.15625 L 329.59375,184.65625 L 329.59375,167.125 L 328.09375,167.125 z"
           id="path6600" />
        <path
           d="M 325.22678,174.9775 L 328.84273,165.14421 L 332.45868,174.9775 C 330.32382,173.40655 327.40297,173.4156 325.22678,174.9775 z"
           style="font-size:12px;fill-rule:evenodd;stroke-width:0.625;stroke-linejoin:round"
           id="path2632" />
        <path
           d="M 332.4875,194.31828 L 328.87155,204.15157 L 325.2556,194.31828 C 327.39046,195.88923 330.31131,195.88018 332.4875,194.31828 z"
           style="font-size:12px;fill-rule:evenodd;stroke-width:0.625;stroke-linejoin:round"
           id="path2634" />
      </g>
      <g
         id="g2644">
        <path
           style="opacity:1;fill:#000000;fill-opacity:1;fill-rule:evenodd;stroke:none;stroke-width:1.5;stroke-linecap:butt;stroke-linejoin:miter;stroke-miterlimit:4;stroke-dasharray:none;stroke-opacity:1"
           d="M 344.09375,167.125 L 344.09375,184.65625 L 344.09375,202.15625 L 345.59375,202.15625 L 345.59375,184.65625 L 345.59375,167.125 L 344.09375,167.125 z"
           id="path6602" />
        <path
           d="M 341.22678,174.9775 L 344.84273,165.14421 L 348.45868,174.9775 C 346.32382,173.40655 343.40297,173.4156 341.22678,174.9775 z"
           style="font-size:12px;fill-rule:evenodd;stroke-width:0.625;stroke-linejoin:round"
           id="path2650" />
        <path
           d="M 348.4875,194.31828 L 344.87155,204.15157 L 341.2556,194.31828 C 343.39046,195.88923 346.31131,195.88018 348.4875,194.31828 z"
           style="font-size:12px;fill-rule:evenodd;stroke-width:0.625;stroke-linejoin:round"
           id="path2652" />
      </g>
    </g>
    <g
       id="g2764">
      <path
         style="fill:#00ff00;fill-opacity:1;fill-rule:evenodd;stroke:none;stroke-width:3;stroke-linecap:round;stroke-linejoin:miter;stroke-miterlimit:4;stroke-dasharray:none;stroke-opacity:1"
         d="M 393.75,183.25 C 392.99496,183.28907 392.38698,183.8839 392.33142,184.63791 C 392.27586,185.39191 392.79009,186.06944 393.53125,186.21875 L 400.90625,187.96875 L 400.9375,187.96875 L 401,187.96875 L 527.71875,208.5625 L 645.71875,264 C 646.21098,264.27135 646.8136,264.24477 647.28004,263.93114 C 647.74647,263.61751 647.99845,263.06945 647.93287,262.51122 C 647.86729,261.95299 647.49517,261.47825 646.96875,261.28125 L 528.8125,205.75 L 528.625,205.65625 L 528.40625,205.625 L 401.5625,185.03125 L 394.1875,183.3125 C 394.04555,183.27018 393.89812,183.24912 393.75,183.25 z"
         id="path5498" />
      <path
         d="M 635.22902,249.39232 L 649.95226,264.30208 L 629.07728,262.48268 C 633.73683,259.95472 636.20503,254.66002 635.22902,249.39232 z"
         style="font-size:12px;fill-rule:evenodd;stroke-width:0.62500000000000000;stroke-linejoin:round;fill:#00ff00"
         id="path2770" />
    </g>
    <g
       id="g3832"
       transform="matrix(0.9895331,0.1443061,-0.1443061,0.9895331,35.675426,-54.512453)">
      <g
         id="g2746">
        <path
           style="opacity:1;fill:#000000;fill-opacity:1;fill-rule:evenodd;stroke:none;stroke-width:1.5;stroke-linecap:butt;stroke-linejoin:miter;stroke-miterlimit:4;stroke-dasharray:none;stroke-opacity:1"
           d="M 456.85715,186.64789 L 456.85715,186.64789 L 456.85715,186.64789"
           id="path6604" />
        <path
           style="fill-rule:evenodd;stroke:#000000;stroke-width:0.4pt;marker-start:none;marker-end:none"
           d="M 459.79714,186.64789 C 459.79714,188.30389 458.45314,189.64789 456.79714,189.64789 C 455.14114,189.64789 453.79714,188.30389 453.79714,186.64789 C 453.79714,184.99189 455.14114,183.64789 456.79714,183.64789 C 458.45314,183.64789 459.79714,184.99189 459.79714,186.64789 z"
           id="path2752" />
      </g>
      <g
         id="g2738">
        <path
           style="opacity:1;fill:#000000;fill-opacity:1;fill-rule:evenodd;stroke:none;stroke-width:1.5;stroke-linecap:butt;stroke-linejoin:miter;stroke-miterlimit:4;stroke-dasharray:none;stroke-opacity:1"
           d="M 471.85715,186.64789 L 471.85715,186.64789 L 471.85715,186.64789"
           id="path6606" />
        <path
           style="fill-rule:evenodd;stroke:#000000;stroke-width:0.4pt;marker-start:none;marker-end:none"
           d="M 474.79714,186.64789 C 474.79714,188.30389 473.45314,189.64789 471.79714,189.64789 C 470.14114,189.64789 468.79714,188.30389 468.79714,186.64789 C 468.79714,184.99189 470.14114,183.64789 471.79714,183.64789 C 473.45314,183.64789 474.79714,184.99189 474.79714,186.64789 z"
           id="path2744" />
      </g>
    </g>
    <g
       id="g3836"
       transform="matrix(0.9235879,0.3833867,-0.3833867,0.9235879,79.69991,-179.21463)">
      <g
         id="g2722">
        <path
           style="opacity:1;fill:#000000;fill-opacity:1;fill-rule:evenodd;stroke:none;stroke-width:1.5;stroke-linecap:butt;stroke-linejoin:miter;stroke-miterlimit:4;stroke-dasharray:none;stroke-opacity:1"
           d="M 601.85712,186.64789 L 601.85712,186.64789 L 601.85712,186.64789"
           id="path6608" />
        <path
           style="fill-rule:evenodd;stroke:#000000;stroke-width:0.4pt;marker-start:none;marker-end:none"
           d="M 604.79714,186.64789 C 604.79714,188.30389 603.45314,189.64789 601.79714,189.64789 C 600.14114,189.64789 598.79714,188.30389 598.79714,186.64789 C 598.79714,184.99189 600.14114,183.64789 601.79714,183.64789 C 603.45314,183.64789 604.79714,184.99189 604.79714,186.64789 z"
           id="path2728" />
      </g>
      <g
         id="g2730">
        <path
           style="opacity:1;fill:#000000;fill-opacity:1;fill-rule:evenodd;stroke:none;stroke-width:1.5;stroke-linecap:butt;stroke-linejoin:miter;stroke-miterlimit:4;stroke-dasharray:none;stroke-opacity:1"
           d="M 616.85712,186.64789 L 616.85712,186.64789 L 616.85712,186.64789"
           id="path6610" />
        <path
           style="fill-rule:evenodd;stroke:#000000;stroke-width:0.4pt;marker-start:none;marker-end:none"
           d="M 619.79714,186.64789 C 619.79714,188.30389 618.45314,189.64789 616.79714,189.64789 C 615.14114,189.64789 613.79714,188.30389 613.79714,186.64789 C 613.79714,184.99189 615.14114,183.64789 616.79714,183.64789 C 618.45314,183.64789 619.79714,184.99189 619.79714,186.64789 z"
           id="path2736" />
      </g>
    </g>
    <g
       id="g2674">
      <path
         style="fill:#000000;fill-opacity:1;fill-rule:evenodd;stroke:none;stroke-width:1px;stroke-linecap:butt;stroke-linejoin:miter;stroke-opacity:1"
         d="M 477.8125,262.625 L 473.96875,274.96875 L 448.71875,279.125 L 448.875,280.125 L 474.4375,275.875 L 474.75,275.84375 L 474.84375,275.53125 L 478.75,262.9375 L 477.8125,262.625 z"
         id="path6624" />
      <path
         d="M 474.41846,267.04798 L 478.67098,261.50703 L 479.02123,268.48294 C 477.97421,267.05951 476.11342,266.48571 474.41846,267.04798 z"
         style="font-size:12px;fill-rule:evenodd;stroke-width:0.625;stroke-linejoin:round"
         id="path2680" />
    </g>
    <path
       sodipodi:nodetypes="cc"
       id="path2439"
       d="M 384.75275,207.36661 L 399.96153,169.92919"
       style="opacity:1;fill:none;fill-opacity:0.78431373;fill-rule:nonzero;stroke:#000000;stroke-width:1.00000012;stroke-linecap:butt;stroke-linejoin:miter;stroke-miterlimit:4;stroke-dasharray:4.00000008, 2.00000004, 1.00000002, 2.00000004;stroke-dashoffset:0;stroke-opacity:1" />
    <g
       id="g2654">
      <path
         style="opacity:1;fill:#000000;fill-opacity:1;fill-rule:nonzero;stroke:none;stroke-width:1.12212849;stroke-linecap:butt;stroke-linejoin:miter;marker:none;stroke-miterlimit:4;stroke-dasharray:none;stroke-dashoffset:0;stroke-opacity:1;visibility:visible;display:inline;overflow:visible;enable-background:accumulate"
         d="M 374.56702,186.13677 C 374.56752,193.52754 378.69894,199.84689 385.47162,202.84984 L 385.86207,201.93215 C 379.42628,199.07857 375.5715,193.1599 375.57102,186.13677 L 374.56702,186.13677 z"
         id="path3235" />
      <path
         d="M 384.39613,200.51367 L 386.90501,202.9433 L 383.41525,202.71317 C 384.18397,202.27634 384.57737,201.38677 384.39613,200.51367 z"
         style="font-size:12px;fill-rule:evenodd;stroke-width:0.625;stroke-linejoin:round"
         id="path2660" />
      <path
         style="fill-rule:evenodd;stroke:#000000;stroke-width:0.2pt;marker-start:none"
         d="M 375.0691,187.33628 L 376.07061,188.33477 L 375.06893,184.83987 L 374.06773,188.3349 L 375.0691,187.33628 z"
         id="path2662" />
    </g>
    <g
       id="g2664">
      <path
         style="opacity:1;fill:#000000;fill-opacity:1;fill-rule:nonzero;stroke:none;stroke-width:0.28865585;stroke-linecap:butt;stroke-linejoin:miter;marker:none;stroke-miterlimit:4;stroke-dasharray:none;stroke-dashoffset:0;stroke-opacity:1;visibility:visible;display:inline;overflow:visible;enable-background:accumulate"
         d="M 444.69914,233.87892 L 443.70725,233.48941 C 440.58176,241.55041 439.16049,248.84216 438.95179,257.51121 L 439.91073,257.55694 C 440.11699,248.98906 441.61012,241.84586 444.69914,233.87892 z"
         id="path6055" />
      <path
         d="M 440.68533,255.66912 L 439.41125,258.94204 L 438.29634,255.60437 C 438.98885,256.15153 439.95381,256.17464 440.68533,255.66912 z"
         style="font-size:12px;fill-rule:evenodd;stroke-width:0.625;stroke-linejoin:round"
         id="path2670" />
      <path
         style="fill-rule:evenodd;stroke:#000000;stroke-width:0.2pt;marker-start:none"
         d="M 443.76841,234.79261 L 444.32709,236.10225 L 444.67732,232.44843 L 442.4826,235.35832 L 443.76841,234.79261 z"
         id="path2672" />
    </g>
    <text
       xml:space="preserve"
       style="font-style:normal;font-variant:normal;font-weight:normal;font-stretch:normal;line-height:0%;font-family:'DejaVu Sans';-inkscape-font-specification:'DejaVu Sans';text-align:start;writing-mode:lr-tb;text-anchor:start;fill:#000000;fill-opacity:1;stroke:none;stroke-width:1px;stroke-linecap:butt;stroke-linejoin:miter;stroke-opacity:1"
       x="361.81409"
       y="215.48393"
       id="text6660"><tspan
         sodipodi:role="line"
         id="tspan6662"
         x="361.81409"
         y="215.48393"
         style="font-size:22px;line-height:1.25">β</tspan></text>
    <g
       id="g2772">
      <path
         style="fill:#ff0000;fill-opacity:1;fill-rule:evenodd;stroke:none;stroke-width:3;stroke-linecap:round;stroke-linejoin:miter;stroke-miterlimit:4;stroke-dasharray:none;stroke-opacity:1"
         d="M 646.375,105.40625 C 646.14722,105.40784 645.9228,105.46127 645.71875,105.5625 L 527.71875,161 L 401,181.59375 L 400.9375,181.59375 L 400.90625,181.59375 L 393.53125,183.34375 C 392.95602,183.40381 392.46655,183.7892 392.2732,184.33429 C 392.07986,184.87937 392.21708,185.48705 392.62589,185.89616 C 393.0347,186.30527 393.64227,186.44294 394.1875,186.25 L 401.46875,184.5625 L 401.5625,184.53125 L 528.40625,163.9375 L 528.625,163.90625 L 528.8125,163.8125 L 646.96875,108.28125 C 647.61868,107.99754 647.98116,107.29747 647.83773,106.60298 C 647.6943,105.90848 647.08415,105.40928 646.375,105.40625 z"
         id="path3830" />
      <path
         d="M 629.05276,107.03104 L 649.92774,105.21164 L 635.2045,120.1214 C 636.23206,114.92082 633.73109,109.64152 629.05276,107.03104 z"
         style="font-size:12px;fill-rule:evenodd;stroke-width:0.62500000000000000;stroke-linejoin:round;fill:#ff0000"
         id="path2778" />
    </g>
    <g
       id="g3840"
       transform="matrix(0.5524009,-0.8335786,0.8335786,0.5524009,-18.163888,417.49653)">
      <g
         id="g2682">
        <path
           style="opacity:1;fill:#000000;fill-opacity:1;fill-rule:evenodd;stroke:none;stroke-width:1.5;stroke-linecap:butt;stroke-linejoin:miter;stroke-miterlimit:4;stroke-dasharray:none;stroke-opacity:1"
           d="M 492.15625,264.5 L 480.1875,277.28125 L 468.21875,290.0625 L 469.3125,291.09375 L 481.28125,278.3125 L 493.25,265.5 L 492.15625,264.5 z"
           id="path6616" />
        <path
           d="M 484.70368,268.24704 L 494.06461,263.54155 L 489.98217,273.1905 C 489.49781,270.58457 487.35972,268.59459 484.70368,268.24704 z"
           style="font-size:12px;fill-rule:evenodd;stroke-width:0.625;stroke-linejoin:round"
           id="path2688" />
        <path
           d="M 476.78254,287.32685 L 467.42161,292.03233 L 471.50405,282.38338 C 471.98842,284.98931 474.1265,286.97929 476.78254,287.32685 z"
           style="font-size:12px;fill-rule:evenodd;stroke-width:0.625;stroke-linejoin:round"
           id="path2690" />
      </g>
      <g
         id="g2692">
        <path
           style="opacity:1;fill:#000000;fill-opacity:1;fill-rule:evenodd;stroke:none;stroke-width:1.5;stroke-linecap:butt;stroke-linejoin:miter;stroke-miterlimit:4;stroke-dasharray:none;stroke-opacity:1"
           d="M 503.84375,275.4375 L 491.875,288.21875 L 479.90625,301 L 481,302.03125 L 492.96875,289.25 L 504.9375,276.4375 L 503.84375,275.4375 z"
           id="path6618" />
        <path
           d="M 496.38192,279.18407 L 505.74285,274.47859 L 501.66041,284.12754 C 501.17605,281.52161 499.03796,279.53163 496.38192,279.18407 z"
           style="font-size:12px;fill-rule:evenodd;stroke-width:0.625;stroke-linejoin:round"
           id="path2698" />
        <path
           d="M 488.46079,298.26388 L 479.09986,302.96937 L 483.1823,293.32042 C 483.66666,295.92635 485.80475,297.91633 488.46079,298.26388 z"
           style="font-size:12px;fill-rule:evenodd;stroke-width:0.625;stroke-linejoin:round"
           id="path2700" />
      </g>
    </g>
    <g
       transform="matrix(0.3694818,-0.929238,0.929238,0.3694818,149.74525,478.7466)"
       id="g3844">
      <g
         id="g2702">
        <path
           style="opacity:1;fill:#000000;fill-opacity:1;fill-rule:evenodd;stroke:none;stroke-width:1.5;stroke-linecap:butt;stroke-linejoin:miter;stroke-miterlimit:4;stroke-dasharray:none;stroke-opacity:1"
           d="M 492.15625,264.5 L 480.1875,277.28125 L 468.21875,290.0625 L 469.3125,291.09375 L 481.28125,278.3125 L 493.25,265.5 L 492.15625,264.5 z"
           id="path3846" />
        <path
           d="M 484.70368,268.24704 L 494.06461,263.54155 L 489.98217,273.1905 C 489.49781,270.58457 487.35972,268.59459 484.70368,268.24704 z"
           style="font-size:12px;fill-rule:evenodd;stroke-width:0.625;stroke-linejoin:round"
           id="path2708" />
        <path
           d="M 476.78254,287.32685 L 467.42161,292.03233 L 471.50405,282.38338 C 471.98842,284.98931 474.1265,286.97929 476.78254,287.32685 z"
           style="font-size:12px;fill-rule:evenodd;stroke-width:0.625;stroke-linejoin:round"
           id="path2710" />
      </g>
      <g
         id="g2712">
        <path
           style="opacity:1;fill:#000000;fill-opacity:1;fill-rule:evenodd;stroke:none;stroke-width:1.5;stroke-linecap:butt;stroke-linejoin:miter;stroke-miterlimit:4;stroke-dasharray:none;stroke-opacity:1"
           d="M 503.84375,275.4375 L 491.875,288.21875 L 479.90625,301 L 481,302.03125 L 492.96875,289.25 L 504.9375,276.4375 L 503.84375,275.4375 z"
           id="path3848" />
        <path
           d="M 496.38192,279.18407 L 505.74285,274.47859 L 501.66041,284.12754 C 501.17605,281.52161 499.03796,279.53163 496.38192,279.18407 z"
           style="font-size:12px;fill-rule:evenodd;stroke-width:0.625;stroke-linejoin:round"
           id="path2718" />
        <path
           d="M 488.46079,298.26388 L 479.09986,302.96937 L 483.1823,293.32042 C 483.66666,295.92635 485.80475,297.91633 488.46079,298.26388 z"
           style="font-size:12px;fill-rule:evenodd;stroke-width:0.625;stroke-linejoin:round"
           id="path2720" />
      </g>
    </g>
    <g
       id="g2466"
       transform="translate(-8,0)">
      <g
         id="g2618">
        <path
           style="opacity:1;fill:#000000;fill-opacity:1;fill-rule:evenodd;stroke:none;stroke-width:1.5;stroke-linecap:butt;stroke-linejoin:miter;stroke-miterlimit:4;stroke-dasharray:none;stroke-opacity:1"
           d="M 328.09375,184.65625 L 328.09375,184.71875 L 329.59375,184.71875 L 329.59375,184.65625 L 328.09375,184.65625 z"
           id="path2468" />
        <path
           style="fill-rule:evenodd;stroke:#000000;stroke-width:0.4pt;marker-start:none;marker-end:none"
           d="M 331.79714,184.64789 C 331.79714,186.30389 330.45314,187.64789 328.79714,187.64789 C 327.14114,187.64789 325.79714,186.30389 325.79714,184.64789 C 325.79714,182.99189 327.14114,181.64789 328.79714,181.64789 C 330.45314,181.64789 331.79714,182.99189 331.79714,184.64789 z"
           id="path2624" />
      </g>
      <g
         id="g2636">
        <path
           style="opacity:1;fill:#000000;fill-opacity:1;fill-rule:evenodd;stroke:none;stroke-width:1.5;stroke-linecap:butt;stroke-linejoin:miter;stroke-miterlimit:4;stroke-dasharray:none;stroke-opacity:1"
           d="M 344.09375,184.5625 L 344.09375,184.65625 L 344.09375,184.71875 L 345.59375,184.71875 L 345.59375,184.65625 L 345.59375,184.5625 L 344.09375,184.5625 z"
           id="path2470" />
        <path
           style="fill-rule:evenodd;stroke:#000000;stroke-width:0.4pt;marker-start:none;marker-end:none"
           d="M 344.85714,187.58789 C 343.20114,187.58789 341.85714,186.24389 341.85714,184.58789 C 341.85714,182.93189 343.20114,181.58789 344.85714,181.58789 C 346.51314,181.58789 347.85714,182.93189 347.85714,184.58789 C 347.85714,186.24389 346.51314,187.58789 344.85714,187.58789 z"
           id="path2642" />
      </g>
    </g>
  </g>
  <g
     inkscape:groupmode="layer"
     id="layer2"
     inkscape:label="Beschriftung">
    <text
       xml:space="preserve"
       style="font-style:normal;font-variant:normal;font-weight:normal;font-stretch:normal;line-height:0%;font-family:'DejaVu Sans';-inkscape-font-specification:'DejaVu Sans';text-align:center;writing-mode:lr-tb;text-anchor:middle;fill:#000000;fill-opacity:1;stroke:none;stroke-width:1px;stroke-linecap:butt;stroke-linejoin:miter;stroke-opacity:1"
       x="273.87106"
       y="183"
       id="text6620"><tspan
         sodipodi:role="line"
         x="273.87106"
         y="183"
         id="tspan8824"
         style="font-size:13px;line-height:1.25">Kleber</tspan></text>
    <text
       xml:space="preserve"
       style="font-style:normal;font-variant:normal;font-weight:normal;font-stretch:normal;line-height:0%;font-family:'DejaVu Sans';-inkscape-font-specification:'DejaVu Sans';text-align:center;writing-mode:lr-tb;text-anchor:middle;fill:#000000;fill-opacity:1;stroke:none;stroke-width:1px;stroke-linecap:butt;stroke-linejoin:miter;stroke-opacity:1"
       x="474.57614"
       y="189.3781"
       id="text15332"><tspan
         sodipodi:role="line"
         x="474.57614"
         y="189.3781"
         id="tspan15344"
         style="font-size:16px;line-height:1.25">au\ss erordentlich</tspan></text>
    <text
       xml:space="preserve"
       style="font-style:normal;font-variant:normal;font-weight:normal;font-stretch:normal;line-height:0%;font-family:'DejaVu Sans';-inkscape-font-specification:'DejaVu Sans';text-align:center;writing-mode:lr-tb;text-anchor:middle;fill:#000000;fill-opacity:1;stroke:none;stroke-width:1px;stroke-linecap:butt;stroke-linejoin:miter;stroke-opacity:1"
       x="492.83832"
       y="69.314293"
       id="text15336"><tspan
         sodipodi:role="line"
         x="492.83832"
         y="69.314293"
         id="tspan15340"
         style="font-size:16px;line-height:1.25">ordentlich</tspan></text>
    <text
       xml:space="preserve"
       style="font-style:normal;font-variant:normal;font-weight:normal;font-stretch:normal;line-height:0%;font-family:'DejaVu Sans';-inkscape-font-specification:'DejaVu Sans';text-align:start;writing-mode:lr-tb;text-anchor:start;fill:#000000;fill-opacity:1;stroke:none;stroke-width:1px;stroke-linecap:butt;stroke-linejoin:miter;stroke-opacity:1"
       x="294.1142"
       y="151.16667"
       id="text6656"><tspan
         sodipodi:role="line"
         id="tspan6658"
         x="294.1142"
         y="151.16667"
         style="font-size:22px;line-height:1.25">α</tspan></text>
    <text
       xml:space="preserve"
       style="font-style:normal;font-variant:normal;font-weight:normal;font-stretch:normal;line-height:0%;font-family:'DejaVu Sans';-inkscape-font-specification:'DejaVu Sans';text-align:start;writing-mode:lr-tb;text-anchor:start;fill:#000000;fill-opacity:1;stroke:none;stroke-width:1px;stroke-linecap:butt;stroke-linejoin:miter;stroke-opacity:1"
       x="10.993278"
       y="121.77554"
       id="text6668"><tspan
         sodipodi:role="line"
         id="tspan6670"
         x="10.993278"
         y="121.77554"
         style="font-size:16px;line-height:1.25">unpolarisiert</tspan></text>
  </g>
</svg>
