<?xml version="1.0" encoding="UTF-8"?>
<svg xmlns="http://www.w3.org/2000/svg" xmlns:xlink="http://www.w3.org/1999/xlink" width="360pt" height="223pt" viewBox="0 0 360 223" version="1.1">
<g id="surface9">
<path style="fill:none;stroke-width:1.6;stroke-linecap:square;stroke-linejoin:miter;stroke:rgb(36.84082%,50.67749%,70.979309%);stroke-opacity:1;stroke-miterlimit:3.25;" d="M 130.941406 115.613281 L 130.996094 113.683594 L 131.101562 111.957031 L 131.207031 110.757812 L 131.308594 109.78125 L 131.414062 108.9375 L 131.519531 108.183594 L 131.625 107.492188 L 131.730469 106.855469 L 131.941406 105.695312 L 132.046875 105.164062 L 132.152344 104.652344 L 132.359375 103.699219 L 132.464844 103.246094 L 132.570312 102.8125 L 132.78125 101.980469 L 133.203125 100.449219 L 133.308594 100.089844 L 133.414062 99.738281 L 133.621094 99.054688 L 134.042969 97.769531 L 134.882812 95.441406 L 134.988281 95.167969 L 135.09375 94.898438 L 135.304688 94.371094 L 135.722656 93.351562 L 136.566406 91.445312 L 136.792969 90.953125 L 137.019531 90.472656 L 137.476562 89.539062 L 138.390625 87.765625 L 140.210938 84.546875 L 140.328125 84.355469 L 140.441406 84.167969 L 140.667969 83.796875 L 141.125 83.066406 L 142.035156 81.660156 L 143.859375 79.039062 L 143.964844 78.894531 L 144.070312 78.746094 L 144.285156 78.460938 L 144.710938 77.890625 L 145.5625 76.789062 L 147.265625 74.699219 L 147.6875 74.199219 L 148.113281 73.710938 L 148.964844 72.753906 L 150.667969 70.9375 L 150.773438 70.832031 L 150.878906 70.722656 L 151.085938 70.511719 L 151.503906 70.089844 L 152.335938 69.273438 L 154.007812 67.710938 L 154.109375 67.617188 L 154.214844 67.523438 L 154.421875 67.335938 L 154.839844 66.96875 L 155.675781 66.246094 L 157.34375 64.875 L 157.570312 64.695312 L 158.25 64.167969 L 159.15625 63.488281 L 160.964844 62.199219 L 161.191406 62.042969 L 161.417969 61.890625 L 161.871094 61.589844 L 162.777344 61.003906 L 164.585938 59.902344 L 164.691406 59.839844 L 164.796875 59.78125 L 165.429688 59.417969 L 166.277344 58.957031 L 167.964844 58.082031 L 168.808594 57.675781 L 169.65625 57.285156 L 171.34375 56.5625 L 171.457031 56.515625 L 171.574219 56.46875 L 171.800781 56.378906 L 172.261719 56.199219 L 173.175781 55.855469 L 173.289062 55.816406 L 173.40625 55.773438 L 173.632812 55.695312 L 174.089844 55.535156 L 175.007812 55.234375 L 175.234375 55.164062 L 175.464844 55.09375 L 175.921875 54.957031 L 176.839844 54.699219 L 177.066406 54.636719 L 177.296875 54.574219 L 177.753906 54.457031 L 178.667969 54.242188 L 178.78125 54.214844 L 178.894531 54.191406 L 179.121094 54.140625 L 179.570312 54.046875 L 179.679688 54.023438 L 179.792969 54 L 180.019531 53.957031 L 180.46875 53.871094 L 180.582031 53.851562 L 180.691406 53.828125 L 180.917969 53.789062 L 181.367188 53.714844 L 182.265625 53.578125 L 182.492188 53.546875 L 182.714844 53.515625 L 183.164062 53.460938 L 183.277344 53.445312 L 183.390625 53.433594 L 183.613281 53.410156 L 184.0625 53.363281 L 184.289062 53.339844 L 184.511719 53.320312 L 184.625 53.308594 L 184.738281 53.300781 L 184.960938 53.28125 L 185.1875 53.265625 L 185.410156 53.25 L 185.523438 53.242188 L 185.636719 53.238281 L 185.863281 53.222656 L 185.964844 53.21875 L 186.070312 53.210938 L 186.386719 53.199219 L 186.488281 53.191406 L 186.804688 53.179688 L 186.910156 53.179688 L 187.015625 53.175781 L 187.117188 53.171875 L 187.222656 53.167969 L 187.328125 53.167969 L 187.433594 53.164062 L 187.539062 53.164062 L 187.644531 53.160156 L 187.957031 53.160156 L 188.0625 53.15625 L 188.375 53.15625 L 188.480469 53.160156 L 188.796875 53.160156 L 188.902344 53.164062 L 189.003906 53.164062 L 189.109375 53.167969 L 189.214844 53.167969 L 189.425781 53.175781 L 189.527344 53.179688 L 189.632812 53.179688 L 189.84375 53.1875 L 190.054688 53.199219 L 190.15625 53.203125 L 190.261719 53.207031 L 190.472656 53.21875 L 190.578125 53.222656 L 190.683594 53.230469 L 190.890625 53.242188 L 190.996094 53.25 L 191.101562 53.253906 L 191.3125 53.269531 L 191.730469 53.304688 L 191.941406 53.320312 L 192.148438 53.339844 L 192.566406 53.382812 L 192.683594 53.394531 L 193.023438 53.429688 L 193.476562 53.484375 L 193.703125 53.515625 L 193.933594 53.542969 L 194.386719 53.609375 L 194.613281 53.640625 L 194.839844 53.675781 L 195.296875 53.75 L 196.207031 53.914062 L 196.320312 53.9375 L 196.433594 53.957031 L 197.113281 54.097656 L 198.023438 54.300781 L 198.136719 54.324219 L 198.25 54.351562 L 198.480469 54.40625 L 198.933594 54.519531 L 199.84375 54.765625 L 199.949219 54.792969 L 200.054688 54.824219 L 200.265625 54.882812 L 200.691406 55.007812 L 201.539062 55.269531 L 203.238281 55.847656 L 203.660156 56.003906 L 204.085938 56.164062 L 204.933594 56.496094 L 206.632812 57.21875 L 206.746094 57.269531 L 206.863281 57.320312 L 207.09375 57.425781 L 207.550781 57.640625 L 208.472656 58.082031 L 210.3125 59.035156 L 210.539062 59.160156 L 210.769531 59.285156 L 211.230469 59.542969 L 212.148438 60.078125 L 213.988281 61.210938 L 214.214844 61.359375 L 214.441406 61.503906 L 214.890625 61.804688 L 215.796875 62.421875 L 217.601562 63.722656 L 217.714844 63.808594 L 217.828125 63.890625 L 218.050781 64.0625 L 218.503906 64.410156 L 219.40625 65.125 L 221.210938 66.628906 L 221.316406 66.722656 L 221.421875 66.8125 L 221.632812 66.996094 L 222.054688 67.371094 L 222.898438 68.132812 L 224.582031 69.738281 L 224.6875 69.84375 L 224.792969 69.945312 L 225.003906 70.15625 L 225.425781 70.582031 L 226.265625 71.453125 L 227.949219 73.285156 L 228.066406 73.414062 L 228.179688 73.542969 L 228.40625 73.804688 L 228.863281 74.332031 L 229.777344 75.417969 L 231.605469 77.726562 L 231.71875 77.875 L 231.832031 78.027344 L 232.0625 78.332031 L 232.515625 78.953125 L 233.429688 80.230469 L 235.257812 82.972656 L 235.363281 83.140625 L 235.46875 83.3125 L 235.683594 83.652344 L 236.109375 84.351562 L 236.960938 85.796875 L 237.070312 85.984375 L 237.175781 86.171875 L 237.386719 86.550781 L 237.816406 87.328125 L 238.667969 88.949219 L 238.773438 89.160156 L 238.878906 89.375 L 239.09375 89.804688 L 239.519531 90.683594 L 240.371094 92.554688 L 240.480469 92.800781 L 240.585938 93.046875 L 240.800781 93.550781 L 241.226562 94.59375 L 242.078125 96.851562 L 242.183594 97.148438 L 242.289062 97.449219 L 242.496094 98.066406 L 242.914062 99.367188 L 243.019531 99.707031 L 243.125 100.058594 L 243.332031 100.777344 L 243.75 102.335938 L 243.855469 102.753906 L 243.960938 103.1875 L 244.167969 104.09375 L 244.273438 104.578125 L 244.378906 105.078125 L 244.585938 106.160156 L 244.691406 106.746094 L 244.796875 107.371094 L 244.898438 108.046875 L 245.003906 108.785156 L 245.109375 109.601562 L 245.214844 110.542969 L 245.316406 111.671875 L 245.421875 113.214844 L 245.496094 115.398438 " transform="matrix(1,0,0,1,-66,-5)"/>
<path style="fill:none;stroke-width:1.6;stroke-linecap:square;stroke-linejoin:miter;stroke:rgb(36.84082%,50.67749%,70.979309%);stroke-opacity:1;stroke-miterlimit:3.25;" d="M 360.058594 116.035156 L 360.125 113.503906 L 360.238281 111.726562 L 360.351562 110.484375 L 360.46875 109.46875 L 360.582031 108.589844 L 360.699219 107.804688 L 360.8125 107.082031 L 361.042969 105.796875 L 361.15625 105.21875 L 361.265625 104.671875 L 361.492188 103.648438 L 361.945312 101.820312 L 362.058594 101.398438 L 362.167969 100.988281 L 362.394531 100.199219 L 362.847656 98.730469 L 362.957031 98.382812 L 363.070312 98.042969 L 363.296875 97.378906 L 363.746094 96.121094 L 364.648438 93.816406 L 364.875 93.277344 L 365.101562 92.753906 L 365.550781 91.738281 L 366.453125 89.828125 L 368.257812 86.398438 L 368.46875 86.023438 L 368.679688 85.65625 L 369.097656 84.9375 L 369.941406 83.550781 L 371.625 80.964844 L 371.726562 80.8125 L 371.832031 80.65625 L 372.464844 79.753906 L 373.304688 78.59375 L 374.988281 76.398438 L 375.101562 76.257812 L 375.214844 76.113281 L 375.445312 75.832031 L 375.902344 75.277344 L 376.8125 74.195312 L 378.636719 72.152344 L 378.753906 72.027344 L 379.09375 71.664062 L 379.550781 71.183594 L 380.460938 70.25 L 382.289062 68.484375 L 382.394531 68.382812 L 382.5 68.285156 L 382.714844 68.085938 L 383.140625 67.699219 L 383.992188 66.941406 L 385.695312 65.496094 L 385.90625 65.324219 L 386.121094 65.152344 L 386.546875 64.8125 L 387.398438 64.148438 L 389.101562 62.886719 L 389.207031 62.8125 L 389.308594 62.738281 L 389.519531 62.59375 L 389.9375 62.300781 L 390.769531 61.734375 L 392.441406 60.664062 L 392.546875 60.597656 L 392.648438 60.535156 L 392.859375 60.40625 L 393.277344 60.15625 L 394.109375 59.667969 L 395.78125 58.75 L 396.007812 58.632812 L 396.234375 58.511719 L 396.6875 58.28125 L 397.59375 57.835938 L 399.40625 57.007812 L 399.519531 56.957031 L 399.632812 56.910156 L 399.859375 56.8125 L 400.308594 56.625 L 401.214844 56.261719 L 403.027344 55.597656 L 403.449219 55.457031 L 403.875 55.316406 L 404.71875 55.054688 L 404.824219 55.019531 L 405.140625 54.925781 L 405.5625 54.804688 L 406.410156 54.578125 L 406.832031 54.46875 L 407.253906 54.367188 L 408.101562 54.171875 L 408.3125 54.125 L 408.523438 54.082031 L 408.945312 53.992188 L 409.789062 53.832031 L 409.910156 53.8125 L 410.027344 53.792969 L 410.261719 53.75 L 410.734375 53.675781 L 410.96875 53.636719 L 411.207031 53.601562 L 411.679688 53.539062 L 412.148438 53.476562 L 412.621094 53.421875 L 412.738281 53.40625 L 412.859375 53.394531 L 413.09375 53.371094 L 413.566406 53.328125 L 413.800781 53.304688 L 414.039062 53.285156 L 414.507812 53.253906 L 414.628906 53.246094 L 414.980469 53.222656 L 415.097656 53.21875 L 415.214844 53.210938 L 415.453125 53.199219 L 415.6875 53.191406 L 415.804688 53.183594 L 415.925781 53.179688 L 416.042969 53.175781 L 416.160156 53.175781 L 416.394531 53.167969 L 416.515625 53.164062 L 416.632812 53.164062 L 416.75 53.160156 L 416.984375 53.160156 L 417.105469 53.15625 L 417.339844 53.15625 " transform="matrix(1,0,0,1,-66,-5)"/>
<path style="fill:none;stroke-width:1.6;stroke-linecap:square;stroke-linejoin:miter;stroke:rgb(36.84082%,50.67749%,70.979309%);stroke-opacity:1;stroke-miterlimit:3.25;" d="M 130.941406 116.644531 L 130.996094 118.574219 L 131.101562 120.300781 L 131.207031 121.5 L 131.308594 122.472656 L 131.414062 123.316406 L 131.519531 124.074219 L 131.625 124.761719 L 131.730469 125.398438 L 131.941406 126.558594 L 132.046875 127.09375 L 132.152344 127.601562 L 132.359375 128.558594 L 132.464844 129.007812 L 132.570312 129.445312 L 132.78125 130.277344 L 133.203125 131.808594 L 133.308594 132.167969 L 133.414062 132.519531 L 133.621094 133.199219 L 134.042969 134.484375 L 134.882812 136.816406 L 134.988281 137.089844 L 135.09375 137.359375 L 135.304688 137.886719 L 135.722656 138.90625 L 136.566406 140.8125 L 136.679688 141.058594 L 137.019531 141.785156 L 137.476562 142.71875 L 138.390625 144.488281 L 140.210938 147.710938 L 140.328125 147.898438 L 140.667969 148.460938 L 141.125 149.191406 L 142.035156 150.597656 L 143.859375 153.21875 L 144.070312 153.507812 L 144.285156 153.796875 L 144.710938 154.363281 L 145.5625 155.46875 L 147.265625 157.558594 L 147.476562 157.808594 L 147.6875 158.054688 L 148.113281 158.546875 L 148.964844 159.503906 L 150.667969 161.316406 L 150.773438 161.425781 L 150.878906 161.53125 L 151.085938 161.746094 L 151.503906 162.164062 L 152.335938 162.984375 L 154.007812 164.546875 L 154.109375 164.640625 L 154.214844 164.734375 L 154.421875 164.921875 L 154.839844 165.289062 L 155.675781 166.007812 L 157.34375 167.378906 L 157.796875 167.738281 L 158.25 168.085938 L 159.15625 168.769531 L 160.964844 170.058594 L 161.078125 170.132812 L 161.191406 170.210938 L 161.417969 170.363281 L 161.871094 170.664062 L 162.777344 171.25 L 164.585938 172.351562 L 164.796875 172.476562 L 165.007812 172.597656 L 165.429688 172.835938 L 166.277344 173.300781 L 167.964844 174.171875 L 168.070312 174.226562 L 168.808594 174.582031 L 169.65625 174.96875 L 171.34375 175.695312 L 171.457031 175.742188 L 171.574219 175.789062 L 171.800781 175.878906 L 172.261719 176.058594 L 173.175781 176.398438 L 173.289062 176.441406 L 173.40625 176.480469 L 173.632812 176.5625 L 174.089844 176.71875 L 175.007812 177.019531 L 175.121094 177.054688 L 175.234375 177.09375 L 175.464844 177.164062 L 175.921875 177.300781 L 176.839844 177.558594 L 177.066406 177.621094 L 177.296875 177.679688 L 177.753906 177.796875 L 178.667969 178.015625 L 178.78125 178.042969 L 178.894531 178.066406 L 179.121094 178.117188 L 179.570312 178.210938 L 179.679688 178.234375 L 179.792969 178.257812 L 180.019531 178.300781 L 180.46875 178.386719 L 180.582031 178.40625 L 180.691406 178.425781 L 180.917969 178.464844 L 181.367188 178.542969 L 182.265625 178.679688 L 182.492188 178.710938 L 182.714844 178.738281 L 183.164062 178.796875 L 183.390625 178.820312 L 183.613281 178.847656 L 184.0625 178.894531 L 184.175781 178.90625 L 184.289062 178.914062 L 184.511719 178.9375 L 184.625 178.945312 L 184.738281 178.957031 L 184.960938 178.972656 L 185.1875 178.988281 L 185.410156 179.003906 L 185.636719 179.019531 L 185.863281 179.03125 L 185.964844 179.039062 L 186.070312 179.042969 L 186.28125 179.054688 L 186.386719 179.058594 L 186.488281 179.0625 L 187.015625 179.082031 L 187.117188 179.085938 L 187.222656 179.085938 L 187.328125 179.089844 L 187.433594 179.089844 L 187.539062 179.09375 L 187.644531 179.09375 L 187.746094 179.097656 L 188.691406 179.097656 L 188.796875 179.09375 L 188.902344 179.09375 L 189.003906 179.089844 L 189.109375 179.089844 L 189.214844 179.085938 L 189.320312 179.085938 L 189.425781 179.082031 L 189.527344 179.078125 L 190.054688 179.058594 L 190.15625 179.054688 L 190.261719 179.050781 L 190.472656 179.039062 L 190.578125 179.03125 L 190.683594 179.027344 L 190.890625 179.015625 L 191.3125 178.984375 L 191.730469 178.953125 L 191.835938 178.945312 L 191.941406 178.933594 L 192.148438 178.914062 L 192.566406 178.875 L 192.683594 178.863281 L 192.796875 178.851562 L 193.476562 178.769531 L 193.589844 178.757812 L 193.703125 178.742188 L 193.933594 178.710938 L 194.5 178.632812 L 194.613281 178.613281 L 194.839844 178.578125 L 195.296875 178.503906 L 196.207031 178.34375 L 196.433594 178.296875 L 196.660156 178.253906 L 197.113281 178.160156 L 198.023438 177.957031 L 198.25 177.902344 L 198.480469 177.847656 L 198.933594 177.734375 L 199.84375 177.492188 L 199.949219 177.460938 L 200.054688 177.433594 L 200.265625 177.371094 L 200.691406 177.246094 L 201.539062 176.984375 L 203.238281 176.410156 L 203.660156 176.253906 L 204.085938 176.09375 L 204.933594 175.761719 L 206.632812 175.039062 L 206.746094 174.988281 L 206.863281 174.933594 L 207.09375 174.832031 L 207.550781 174.617188 L 208.472656 174.175781 L 210.3125 173.222656 L 210.539062 173.097656 L 211.230469 172.710938 L 212.148438 172.179688 L 213.988281 171.042969 L 214.101562 170.972656 L 214.441406 170.75 L 214.890625 170.453125 L 215.796875 169.835938 L 217.601562 168.535156 L 217.828125 168.363281 L 218.050781 168.191406 L 218.503906 167.84375 L 219.40625 167.132812 L 221.210938 165.625 L 221.421875 165.445312 L 221.632812 165.257812 L 222.054688 164.886719 L 222.898438 164.121094 L 224.582031 162.515625 L 224.6875 162.414062 L 225.425781 161.675781 L 226.265625 160.804688 L 227.949219 158.96875 L 228.066406 158.84375 L 228.179688 158.710938 L 228.40625 158.453125 L 228.863281 157.921875 L 229.777344 156.835938 L 231.605469 154.53125 L 231.71875 154.378906 L 231.832031 154.230469 L 232.0625 153.925781 L 232.515625 153.304688 L 233.429688 152.023438 L 235.257812 149.28125 L 235.46875 148.945312 L 235.683594 148.601562 L 236.109375 147.90625 L 236.960938 146.457031 L 237.070312 146.273438 L 237.175781 146.085938 L 237.386719 145.703125 L 237.816406 144.929688 L 238.667969 143.304688 L 239.09375 142.453125 L 239.519531 141.570312 L 240.371094 139.699219 L 240.480469 139.457031 L 240.585938 139.207031 L 240.800781 138.707031 L 241.226562 137.664062 L 242.078125 135.402344 L 242.183594 135.109375 L 242.289062 134.808594 L 242.496094 134.191406 L 242.914062 132.890625 L 243.019531 132.546875 L 243.125 132.199219 L 243.332031 131.476562 L 243.75 129.917969 L 243.855469 129.5 L 243.960938 129.070312 L 244.167969 128.160156 L 244.273438 127.679688 L 244.378906 127.175781 L 244.585938 126.097656 L 244.691406 125.507812 L 244.796875 124.882812 L 244.898438 124.207031 L 245.003906 123.472656 L 245.109375 122.652344 L 245.214844 121.714844 L 245.316406 120.582031 L 245.421875 119.042969 L 245.496094 116.859375 " transform="matrix(1,0,0,1,-66,-5)"/>
<path style="fill:none;stroke-width:1.6;stroke-linecap:square;stroke-linejoin:miter;stroke:rgb(36.84082%,50.67749%,70.979309%);stroke-opacity:1;stroke-miterlimit:3.25;" d="M 360.058594 116.222656 L 360.125 118.75 L 360.238281 120.527344 L 360.351562 121.773438 L 360.46875 122.785156 L 360.582031 123.667969 L 360.699219 124.453125 L 360.8125 125.171875 L 361.042969 126.460938 L 361.15625 127.039062 L 361.265625 127.585938 L 361.492188 128.609375 L 361.945312 130.4375 L 362.058594 130.859375 L 362.167969 131.269531 L 362.394531 132.058594 L 362.847656 133.523438 L 362.957031 133.871094 L 363.070312 134.214844 L 363.296875 134.875 L 363.746094 136.136719 L 364.648438 138.4375 L 364.761719 138.710938 L 364.875 138.976562 L 365.101562 139.503906 L 365.550781 140.519531 L 366.453125 142.429688 L 368.257812 145.859375 L 368.363281 146.046875 L 368.679688 146.597656 L 369.097656 147.320312 L 369.941406 148.707031 L 371.625 151.289062 L 371.726562 151.445312 L 372.042969 151.902344 L 372.464844 152.5 L 373.304688 153.664062 L 374.988281 155.855469 L 375.101562 156 L 375.214844 156.140625 L 375.445312 156.425781 L 375.902344 156.980469 L 376.8125 158.0625 L 378.636719 160.105469 L 378.753906 160.226562 L 378.867188 160.347656 L 379.09375 160.59375 L 379.550781 161.070312 L 380.460938 162.003906 L 382.289062 163.773438 L 382.394531 163.871094 L 382.5 163.972656 L 382.714844 164.167969 L 383.140625 164.558594 L 383.992188 165.316406 L 385.695312 166.757812 L 385.800781 166.847656 L 385.90625 166.933594 L 386.121094 167.105469 L 386.546875 167.445312 L 387.398438 168.109375 L 389.101562 169.367188 L 389.207031 169.441406 L 389.308594 169.515625 L 389.519531 169.664062 L 389.9375 169.953125 L 390.769531 170.519531 L 392.441406 171.59375 L 392.546875 171.65625 L 392.648438 171.722656 L 392.859375 171.847656 L 393.277344 172.097656 L 394.109375 172.585938 L 395.78125 173.507812 L 396.234375 173.742188 L 396.6875 173.972656 L 397.59375 174.421875 L 399.40625 175.25 L 399.519531 175.296875 L 399.632812 175.347656 L 399.859375 175.441406 L 400.308594 175.632812 L 401.214844 175.996094 L 403.027344 176.65625 L 403.132812 176.695312 L 403.449219 176.800781 L 403.875 176.9375 L 404.71875 177.203125 L 405.140625 177.328125 L 405.5625 177.449219 L 406.410156 177.679688 L 406.621094 177.734375 L 406.832031 177.785156 L 407.253906 177.890625 L 408.101562 178.085938 L 408.3125 178.132812 L 408.945312 178.261719 L 409.789062 178.421875 L 409.910156 178.445312 L 410.261719 178.503906 L 410.734375 178.582031 L 410.851562 178.601562 L 410.96875 178.617188 L 411.207031 178.652344 L 411.679688 178.71875 L 412.148438 178.78125 L 412.621094 178.835938 L 412.738281 178.847656 L 412.859375 178.859375 L 413.09375 178.886719 L 413.566406 178.929688 L 413.683594 178.941406 L 413.800781 178.949219 L 414.039062 178.96875 L 414.15625 178.980469 L 414.507812 179.003906 L 414.628906 179.011719 L 414.746094 179.019531 L 414.980469 179.03125 L 415.214844 179.046875 L 415.453125 179.054688 L 415.570312 179.0625 L 415.804688 179.070312 L 415.925781 179.074219 L 416.394531 179.089844 L 416.515625 179.089844 L 416.632812 179.09375 L 416.75 179.09375 L 416.867188 179.097656 L 417.339844 179.097656 " transform="matrix(1,0,0,1,-66,-5)"/>
<path style="fill:none;stroke-width:1.6;stroke-linecap:square;stroke-linejoin:miter;stroke:rgb(36.84082%,50.67749%,70.979309%);stroke-opacity:1;stroke-miterlimit:3.25;" d="M 111.851562 115.445312 L 111.894531 114.015625 L 112 112.328125 L 112.105469 111.183594 L 112.210938 110.257812 L 112.316406 109.457031 L 112.421875 108.742188 L 112.53125 108.089844 L 112.742188 106.917969 L 112.847656 106.382812 L 112.953125 105.878906 L 113.164062 104.929688 L 113.589844 103.234375 L 113.695312 102.84375 L 113.800781 102.464844 L 114.011719 101.730469 L 114.4375 100.359375 L 115.28125 97.910156 L 115.398438 97.601562 L 115.511719 97.296875 L 115.742188 96.699219 L 116.199219 95.554688 L 117.117188 93.425781 L 118.957031 89.617188 L 119.070312 89.398438 L 119.183594 89.175781 L 119.414062 88.738281 L 119.875 87.886719 L 120.792969 86.238281 L 122.628906 83.164062 L 122.742188 82.984375 L 122.851562 82.804688 L 123.078125 82.449219 L 123.527344 81.742188 L 124.429688 80.371094 L 126.234375 77.757812 L 129.839844 72.964844 L 129.945312 72.835938 L 130.050781 72.703125 L 130.257812 72.441406 L 130.679688 71.921875 L 131.519531 70.898438 L 133.203125 68.921875 L 136.566406 65.21875 L 136.792969 64.976562 L 137.019531 64.738281 L 137.476562 64.265625 L 138.390625 63.335938 L 140.210938 61.539062 L 143.859375 58.175781 L 143.964844 58.082031 L 144.070312 57.992188 L 144.285156 57.804688 L 144.710938 57.4375 L 145.5625 56.710938 L 147.265625 55.308594 L 150.667969 52.6875 L 150.773438 52.609375 L 150.878906 52.535156 L 151.085938 52.382812 L 151.503906 52.082031 L 152.335938 51.488281 L 154.007812 50.347656 L 154.109375 50.28125 L 154.214844 50.210938 L 154.421875 50.074219 L 154.839844 49.800781 L 155.675781 49.265625 L 157.34375 48.234375 L 157.570312 48.101562 L 157.796875 47.964844 L 158.25 47.699219 L 159.15625 47.179688 L 160.964844 46.191406 L 161.871094 45.722656 L 162.777344 45.269531 L 164.585938 44.40625 L 164.796875 44.3125 L 165.007812 44.214844 L 165.429688 44.027344 L 166.277344 43.660156 L 168.070312 42.929688 L 168.175781 42.890625 L 168.386719 42.808594 L 168.808594 42.648438 L 169.65625 42.335938 L 171.34375 41.757812 L 171.457031 41.722656 L 171.574219 41.683594 L 171.800781 41.609375 L 172.261719 41.46875 L 173.175781 41.191406 L 173.289062 41.160156 L 173.40625 41.128906 L 173.632812 41.0625 L 174.089844 40.933594 L 175.007812 40.691406 L 175.234375 40.636719 L 175.464844 40.578125 L 175.921875 40.46875 L 176.839844 40.257812 L 176.953125 40.230469 L 177.066406 40.207031 L 177.296875 40.160156 L 177.753906 40.0625 L 178.667969 39.886719 L 178.894531 39.847656 L 179.121094 39.804688 L 179.570312 39.730469 L 179.679688 39.710938 L 179.792969 39.691406 L 180.019531 39.65625 L 180.46875 39.585938 L 180.582031 39.570312 L 180.691406 39.554688 L 180.917969 39.519531 L 181.367188 39.460938 L 182.265625 39.347656 L 182.492188 39.324219 L 182.714844 39.296875 L 183.164062 39.253906 L 183.390625 39.230469 L 183.613281 39.210938 L 184.0625 39.171875 L 184.289062 39.15625 L 184.511719 39.136719 L 184.738281 39.121094 L 184.960938 39.109375 L 185.1875 39.09375 L 185.410156 39.082031 L 185.523438 39.074219 L 185.636719 39.070312 L 185.863281 39.058594 L 185.964844 39.054688 L 186.386719 39.039062 L 186.488281 39.035156 L 186.804688 39.023438 L 186.910156 39.023438 L 187.015625 39.019531 L 187.117188 39.015625 L 187.222656 39.015625 L 187.328125 39.011719 L 187.433594 39.011719 L 187.539062 39.007812 L 187.851562 39.007812 L 187.957031 39.003906 L 188.480469 39.003906 L 188.585938 39.007812 L 188.902344 39.007812 L 189.003906 39.011719 L 189.109375 39.011719 L 189.214844 39.015625 L 189.320312 39.015625 L 189.425781 39.019531 L 189.527344 39.023438 L 189.632812 39.023438 L 190.054688 39.039062 L 190.15625 39.042969 L 190.683594 39.0625 L 190.890625 39.074219 L 190.996094 39.078125 L 191.101562 39.085938 L 191.3125 39.097656 L 191.730469 39.125 L 191.941406 39.140625 L 192.148438 39.15625 L 192.566406 39.1875 L 192.683594 39.199219 L 192.796875 39.207031 L 193.023438 39.226562 L 193.703125 39.296875 L 193.933594 39.320312 L 194.386719 39.371094 L 194.5 39.386719 L 194.613281 39.398438 L 194.839844 39.429688 L 195.296875 39.488281 L 196.207031 39.621094 L 196.320312 39.640625 L 196.433594 39.65625 L 196.660156 39.695312 L 197.113281 39.769531 L 198.023438 39.933594 L 198.136719 39.957031 L 198.25 39.976562 L 198.480469 40.023438 L 198.933594 40.113281 L 199.84375 40.3125 L 200.265625 40.40625 L 200.691406 40.507812 L 201.539062 40.71875 L 203.238281 41.183594 L 203.660156 41.308594 L 204.085938 41.4375 L 204.933594 41.707031 L 206.632812 42.28125 L 206.746094 42.324219 L 206.863281 42.363281 L 207.09375 42.449219 L 207.550781 42.617188 L 208.472656 42.972656 L 210.3125 43.722656 L 210.539062 43.824219 L 210.769531 43.921875 L 211.230469 44.125 L 212.148438 44.542969 L 213.988281 45.429688 L 214.101562 45.484375 L 214.214844 45.542969 L 214.441406 45.65625 L 214.890625 45.886719 L 215.796875 46.363281 L 217.601562 47.359375 L 221.210938 49.550781 L 221.421875 49.683594 L 221.632812 49.820312 L 222.054688 50.097656 L 222.898438 50.660156 L 224.582031 51.828125 L 227.949219 54.335938 L 228.066406 54.425781 L 228.40625 54.695312 L 228.863281 55.058594 L 229.777344 55.796875 L 231.605469 57.328125 L 235.257812 60.613281 L 235.363281 60.714844 L 235.46875 60.8125 L 235.683594 61.015625 L 236.109375 61.425781 L 236.960938 62.253906 L 238.667969 63.960938 L 242.078125 67.609375 L 242.289062 67.84375 L 242.496094 68.078125 L 242.914062 68.550781 L 243.75 69.515625 L 245.421875 71.507812 L 245.527344 71.632812 L 245.632812 71.761719 L 245.839844 72.019531 L 246.257812 72.535156 L 247.09375 73.589844 L 248.765625 75.78125 L 249.21875 76.390625 L 249.671875 77.015625 L 250.578125 78.285156 L 252.394531 80.949219 L 252.621094 81.292969 L 252.847656 81.644531 L 253.300781 82.351562 L 254.207031 83.804688 L 256.019531 86.898438 L 256.125 87.085938 L 256.230469 87.277344 L 256.445312 87.660156 L 256.867188 88.441406 L 257.714844 90.066406 L 257.820312 90.273438 L 257.925781 90.484375 L 258.136719 90.910156 L 258.558594 91.78125 L 259.40625 93.613281 L 259.617188 94.089844 L 259.828125 94.578125 L 260.25 95.585938 L 260.359375 95.847656 L 260.464844 96.109375 L 260.675781 96.640625 L 261.097656 97.75 L 261.203125 98.035156 L 261.308594 98.328125 L 261.519531 98.921875 L 261.945312 100.175781 L 262.050781 100.503906 L 262.15625 100.835938 L 262.367188 101.527344 L 262.789062 103.007812 L 262.90625 103.4375 L 263.019531 103.882812 L 263.25 104.820312 L 263.363281 105.316406 L 263.476562 105.835938 L 263.707031 106.964844 L 263.824219 107.582031 L 263.9375 108.246094 L 264.050781 108.972656 L 264.167969 109.777344 L 264.28125 110.699219 L 264.394531 111.808594 L 264.511719 113.332031 L 264.589844 115.613281 " transform="matrix(1,0,0,1,-66,-5)"/>
<path style="fill:none;stroke-width:1.6;stroke-linecap:square;stroke-linejoin:miter;stroke:rgb(36.84082%,50.67749%,70.979309%);stroke-opacity:1;stroke-miterlimit:3.25;" d="M 340.972656 115.4375 L 341.003906 114.207031 L 341.121094 112.335938 L 341.234375 111.117188 L 341.347656 110.140625 L 341.460938 109.300781 L 341.574219 108.550781 L 341.6875 107.867188 L 341.914062 106.648438 L 342.027344 106.089844 L 342.140625 105.5625 L 342.367188 104.578125 L 342.480469 104.113281 L 342.59375 103.664062 L 342.824219 102.8125 L 343.277344 101.25 L 343.390625 100.882812 L 343.503906 100.523438 L 343.730469 99.824219 L 344.183594 98.511719 L 345.09375 96.117188 L 345.207031 95.835938 L 345.320312 95.558594 L 345.546875 95.011719 L 346 93.957031 L 346.910156 91.972656 L 347.015625 91.75 L 347.121094 91.53125 L 347.335938 91.09375 L 347.757812 90.242188 L 348.605469 88.605469 L 350.300781 85.566406 L 350.40625 85.382812 L 350.511719 85.203125 L 350.726562 84.84375 L 351.148438 84.140625 L 351.996094 82.765625 L 353.691406 80.160156 L 353.808594 79.988281 L 353.921875 79.820312 L 354.152344 79.480469 L 354.609375 78.8125 L 355.53125 77.511719 L 357.367188 75.015625 L 361.042969 70.417969 L 361.15625 70.285156 L 361.265625 70.152344 L 361.492188 69.886719 L 361.945312 69.359375 L 362.847656 68.324219 L 364.648438 66.324219 L 368.257812 62.585938 L 368.363281 62.484375 L 368.46875 62.378906 L 368.679688 62.171875 L 369.097656 61.761719 L 369.941406 60.957031 L 371.625 59.390625 L 374.988281 56.453125 L 375.101562 56.359375 L 375.214844 56.261719 L 375.445312 56.074219 L 375.902344 55.699219 L 376.8125 54.964844 L 378.636719 53.546875 L 382.289062 50.914062 L 382.394531 50.84375 L 382.5 50.769531 L 382.714844 50.625 L 383.140625 50.339844 L 383.992188 49.78125 L 385.695312 48.703125 L 385.800781 48.636719 L 385.90625 48.574219 L 386.121094 48.441406 L 386.546875 48.1875 L 387.398438 47.683594 L 389.101562 46.722656 L 389.207031 46.664062 L 389.308594 46.609375 L 389.519531 46.496094 L 389.9375 46.273438 L 390.769531 45.835938 L 392.441406 45 L 392.546875 44.953125 L 392.648438 44.902344 L 392.859375 44.800781 L 393.277344 44.605469 L 394.109375 44.222656 L 395.78125 43.5 L 396.234375 43.3125 L 396.6875 43.128906 L 397.59375 42.777344 L 399.40625 42.113281 L 399.519531 42.074219 L 399.632812 42.039062 L 399.859375 41.960938 L 400.308594 41.808594 L 401.214844 41.519531 L 403.027344 40.984375 L 403.132812 40.957031 L 403.238281 40.925781 L 403.449219 40.871094 L 403.875 40.757812 L 404.71875 40.546875 L 404.929688 40.492188 L 405.140625 40.445312 L 405.5625 40.34375 L 406.410156 40.160156 L 406.515625 40.136719 L 406.621094 40.117188 L 407.253906 39.988281 L 408.101562 39.832031 L 408.3125 39.792969 L 408.945312 39.6875 L 409.789062 39.554688 L 409.910156 39.539062 L 410.027344 39.523438 L 410.261719 39.488281 L 410.734375 39.425781 L 410.851562 39.410156 L 410.96875 39.398438 L 411.207031 39.367188 L 411.679688 39.316406 L 411.796875 39.300781 L 412.148438 39.265625 L 412.621094 39.21875 L 412.738281 39.210938 L 412.859375 39.199219 L 413.09375 39.179688 L 413.566406 39.144531 L 413.683594 39.132812 L 413.800781 39.125 L 414.039062 39.109375 L 414.15625 39.101562 L 414.273438 39.097656 L 414.507812 39.082031 L 414.628906 39.078125 L 414.746094 39.070312 L 414.980469 39.058594 L 415.097656 39.054688 L 415.214844 39.046875 L 415.453125 39.039062 L 415.804688 39.027344 L 415.925781 39.023438 L 416.042969 39.019531 L 416.160156 39.019531 L 416.277344 39.015625 L 416.394531 39.015625 L 416.515625 39.011719 L 416.632812 39.011719 L 416.75 39.007812 L 416.984375 39.007812 L 417.105469 39.003906 L 417.339844 39.003906 " transform="matrix(1,0,0,1,-66,-5)"/>
<path style="fill:none;stroke-width:1.6;stroke-linecap:square;stroke-linejoin:miter;stroke:rgb(36.84082%,50.67749%,70.979309%);stroke-opacity:1;stroke-miterlimit:3.25;" d="M 111.851562 116.8125 L 111.894531 118.238281 L 112 119.929688 L 112.105469 121.074219 L 112.210938 122 L 112.316406 122.800781 L 112.421875 123.515625 L 112.53125 124.167969 L 112.742188 125.339844 L 112.847656 125.871094 L 112.953125 126.378906 L 113.164062 127.328125 L 113.589844 129.019531 L 113.695312 129.410156 L 113.800781 129.792969 L 114.011719 130.527344 L 114.4375 131.894531 L 115.28125 134.347656 L 115.398438 134.65625 L 115.511719 134.960938 L 115.742188 135.554688 L 116.199219 136.699219 L 117.117188 138.832031 L 118.957031 142.636719 L 119.070312 142.859375 L 119.183594 143.078125 L 119.414062 143.515625 L 119.875 144.371094 L 120.792969 146.015625 L 122.628906 149.089844 L 122.742188 149.273438 L 122.851562 149.453125 L 123.078125 149.808594 L 123.527344 150.511719 L 124.429688 151.886719 L 126.234375 154.5 L 129.839844 159.289062 L 130.050781 159.554688 L 130.257812 159.816406 L 130.679688 160.335938 L 131.519531 161.359375 L 133.203125 163.335938 L 136.566406 167.039062 L 136.679688 167.160156 L 136.792969 167.277344 L 137.019531 167.515625 L 137.476562 167.992188 L 138.390625 168.921875 L 140.210938 170.71875 L 143.859375 174.078125 L 144.070312 174.265625 L 144.285156 174.453125 L 144.710938 174.820312 L 145.5625 175.542969 L 147.265625 176.949219 L 150.667969 179.570312 L 150.773438 179.644531 L 150.878906 179.722656 L 151.085938 179.875 L 151.503906 180.175781 L 152.335938 180.765625 L 154.007812 181.90625 L 154.109375 181.976562 L 154.214844 182.046875 L 154.421875 182.183594 L 154.839844 182.457031 L 155.675781 182.992188 L 157.34375 184.019531 L 157.457031 184.089844 L 158.25 184.554688 L 159.15625 185.074219 L 160.964844 186.0625 L 161.078125 186.125 L 161.871094 186.535156 L 162.777344 186.988281 L 164.585938 187.847656 L 164.691406 187.898438 L 165.007812 188.039062 L 165.429688 188.230469 L 166.277344 188.59375 L 167.964844 189.285156 L 168.070312 189.324219 L 168.175781 189.367188 L 168.386719 189.449219 L 168.808594 189.609375 L 169.65625 189.917969 L 171.34375 190.496094 L 171.457031 190.535156 L 171.574219 190.570312 L 171.800781 190.644531 L 172.261719 190.789062 L 173.175781 191.0625 L 173.289062 191.097656 L 173.40625 191.128906 L 173.632812 191.195312 L 174.089844 191.320312 L 175.007812 191.5625 L 175.121094 191.59375 L 175.234375 191.621094 L 175.464844 191.679688 L 175.921875 191.789062 L 176.839844 192 L 177.066406 192.046875 L 177.296875 192.097656 L 177.753906 192.191406 L 178.667969 192.371094 L 179.121094 192.449219 L 179.570312 192.527344 L 179.679688 192.546875 L 179.792969 192.566406 L 180.019531 192.601562 L 180.46875 192.671875 L 180.582031 192.6875 L 180.691406 192.703125 L 180.917969 192.734375 L 181.367188 192.796875 L 182.265625 192.910156 L 182.492188 192.933594 L 182.714844 192.957031 L 183.164062 193.003906 L 183.390625 193.027344 L 183.613281 193.046875 L 184.0625 193.085938 L 184.289062 193.101562 L 184.511719 193.117188 L 184.738281 193.132812 L 184.960938 193.148438 L 185.074219 193.15625 L 185.1875 193.160156 L 185.410156 193.175781 L 185.523438 193.179688 L 185.636719 193.1875 L 185.863281 193.195312 L 185.964844 193.203125 L 186.386719 193.21875 L 186.488281 193.222656 L 186.699219 193.230469 L 186.804688 193.230469 L 187.015625 193.238281 L 187.117188 193.238281 L 187.222656 193.242188 L 187.328125 193.242188 L 187.433594 193.246094 L 187.644531 193.246094 L 187.746094 193.25 L 188.691406 193.25 L 188.796875 193.246094 L 189.003906 193.246094 L 189.109375 193.242188 L 189.214844 193.242188 L 189.320312 193.238281 L 189.425781 193.238281 L 189.527344 193.234375 L 189.632812 193.230469 L 189.738281 193.230469 L 190.054688 193.21875 L 190.15625 193.214844 L 190.578125 193.199219 L 190.683594 193.191406 L 190.890625 193.183594 L 190.996094 193.175781 L 191.101562 193.171875 L 191.3125 193.160156 L 191.730469 193.132812 L 191.941406 193.117188 L 192.148438 193.101562 L 192.566406 193.066406 L 192.683594 193.058594 L 192.796875 193.046875 L 193.023438 193.027344 L 193.476562 192.984375 L 193.703125 192.960938 L 193.933594 192.9375 L 194.386719 192.882812 L 194.5 192.871094 L 194.613281 192.855469 L 194.839844 192.828125 L 195.296875 192.765625 L 196.207031 192.632812 L 196.320312 192.617188 L 196.433594 192.597656 L 196.660156 192.5625 L 197.113281 192.484375 L 198.023438 192.320312 L 198.136719 192.300781 L 198.25 192.277344 L 198.480469 192.234375 L 198.933594 192.140625 L 199.84375 191.945312 L 200.054688 191.898438 L 200.265625 191.847656 L 200.691406 191.746094 L 201.539062 191.535156 L 203.238281 191.070312 L 203.660156 190.945312 L 204.085938 190.816406 L 204.933594 190.550781 L 206.632812 189.972656 L 206.746094 189.933594 L 206.863281 189.890625 L 207.09375 189.808594 L 207.550781 189.636719 L 208.472656 189.285156 L 210.3125 188.53125 L 210.425781 188.484375 L 210.539062 188.433594 L 211.230469 188.128906 L 212.148438 187.710938 L 213.988281 186.828125 L 214.101562 186.769531 L 214.214844 186.714844 L 214.441406 186.601562 L 214.890625 186.367188 L 215.796875 185.894531 L 217.601562 184.894531 L 221.210938 182.707031 L 221.316406 182.640625 L 221.421875 182.570312 L 222.054688 182.160156 L 222.898438 181.597656 L 224.582031 180.429688 L 227.949219 177.917969 L 228.066406 177.828125 L 228.179688 177.742188 L 228.40625 177.5625 L 228.863281 177.199219 L 229.777344 176.460938 L 231.605469 174.929688 L 235.257812 171.644531 L 235.46875 171.441406 L 235.683594 171.238281 L 236.109375 170.832031 L 236.960938 170.003906 L 238.667969 168.292969 L 242.078125 164.648438 L 242.289062 164.414062 L 242.496094 164.179688 L 242.914062 163.707031 L 243.75 162.742188 L 245.421875 160.75 L 245.527344 160.621094 L 245.632812 160.496094 L 245.839844 160.238281 L 246.257812 159.71875 L 247.09375 158.664062 L 248.765625 156.476562 L 248.992188 156.171875 L 249.21875 155.863281 L 249.671875 155.242188 L 250.578125 153.972656 L 252.394531 151.308594 L 252.507812 151.132812 L 252.621094 150.960938 L 252.847656 150.613281 L 253.300781 149.90625 L 254.207031 148.453125 L 256.019531 145.359375 L 256.125 145.171875 L 256.230469 144.980469 L 256.445312 144.597656 L 256.867188 143.816406 L 257.714844 142.191406 L 257.820312 141.980469 L 257.925781 141.773438 L 258.136719 141.34375 L 258.558594 140.472656 L 259.40625 138.644531 L 259.511719 138.40625 L 259.617188 138.164062 L 259.828125 137.675781 L 260.25 136.667969 L 260.359375 136.410156 L 260.464844 136.148438 L 260.675781 135.613281 L 261.097656 134.507812 L 261.308594 133.929688 L 261.519531 133.332031 L 261.945312 132.082031 L 262.050781 131.753906 L 262.15625 131.417969 L 262.367188 130.730469 L 262.789062 129.246094 L 262.90625 128.820312 L 263.019531 128.375 L 263.25 127.4375 L 263.363281 126.941406 L 263.476562 126.417969 L 263.707031 125.292969 L 263.824219 124.675781 L 263.9375 124.011719 L 264.050781 123.285156 L 264.167969 122.480469 L 264.28125 121.558594 L 264.394531 120.445312 L 264.511719 118.925781 L 264.589844 116.640625 " transform="matrix(1,0,0,1,-66,-5)"/>
<path style="fill:none;stroke-width:1.6;stroke-linecap:square;stroke-linejoin:miter;stroke:rgb(36.84082%,50.67749%,70.979309%);stroke-opacity:1;stroke-miterlimit:3.25;" d="M 340.972656 116.816406 L 341.003906 118.046875 L 341.121094 119.921875 L 341.234375 121.140625 L 341.347656 122.117188 L 341.460938 122.957031 L 341.574219 123.707031 L 341.6875 124.386719 L 341.914062 125.609375 L 342.027344 126.164062 L 342.140625 126.691406 L 342.367188 127.679688 L 342.480469 128.144531 L 342.59375 128.589844 L 342.824219 129.441406 L 343.277344 131.007812 L 343.390625 131.375 L 343.503906 131.734375 L 343.730469 132.429688 L 344.183594 133.746094 L 345.09375 136.140625 L 345.207031 136.421875 L 345.320312 136.699219 L 345.546875 137.242188 L 346 138.296875 L 346.910156 140.285156 L 347.015625 140.507812 L 347.121094 140.726562 L 347.335938 141.164062 L 347.757812 142.015625 L 348.605469 143.648438 L 350.300781 146.691406 L 350.40625 146.871094 L 350.511719 147.054688 L 350.726562 147.410156 L 351.148438 148.117188 L 351.996094 149.488281 L 353.691406 152.097656 L 353.808594 152.265625 L 353.921875 152.4375 L 354.152344 152.773438 L 354.609375 153.441406 L 355.53125 154.746094 L 357.367188 157.238281 L 361.042969 161.839844 L 361.15625 161.972656 L 361.265625 162.105469 L 361.492188 162.371094 L 361.945312 162.898438 L 362.847656 163.933594 L 364.648438 165.933594 L 368.257812 169.667969 L 368.363281 169.773438 L 368.46875 169.875 L 368.679688 170.082031 L 369.097656 170.492188 L 369.941406 171.300781 L 371.625 172.863281 L 374.988281 175.800781 L 375.101562 175.898438 L 375.214844 175.992188 L 375.445312 176.179688 L 375.902344 176.554688 L 376.8125 177.292969 L 378.636719 178.710938 L 382.289062 181.339844 L 382.394531 181.414062 L 382.5 181.484375 L 382.714844 181.628906 L 383.140625 181.914062 L 383.992188 182.476562 L 385.695312 183.554688 L 385.800781 183.617188 L 385.90625 183.683594 L 386.121094 183.8125 L 386.546875 184.070312 L 387.398438 184.574219 L 389.101562 185.535156 L 389.207031 185.589844 L 389.308594 185.648438 L 389.519531 185.761719 L 389.9375 185.984375 L 390.769531 186.421875 L 392.441406 187.253906 L 392.546875 187.304688 L 392.648438 187.355469 L 392.859375 187.453125 L 393.277344 187.648438 L 394.109375 188.03125 L 395.78125 188.757812 L 396.234375 188.945312 L 396.6875 189.125 L 397.59375 189.480469 L 399.40625 190.140625 L 399.859375 190.296875 L 400.308594 190.449219 L 401.214844 190.738281 L 403.027344 191.269531 L 403.132812 191.300781 L 403.238281 191.328125 L 403.449219 191.386719 L 403.875 191.496094 L 404.71875 191.710938 L 404.824219 191.738281 L 404.929688 191.761719 L 405.140625 191.8125 L 405.5625 191.910156 L 406.410156 192.097656 L 406.515625 192.117188 L 406.621094 192.140625 L 407.253906 192.269531 L 408.101562 192.425781 L 408.3125 192.464844 L 408.945312 192.570312 L 409.789062 192.699219 L 409.910156 192.71875 L 410.261719 192.765625 L 410.734375 192.828125 L 410.96875 192.859375 L 411.207031 192.886719 L 411.679688 192.941406 L 411.914062 192.964844 L 412.148438 192.992188 L 412.621094 193.035156 L 412.738281 193.046875 L 412.859375 193.058594 L 413.09375 193.078125 L 413.566406 193.113281 L 413.800781 193.128906 L 414.039062 193.144531 L 414.273438 193.160156 L 414.507812 193.171875 L 414.628906 193.179688 L 414.746094 193.1875 L 414.980469 193.195312 L 415.097656 193.203125 L 415.214844 193.207031 L 415.453125 193.214844 L 415.570312 193.222656 L 415.6875 193.226562 L 415.804688 193.226562 L 415.925781 193.230469 L 416.160156 193.238281 L 416.277344 193.238281 L 416.394531 193.242188 L 416.515625 193.246094 L 416.75 193.246094 L 416.867188 193.25 L 417.339844 193.25 " transform="matrix(1,0,0,1,-66,-5)"/>
<path style="fill:none;stroke-width:1.6;stroke-linecap:square;stroke-linejoin:miter;stroke:rgb(36.84082%,50.67749%,70.979309%);stroke-opacity:1;stroke-miterlimit:3.25;" d="M 73.660156 116.128906 L 74.503906 115.097656 L 75.347656 114.070312 L 77.03125 112.011719 L 80.40625 107.902344 L 87.71875 99.066406 L 94.546875 90.96875 L 101.242188 83.246094 L 108.503906 75.179688 L 115.28125 68.019531 L 122.628906 60.726562 L 129.839844 54.117188 L 136.566406 48.492188 L 143.859375 43.046875 L 150.667969 38.621094 L 150.878906 38.496094 L 151.085938 38.371094 L 151.503906 38.125 L 152.335938 37.636719 L 154.007812 36.695312 L 157.34375 34.9375 L 157.457031 34.878906 L 157.570312 34.824219 L 157.796875 34.710938 L 158.25 34.488281 L 159.15625 34.054688 L 160.964844 33.222656 L 161.417969 33.019531 L 161.871094 32.824219 L 162.777344 32.4375 L 164.585938 31.710938 L 164.691406 31.667969 L 164.796875 31.628906 L 165.007812 31.546875 L 165.429688 31.386719 L 166.277344 31.074219 L 167.964844 30.488281 L 168.386719 30.347656 L 168.808594 30.210938 L 169.65625 29.945312 L 171.34375 29.449219 L 171.457031 29.414062 L 171.574219 29.382812 L 171.800781 29.320312 L 172.261719 29.199219 L 173.175781 28.960938 L 173.289062 28.933594 L 173.40625 28.90625 L 173.632812 28.847656 L 174.089844 28.738281 L 175.007812 28.53125 L 175.121094 28.507812 L 175.234375 28.480469 L 175.464844 28.433594 L 175.921875 28.335938 L 176.839844 28.15625 L 176.953125 28.136719 L 177.066406 28.113281 L 177.296875 28.070312 L 177.753906 27.988281 L 178.667969 27.835938 L 178.78125 27.820312 L 178.894531 27.800781 L 179.121094 27.765625 L 179.570312 27.699219 L 179.679688 27.683594 L 180.019531 27.636719 L 180.46875 27.578125 L 180.582031 27.5625 L 180.691406 27.546875 L 180.917969 27.519531 L 181.367188 27.46875 L 182.265625 27.371094 L 182.492188 27.347656 L 182.714844 27.328125 L 183.164062 27.289062 L 183.277344 27.277344 L 183.390625 27.269531 L 183.613281 27.25 L 184.0625 27.21875 L 184.289062 27.203125 L 184.511719 27.1875 L 184.625 27.183594 L 184.738281 27.175781 L 184.960938 27.164062 L 185.074219 27.15625 L 185.1875 27.152344 L 185.410156 27.140625 L 185.523438 27.136719 L 185.636719 27.128906 L 185.863281 27.121094 L 185.964844 27.117188 L 186.386719 27.101562 L 186.488281 27.097656 L 186.699219 27.09375 L 186.804688 27.089844 L 186.910156 27.089844 L 187.015625 27.085938 L 187.117188 27.085938 L 187.222656 27.082031 L 187.328125 27.082031 L 187.433594 27.078125 L 187.644531 27.078125 L 187.746094 27.074219 L 188.691406 27.074219 L 188.796875 27.078125 L 189.003906 27.078125 L 189.109375 27.082031 L 189.214844 27.082031 L 189.320312 27.085938 L 189.425781 27.085938 L 189.527344 27.089844 L 189.632812 27.089844 L 189.84375 27.097656 L 190.054688 27.101562 L 190.15625 27.105469 L 190.683594 27.125 L 190.890625 27.132812 L 190.996094 27.140625 L 191.3125 27.152344 L 191.730469 27.175781 L 191.941406 27.191406 L 192.148438 27.203125 L 192.566406 27.234375 L 192.683594 27.242188 L 193.023438 27.265625 L 193.476562 27.304688 L 193.589844 27.316406 L 193.703125 27.324219 L 193.933594 27.347656 L 194.386719 27.390625 L 194.5 27.402344 L 194.613281 27.417969 L 194.839844 27.441406 L 195.296875 27.492188 L 196.207031 27.609375 L 196.320312 27.621094 L 196.660156 27.667969 L 197.113281 27.734375 L 198.023438 27.878906 L 198.136719 27.894531 L 198.25 27.914062 L 198.480469 27.953125 L 198.933594 28.035156 L 199.84375 28.203125 L 200.054688 28.242188 L 200.265625 28.285156 L 200.691406 28.375 L 201.539062 28.554688 L 203.238281 28.957031 L 203.34375 28.980469 L 203.660156 29.0625 L 204.085938 29.171875 L 204.933594 29.402344 L 206.632812 29.898438 L 206.746094 29.933594 L 206.863281 29.96875 L 207.09375 30.039062 L 207.550781 30.183594 L 208.472656 30.484375 L 210.3125 31.128906 L 210.425781 31.171875 L 210.539062 31.210938 L 211.230469 31.46875 L 212.148438 31.824219 L 213.988281 32.574219 L 214.101562 32.625 L 214.214844 32.671875 L 214.441406 32.769531 L 214.890625 32.964844 L 215.796875 33.363281 L 217.601562 34.203125 L 221.210938 36.03125 L 221.316406 36.089844 L 221.421875 36.144531 L 221.632812 36.257812 L 222.054688 36.488281 L 222.898438 36.953125 L 224.582031 37.914062 L 227.949219 39.964844 L 235.257812 44.960938 L 242.078125 50.273438 L 248.765625 56.039062 L 256.019531 62.863281 L 262.789062 69.707031 L 270.128906 77.578125 L 277.332031 85.679688 L 284.050781 93.507812 L 291.335938 102.210938 L 291.441406 102.339844 L 291.550781 102.46875 L 291.761719 102.726562 L 292.1875 103.238281 L 293.039062 104.265625 L 294.738281 106.328125 L 294.949219 106.585938 L 295.164062 106.84375 L 295.589844 107.359375 L 296.4375 108.394531 L 298.140625 110.464844 L 298.242188 110.589844 L 298.347656 110.71875 L 298.554688 110.972656 L 298.972656 111.480469 L 299.804688 112.496094 L 299.910156 112.625 L 300.015625 112.75 L 300.222656 113.003906 L 300.640625 113.515625 L 301.472656 114.53125 L 301.578125 114.660156 L 301.679688 114.785156 L 301.890625 115.039062 L 301.992188 115.167969 L 302.097656 115.296875 L 302.304688 115.550781 L 302.410156 115.675781 L 302.515625 115.804688 L 302.617188 115.929688 L 302.722656 116.058594 L 302.828125 116.070312 L 302.929688 115.941406 L 303.035156 115.816406 L 303.140625 115.6875 L 303.242188 115.5625 L 303.347656 115.433594 L 303.554688 115.179688 L 303.972656 114.671875 L 304.804688 113.652344 L 305.03125 113.378906 L 305.257812 113.101562 L 305.710938 112.550781 L 306.617188 111.445312 L 308.425781 109.242188 L 312.042969 104.847656 L 318.792969 96.734375 L 326.109375 88.125 L 332.945312 80.335938 L 339.644531 73.007812 L 346.910156 65.472656 L 353.691406 58.886719 L 361.042969 52.316406 L 368.257812 46.492188 L 374.988281 41.671875 L 375.101562 41.597656 L 375.214844 41.519531 L 375.445312 41.367188 L 375.902344 41.066406 L 376.8125 40.472656 L 378.636719 39.320312 L 382.289062 37.164062 L 382.394531 37.105469 L 382.5 37.042969 L 382.714844 36.925781 L 383.140625 36.6875 L 383.992188 36.222656 L 385.695312 35.328125 L 389.101562 33.667969 L 389.207031 33.617188 L 389.308594 33.570312 L 389.519531 33.476562 L 389.9375 33.289062 L 390.769531 32.917969 L 392.441406 32.214844 L 392.546875 32.171875 L 392.648438 32.128906 L 392.859375 32.042969 L 393.277344 31.878906 L 394.109375 31.554688 L 395.78125 30.9375 L 395.894531 30.898438 L 396.007812 30.855469 L 396.6875 30.621094 L 397.59375 30.320312 L 399.40625 29.753906 L 399.519531 29.71875 L 399.632812 29.6875 L 399.859375 29.621094 L 400.308594 29.492188 L 401.214844 29.242188 L 403.027344 28.785156 L 403.132812 28.757812 L 403.238281 28.734375 L 403.449219 28.683594 L 403.875 28.589844 L 404.71875 28.40625 L 404.929688 28.359375 L 405.140625 28.316406 L 405.5625 28.234375 L 406.410156 28.074219 L 406.832031 27.996094 L 407.253906 27.925781 L 408.101562 27.789062 L 408.207031 27.773438 L 408.3125 27.753906 L 408.523438 27.722656 L 408.945312 27.664062 L 409.789062 27.550781 L 409.910156 27.535156 L 410.027344 27.523438 L 410.261719 27.492188 L 410.734375 27.4375 L 410.96875 27.414062 L 411.207031 27.390625 L 411.679688 27.34375 L 411.914062 27.320312 L 412.148438 27.300781 L 412.621094 27.261719 L 412.738281 27.25 L 412.859375 27.242188 L 413.09375 27.226562 L 413.566406 27.195312 L 413.800781 27.179688 L 414.039062 27.164062 L 414.15625 27.160156 L 414.273438 27.152344 L 414.507812 27.140625 L 414.628906 27.136719 L 414.746094 27.128906 L 415.214844 27.113281 L 415.453125 27.105469 L 415.804688 27.09375 L 415.925781 27.089844 L 416.042969 27.089844 L 416.277344 27.082031 L 416.394531 27.082031 L 416.515625 27.078125 L 416.75 27.078125 L 416.867188 27.074219 L 417.339844 27.074219 " transform="matrix(1,0,0,1,-66,-5)"/>
<path style="fill:none;stroke-width:1.6;stroke-linecap:square;stroke-linejoin:miter;stroke:rgb(36.84082%,50.67749%,70.979309%);stroke-opacity:1;stroke-miterlimit:3.25;" d="M 73.660156 116.128906 L 74.082031 116.644531 L 74.503906 117.15625 L 75.347656 118.1875 L 77.03125 120.246094 L 80.40625 124.355469 L 87.71875 133.1875 L 94.546875 141.285156 L 101.242188 149.011719 L 108.503906 157.074219 L 115.28125 164.238281 L 122.628906 171.527344 L 129.839844 178.140625 L 136.566406 183.765625 L 143.859375 189.210938 L 150.667969 193.636719 L 150.878906 193.761719 L 151.085938 193.886719 L 151.503906 194.132812 L 152.335938 194.617188 L 154.007812 195.5625 L 157.34375 197.320312 L 157.457031 197.375 L 157.570312 197.433594 L 157.796875 197.546875 L 159.15625 198.203125 L 160.964844 199.035156 L 161.191406 199.136719 L 161.417969 199.234375 L 161.871094 199.433594 L 162.777344 199.816406 L 164.585938 200.546875 L 164.691406 200.585938 L 164.796875 200.628906 L 165.007812 200.710938 L 165.429688 200.871094 L 166.277344 201.179688 L 167.964844 201.769531 L 168.386719 201.910156 L 168.808594 202.046875 L 169.65625 202.3125 L 171.34375 202.808594 L 171.457031 202.839844 L 171.574219 202.871094 L 171.800781 202.933594 L 172.261719 203.058594 L 173.175781 203.292969 L 173.289062 203.324219 L 173.40625 203.351562 L 173.632812 203.40625 L 174.089844 203.515625 L 175.007812 203.722656 L 175.121094 203.75 L 175.234375 203.773438 L 175.464844 203.824219 L 175.921875 203.917969 L 176.839844 204.101562 L 176.953125 204.121094 L 177.066406 204.144531 L 177.296875 204.183594 L 177.753906 204.265625 L 178.667969 204.417969 L 178.78125 204.4375 L 178.894531 204.453125 L 179.121094 204.488281 L 179.570312 204.554688 L 179.679688 204.574219 L 180.019531 204.621094 L 180.46875 204.679688 L 180.582031 204.695312 L 180.691406 204.707031 L 180.917969 204.734375 L 181.367188 204.789062 L 182.265625 204.886719 L 182.378906 204.894531 L 182.492188 204.90625 L 182.714844 204.929688 L 183.164062 204.96875 L 183.277344 204.976562 L 183.390625 204.988281 L 183.613281 205.003906 L 184.0625 205.039062 L 184.175781 205.046875 L 184.289062 205.050781 L 184.511719 205.066406 L 184.738281 205.082031 L 184.960938 205.09375 L 185.074219 205.097656 L 185.1875 205.105469 L 185.410156 205.117188 L 185.636719 205.125 L 185.863281 205.136719 L 185.964844 205.140625 L 186.28125 205.152344 L 186.386719 205.152344 L 186.488281 205.15625 L 186.699219 205.164062 L 186.804688 205.164062 L 186.910156 205.167969 L 187.015625 205.167969 L 187.117188 205.171875 L 187.222656 205.171875 L 187.328125 205.175781 L 187.433594 205.175781 L 187.539062 205.179688 L 187.957031 205.179688 L 188.0625 205.183594 L 188.375 205.183594 L 188.480469 205.179688 L 188.902344 205.179688 L 189.003906 205.175781 L 189.109375 205.175781 L 189.214844 205.171875 L 189.320312 205.171875 L 189.425781 205.167969 L 189.527344 205.167969 L 189.632812 205.164062 L 189.738281 205.164062 L 190.054688 205.152344 L 190.15625 205.152344 L 190.683594 205.132812 L 190.890625 205.121094 L 191.101562 205.113281 L 191.3125 205.101562 L 191.730469 205.078125 L 191.835938 205.074219 L 191.941406 205.066406 L 192.148438 205.054688 L 192.566406 205.023438 L 192.683594 205.015625 L 192.796875 205.007812 L 193.476562 204.949219 L 193.589844 204.941406 L 193.703125 204.929688 L 193.933594 204.910156 L 194.839844 204.816406 L 195.296875 204.761719 L 196.207031 204.648438 L 196.660156 204.585938 L 197.113281 204.519531 L 198.023438 204.378906 L 198.25 204.339844 L 198.480469 204.300781 L 198.933594 204.222656 L 199.84375 204.054688 L 199.949219 204.03125 L 200.054688 204.011719 L 200.265625 203.96875 L 200.691406 203.882812 L 201.539062 203.699219 L 203.238281 203.300781 L 203.660156 203.191406 L 204.085938 203.082031 L 204.933594 202.851562 L 206.632812 202.359375 L 206.746094 202.324219 L 206.863281 202.289062 L 207.09375 202.21875 L 207.550781 202.070312 L 208.472656 201.769531 L 210.3125 201.128906 L 210.539062 201.042969 L 211.230469 200.785156 L 212.148438 200.429688 L 213.988281 199.679688 L 214.214844 199.585938 L 214.441406 199.488281 L 214.890625 199.292969 L 215.796875 198.890625 L 217.601562 198.050781 L 221.210938 196.222656 L 221.316406 196.167969 L 221.421875 196.109375 L 222.054688 195.769531 L 222.898438 195.304688 L 224.582031 194.339844 L 227.949219 192.289062 L 235.257812 187.292969 L 242.078125 181.984375 L 248.765625 176.21875 L 256.019531 169.390625 L 262.789062 162.546875 L 270.128906 154.679688 L 277.332031 146.574219 L 284.050781 138.746094 L 291.335938 130.042969 L 291.441406 129.914062 L 291.550781 129.785156 L 291.761719 129.53125 L 292.1875 129.015625 L 293.039062 127.988281 L 294.738281 125.929688 L 294.949219 125.671875 L 295.164062 125.410156 L 295.589844 124.894531 L 296.4375 123.863281 L 298.140625 121.792969 L 298.242188 121.664062 L 298.347656 121.539062 L 298.554688 121.285156 L 298.972656 120.777344 L 299.804688 119.757812 L 299.910156 119.632812 L 300.015625 119.503906 L 300.222656 119.25 L 300.640625 118.742188 L 301.472656 117.722656 L 301.578125 117.597656 L 301.679688 117.46875 L 301.890625 117.214844 L 301.992188 117.089844 L 302.097656 116.960938 L 302.304688 116.707031 L 302.410156 116.578125 L 302.515625 116.453125 L 302.617188 116.324219 L 302.722656 116.199219 L 302.828125 116.1875 L 302.929688 116.3125 L 303.035156 116.441406 L 303.140625 116.566406 L 303.242188 116.695312 L 303.347656 116.820312 L 303.554688 117.074219 L 303.972656 117.585938 L 304.804688 118.601562 L 304.917969 118.742188 L 305.03125 118.878906 L 305.257812 119.15625 L 306.617188 120.808594 L 308.425781 123.011719 L 312.042969 127.40625 L 318.792969 135.523438 L 326.109375 144.132812 L 332.945312 151.917969 L 339.644531 159.25 L 346.910156 166.785156 L 353.691406 173.367188 L 361.042969 179.941406 L 368.257812 185.765625 L 374.988281 190.585938 L 375.101562 190.660156 L 375.214844 190.738281 L 375.445312 190.886719 L 375.902344 191.1875 L 376.8125 191.78125 L 378.636719 192.933594 L 382.289062 195.09375 L 382.5 195.210938 L 382.714844 195.332031 L 383.140625 195.566406 L 383.992188 196.03125 L 385.695312 196.929688 L 389.101562 198.589844 L 389.207031 198.636719 L 389.308594 198.683594 L 389.519531 198.78125 L 389.9375 198.96875 L 390.769531 199.335938 L 392.441406 200.042969 L 392.546875 200.085938 L 392.648438 200.128906 L 392.859375 200.210938 L 393.277344 200.378906 L 394.109375 200.703125 L 395.78125 201.320312 L 396.007812 201.398438 L 396.234375 201.480469 L 396.6875 201.636719 L 397.59375 201.9375 L 399.40625 202.503906 L 399.519531 202.535156 L 399.632812 202.570312 L 399.859375 202.636719 L 400.308594 202.765625 L 401.214844 203.015625 L 403.027344 203.472656 L 403.132812 203.496094 L 403.238281 203.523438 L 403.449219 203.570312 L 403.875 203.667969 L 404.71875 203.851562 L 404.824219 203.875 L 404.929688 203.894531 L 405.5625 204.023438 L 406.410156 204.183594 L 406.621094 204.222656 L 406.832031 204.257812 L 407.253906 204.332031 L 408.101562 204.46875 L 408.945312 204.59375 L 409.789062 204.707031 L 409.910156 204.71875 L 410.027344 204.734375 L 410.261719 204.761719 L 410.734375 204.816406 L 410.851562 204.828125 L 410.96875 204.84375 L 411.207031 204.867188 L 411.679688 204.914062 L 411.914062 204.9375 L 412.148438 204.957031 L 412.621094 204.996094 L 412.738281 205.003906 L 412.859375 205.015625 L 413.09375 205.03125 L 413.566406 205.0625 L 413.800781 205.078125 L 414.039062 205.089844 L 414.15625 205.097656 L 414.273438 205.101562 L 414.507812 205.113281 L 414.628906 205.121094 L 414.746094 205.125 L 414.980469 205.136719 L 415.214844 205.144531 L 415.453125 205.152344 L 415.804688 205.164062 L 415.925781 205.164062 L 416.160156 205.171875 L 416.277344 205.171875 L 416.394531 205.175781 L 416.515625 205.175781 L 416.632812 205.179688 L 417.105469 205.179688 L 417.222656 205.183594 L 417.339844 205.183594 " transform="matrix(1,0,0,1,-66,-5)"/>
<path style="fill:none;stroke-width:1.6;stroke-linecap:square;stroke-linejoin:miter;stroke:rgb(36.84082%,50.67749%,70.979309%);stroke-opacity:1;stroke-miterlimit:3.25;" d="M 73.660156 71.601562 L 73.871094 71.601562 L 73.976562 71.597656 L 74.1875 71.597656 L 74.292969 71.59375 L 74.398438 71.59375 L 75.136719 71.566406 L 75.347656 71.554688 L 75.558594 71.539062 L 75.769531 71.527344 L 76.191406 71.496094 L 76.296875 71.484375 L 76.402344 71.476562 L 76.613281 71.457031 L 77.03125 71.410156 L 77.242188 71.386719 L 77.875 71.304688 L 78.296875 71.242188 L 78.71875 71.175781 L 78.824219 71.15625 L 78.929688 71.140625 L 79.5625 71.023438 L 80.40625 70.847656 L 80.519531 70.824219 L 80.632812 70.796875 L 80.863281 70.742188 L 81.320312 70.632812 L 82.234375 70.390625 L 82.460938 70.328125 L 82.691406 70.261719 L 83.148438 70.125 L 84.0625 69.835938 L 84.175781 69.796875 L 84.292969 69.761719 L 84.519531 69.683594 L 84.976562 69.523438 L 85.890625 69.183594 L 87.71875 68.445312 L 87.824219 68.398438 L 87.933594 68.351562 L 88.144531 68.257812 L 88.574219 68.070312 L 89.425781 67.675781 L 91.132812 66.839844 L 94.546875 64.984375 L 94.652344 64.925781 L 94.757812 64.863281 L 94.964844 64.742188 L 95.386719 64.496094 L 96.222656 63.996094 L 97.894531 62.960938 L 101.242188 60.773438 L 108.503906 55.636719 L 115.28125 50.574219 L 122.628906 45.050781 L 129.839844 39.785156 L 136.566406 35.152344 L 143.859375 30.550781 L 150.667969 26.742188 L 150.878906 26.632812 L 151.085938 26.523438 L 151.503906 26.308594 L 152.335938 25.886719 L 154.007812 25.066406 L 157.34375 23.527344 L 157.457031 23.480469 L 157.570312 23.429688 L 158.25 23.136719 L 159.15625 22.753906 L 160.964844 22.019531 L 161.191406 21.933594 L 161.417969 21.84375 L 161.871094 21.671875 L 162.777344 21.332031 L 164.585938 20.6875 L 164.691406 20.648438 L 165.429688 20.402344 L 166.277344 20.125 L 167.964844 19.601562 L 168.175781 19.539062 L 168.386719 19.480469 L 168.808594 19.355469 L 169.65625 19.121094 L 171.34375 18.679688 L 171.457031 18.652344 L 171.574219 18.625 L 171.800781 18.566406 L 172.261719 18.457031 L 173.175781 18.246094 L 173.289062 18.222656 L 173.40625 18.195312 L 173.632812 18.148438 L 174.089844 18.050781 L 175.007812 17.863281 L 175.121094 17.84375 L 175.234375 17.820312 L 175.464844 17.777344 L 175.921875 17.691406 L 176.839844 17.53125 L 177.066406 17.492188 L 177.296875 17.453125 L 177.753906 17.378906 L 178.667969 17.246094 L 178.78125 17.226562 L 178.894531 17.210938 L 179.121094 17.183594 L 179.570312 17.121094 L 179.679688 17.109375 L 179.792969 17.09375 L 180.019531 17.066406 L 180.46875 17.011719 L 180.582031 17 L 180.691406 16.988281 L 180.917969 16.960938 L 181.367188 16.914062 L 182.265625 16.828125 L 182.378906 16.816406 L 182.492188 16.808594 L 182.714844 16.789062 L 183.164062 16.753906 L 183.390625 16.738281 L 183.613281 16.722656 L 184.0625 16.691406 L 184.175781 16.683594 L 184.289062 16.679688 L 184.511719 16.664062 L 184.625 16.660156 L 184.738281 16.652344 L 184.960938 16.640625 L 185.1875 16.632812 L 185.410156 16.621094 L 185.863281 16.605469 L 185.964844 16.601562 L 186.28125 16.589844 L 186.386719 16.589844 L 186.488281 16.585938 L 186.699219 16.582031 L 186.910156 16.574219 L 187.015625 16.574219 L 187.117188 16.570312 L 187.328125 16.570312 L 187.433594 16.566406 L 187.746094 16.566406 L 187.851562 16.5625 L 188.585938 16.5625 L 188.691406 16.566406 L 189.003906 16.566406 L 189.109375 16.570312 L 189.320312 16.570312 L 189.425781 16.574219 L 189.527344 16.574219 L 189.738281 16.582031 L 189.84375 16.582031 L 190.054688 16.589844 L 190.15625 16.589844 L 190.683594 16.609375 L 190.890625 16.617188 L 191.3125 16.632812 L 191.730469 16.65625 L 191.835938 16.660156 L 191.941406 16.667969 L 192.148438 16.679688 L 192.566406 16.703125 L 192.683594 16.710938 L 193.023438 16.734375 L 193.476562 16.769531 L 193.589844 16.777344 L 193.703125 16.789062 L 193.933594 16.808594 L 194.386719 16.847656 L 194.5 16.859375 L 194.613281 16.867188 L 194.839844 16.890625 L 195.296875 16.9375 L 196.207031 17.039062 L 196.320312 17.054688 L 196.433594 17.066406 L 196.660156 17.09375 L 197.113281 17.152344 L 198.023438 17.28125 L 198.25 17.3125 L 198.480469 17.347656 L 198.933594 17.417969 L 199.84375 17.570312 L 200.054688 17.609375 L 200.265625 17.644531 L 200.691406 17.722656 L 201.539062 17.886719 L 203.238281 18.242188 L 203.660156 18.335938 L 204.085938 18.4375 L 204.933594 18.640625 L 206.632812 19.078125 L 206.746094 19.109375 L 206.863281 19.140625 L 207.09375 19.207031 L 207.550781 19.335938 L 208.472656 19.601562 L 210.3125 20.171875 L 210.425781 20.210938 L 210.539062 20.246094 L 210.769531 20.320312 L 211.230469 20.472656 L 212.148438 20.789062 L 213.988281 21.453125 L 214.101562 21.492188 L 214.441406 21.621094 L 214.890625 21.792969 L 215.796875 22.148438 L 217.601562 22.886719 L 221.210938 24.488281 L 221.316406 24.535156 L 221.421875 24.585938 L 221.632812 24.683594 L 222.054688 24.886719 L 222.898438 25.289062 L 224.582031 26.128906 L 227.949219 27.90625 L 235.257812 32.179688 L 242.078125 36.632812 L 248.765625 41.339844 L 256.019531 46.703125 L 262.789062 51.804688 L 270.128906 57.230469 L 277.332031 62.1875 L 277.542969 62.320312 L 277.75 62.457031 L 278.171875 62.726562 L 279.011719 63.253906 L 280.691406 64.28125 L 280.902344 64.40625 L 281.109375 64.53125 L 281.53125 64.777344 L 282.371094 65.257812 L 284.050781 66.183594 L 284.164062 66.246094 L 284.277344 66.304688 L 284.507812 66.425781 L 284.960938 66.664062 L 285.871094 67.125 L 287.695312 67.992188 L 288.148438 68.195312 L 288.605469 68.394531 L 289.515625 68.777344 L 291.335938 69.476562 L 291.441406 69.515625 L 291.550781 69.554688 L 291.761719 69.628906 L 292.1875 69.773438 L 293.039062 70.046875 L 293.144531 70.082031 L 293.25 70.113281 L 293.460938 70.179688 L 293.886719 70.300781 L 294.738281 70.535156 L 294.949219 70.589844 L 295.164062 70.644531 L 295.589844 70.746094 L 295.695312 70.769531 L 295.800781 70.796875 L 296.011719 70.84375 L 296.4375 70.933594 L 296.542969 70.957031 L 296.652344 70.976562 L 296.863281 71.019531 L 297.289062 71.101562 L 297.394531 71.117188 L 297.5 71.136719 L 297.714844 71.175781 L 298.140625 71.242188 L 298.242188 71.257812 L 298.347656 71.273438 L 298.554688 71.304688 L 298.972656 71.359375 L 299.078125 71.371094 L 299.179688 71.386719 L 299.390625 71.410156 L 299.804688 71.453125 L 299.910156 71.464844 L 300.015625 71.472656 L 300.222656 71.492188 L 300.328125 71.5 L 300.429688 71.507812 L 300.640625 71.523438 L 300.742188 71.53125 L 300.953125 71.546875 L 301.054688 71.550781 L 301.160156 71.558594 L 301.265625 71.5625 L 301.472656 71.574219 L 301.578125 71.578125 L 301.679688 71.582031 L 301.785156 71.585938 L 301.890625 71.585938 L 301.992188 71.589844 L 302.097656 71.59375 L 302.203125 71.59375 L 302.304688 71.597656 L 302.410156 71.597656 L 302.515625 71.601562 L 303.035156 71.601562 L 303.140625 71.597656 L 303.347656 71.597656 L 303.453125 71.59375 L 303.554688 71.589844 L 303.660156 71.589844 L 303.765625 71.585938 L 303.867188 71.582031 L 304.078125 71.574219 L 304.179688 71.566406 L 304.390625 71.558594 L 304.492188 71.550781 L 304.597656 71.546875 L 304.804688 71.53125 L 305.257812 71.5 L 305.371094 71.488281 L 305.484375 71.480469 L 306.164062 71.410156 L 306.617188 71.355469 L 306.726562 71.339844 L 307.066406 71.292969 L 307.519531 71.226562 L 307.632812 71.210938 L 307.972656 71.152344 L 308.425781 71.070312 L 308.539062 71.050781 L 308.648438 71.027344 L 308.875 70.984375 L 309.328125 70.890625 L 310.234375 70.683594 L 310.460938 70.628906 L 310.683594 70.570312 L 311.136719 70.453125 L 312.042969 70.195312 L 312.253906 70.132812 L 312.886719 69.933594 L 313.730469 69.652344 L 315.523438 68.988281 L 316.261719 68.6875 L 317.105469 68.328125 L 318.792969 67.558594 L 319.019531 67.449219 L 319.25 67.339844 L 319.707031 67.117188 L 320.621094 66.652344 L 322.453125 65.671875 L 326.109375 63.527344 L 326.21875 63.460938 L 326.324219 63.394531 L 326.539062 63.261719 L 326.964844 62.992188 L 327.820312 62.449219 L 329.527344 61.335938 L 332.945312 59 L 339.644531 54.144531 L 346.910156 48.683594 L 353.691406 43.609375 L 361.042969 38.316406 L 368.257812 33.472656 L 374.988281 29.375 L 382.289062 25.476562 L 382.394531 25.421875 L 382.5 25.371094 L 382.714844 25.265625 L 383.140625 25.058594 L 383.992188 24.65625 L 385.695312 23.871094 L 389.101562 22.414062 L 389.207031 22.371094 L 389.308594 22.328125 L 389.519531 22.246094 L 389.9375 22.078125 L 390.769531 21.753906 L 392.441406 21.132812 L 392.546875 21.09375 L 392.648438 21.058594 L 392.859375 20.984375 L 393.277344 20.835938 L 394.109375 20.546875 L 395.78125 20.003906 L 395.894531 19.964844 L 396.234375 19.859375 L 396.6875 19.722656 L 397.59375 19.453125 L 399.632812 18.890625 L 399.859375 18.832031 L 400.308594 18.71875 L 401.214844 18.496094 L 403.027344 18.089844 L 403.238281 18.042969 L 403.449219 18 L 403.875 17.914062 L 404.71875 17.75 L 405.140625 17.671875 L 405.5625 17.597656 L 406.410156 17.453125 L 406.621094 17.421875 L 406.832031 17.386719 L 407.253906 17.324219 L 408.101562 17.199219 L 408.207031 17.1875 L 408.3125 17.171875 L 408.945312 17.089844 L 409.789062 16.988281 L 409.910156 16.976562 L 410.027344 16.960938 L 410.261719 16.9375 L 410.734375 16.890625 L 410.96875 16.867188 L 411.207031 16.84375 L 411.679688 16.800781 L 411.796875 16.792969 L 411.914062 16.78125 L 412.148438 16.765625 L 412.621094 16.730469 L 412.738281 16.722656 L 412.859375 16.714844 L 413.09375 16.699219 L 413.566406 16.667969 L 413.683594 16.664062 L 413.800781 16.65625 L 414.039062 16.644531 L 414.15625 16.640625 L 414.273438 16.632812 L 414.507812 16.621094 L 414.628906 16.617188 L 415.214844 16.597656 L 415.453125 16.589844 L 415.6875 16.582031 L 415.804688 16.582031 L 415.925781 16.578125 L 416.042969 16.574219 L 416.160156 16.574219 L 416.277344 16.570312 L 416.394531 16.570312 L 416.515625 16.566406 L 416.867188 16.566406 L 416.984375 16.5625 L 417.339844 16.5625 " transform="matrix(1,0,0,1,-66,-5)"/>
<path style="fill:none;stroke-width:1.6;stroke-linecap:square;stroke-linejoin:miter;stroke:rgb(36.84082%,50.67749%,70.979309%);stroke-opacity:1;stroke-miterlimit:3.25;" d="M 73.660156 160.65625 L 74.082031 160.65625 L 74.1875 160.660156 L 74.292969 160.660156 L 74.609375 160.671875 L 74.714844 160.671875 L 74.820312 160.675781 L 74.925781 160.683594 L 75.136719 160.691406 L 75.347656 160.703125 L 75.453125 160.707031 L 76.296875 160.769531 L 76.402344 160.78125 L 76.613281 160.800781 L 77.03125 160.84375 L 77.136719 160.855469 L 77.242188 160.871094 L 77.453125 160.894531 L 77.875 160.953125 L 77.980469 160.964844 L 78.296875 161.011719 L 78.71875 161.082031 L 78.824219 161.097656 L 78.929688 161.117188 L 79.140625 161.152344 L 79.5625 161.234375 L 80.40625 161.410156 L 80.519531 161.433594 L 80.632812 161.460938 L 80.863281 161.511719 L 81.320312 161.625 L 82.234375 161.863281 L 82.347656 161.894531 L 82.460938 161.929688 L 82.691406 161.992188 L 83.148438 162.128906 L 84.0625 162.417969 L 84.175781 162.457031 L 84.292969 162.496094 L 84.519531 162.574219 L 84.976562 162.734375 L 85.890625 163.070312 L 87.71875 163.8125 L 87.824219 163.859375 L 87.933594 163.902344 L 88.144531 163.996094 L 88.574219 164.1875 L 89.425781 164.578125 L 91.132812 165.414062 L 94.546875 167.269531 L 94.652344 167.332031 L 94.757812 167.390625 L 94.964844 167.515625 L 95.386719 167.757812 L 96.222656 168.261719 L 97.894531 169.292969 L 101.242188 171.480469 L 108.503906 176.621094 L 115.28125 181.679688 L 122.628906 187.203125 L 129.839844 192.472656 L 136.566406 197.105469 L 143.859375 201.707031 L 150.667969 205.515625 L 150.878906 205.625 L 151.085938 205.730469 L 151.503906 205.945312 L 152.335938 206.371094 L 154.007812 207.191406 L 157.34375 208.726562 L 157.570312 208.828125 L 158.25 209.121094 L 159.15625 209.503906 L 160.964844 210.234375 L 161.078125 210.28125 L 161.191406 210.324219 L 161.417969 210.414062 L 161.871094 210.585938 L 162.777344 210.925781 L 164.585938 211.570312 L 164.796875 211.640625 L 165.007812 211.714844 L 165.429688 211.855469 L 166.277344 212.132812 L 167.964844 212.652344 L 168.386719 212.777344 L 168.808594 212.898438 L 169.65625 213.136719 L 171.34375 213.578125 L 171.457031 213.605469 L 171.574219 213.632812 L 171.800781 213.6875 L 172.261719 213.796875 L 173.175781 214.007812 L 173.289062 214.035156 L 173.40625 214.058594 L 173.632812 214.109375 L 174.089844 214.207031 L 175.007812 214.390625 L 175.234375 214.4375 L 175.464844 214.480469 L 175.921875 214.566406 L 176.839844 214.726562 L 177.066406 214.765625 L 177.296875 214.800781 L 177.753906 214.875 L 178.667969 215.011719 L 179.121094 215.074219 L 179.570312 215.132812 L 179.679688 215.148438 L 179.792969 215.164062 L 180.019531 215.191406 L 180.46875 215.242188 L 180.582031 215.257812 L 180.691406 215.269531 L 180.917969 215.292969 L 181.367188 215.34375 L 182.265625 215.429688 L 182.378906 215.4375 L 182.492188 215.449219 L 182.714844 215.464844 L 183.164062 215.503906 L 183.390625 215.519531 L 183.613281 215.535156 L 184.0625 215.5625 L 184.289062 215.578125 L 184.511719 215.589844 L 184.625 215.597656 L 184.738281 215.601562 L 184.960938 215.613281 L 185.074219 215.621094 L 185.1875 215.625 L 185.410156 215.632812 L 185.523438 215.640625 L 185.863281 215.652344 L 185.964844 215.65625 L 186.070312 215.660156 L 186.28125 215.664062 L 186.386719 215.667969 L 186.488281 215.671875 L 186.699219 215.675781 L 186.804688 215.679688 L 186.910156 215.679688 L 187.015625 215.683594 L 187.117188 215.683594 L 187.222656 215.6875 L 187.433594 215.6875 L 187.539062 215.691406 L 188.902344 215.691406 L 189.003906 215.6875 L 189.214844 215.6875 L 189.320312 215.683594 L 189.425781 215.683594 L 189.527344 215.679688 L 189.632812 215.679688 L 189.84375 215.671875 L 190.054688 215.667969 L 190.15625 215.664062 L 190.261719 215.664062 L 190.683594 215.648438 L 190.890625 215.640625 L 191.101562 215.632812 L 191.3125 215.621094 L 191.730469 215.601562 L 191.835938 215.59375 L 191.941406 215.589844 L 192.148438 215.578125 L 192.566406 215.550781 L 192.683594 215.542969 L 193.476562 215.488281 L 193.589844 215.476562 L 193.703125 215.46875 L 193.933594 215.449219 L 194.386719 215.410156 L 194.613281 215.386719 L 194.839844 215.367188 L 195.296875 215.320312 L 196.207031 215.214844 L 196.320312 215.203125 L 196.433594 215.1875 L 196.660156 215.160156 L 197.113281 215.101562 L 198.023438 214.976562 L 198.136719 214.957031 L 198.25 214.941406 L 198.480469 214.90625 L 198.933594 214.835938 L 199.84375 214.683594 L 199.949219 214.667969 L 200.265625 214.609375 L 200.691406 214.535156 L 201.539062 214.371094 L 203.238281 214.015625 L 203.449219 213.96875 L 203.660156 213.917969 L 204.085938 213.820312 L 204.933594 213.617188 L 206.632812 213.175781 L 206.746094 213.144531 L 206.863281 213.113281 L 207.09375 213.050781 L 207.550781 212.921875 L 208.472656 212.652344 L 210.3125 212.085938 L 210.425781 212.046875 L 210.539062 212.011719 L 210.769531 211.933594 L 211.230469 211.78125 L 212.148438 211.46875 L 213.988281 210.804688 L 214.214844 210.71875 L 214.441406 210.636719 L 214.890625 210.460938 L 215.796875 210.109375 L 217.601562 209.371094 L 221.210938 207.769531 L 221.316406 207.71875 L 221.421875 207.671875 L 221.632812 207.570312 L 222.054688 207.371094 L 222.898438 206.964844 L 224.582031 206.128906 L 227.949219 204.351562 L 235.257812 200.074219 L 242.078125 195.625 L 248.765625 190.917969 L 256.019531 185.550781 L 262.789062 180.449219 L 270.128906 175.023438 L 277.332031 170.070312 L 277.4375 170 L 277.542969 169.933594 L 277.75 169.796875 L 278.171875 169.53125 L 279.011719 169 L 280.691406 167.976562 L 280.902344 167.851562 L 281.109375 167.726562 L 281.53125 167.480469 L 282.371094 166.996094 L 284.050781 166.070312 L 284.164062 166.011719 L 284.277344 165.949219 L 284.507812 165.828125 L 284.960938 165.59375 L 285.871094 165.132812 L 287.695312 164.265625 L 288.148438 164.0625 L 288.605469 163.863281 L 289.515625 163.480469 L 291.335938 162.777344 L 291.441406 162.742188 L 291.550781 162.703125 L 291.761719 162.628906 L 292.1875 162.484375 L 293.039062 162.207031 L 293.144531 162.175781 L 293.25 162.140625 L 293.460938 162.078125 L 293.886719 161.953125 L 294.738281 161.722656 L 294.84375 161.691406 L 294.949219 161.664062 L 295.164062 161.613281 L 295.589844 161.511719 L 295.695312 161.484375 L 296.011719 161.414062 L 296.4375 161.320312 L 296.542969 161.300781 L 296.652344 161.277344 L 296.863281 161.234375 L 297.289062 161.15625 L 297.5 161.117188 L 297.714844 161.082031 L 298.140625 161.015625 L 298.242188 160.996094 L 298.347656 160.980469 L 298.554688 160.953125 L 298.972656 160.898438 L 299.078125 160.882812 L 299.179688 160.871094 L 299.390625 160.847656 L 299.804688 160.804688 L 300.015625 160.78125 L 300.222656 160.765625 L 300.328125 160.753906 L 300.429688 160.746094 L 300.640625 160.730469 L 300.742188 160.722656 L 300.847656 160.71875 L 300.953125 160.710938 L 301.054688 160.703125 L 301.265625 160.695312 L 301.472656 160.683594 L 301.578125 160.679688 L 301.679688 160.675781 L 301.890625 160.667969 L 301.992188 160.664062 L 302.097656 160.664062 L 302.203125 160.660156 L 302.304688 160.660156 L 302.410156 160.65625 L 303.140625 160.65625 L 303.242188 160.660156 L 303.347656 160.660156 L 303.453125 160.664062 L 303.554688 160.664062 L 303.765625 160.671875 L 303.867188 160.675781 L 304.078125 160.683594 L 304.179688 160.6875 L 304.285156 160.691406 L 304.390625 160.699219 L 304.492188 160.703125 L 304.597656 160.710938 L 304.804688 160.722656 L 305.03125 160.738281 L 305.257812 160.757812 L 305.371094 160.765625 L 305.484375 160.777344 L 305.710938 160.796875 L 305.9375 160.820312 L 306.617188 160.902344 L 306.726562 160.914062 L 307.066406 160.960938 L 307.519531 161.027344 L 307.746094 161.066406 L 307.972656 161.101562 L 308.425781 161.183594 L 308.539062 161.207031 L 308.648438 161.226562 L 309.328125 161.367188 L 310.234375 161.574219 L 310.460938 161.628906 L 310.683594 161.683594 L 311.136719 161.804688 L 312.042969 162.0625 L 312.464844 162.1875 L 312.886719 162.324219 L 313.730469 162.605469 L 315.417969 163.226562 L 315.628906 163.3125 L 315.839844 163.394531 L 316.261719 163.566406 L 317.105469 163.925781 L 318.792969 164.695312 L 319.019531 164.804688 L 319.25 164.917969 L 319.707031 165.140625 L 320.621094 165.605469 L 322.453125 166.582031 L 326.109375 168.730469 L 326.21875 168.796875 L 326.324219 168.863281 L 326.539062 168.996094 L 326.964844 169.261719 L 327.820312 169.804688 L 329.527344 170.921875 L 332.945312 173.257812 L 339.644531 178.113281 L 346.910156 183.574219 L 353.691406 188.648438 L 361.042969 193.941406 L 368.257812 198.785156 L 374.988281 202.882812 L 382.289062 206.78125 L 382.394531 206.832031 L 382.5 206.886719 L 382.714844 206.988281 L 383.140625 207.195312 L 383.992188 207.601562 L 385.695312 208.386719 L 389.101562 209.84375 L 389.207031 209.886719 L 389.308594 209.925781 L 389.519531 210.011719 L 389.9375 210.175781 L 390.769531 210.503906 L 392.441406 211.125 L 392.546875 211.160156 L 392.648438 211.199219 L 392.859375 211.273438 L 393.277344 211.421875 L 394.109375 211.707031 L 395.78125 212.253906 L 396.6875 212.535156 L 397.59375 212.800781 L 399.40625 213.304688 L 399.519531 213.335938 L 399.632812 213.363281 L 399.859375 213.421875 L 400.308594 213.539062 L 401.214844 213.757812 L 403.027344 214.167969 L 403.132812 214.191406 L 403.238281 214.210938 L 403.449219 214.257812 L 403.875 214.339844 L 404.71875 214.503906 L 405.5625 214.660156 L 406.410156 214.800781 L 406.515625 214.820312 L 406.832031 214.867188 L 407.253906 214.933594 L 408.101562 215.054688 L 408.3125 215.085938 L 408.945312 215.167969 L 409.789062 215.265625 L 409.910156 215.28125 L 410.027344 215.292969 L 410.261719 215.320312 L 410.734375 215.367188 L 410.96875 215.390625 L 411.207031 215.410156 L 411.679688 215.453125 L 411.796875 215.464844 L 411.914062 215.472656 L 412.148438 215.492188 L 412.621094 215.527344 L 412.738281 215.535156 L 412.859375 215.542969 L 413.09375 215.558594 L 413.566406 215.585938 L 413.800781 215.601562 L 414.039062 215.613281 L 414.273438 215.621094 L 414.507812 215.632812 L 414.628906 215.636719 L 414.746094 215.644531 L 415.214844 215.660156 L 415.453125 215.667969 L 415.570312 215.667969 L 415.804688 215.675781 L 415.925781 215.679688 L 416.042969 215.679688 L 416.160156 215.683594 L 416.277344 215.683594 L 416.394531 215.6875 L 416.515625 215.6875 L 416.632812 215.691406 L 417.222656 215.691406 L 417.339844 215.695312 " transform="matrix(1,0,0,1,-66,-5)"/>
<path style="fill:none;stroke-width:0.2;stroke-linecap:butt;stroke-linejoin:miter;stroke:rgb(39.99939%,39.99939%,39.99939%);stroke-opacity:1;stroke-miterlimit:3.25;" d="M 66.5 116.128906 L 424.5 116.128906 " transform="matrix(1,0,0,1,-66,-5)"/>
<path style="fill:none;stroke-width:0.2;stroke-linecap:butt;stroke-linejoin:miter;stroke:rgb(39.99939%,39.99939%,39.99939%);stroke-opacity:1;stroke-miterlimit:3.25;" d="M 188.21875 226.757812 L 188.21875 5.5 " transform="matrix(1,0,0,1,-66,-5)"/>
</g>
</svg>
